<svg width="24" height="24" viewBox="0 0 24 24" fill="none" xmlns="http://www.w3.org/2000/svg">
<path d="M18.7627 15.8067C18.7628 15.0281 19.0708 14.2815 19.6201 13.7295L20.3301 13.0195C20.8933 12.4506 20.8895 11.5332 20.3223 10.9697L19.6182 10.2656C19.0693 9.71283 18.7618 8.96591 18.7617 8.18752V7.18752C18.7617 6.38704 18.112 5.73733 17.3115 5.73732H16.3086C15.5303 5.73727 14.7827 5.42953 14.2305 4.8799L13.5293 4.17873C13.5266 4.17616 13.5241 4.17255 13.5215 4.16994L13.5205 4.17189C12.9531 3.60768 12.0359 3.60983 11.4707 4.17775L10.7666 4.88283C10.2148 5.42923 9.4689 5.7383 8.68944 5.7383H7.68944C6.8885 5.73909 6.24022 6.38822 6.24022 7.18849C6.24022 7.20128 6.2389 7.21395 6.23827 7.22658V8.18556C6.23819 8.96474 5.92896 9.71151 5.38085 10.2637L4.67967 10.9639L4.68065 10.9649L4.66698 10.9785C4.14149 11.5119 4.11355 12.3491 4.57909 12.9141L4.6787 13.0235L5.38182 13.7276C5.93054 14.2789 6.24011 15.0253 6.24022 15.8047V16.8106C6.24022 17.6112 6.88897 18.2598 7.68944 18.2598H8.68944C9.36995 18.2609 10.0271 18.4966 10.5508 18.9238L10.7666 19.1182L11.4756 19.8272L11.5859 19.9258C12.1572 20.3873 12.9965 20.3508 13.5244 19.8184L14.2285 19.1153C14.7801 18.5662 15.5274 18.2569 16.3066 18.2569H17.3125C18.1115 18.2573 18.7608 17.61 18.7627 16.8106V15.8067ZM20.2617 8.18752C20.2618 8.56918 20.412 8.93548 20.6807 9.20705L21.3789 9.90529C22.5345 11.0531 22.5408 12.9208 21.3935 14.0772L20.6816 14.7891C20.4131 15.0596 20.2628 15.4249 20.2627 15.8067V16.8115C20.26 18.4389 18.9391 19.7578 17.3115 19.7569H16.3066C15.9248 19.7569 15.5582 19.9089 15.2871 20.1787L15.2861 20.1778L14.5869 20.877C13.44 22.0309 11.5745 22.0377 10.4189 20.8926L10.417 20.8897L9.70799 20.1807C9.47142 19.9454 9.16075 19.7998 8.83006 19.7666L8.68651 19.7598H7.68944C6.06051 19.7598 4.74022 18.4396 4.74022 16.8106V15.8047C4.74011 15.4233 4.58831 15.0574 4.31835 14.7861L3.6201 14.0869C2.46601 12.9408 2.45992 11.0762 3.6035 9.92092L3.61717 9.90724L3.61815 9.90529L4.31737 9.2051C4.58681 8.93289 4.73819 8.5665 4.73827 8.18556V7.18849C4.73827 7.16215 4.73952 7.13602 4.74217 7.11037C4.78354 5.51747 6.08625 4.23961 7.68846 4.2383H8.68944C9.071 4.2383 9.4381 4.08671 9.71092 3.81642L10.4062 3.12013C11.5473 1.97261 13.3982 1.95894 14.5556 3.08595C14.5672 3.09614 14.579 3.10731 14.5898 3.11818L15.29 3.81838C15.5604 4.08695 15.9263 4.23727 16.3086 4.23732H17.3115C18.9404 4.23733 20.2617 5.5586 20.2617 7.18752V8.18752Z" fill="#A2B5BE"/>
<path d="M14.0273 8.74219C14.2654 8.74232 14.4895 8.85526 14.6308 9.04688C14.7722 9.23876 14.8138 9.48722 14.7431 9.71484L12.9472 15.502C12.8245 15.8974 12.4042 16.1186 12.0088 15.9961C11.6132 15.8733 11.3919 15.4532 11.5146 15.0576L13.0088 10.2422H10.3779C9.96369 10.2422 9.6279 9.9064 9.6279 9.49219C9.6279 9.07797 9.96369 8.74219 10.3779 8.74219H14.0273Z" fill="#253035"/>
</svg>
