<svg width="24" height="24" viewBox="0 0 24 24" fill="none" xmlns="http://www.w3.org/2000/svg">
<path d="M5.26236 19.6388V17.7052H3.32877C2.91465 17.7052 2.57893 17.3693 2.57877 16.9552C2.57877 16.541 2.91456 16.2052 3.32877 16.2052H5.26236V14.2716C5.26236 13.8574 5.59815 13.5216 6.01236 13.5216C6.42643 13.5218 6.76236 13.8575 6.76236 14.2716V16.2052H8.69596C9.11004 16.2053 9.44596 16.5411 9.44596 16.9552C9.4458 17.3692 9.10995 17.705 8.69596 17.7052H6.76236V19.6388C6.76226 20.0528 6.42637 20.3886 6.01236 20.3888C5.59821 20.3888 5.26247 20.0529 5.26236 19.6388Z" fill="#253035"/>
<path d="M20.25 15.1172V8.53027C20.2499 7.46511 19.9183 6.61752 19.3828 6.04297C18.8527 5.47423 18.0681 5.11329 17.0352 5.11328H6.96484C5.92823 5.11329 5.14413 5.47404 4.61523 6.04199C4.08073 6.61612 3.75005 7.4641 3.75 8.53027V11.8242C3.74988 12.2383 3.41414 12.5742 3 12.5742C2.58586 12.5742 2.25012 12.2383 2.25 11.8242V8.53027C2.25005 7.15472 2.68005 5.91932 3.5166 5.02051C4.3591 4.11555 5.55754 3.61329 6.96484 3.61328H17.0352C18.4395 3.61329 19.6375 4.11521 20.4805 5.01953C21.3179 5.91795 21.7499 7.15365 21.75 8.53027V15.1172C21.75 16.4929 21.3201 17.7291 20.4834 18.6279C19.6409 19.5329 18.4424 20.0351 17.0352 20.0352H11.6221C11.2082 20.0349 10.8723 19.6991 10.8721 19.2852C10.8721 18.8711 11.2081 18.5354 11.6221 18.5352H17.0352C18.0719 18.5351 18.8559 18.1736 19.3848 17.6055C19.9193 17.0313 20.25 16.1834 20.25 15.1172Z" fill="#253035"/>
<path d="M21 8.90762C21.4142 8.90762 21.75 9.24341 21.75 9.65762C21.75 10.0718 21.4142 10.4076 21 10.4076H3C2.58579 10.4076 2.25 10.0718 2.25 9.65762C2.25 9.24341 2.58579 8.90762 3 8.90762H21Z" fill="#253035"/>
</svg>
