<svg width="24" height="24" viewBox="0 0 24 24" fill="none" xmlns="http://www.w3.org/2000/svg">
<path d="M4.21777 15.6133C4.21777 15.1991 4.55356 14.8633 4.96777 14.8633C5.38199 14.8633 5.71777 15.1991 5.71777 15.6133C5.71785 16.797 6.0849 17.7452 6.68555 18.3906C7.28077 19.03 8.16142 19.4326 9.31641 19.4326H16.9844C18.1398 19.4326 19.0207 19.0301 19.6162 18.3906C20.2172 17.7452 20.5839 16.7969 20.584 15.6133V8.38672C20.584 7.20284 20.2173 6.25392 19.6162 5.6084C19.0207 4.96893 18.1402 4.56644 16.9854 4.56641H9.31641C8.16597 4.56641 7.28508 4.96849 6.68848 5.6084C6.08641 6.25432 5.71777 7.20362 5.71777 8.38672V12.1172C5.71767 12.5313 5.38192 12.8672 4.96777 12.8672C4.55362 12.8672 4.21788 12.5313 4.21777 12.1172V8.38672C4.21777 6.89219 4.68699 5.55565 5.59082 4.58594C6.50015 3.61036 7.79421 3.06641 9.31641 3.06641H16.9854C18.5108 3.06644 19.8049 3.60992 20.7139 4.58594C21.6172 5.55606 22.084 6.89295 22.084 8.38672V15.6133C22.0839 17.1068 21.6172 18.4431 20.7139 19.4131C19.8048 20.3892 18.5103 20.9326 16.9844 20.9326H9.31641C7.79083 20.9326 6.49666 20.3893 5.58789 19.4131C4.68484 18.443 4.21785 17.1068 4.21777 15.6133Z" fill="#253035"/>
<path d="M2.80371 9.93452C3.09661 9.64164 3.57137 9.64163 3.86426 9.93452L4.98633 11.0566L6.09863 9.94429C6.39154 9.6516 6.86636 9.65146 7.15918 9.94429C7.45183 10.2371 7.45181 10.712 7.15918 11.0048L5.5166 12.6474C5.376 12.788 5.18517 12.8671 4.98633 12.8671C4.7875 12.8671 4.59669 12.788 4.45605 12.6474L2.80371 10.9951C2.51083 10.7022 2.51082 10.2274 2.80371 9.93452Z" fill="#253035"/>
<path d="M14.1709 13.3379C14.1707 13.0059 13.9013 12.7363 13.5693 12.7363H11.7031C11.2889 12.7363 10.9531 12.4005 10.9531 11.9863V9.42969C10.9531 9.01547 11.2889 8.67969 11.7031 8.67969H14.665C15.0792 8.67975 15.415 9.01551 15.415 9.42969C15.415 9.84386 15.0792 10.1796 14.665 10.1797H12.4531V11.2363H13.5693C14.7297 11.2363 15.6707 12.1775 15.6709 13.3379C15.6709 14.4984 14.7298 15.4394 13.5693 15.4395H11.7031C11.2889 15.4395 10.9531 15.1037 10.9531 14.6895C10.9532 14.2754 11.289 13.9395 11.7031 13.9395H13.5693C13.9014 13.9394 14.1709 13.67 14.1709 13.3379Z" fill="#253035"/>
</svg>
