<svg width="24" height="24" viewBox="0 0 24 24" fill="none" xmlns="http://www.w3.org/2000/svg">
<path d="M15.9012 6.59827C15.9011 4.62652 14.3026 3.02806 12.3309 3.02795H12.3279C11.3784 3.02396 10.4656 3.39802 9.79279 4.06799C9.11997 4.73797 8.74204 5.64876 8.742 6.59827C8.742 7.01248 8.40622 7.34827 7.992 7.34827C7.57779 7.34827 7.242 7.01248 7.242 6.59827C7.24204 5.24996 7.77884 3.95694 8.73419 3.00549C9.68902 2.05469 10.9835 1.52405 12.3309 1.52893L12.3338 1.52795L12.3328 1.52893C15.1321 1.53009 17.4011 3.79877 17.4012 6.59827C17.4012 7.01243 17.0653 7.34819 16.6512 7.34827C16.237 7.34827 15.9012 7.01248 15.9012 6.59827Z" fill="#A2B5BE"/>
<path d="M15.2965 10.3518C15.7106 10.3519 16.0465 10.6877 16.0465 11.1018C16.0465 11.516 15.7106 11.8518 15.2965 11.8518H15.2506C14.8364 11.8518 14.5006 11.516 14.5006 11.1018C14.5006 10.6876 14.8364 10.3518 15.2506 10.3518H15.2965Z" fill="#A2B5BE"/>
<path d="M9.46582 10.3518C9.87997 10.3519 10.2158 10.6877 10.2158 11.1018C10.2158 11.516 9.87997 11.8518 9.46582 11.8518H9.41992C9.00571 11.8518 8.66992 11.516 8.66992 11.1018C8.66992 10.6876 9.00571 10.3518 9.41992 10.3518H9.46582Z" fill="#A2B5BE"/>
<path d="M17.4476 6.06805C19.1348 6.06818 20.7202 7.30407 21.2552 9.73212C21.26 9.75374 21.2641 9.77559 21.2669 9.79755L22.0433 15.8278L22.0921 16.2224C22.291 18.1653 21.8322 19.6845 20.8041 20.7272C19.7276 21.8188 18.1608 22.2496 16.514 22.2497H8.16636C6.58082 22.2497 4.97897 21.9711 3.87632 20.9352C2.7354 19.8632 2.32096 18.1743 2.6732 15.8239L3.44956 9.79755L3.45542 9.75653C3.68699 8.50647 4.21626 7.5761 4.92515 6.95673C5.63132 6.33973 6.47553 6.06805 7.2689 6.06805H17.4476ZM7.2689 7.56805C6.81745 7.56805 6.32983 7.72197 5.91245 8.08661C5.49883 8.448 5.11291 9.0532 4.93198 10.0231L4.15952 16.0309C4.15889 16.0359 4.15733 16.0407 4.15659 16.0456C3.84078 18.1525 4.26917 19.2464 4.90366 19.8425C5.57676 20.4748 6.68557 20.7497 8.16636 20.7497H16.514C17.9332 20.7496 19.0434 20.3757 19.7357 19.6735C20.4079 18.9918 20.8203 17.8632 20.5589 16.0417L20.557 16.0309L19.7835 10.029C19.3624 8.15774 18.2827 7.56817 17.4476 7.56805H7.2689Z" fill="#253035"/>
</svg>
