<svg width="24" height="24" viewBox="0 0 24 24" fill="none" xmlns="http://www.w3.org/2000/svg">
<path d="M15.9417 4.38048C16.2346 4.08775 16.7094 4.08764 17.0022 4.38048C17.2949 4.67333 17.2949 5.14817 17.0022 5.44102L5.97779 16.4654C5.68494 16.7581 5.2101 16.7581 4.91725 16.4654C4.62441 16.1726 4.62453 15.6978 4.91725 15.4049L15.9417 4.38048Z" fill="#A2B5BE"/>
<path d="M20.3838 19.7311C20.798 19.7311 21.1338 20.0669 21.1338 20.4811C21.1338 20.8953 20.798 21.2311 20.3838 21.2311H3C2.58579 21.2311 2.25 20.8953 2.25 20.4811C2.25 20.0669 2.58579 19.7311 3 19.7311H20.3838Z" fill="#253035"/>
<path d="M13.3171 2.28513C14.4094 2.32413 15.4522 2.83144 16.3093 3.68845L20.3444 7.7236C21.2013 8.58059 21.7086 9.62331 21.7477 10.7158C21.7871 11.8168 21.3471 12.884 20.4675 13.7636L14.3005 19.9316C13.4209 20.8106 12.3535 21.2501 11.2526 21.2109C10.16 21.172 9.11668 20.6648 8.25946 19.8076L4.22626 15.7734C3.36848 14.9156 2.86239 13.8708 2.82391 12.7783C2.78521 11.6778 3.22417 10.6105 4.10126 9.73337L10.2692 3.56442C11.1484 2.68531 12.2163 2.24593 13.3171 2.28513ZM13.2634 3.78415C12.6224 3.76132 11.947 4.00875 11.3298 4.62595L5.16181 10.7939C4.54762 11.4082 4.30035 12.0832 4.32294 12.7256C4.34586 13.3759 4.64934 14.0754 5.28681 14.7129L9.32001 18.747C9.95819 19.3852 10.657 19.6888 11.3063 19.7119C11.9473 19.7346 12.6223 19.4881 13.2399 18.8711L19.4069 12.7031C20.0246 12.0854 20.2716 11.4105 20.2487 10.7695C20.2255 10.1204 19.9219 9.42227 19.2839 8.78415L15.2487 4.74899C14.6106 4.11096 13.9125 3.80727 13.2634 3.78415Z" fill="#253035"/>
<path d="M12.5617 14.2957C12.8546 14.0028 13.3293 14.0029 13.6222 14.2957C13.9151 14.5886 13.9151 15.0634 13.6222 15.3563L11.8039 17.1746C11.511 17.4675 11.0362 17.4675 10.7433 17.1746C10.4505 16.8817 10.4504 16.407 10.7433 16.1141L12.5617 14.2957Z" fill="#253035"/>
</svg>
