<svg width="24" height="24" viewBox="0 0 24 24" fill="none" xmlns="http://www.w3.org/2000/svg">
<path d="M20.25 8.70704C20.25 7.64155 19.9201 6.79373 19.3857 6.21973C18.8569 5.65178 18.0719 5.29102 17.0352 5.29102H6.96582C5.93376 5.29102 5.14914 5.65131 4.61914 6.21973C4.08368 6.79418 3.75195 7.64231 3.75195 8.70704V15.294C3.75195 16.3602 4.08204 17.2085 4.61621 17.7822C5.14472 18.3498 5.92919 18.71 6.96582 18.71H17.0342C18.0716 18.71 18.8569 18.349 19.3857 17.7813C19.92 17.2075 20.25 16.3599 20.25 15.294V8.70704ZM21.75 15.294C21.75 16.6695 21.3202 17.9051 20.4834 18.8037C19.6407 19.7084 18.4417 20.21 17.0342 20.21H6.96582C5.55877 20.21 4.36081 19.7084 3.51855 18.8037C2.68194 17.9051 2.25195 16.6696 2.25195 15.294V8.70704C2.25195 7.33086 2.68425 6.0955 3.52148 5.19727C4.3642 4.29319 5.56199 3.79102 6.96582 3.79102H17.0352C18.4423 3.79102 19.641 4.29256 20.4834 5.19727C21.3202 6.09595 21.75 7.33171 21.75 8.70704V15.294Z" fill="#253035"/>
<path d="M20.998 9.08479C21.4123 9.08479 21.748 9.42058 21.748 9.83479C21.748 10.249 21.4123 10.5848 20.998 10.5848H3C2.58579 10.5848 2.25 10.249 2.25 9.83479C2.25 9.42058 2.58579 9.08479 3 9.08479H20.998Z" fill="#253035"/>
<path d="M8.32684 14.4204L8.40399 14.4243C8.78217 14.4627 9.07684 14.7821 9.07684 15.1704C9.07684 15.5587 8.78217 15.8781 8.40399 15.9165L8.32684 15.9204H6.89911C6.4849 15.9204 6.14911 15.5846 6.14911 15.1704C6.14911 14.7562 6.4849 14.4204 6.89911 14.4204H8.32684Z" fill="#253035"/>
<path d="M12.2107 14.4204C12.6249 14.4204 12.9607 14.7562 12.9607 15.1704C12.9607 15.5846 12.6249 15.9204 12.2107 15.9204H10.783C10.3688 15.9204 10.033 15.5846 10.033 15.1704C10.033 14.7562 10.3688 14.4204 10.783 14.4204H12.2107Z" fill="#253035"/>
</svg>
