<svg width="24" height="24" viewBox="0 0 24 24" fill="none" xmlns="http://www.w3.org/2000/svg">
<path fill-rule="evenodd" clip-rule="evenodd" d="M12.21 15.9194H10.782C10.368 15.9194 10.032 15.5834 10.032 15.1694C10.032 14.7554 10.368 14.4194 10.782 14.4194H12.21C12.624 14.4194 12.96 14.7554 12.96 15.1694C12.96 15.5834 12.624 15.9194 12.21 15.9194ZM8.32598 15.9194H6.89798C6.48398 15.9194 6.14798 15.5834 6.14798 15.1694C6.14798 14.7554 6.48398 14.4194 6.89798 14.4194H8.32598C8.73998 14.4194 9.07598 14.7554 9.07598 15.1694C9.07598 15.5834 8.73998 15.9194 8.32598 15.9194ZM2.80098 10.5894C2.63529 10.5894 2.50098 10.7237 2.50098 10.8894V15.2894C2.50098 18.0824 4.29498 19.9594 6.96398 19.9594H17.034C19.705 19.9594 21.499 18.0824 21.499 15.2894V10.8894C21.499 10.7237 21.3647 10.5894 21.199 10.5894H2.80098Z" fill="#253035"/>
<path fill-rule="evenodd" clip-rule="evenodd" d="M21.1991 9.08906C21.3648 9.08906 21.4991 8.95475 21.4991 8.78906V8.70906C21.4991 5.91606 19.7051 4.03906 17.0351 4.03906H6.9641C4.2951 4.03906 2.5011 5.91606 2.5011 8.70906V8.78906C2.5011 8.95475 2.63541 9.08906 2.8011 9.08906H21.1991Z" fill="#253035"/>
</svg>
