<svg width="24" height="24" viewBox="0 0 24 24" fill="none" xmlns="http://www.w3.org/2000/svg">
<path d="M20.998 9.08479C21.4123 9.08479 21.748 9.42058 21.748 9.83479C21.748 10.249 21.4123 10.5848 20.998 10.5848H3C2.58579 10.5848 2.25 10.249 2.25 9.83479C2.25 9.42058 2.58579 9.08479 3 9.08479H20.998Z" fill="#A2B5BE"/>
<path d="M20.25 8.70703C20.25 7.64154 19.9201 6.79373 19.3857 6.21973C18.8569 5.65177 18.0719 5.29102 17.0352 5.29102H6.96582C5.93376 5.29102 5.14914 5.6513 4.61914 6.21973C4.08369 6.79417 3.75195 7.6423 3.75195 8.70703V15.2939C3.75195 16.3602 4.08204 17.2084 4.61621 17.7822C5.14473 18.3498 5.9292 18.71 6.96582 18.71H17.0342C18.0716 18.71 18.8569 18.349 19.3857 17.7812C19.92 17.2075 20.25 16.3599 20.25 15.2939V8.70703ZM8.32715 14.4199C8.7412 14.4199 9.07689 14.7559 9.07715 15.1699C9.07715 15.5841 8.74136 15.9199 8.32715 15.9199H6.89941C6.4852 15.9199 6.14941 15.5841 6.14941 15.1699C6.14967 14.7559 6.48536 14.4199 6.89941 14.4199H8.32715ZM12.2109 14.4199C12.625 14.4199 12.9607 14.7559 12.9609 15.1699C12.9609 15.5841 12.6252 15.9199 12.2109 15.9199H10.7832C10.369 15.9199 10.0332 15.5841 10.0332 15.1699C10.0335 14.7559 10.3691 14.4199 10.7832 14.4199H12.2109ZM21.75 15.2939C21.75 16.6695 21.3202 17.9051 20.4834 18.8037C19.6407 19.7084 18.4417 20.21 17.0342 20.21H6.96582C5.55878 20.21 4.36081 19.7084 3.51855 18.8037C2.68194 17.9051 2.25195 16.6696 2.25195 15.2939V8.70703C2.25195 7.33085 2.68426 6.0955 3.52148 5.19727C4.3642 4.29318 5.56199 3.79102 6.96582 3.79102H17.0352C18.4423 3.79102 19.641 4.29256 20.4834 5.19727C21.3202 6.09594 21.75 7.3317 21.75 8.70703V15.2939Z" fill="#253035"/>
</svg>
