<svg width="24" height="24" viewBox="0 0 24 24" fill="none" xmlns="http://www.w3.org/2000/svg">
<path fill-rule="evenodd" clip-rule="evenodd" d="M4.48155 15.6567C4.59253 15.7797 4.78332 15.7794 4.90048 15.6623L16.2062 4.35947C16.3233 4.24232 16.3238 4.05179 16.2021 3.9394C15.4008 3.19977 14.4391 2.65234 13.3113 2.65234H13.3103C12.3103 2.65234 11.3633 3.07234 10.5713 3.86534L4.40235 10.0263C2.70235 11.7366 2.98473 13.9976 4.48155 15.6567Z" fill="#253035"/>
<path fill-rule="evenodd" clip-rule="evenodd" d="M13.7465 15.4805L11.9285 17.2915C11.7825 17.4365 11.5905 17.5095 11.3995 17.5095C11.2065 17.5095 11.0145 17.4365 10.8685 17.2895C10.5755 16.9955 10.5765 16.5205 10.8705 16.2285L12.6875 14.4185C12.9815 14.1265 13.4565 14.1265 13.7485 14.4195C14.0405 14.7135 14.0395 15.1885 13.7465 15.4805ZM20.5095 19.8495H14.9966C14.7293 19.8495 14.5955 19.5264 14.7844 19.3374L20.4155 13.7045C21.2435 12.8805 21.6605 11.8915 21.6225 10.8445C21.5865 9.83152 21.1265 8.85252 20.2925 8.01552L17.6916 5.41925C17.5744 5.30228 17.3846 5.30235 17.2675 5.41941L5.96056 16.7235C5.84342 16.8406 5.84338 17.0305 5.95996 17.1481C6.67758 17.8725 7.38519 18.613 8.1188 19.3218C8.31531 19.5117 8.18221 19.8495 7.90895 19.8495H3.12549C2.71149 19.8495 2.37549 20.1855 2.37549 20.5995C2.37549 21.0135 2.71149 21.3495 3.12549 21.3495H20.5095C20.9235 21.3495 21.2595 21.0135 21.2595 20.5995C21.2595 20.1855 20.9235 19.8495 20.5095 19.8495Z" fill="#253035"/>
</svg>
