<svg width="24" height="24" viewBox="0 0 24 24" fill="none" xmlns="http://www.w3.org/2000/svg">
<path d="M6.78821 15.7647V8.23438C6.78821 7.82017 7.124 7.48438 7.53821 7.48438C7.95242 7.48438 8.28821 7.82017 8.28821 8.23438V15.7647C8.28821 16.1789 7.95242 16.5147 7.53821 16.5147C7.124 16.5147 6.78821 16.1789 6.78821 15.7647Z" fill="#253035"/>
<path d="M13.3908 15.7647V8.23438C13.3908 7.82017 13.7266 7.48438 14.1408 7.48438C14.555 7.48438 14.8908 7.82017 14.8908 8.23438V15.7647C14.8908 16.1789 14.555 16.5147 14.1408 16.5147C13.7266 16.5147 13.3908 16.1789 13.3908 15.7647Z" fill="#253035"/>
<path d="M16.6935 11.8281V8.23438C16.6935 7.82017 17.0293 7.48438 17.4435 7.48438C17.8577 7.48438 18.1935 7.82017 18.1935 8.23438V11.8281C18.1935 12.2423 17.8577 12.5781 17.4435 12.5781C17.0293 12.5781 16.6935 12.2423 16.6935 11.8281Z" fill="#253035"/>
<path d="M16.6935 15.6709V14.7236C16.6935 14.3094 17.0293 13.9736 17.4435 13.9736C17.8577 13.9736 18.1935 14.3094 18.1935 14.7236V15.6709C18.1935 16.0851 17.8577 16.4209 17.4435 16.4209C17.0293 16.4209 16.6935 16.0851 16.6935 15.6709Z" fill="#253035"/>
<path d="M10.089 15.6719V12.0781C10.089 11.6639 10.4248 11.3281 10.839 11.3281C11.2532 11.3281 11.589 11.6639 11.589 12.0781V15.6719C11.589 16.0861 11.2532 16.4219 10.839 16.4219C10.4248 16.4219 10.089 16.0861 10.089 15.6719Z" fill="#253035"/>
<path d="M10.089 9.17867V8.2314C10.089 7.81719 10.4248 7.4814 10.839 7.4814C11.2532 7.4814 11.589 7.81719 11.589 8.2314V9.17867C11.589 9.59288 11.2532 9.92867 10.839 9.92867C10.4248 9.92867 10.089 9.59288 10.089 9.17867Z" fill="#253035"/>
<path d="M20.75 9.08301V7.69043C20.75 6.20462 19.5453 5.00014 18.0596 5H16.9492C16.535 5 16.1992 4.66421 16.1992 4.25C16.1992 3.83579 16.535 3.5 16.9492 3.5H18.0596C20.3738 3.50014 22.25 5.3762 22.25 7.69043V9.08301C22.25 9.49706 21.914 9.83275 21.5 9.83301C21.0858 9.83301 20.75 9.49722 20.75 9.08301Z" fill="#253035"/>
<path d="M20.748 16.3116V14.918C20.748 14.5039 21.084 14.1682 21.498 14.168C21.9122 14.168 22.248 14.5038 22.248 14.918V16.3116C22.2478 18.6256 20.3726 20.5008 18.0585 20.501H16.9189C16.5047 20.501 16.1689 20.1652 16.1689 19.751C16.1691 19.337 16.5048 19.001 16.9189 19.001H18.0585C19.5442 19.0008 20.7478 17.7972 20.748 16.3116Z" fill="#253035"/>
<path d="M2.75 9.08301V7.69043C2.75 5.37612 4.62612 3.5 6.94043 3.5H8.0498C8.46402 3.5 8.7998 3.83579 8.7998 4.25C8.7998 4.66421 8.46402 5 8.0498 5H6.94043C5.45454 5 4.25 6.20454 4.25 7.69043V9.08301C4.25 9.49722 3.91421 9.83301 3.5 9.83301C3.08579 9.83301 2.75 9.49722 2.75 9.08301Z" fill="#253035"/>
<path d="M2.75 16.3116V14.918C2.75 14.5038 3.08579 14.168 3.5 14.168C3.91421 14.168 4.25 14.5038 4.25 14.918V16.3116C4.25019 17.7973 5.45466 19.001 6.94043 19.001H8.0791C8.49318 19.001 8.82889 19.337 8.8291 19.751C8.8291 20.1652 8.49332 20.501 8.0791 20.501H6.94043C4.62624 20.501 2.75019 18.6257 2.75 16.3116Z" fill="#253035"/>
</svg>
