<svg width="24" height="24" viewBox="0 0 24 24" fill="none" xmlns="http://www.w3.org/2000/svg">
<path d="M13.9209 21.002V17.8037C13.921 17.3896 14.2568 17.0538 14.6709 17.0537C14.6765 17.0537 14.6822 17.0536 14.6875 17.0537C15.3581 17.0533 15.9021 16.5105 15.9023 15.8408C15.9023 15.1695 15.3574 14.625 14.6865 14.625C14.2035 14.6251 13.7843 14.9107 13.5889 15.3301C13.4658 15.5942 13.2006 15.7635 12.9092 15.7637C12.6179 15.7637 12.3528 15.5949 12.2295 15.3311C12.033 14.9105 11.6142 14.6252 11.1318 14.625C10.4603 14.625 9.91602 15.1692 9.91602 15.8408C9.91624 16.5111 10.4601 17.0547 11.1318 17.0547C11.5458 17.0549 11.8818 17.3907 11.8818 17.8047V21.001C11.8818 21.415 11.5458 21.7507 11.1318 21.751C10.7176 21.751 10.3818 21.4152 10.3818 21.001V18.4473C9.24719 18.1219 8.4162 17.0798 8.41602 15.8408C8.41602 14.3408 9.63181 13.125 11.1318 13.125C11.8153 13.1251 12.4344 13.379 12.9082 13.793C13.3824 13.3784 14.003 13.125 14.6865 13.125C16.1853 13.125 17.4023 14.3406 17.4023 15.8408C17.4022 17.0854 16.5627 18.1308 15.4209 18.4512V21.002C15.4209 21.4162 15.0851 21.752 14.6709 21.752C14.2568 21.7518 13.9209 21.4161 13.9209 21.002Z" fill="#A2B5BE"/>
<path d="M8.41602 8.16211C8.41623 6.92215 9.24719 5.87973 10.3818 5.55469V3.00195C10.3818 2.58774 10.7176 2.25195 11.1318 2.25195C11.5458 2.25219 11.8818 2.58789 11.8818 3.00195V6.19824C11.8818 6.61227 11.5458 6.948 11.1318 6.94824C10.4599 6.94824 9.91627 7.49119 9.91602 8.16211C9.91602 8.83374 10.4603 9.37793 11.1318 9.37793C11.6142 9.37776 12.033 9.0924 12.2295 8.67188C12.3529 8.40804 12.6179 8.23919 12.9092 8.23926C13.2006 8.23942 13.4658 8.40873 13.5889 8.67285C13.7843 9.09221 14.2035 9.37786 14.6865 9.37793C15.3574 9.37793 15.9023 8.83348 15.9023 8.16211C15.9021 7.49205 15.3588 6.9492 14.6885 6.94824C14.6829 6.94837 14.6769 6.94922 14.6709 6.94922C14.2568 6.94911 13.9209 6.61333 13.9209 6.19922V3C13.9209 2.58585 14.2568 2.25011 14.6709 2.25C15.0851 2.25 15.4209 2.58579 15.4209 3V5.55078C16.5627 5.87089 17.4021 6.91654 17.4023 8.16211C17.4023 9.66242 16.1853 10.8779 14.6865 10.8779C14.0032 10.8779 13.3823 10.6253 12.9082 10.2109C12.4345 10.6247 11.8151 10.8778 11.1318 10.8779C9.63182 10.8779 8.41602 9.66216 8.41602 8.16211Z" fill="#A2B5BE"/>
<path d="M21.1602 8.02734C21.1602 6.70911 20.7513 5.64615 20.0752 4.91992C19.4047 4.19975 18.4157 3.75 17.127 3.75H14.7256C14.713 3.75064 14.7003 3.75195 14.6875 3.75195C14.6786 3.75195 14.6695 3.75027 14.6611 3.75H8.69238C7.40871 3.75 6.41979 4.19935 5.74805 4.91992C5.07084 5.64656 4.66016 6.70993 4.66016 8.02734V15.9736C4.66016 17.2914 5.06923 18.354 5.74512 19.0801C6.41536 19.8 7.40372 20.25 8.69238 20.25H14.666C14.6728 20.2498 14.6802 20.249 14.6875 20.249L14.707 20.25H17.126C18.4153 20.25 19.4046 19.8002 20.0752 19.0801C20.7514 18.354 21.1601 17.2913 21.1602 15.9736V8.02734ZM14.7949 2.26074C14.7984 2.26132 14.8022 2.26225 14.8047 2.2627L14.8037 2.26172C14.801 2.26125 14.7964 2.26057 14.791 2.25977C14.7892 2.25949 14.7871 2.26005 14.7852 2.25977C14.7884 2.26019 14.7917 2.26028 14.7949 2.26074ZM22.6602 15.9736C22.6601 17.6011 22.1514 19.0518 21.1729 20.1025C20.1886 21.1593 18.7857 21.75 17.126 21.75H8.69238C7.03304 21.75 5.63029 21.1594 4.64648 20.1025C3.66833 19.0517 3.16016 17.601 3.16016 15.9736V8.02734C3.16016 6.3986 3.67136 4.94795 4.65039 3.89746C5.63488 2.84115 7.03695 2.25 8.69238 2.25H17.127C18.7861 2.25 20.1888 2.84069 21.1729 3.89746C22.1513 4.94837 22.6602 6.39942 22.6602 8.02734V15.9736Z" fill="#253035"/>
</svg>
