<svg width="24" height="24" viewBox="0 0 24 24" fill="none" xmlns="http://www.w3.org/2000/svg">
<path fill-rule="evenodd" clip-rule="evenodd" d="M16.217 2.5H14.261V5.75C15.395 5.979 16.242 6.973 16.242 8.16C16.242 9.521 15.137 10.63 13.778 10.63C13.098 10.63 12.457 10.344 11.999 9.864C11.541 10.344 10.9 10.63 10.221 10.63C8.862 10.63 7.756 9.521 7.756 8.16C7.756 6.975 8.601 5.982 9.721 5.751V2.5H7.782C4.623 2.5 2.5 4.723 2.5 8.03V15.97C2.5 19.277 4.623 21.5 7.782 21.5H9.721V18.249C8.601 18.018 7.756 17.025 7.756 15.84C7.756 14.479 8.862 13.37 10.221 13.37C10.9 13.37 11.541 13.656 11.999 14.136C12.457 13.656 13.098 13.37 13.778 13.37C15.137 13.37 16.242 14.479 16.242 15.84C16.242 17.031 15.39 18.027 14.261 18.252V21.5H16.216C19.376 21.5 21.5 19.277 21.5 15.97V8.03C21.5 4.723 19.377 2.5 16.217 2.5Z" fill="#253035"/>
</svg>
