<svg width="24" height="24" viewBox="0 0 24 24" fill="none" xmlns="http://www.w3.org/2000/svg">
<path d="M20.7613 14.5005C20.7613 11.0495 17.9642 8.25162 14.5133 8.25146C12.5138 8.25146 10.7335 9.18956 9.58847 10.6528C9.33325 10.979 8.86196 11.0369 8.53573 10.7817C8.20952 10.5265 8.15164 10.0552 8.40682 9.729C9.82389 7.9178 12.0327 6.75146 14.5133 6.75146C18.7927 6.75162 22.2613 10.2211 22.2613 14.5005C22.2612 18.7798 18.7926 22.2484 14.5133 22.2485C12.6628 22.2485 10.962 21.599 9.62948 20.5161C9.30804 20.2549 9.25888 19.7829 9.52011 19.4614C9.78122 19.1401 10.2534 19.0912 10.5748 19.3521C11.6497 20.2256 13.0197 20.7485 14.5133 20.7485C17.9642 20.7484 20.7612 17.9514 20.7613 14.5005Z" fill="#A2B5BE"/>
<path d="M18.2646 13.5867C18.6793 13.629 19.0019 13.9802 19.0019 14.4051C19.0017 14.858 18.6348 15.2262 18.1806 15.2264C17.7552 15.2264 17.4044 14.9034 17.3622 14.4891L17.3583 14.4051L17.3622 14.3211C17.4041 13.9064 17.7549 13.5828 18.1806 13.5828L18.2646 13.5867Z" fill="#253035"/>
<path d="M15.4111 13.4432C15.8263 13.4854 16.1484 13.8372 16.1484 14.2615C16.1482 14.7145 15.7813 15.0826 15.3271 15.0828C14.9028 15.0828 14.551 14.7609 14.5087 14.3455L14.5048 14.2615L14.5087 14.1766C14.5511 13.7618 14.9023 13.4393 15.3271 13.4393L15.4111 13.4432Z" fill="#253035"/>
<path d="M16.5361 16.035C16.9519 16.0773 17.2734 16.4297 17.2734 16.8533C17.2732 17.3057 16.907 17.6744 16.4521 17.6746C16.0272 17.6746 15.6759 17.3522 15.6337 16.9373L15.6298 16.8533L15.6337 16.7693C15.6756 16.3547 16.0264 16.0311 16.4521 16.0311L16.5361 16.035Z" fill="#253035"/>
<path d="M4.5508 2.79473C5.86645 1.36976 7.77334 1.51551 9.0381 2.54863L9.28224 2.76738L9.3047 2.79082C10.2699 3.82187 10.1397 4.98616 9.87306 5.89922C9.74687 6.3313 9.56024 6.80133 9.43947 7.14629C9.30473 7.53119 9.22866 7.81793 9.22072 8.04863C9.18156 9.18874 9.54973 9.87389 10.792 11.7283C12.2396 13.8894 12.3501 16.0179 11.8526 17.8113C11.3632 19.575 10.2948 20.9938 9.39259 21.8387C9.09072 22.1215 8.70423 22.2498 8.33205 22.2498H5.52736C5.20168 22.2498 4.86532 22.1513 4.584 21.9373L4.46681 21.8387C3.56463 20.9938 2.49523 19.575 2.00587 17.8113C1.50838 16.0179 1.61982 13.8894 3.0674 11.7283C4.2928 9.89904 4.63771 9.16137 4.63771 8.02227C4.63766 7.81342 4.57097 7.54441 4.43751 7.1668C4.32132 6.83803 4.12667 6.35862 3.99806 5.93535C3.86181 5.4869 3.75176 4.96582 3.8047 4.41875C3.85971 3.85079 4.08645 3.2977 4.5508 2.79473ZM6.13771 8.02227C6.13771 9.64834 5.55138 10.7154 4.31349 12.5633C3.13063 14.3292 3.05976 16.0002 3.45119 17.4109C3.85088 18.8513 4.74226 20.0417 5.4922 20.7439L5.49513 20.7449C5.5004 20.7469 5.51113 20.7498 5.52736 20.7498H8.33205C8.34828 20.7498 8.35904 20.7469 8.36427 20.7449C8.36874 20.7432 8.36885 20.7425 8.3672 20.7439C9.11711 20.0417 10.0075 18.8512 10.4072 17.4109C10.7987 16.0002 10.7287 14.3292 9.54591 12.5633C8.32501 10.7408 7.66382 9.67985 7.72169 7.99688C7.73804 7.52187 7.88325 7.05066 8.02345 6.6502C8.17768 6.20967 8.31991 5.86517 8.43263 5.4793C8.64162 4.76373 8.63232 4.27725 8.22267 3.82988C7.45622 3.08867 6.37285 3.03301 5.65333 3.81231C5.41222 4.07342 5.32151 4.3192 5.29787 4.56328C5.27224 4.82819 5.32198 5.13242 5.43361 5.49981C5.5529 5.89229 5.6937 6.22009 5.85158 6.6668C5.99218 7.06464 6.13766 7.53995 6.13771 8.02227Z" fill="#253035"/>
</svg>
