<svg width="24" height="24" viewBox="0 0 24 24" fill="none" xmlns="http://www.w3.org/2000/svg">
<path d="M15.127 16.4794C15.5412 16.4794 15.877 16.8152 15.877 17.2294C15.877 17.6436 15.5412 17.9794 15.127 17.9794H9.14942C8.7352 17.9794 8.39942 17.6436 8.39942 17.2294C8.39942 16.8152 8.7352 16.4794 9.14942 16.4794H15.127Z" fill="#A2B5BE"/>
<path d="M5.95996 16.4794C6.37417 16.4794 6.70996 16.8152 6.70996 17.2294C6.70996 17.6436 6.37417 17.9794 5.95996 17.9794H3.83105C3.41684 17.9794 3.08105 17.6436 3.08105 17.2294C3.08105 16.8152 3.41684 16.4794 3.83105 16.4794H5.95996Z" fill="#A2B5BE"/>
<path d="M14.8291 6.86029V5.06146C14.8292 4.28782 15.1362 3.54742 15.6826 3.00091L16.4639 2.21966C16.7568 1.92679 17.2315 1.92677 17.5244 2.21966C17.8173 2.51255 17.8173 2.98732 17.5244 3.28021L16.7432 4.06146C16.4781 4.32668 16.3292 4.68566 16.3291 5.06146V6.86029C16.3289 7.27434 15.9932 7.61029 15.5791 7.61029C15.165 7.61029 14.8293 7.27434 14.8291 6.86029Z" fill="#A2B5BE"/>
<path d="M20.8516 9.60437C21.2658 9.60437 21.6016 9.94016 21.6016 10.3544C21.6016 10.7686 21.2658 11.1044 20.8516 11.1044H11.2217C10.8075 11.1044 10.4717 10.7686 10.4717 10.3544C10.4717 9.94016 10.8075 9.60437 11.2217 9.60437H20.8516Z" fill="#A2B5BE"/>
<path d="M14.3994 16.769C14.3994 14.3284 12.4221 12.3513 9.98145 12.3511H8.99902C6.55917 12.3511 4.58107 14.3284 4.58105 16.769V18.9067C4.58105 19.7864 5.29415 20.5004 6.17383 20.5005H12.8057C13.6855 20.5005 14.3994 19.7865 14.3994 18.9067V16.769ZM15.8994 18.9067C15.8994 20.615 14.5139 22.0005 12.8057 22.0005H6.17383C4.46572 22.0004 3.08105 20.6149 3.08105 18.9067V16.769C3.08107 13.4998 5.73093 10.8511 8.99902 10.8511H9.98145C13.2505 10.8513 15.8994 13.5 15.8994 16.769V18.9067Z" fill="#253035"/>
<path d="M19.9717 6.11035C21.1524 6.11035 22.0629 7.15392 21.9004 8.3252L20.2383 20.3203C20.1049 21.2831 19.2812 22 18.3086 22H12.8047C12.3906 21.9998 12.0547 21.6641 12.0547 21.25C12.0549 20.836 12.3908 20.5002 12.8047 20.5H18.3086C18.5321 20.5 18.7214 20.3354 18.752 20.1143L20.4151 8.11914C20.4524 7.85053 20.2429 7.61035 19.9717 7.61035H12.0479C11.8104 7.61042 11.6213 7.79399 11.6026 8.01953L11.6045 8.11816L11.6065 8.12598L12.0342 11.5068C12.0862 11.9178 11.7948 12.2937 11.3838 12.3457C10.9731 12.3975 10.5979 12.1061 10.5459 11.6953L10.1182 8.31445L10.1192 8.31348C9.96398 7.14727 10.8704 6.11042 12.0479 6.11035H19.9717Z" fill="#253035"/>
</svg>
