<svg width="24" height="24" viewBox="0 0 24 24" fill="none" xmlns="http://www.w3.org/2000/svg">
<path d="M17.0244 2.21967C17.3173 2.51256 17.3173 2.98744 17.0244 3.28033L16.2434 4.06133C15.9781 4.32668 15.8291 4.68592 15.8291 5.062V6.26035C15.8291 6.31558 15.8739 6.36035 15.9291 6.36035H19.4721C20.5012 6.36035 21.295 7.27015 21.1533 8.29102L21.0071 9.34569C20.9865 9.49404 20.8597 9.60449 20.7099 9.60449H10.2977C10.1466 9.60449 10.0191 9.49209 10.0001 9.34217L9.86634 8.28562C9.72787 7.26721 10.52 6.36035 11.5481 6.36035H14.2291C14.2843 6.36035 14.3291 6.31558 14.3291 6.26035V5.062C14.3291 4.28808 14.6361 3.54732 15.1828 3.00067L15.9638 2.21967C16.2567 1.92678 16.7315 1.92678 17.0244 2.21967Z" fill="#253035"/>
<path d="M20.4188 11.1045C20.6009 11.1045 20.741 11.2653 20.716 11.4457L19.4903 20.286C19.3741 21.1251 18.6567 21.7504 17.8091 21.7504H15.7852C15.5844 21.7504 15.4897 21.4584 15.6304 21.3151C16.1525 20.7832 16.4746 20.0541 16.4746 19.2499V16.5597C16.4746 14.5158 15.5325 12.6927 14.0587 11.5007C13.904 11.3756 13.9887 11.1045 14.1878 11.1045H20.4188Z" fill="#253035"/>
<path d="M8.49905 11.1016C5.57319 11.1016 3.16474 13.3181 2.86292 16.1648C2.84483 16.3355 2.98223 16.4795 3.15384 16.4795H5.45971C5.87392 16.4795 6.20971 16.8153 6.20971 17.2295C6.20971 17.6437 5.87392 17.9795 5.45971 17.9795H3.13105C2.96537 17.9795 2.83105 18.1138 2.83105 18.2795V18.9076C2.83105 20.4777 4.10391 21.7506 5.67405 21.7506H12.3061C13.8762 21.7506 15.1491 20.4777 15.1491 18.9076V18.2795C15.1491 18.1138 15.0147 17.9795 14.8491 17.9795H8.64942C8.23521 17.9795 7.89941 17.6437 7.89941 17.2295C7.89941 16.8153 8.23521 16.4795 8.64942 16.4795H14.8263C14.9979 16.4795 15.1353 16.3355 15.1172 16.1648C14.8155 13.3182 12.4079 11.1016 9.48105 11.1016H8.49905Z" fill="#253035"/>
</svg>
