<svg width="24" height="24" viewBox="0 0 24 24" fill="none" xmlns="http://www.w3.org/2000/svg">
<path d="M14.3994 16.7694C14.3994 14.3288 12.4221 12.3517 9.98145 12.3515H8.99902C6.55917 12.3515 4.58107 14.3288 4.58105 16.7694V18.9071C4.58105 19.7868 5.29415 20.5008 6.17383 20.5009H12.8057C13.6855 20.5009 14.3994 19.7869 14.3994 18.9071V16.7694ZM15.8994 18.9071C15.8994 20.6154 14.5139 22.0009 12.8057 22.0009H6.17383C4.46572 22.0008 3.08105 20.6153 3.08105 18.9071V16.7694C3.08107 13.5002 5.73093 10.8515 8.99902 10.8515H9.98145C13.2505 10.8517 15.8994 13.5004 15.8994 16.7694V18.9071Z" fill="#253035"/>
<path d="M15.127 16.4794C15.5412 16.4794 15.877 16.8152 15.877 17.2294C15.877 17.6436 15.5412 17.9794 15.127 17.9794H9.14942C8.7352 17.9794 8.39942 17.6436 8.39942 17.2294C8.39942 16.8152 8.7352 16.4794 9.14942 16.4794H15.127Z" fill="#253035"/>
<path d="M5.95996 16.4794C6.37417 16.4794 6.70996 16.8152 6.70996 17.2294C6.70996 17.6436 6.37417 17.9794 5.95996 17.9794H3.83105C3.41684 17.9794 3.08105 17.6436 3.08105 17.2294C3.08105 16.8152 3.41684 16.4794 3.83105 16.4794H5.95996Z" fill="#253035"/>
<path d="M14.8291 6.86029V5.06146C14.8292 4.28782 15.1362 3.54742 15.6826 3.00091L16.4639 2.21966C16.7568 1.92679 17.2315 1.92677 17.5244 2.21966C17.8173 2.51255 17.8173 2.98732 17.5244 3.28021L16.7432 4.06146C16.4781 4.32668 16.3292 4.68566 16.3291 5.06146V6.86029C16.3289 7.27434 15.9932 7.61029 15.5791 7.61029C15.165 7.61029 14.8293 7.27434 14.8291 6.86029Z" fill="#253035"/>
<path d="M19.9717 6.11028C21.1524 6.11028 22.0629 7.15386 21.9004 8.32513L20.2383 20.3202C20.1049 21.2831 19.2812 21.9999 18.3086 21.9999H12.8047C12.3906 21.9998 12.0547 21.664 12.0547 21.2499C12.0549 20.836 12.3907 20.5001 12.8047 20.4999H18.3086C18.5321 20.4999 18.7213 20.3354 18.752 20.1142L20.4151 8.11907C20.4524 7.85046 20.2429 7.61028 19.9717 7.61028H12.0479C11.8104 7.61035 11.6213 7.79393 11.6026 8.01946L11.6045 8.1181L11.6065 8.12591L12.0342 11.5068C12.0862 11.9177 11.7948 12.2936 11.3838 12.3456C10.973 12.3974 10.5979 12.106 10.5459 11.6952L10.1182 8.31439L10.1192 8.31341C9.96397 7.1472 10.8704 6.11036 12.0479 6.11028H19.9717Z" fill="#253035"/>
<path d="M20.8516 9.60437C21.2658 9.60437 21.6016 9.94016 21.6016 10.3544C21.6016 10.7686 21.2658 11.1044 20.8516 11.1044H11.2217C10.8075 11.1044 10.4717 10.7686 10.4717 10.3544C10.4717 9.94016 10.8075 9.60437 11.2217 9.60437H20.8516Z" fill="#253035"/>
</svg>
