<svg width="24" height="24" viewBox="0 0 24 24" fill="none" xmlns="http://www.w3.org/2000/svg">
<path d="M7.43662 20.5801C7.43662 20.5801 7.43464 20.5771 7.43271 20.5752C7.43087 20.5733 7.42783 20.5713 7.42783 20.5713C7.42783 20.5713 7.42503 20.5703 7.42197 20.5703C7.41961 20.5703 7.41807 20.5713 7.41807 20.5713C7.41807 20.5713 7.41501 20.5724 7.41318 20.5742C7.41126 20.5761 7.40928 20.5801 7.40928 20.5801C7.40928 20.5801 7.40833 20.5822 7.4083 20.5849C7.4083 20.5883 7.40928 20.5908 7.40928 20.5908C7.40928 20.5908 7.41054 20.594 7.41221 20.5957C7.41395 20.5974 7.41709 20.5986 7.41709 20.5986C7.41709 20.5986 7.41901 20.5996 7.42197 20.5996C7.42509 20.5996 7.42783 20.5986 7.42783 20.5986C7.42783 20.5986 7.43086 20.5965 7.43271 20.5947C7.43464 20.5928 7.43662 20.5898 7.43662 20.5898C7.43662 20.5898 7.4376 20.5878 7.4376 20.5849C7.43756 20.5821 7.43662 20.5801 7.43662 20.5801ZM8.9376 20.5849C8.9376 21.4224 8.25691 22.0996 7.42197 22.0996C6.58591 22.0994 5.9083 21.4211 5.9083 20.5849C5.90849 19.7503 6.58475 19.0705 7.42197 19.0703C8.25807 19.0703 8.93741 19.7489 8.9376 20.5849Z" fill="#253035"/>
<path d="M18.689 20.5801C18.689 20.5801 18.687 20.5771 18.6851 20.5752C18.6832 20.5733 18.6802 20.5713 18.6802 20.5713C18.6802 20.5713 18.6774 20.5703 18.6743 20.5703C18.6715 20.5703 18.6695 20.5713 18.6695 20.5713C18.6695 20.5713 18.6665 20.5732 18.6646 20.5752C18.6626 20.5771 18.6607 20.5801 18.6607 20.5801C18.6607 20.5801 18.6597 20.5821 18.6597 20.5849C18.6597 20.5879 18.6607 20.5898 18.6607 20.5898C18.6607 20.5898 18.6618 20.5928 18.6636 20.5947C18.6655 20.5966 18.6695 20.5986 18.6695 20.5986C18.6695 20.5986 18.6717 20.5996 18.6743 20.5996C18.6774 20.5996 18.6802 20.5986 18.6802 20.5986C18.6802 20.5986 18.6841 20.5966 18.6861 20.5947C18.6878 20.5929 18.689 20.5898 18.689 20.5898C18.689 20.5898 18.69 20.5878 18.69 20.5849C18.6899 20.5821 18.689 20.5801 18.689 20.5801ZM20.19 20.5849C20.19 21.4224 19.5093 22.0996 18.6743 22.0996C17.8396 22.0994 17.1597 21.4223 17.1597 20.5849C17.1599 19.749 17.8384 19.0705 18.6743 19.0703C19.5104 19.0703 20.1898 19.7489 20.19 20.5849Z" fill="#253035"/>
<path d="M2.01064 3.12207C2.08128 2.71393 2.46969 2.44011 2.87783 2.51074L4.95791 2.87109L5.07998 2.90234C5.35428 2.99915 5.55192 3.24945 5.57705 3.54687L5.8124 6.34863H19.9091C21.1829 6.34874 22.1607 7.47816 21.9784 8.73926L21.0292 15.2979C20.8467 16.5539 19.771 17.4863 18.5019 17.4863H7.58974C6.34498 17.4863 5.29537 16.5922 5.07802 15.3896L5.0458 15.1455L4.13076 4.25L2.62197 3.98926C2.21383 3.91862 1.94001 3.53021 2.01064 3.12207ZM6.53994 15.0205L6.55361 15.1211C6.64308 15.6172 7.07574 15.9863 7.58974 15.9863H18.5019C19.0247 15.9863 19.4693 15.6019 19.5448 15.082L20.494 8.52441C20.5454 8.1678 20.2689 7.84874 19.9091 7.84863H5.93838L6.53994 15.0205Z" fill="#253035"/>
<path d="M16.8988 10.045C17.3128 10.0452 17.6488 10.3809 17.6488 10.795C17.6488 11.2091 17.3128 11.5448 16.8988 11.545H14.1254C13.7112 11.545 13.3754 11.2092 13.3754 10.795C13.3754 10.3808 13.7112 10.045 14.1254 10.045H16.8988Z" fill="#253035"/>
</svg>
