<svg width="24" height="24" viewBox="0 0 24 24" fill="none" xmlns="http://www.w3.org/2000/svg">
<path d="M7.43661 20.5801C7.43661 20.5801 7.43464 20.5771 7.43271 20.5752C7.43087 20.5733 7.42783 20.5713 7.42783 20.5713C7.42783 20.5713 7.42503 20.5703 7.42197 20.5703C7.41961 20.5703 7.41806 20.5713 7.41806 20.5713C7.41806 20.5713 7.415 20.5724 7.41318 20.5742C7.41125 20.5761 7.40927 20.5801 7.40927 20.5801C7.40927 20.5801 7.40833 20.5822 7.40829 20.5849C7.40829 20.5883 7.40927 20.5908 7.40927 20.5908C7.40927 20.5908 7.41054 20.594 7.4122 20.5957C7.41394 20.5974 7.41708 20.5986 7.41708 20.5986C7.41708 20.5986 7.41901 20.5996 7.42197 20.5996C7.42508 20.5996 7.42783 20.5986 7.42783 20.5986C7.42783 20.5986 7.43086 20.5965 7.43271 20.5947C7.43464 20.5928 7.43661 20.5898 7.43661 20.5898C7.43661 20.5898 7.43759 20.5878 7.43759 20.5849C7.43756 20.5821 7.43661 20.5801 7.43661 20.5801ZM8.93759 20.5849C8.93759 21.4224 8.2569 22.0996 7.42197 22.0996C6.5859 22.0994 5.90829 21.4211 5.90829 20.5849C5.90849 19.7503 6.58474 19.0705 7.42197 19.0703C8.25806 19.0703 8.9374 19.7489 8.93759 20.5849Z" fill="#A2B5BE"/>
<path d="M18.689 20.5801C18.689 20.5801 18.687 20.5771 18.6851 20.5752C18.6832 20.5733 18.6802 20.5713 18.6802 20.5713C18.6802 20.5713 18.6774 20.5703 18.6743 20.5703C18.6715 20.5703 18.6695 20.5713 18.6695 20.5713C18.6695 20.5713 18.6665 20.5732 18.6646 20.5752C18.6626 20.5771 18.6607 20.5801 18.6607 20.5801C18.6607 20.5801 18.6597 20.5821 18.6597 20.5849C18.6597 20.5879 18.6607 20.5898 18.6607 20.5898C18.6607 20.5898 18.6617 20.5928 18.6636 20.5947C18.6655 20.5966 18.6695 20.5986 18.6695 20.5986C18.6695 20.5986 18.6717 20.5996 18.6743 20.5996C18.6774 20.5996 18.6802 20.5986 18.6802 20.5986C18.6802 20.5986 18.6841 20.5966 18.6861 20.5947C18.6878 20.5929 18.689 20.5898 18.689 20.5898C18.689 20.5898 18.69 20.5878 18.69 20.5849C18.6899 20.5821 18.689 20.5801 18.689 20.5801ZM20.19 20.5849C20.19 21.4224 19.5093 22.0996 18.6743 22.0996C17.8396 22.0994 17.1597 21.4223 17.1597 20.5849C17.1599 19.749 17.8384 19.0705 18.6743 19.0703C19.5104 19.0703 20.1898 19.7489 20.19 20.5849Z" fill="#A2B5BE"/>
<path d="M16.8988 10.045C17.3128 10.0452 17.6488 10.3809 17.6488 10.795C17.6488 11.2091 17.3128 11.5448 16.8988 11.545H14.1254C13.7112 11.545 13.3754 11.2092 13.3754 10.795C13.3754 10.3808 13.7112 10.045 14.1254 10.045H16.8988Z" fill="#A2B5BE"/>
<path d="M2.01064 3.12208C2.08128 2.71394 2.46969 2.44012 2.87783 2.51075L4.95791 2.8711L5.07998 2.90235C5.35428 2.99915 5.55192 3.24946 5.57705 3.54688L5.8124 6.34864H19.9091C21.1829 6.34875 22.1607 7.47817 21.9784 8.73926L21.0292 15.2979C20.8467 16.554 19.771 17.4863 18.5019 17.4863H7.58974C6.34498 17.4863 5.29537 16.5923 5.07802 15.3897L5.0458 15.1455L4.13076 4.25001L2.62197 3.98926C2.21383 3.91862 1.94001 3.53022 2.01064 3.12208ZM6.53994 15.0205L6.55361 15.1211C6.64308 15.6172 7.07574 15.9863 7.58974 15.9863H18.5019C19.0247 15.9863 19.4693 15.6019 19.5448 15.082L20.494 8.52442C20.5454 8.1678 20.2689 7.84875 19.9091 7.84864H5.93838L6.53994 15.0205Z" fill="#253035"/>
</svg>
