<svg width="24" height="24" viewBox="0 0 24 24" fill="none" xmlns="http://www.w3.org/2000/svg">
<path d="M18.5381 14.9908C18.633 14.5877 19.0373 14.3374 19.4404 14.4322C19.8436 14.5272 20.093 14.9314 19.998 15.3346L19.9931 15.3541L19.2412 18.8229C18.8705 20.5303 17.3605 21.7505 15.6123 21.7506H9.39548C7.64726 21.7505 6.13728 20.5313 5.76657 18.8238L5.01364 15.3551C4.92588 14.9503 5.18315 14.5504 5.58786 14.4625C5.99265 14.3747 6.39264 14.632 6.48044 15.0367L7.23239 18.5055C7.45344 19.5239 8.35361 20.2505 9.39548 20.2506H15.6123C16.6542 20.2505 17.5543 19.5239 17.7754 18.5055L18.5273 15.0367L18.5302 15.024L18.5381 14.9908Z" fill="#253035"/>
<path d="M19.6533 12.9015C19.6531 11.7249 18.717 10.7825 17.5439 10.7706C17.3811 10.7937 17.2138 10.7634 17.0683 10.6808C16.8777 10.5723 16.7435 10.3854 16.7021 10.17C16.4755 8.9908 15.7532 7.9975 14.7607 7.4132C14.3227 8.10136 13.5554 8.55954 12.6797 8.55968C11.8022 8.55968 11.0327 8.10091 10.5947 7.41124C9.59559 8.00512 8.86816 9.0102 8.65427 10.1944C8.58091 10.5995 8.19478 10.8698 7.78903 10.7999C7.67384 10.7801 7.57869 10.7696 7.48532 10.7696C6.29931 10.7697 5.34591 11.7201 5.34567 12.9015C5.34567 13.5123 5.60329 14.0597 6.00974 14.4396L6.19235 14.5919L6.20602 14.6026C6.55543 14.8735 6.99823 15.0323 7.48532 15.0323C8.13182 15.0323 8.71241 14.732 9.10349 14.2609L9.20993 14.1554C9.47697 13.94 9.86606 13.9309 10.1455 14.1515C10.847 14.7053 11.7188 15.0322 12.6767 15.0323C13.5501 15.0323 14.3631 14.754 15.0322 14.2892L15.1494 14.2228C15.4332 14.0934 15.7742 14.1523 15.998 14.3829C16.3865 14.7837 16.9246 15.0323 17.5215 15.0323C18.0166 15.0323 18.4519 14.8736 18.8008 14.6026L18.8105 14.5948C19.323 14.2105 19.6533 13.593 19.6533 12.9015ZM12.664 5.12316C12.1354 5.13129 11.7099 5.56183 11.7099 6.09093C11.7099 6.14584 11.7148 6.19965 11.7236 6.25206C11.7259 6.26411 11.7278 6.27614 11.7295 6.2882C11.8205 6.7285 12.2114 7.05968 12.6797 7.05968C13.2142 7.05946 13.6474 6.62592 13.6474 6.09093C13.6474 5.57632 13.2453 5.15566 12.7383 5.12511C12.7137 5.12564 12.689 5.12509 12.664 5.12316ZM21.1533 12.9015C21.1533 14.0752 20.5924 15.1269 19.7197 15.7862L19.7207 15.7872C19.1101 16.2615 18.3516 16.5323 17.5215 16.5323C16.7194 16.5323 15.983 16.2687 15.3867 15.8312C14.5859 16.273 13.6614 16.5323 12.6767 16.5323C11.6055 16.5323 10.6105 16.2316 9.76169 15.7101C9.14563 16.2169 8.35613 16.5323 7.48532 16.5323C6.67076 16.5323 5.91038 16.2659 5.30075 15.798C4.42021 15.1474 3.84567 14.0907 3.84567 12.9015C3.8459 10.935 5.39831 9.34842 7.33981 9.27257C7.79828 7.79227 8.8539 6.58255 10.2187 5.91124C10.2972 4.82202 11.081 3.92992 12.1172 3.68859C12.2155 3.40181 12.3433 3.16083 12.4609 2.9757C12.5577 2.82335 12.6512 2.70258 12.7226 2.6173C12.7585 2.57448 12.7899 2.54007 12.8134 2.51476C12.8251 2.50221 12.8348 2.49164 12.8427 2.48351L12.8603 2.46593L12.9179 2.41417C13.2143 2.17654 13.6485 2.19729 13.9209 2.47374C14.2113 2.76882 14.2079 3.24369 13.9131 3.53429L13.915 3.53234L13.9121 3.53624C13.9047 3.54413 13.8909 3.55883 13.873 3.58019C13.8366 3.62366 13.7835 3.6922 13.7275 3.78038C13.7152 3.79976 13.7035 3.82019 13.6914 3.84093C14.499 4.20491 15.0737 4.98946 15.1386 5.91613C16.5184 6.58903 17.5711 7.81184 18.0273 9.3048C19.7979 9.54939 21.1531 11.0605 21.1533 12.9015Z" fill="#253035"/>
</svg>
