<svg width="24" height="24" viewBox="0 0 24 24" fill="none" xmlns="http://www.w3.org/2000/svg">
<path d="M13.4181 3.52988C13.7086 3.23892 13.7108 2.76752 13.4218 2.47388C13.1312 2.17868 12.6564 2.17492 12.3612 2.46549L12.3604 2.46619L12.3597 2.46695L12.358 2.46862C12.3108 2.51578 12.2665 2.56585 12.2236 2.61696C12.1522 2.70225 12.0588 2.82325 11.9619 2.97576C11.8079 3.21821 11.6352 3.55588 11.536 3.96768C10.624 4.24335 9.95996 5.08992 9.95996 6.09132C9.95996 7.31745 10.9538 8.30959 12.1792 8.30959C13.4038 8.30959 14.3975 7.31727 14.3975 6.09132C14.3975 5.18684 13.8557 4.40851 13.0791 4.06326C13.1235 3.95794 13.1756 3.86265 13.2281 3.78C13.2841 3.69182 13.3369 3.62388 13.3733 3.58041C13.3914 3.55884 13.405 3.54383 13.4124 3.5359L13.4181 3.52988Z" fill="#253035"/>
<path d="M9.30194 6.97576C9.23941 6.76028 8.984 6.64542 8.80997 6.78704C7.96943 7.47107 7.33951 8.40585 7.03751 9.48097C7.03097 9.50426 7.00962 9.5203 6.98543 9.5203C5.11354 9.5203 3.5957 11.0256 3.5957 12.9022C3.5957 14.0077 4.12853 14.9891 4.94502 15.5943C5.51238 16.0325 6.22253 16.2832 6.98543 16.2832C7.77508 16.2832 8.4947 16.0049 9.06249 15.5524C9.17012 15.4666 9.32055 15.4544 9.43853 15.5252C10.2395 16.0064 11.1731 16.2832 12.1772 16.2832C13.1008 16.2832 13.9694 16.0446 14.7256 15.6358C14.8358 15.5762 14.9708 15.5866 15.0728 15.6592C15.6212 16.0499 16.2927 16.2832 17.0216 16.2832C17.7944 16.2832 18.4974 16.0318 19.0637 15.593C19.8795 14.9798 20.4036 13.9979 20.4036 12.9022C20.4036 11.2052 19.1679 9.8095 17.544 9.56C17.4202 9.54099 17.3161 9.4543 17.2786 9.33487C16.9597 8.32166 16.3516 7.44053 15.5491 6.78906C15.3752 6.6479 15.1205 6.76259 15.0579 6.97765C14.6951 8.22463 13.5439 9.13491 12.1808 9.13491C10.8162 9.13491 9.66414 8.22384 9.30194 6.97576Z" fill="#253035"/>
<path d="M5.19934 17.335C5.14187 17.0699 5.45184 16.851 5.70453 16.9496C6.08905 17.0996 6.50696 17.1804 6.94187 17.1804C7.73912 17.1804 8.46561 16.8991 9.03858 16.442C9.14616 16.3561 9.29661 16.3439 9.41456 16.4148C10.2229 16.9008 11.1652 17.1804 12.1788 17.1804C13.1111 17.1804 13.9878 16.9394 14.751 16.5265C14.8611 16.4669 14.9961 16.4772 15.0981 16.5499C15.6515 16.9446 16.3295 17.1804 17.0654 17.1804C17.5038 17.1804 17.92 17.1002 18.302 16.9512C18.5549 16.8525 18.8654 17.0714 18.8079 17.3368L18.4972 18.7699C18.1515 20.3627 16.7427 21.5 15.112 21.5H8.89565C7.26491 21.5 5.85611 20.3628 5.51048 18.7699L5.19934 17.335Z" fill="#253035"/>
</svg>
