<svg width="24" height="24" viewBox="0 0 24 24" fill="none" xmlns="http://www.w3.org/2000/svg">
<path d="M21.033 9.57397C21.4472 9.57397 21.783 9.90976 21.783 10.324C21.783 10.7382 21.4472 11.074 21.033 11.074H3.02515C2.61093 11.074 2.27515 10.7382 2.27515 10.324C2.27515 9.90976 2.61093 9.57397 3.02515 9.57397H21.033Z" fill="#A2B5BE"/>
<path d="M16.4373 13.511C16.8515 13.511 17.1873 13.8468 17.1873 14.261C17.1873 14.6752 16.8515 15.011 16.4373 15.011H16.4285C16.0143 15.011 15.6785 14.6752 15.6785 14.261C15.6785 13.8468 16.0143 13.511 16.4285 13.511H16.4373Z" fill="#A2B5BE"/>
<path d="M12.0379 13.511C12.4521 13.511 12.7879 13.8468 12.7879 14.261C12.7879 14.6752 12.4521 15.011 12.0379 15.011H12.0291C11.6149 15.011 11.2791 14.6752 11.2791 14.261C11.2791 13.8468 11.6149 13.511 12.0291 13.511H12.0379Z" fill="#A2B5BE"/>
<path d="M7.63014 13.511C8.04435 13.511 8.38014 13.8468 8.38014 14.261C8.38014 14.6752 8.04435 15.011 7.63014 15.011H7.62135C7.20713 15.011 6.87135 14.6752 6.87135 14.261C6.87135 13.8468 7.20713 13.511 7.62135 13.511H7.63014Z" fill="#A2B5BE"/>
<path d="M16.4373 17.3629C16.8515 17.3629 17.1873 17.6987 17.1873 18.1129C17.1873 18.5271 16.8515 18.8629 16.4373 18.8629H16.4285C16.0143 18.8629 15.6785 18.5271 15.6785 18.1129C15.6785 17.6987 16.0143 17.3629 16.4285 17.3629H16.4373Z" fill="#A2B5BE"/>
<path d="M12.0379 17.3629C12.4521 17.3629 12.7879 17.6987 12.7879 18.1129C12.7879 18.5271 12.4521 18.8629 12.0379 18.8629H12.0291C11.6149 18.8629 11.2791 18.5271 11.2791 18.1129C11.2791 17.6987 11.6149 17.3629 12.0291 17.3629H12.0379Z" fill="#A2B5BE"/>
<path d="M7.63014 17.3629C8.04435 17.3629 8.38014 17.6987 8.38014 18.1129C8.38014 18.5271 8.04435 18.8629 7.63014 18.8629H7.62135C7.20713 18.8629 6.87135 18.5271 6.87135 18.1129C6.87135 17.6987 7.20713 17.3629 7.62135 17.3629H7.63014Z" fill="#A2B5BE"/>
<path d="M20.5486 13.7761C20.5486 10.3398 19.9667 8.28689 18.74 7.0603C17.5132 5.83373 15.4604 5.25175 12.0242 5.25171C8.58848 5.25171 6.53607 5.83392 5.30933 7.0603C4.08263 8.28688 3.49976 10.3397 3.49976 13.7761C3.4998 17.2123 4.08268 19.2644 5.30933 20.491C6.53606 21.7174 8.58841 22.2996 12.0242 22.2996C15.4604 22.2995 17.5132 21.7175 18.74 20.491C19.9666 19.2644 20.5485 17.2121 20.5486 13.7761ZM22.0486 13.7761C22.0485 17.2953 21.472 19.8801 19.8005 21.5515C18.1289 23.2228 15.5435 23.7995 12.0242 23.7996C8.50525 23.7996 5.92034 23.2228 4.24878 21.5515C2.57727 19.8802 1.9998 17.2955 1.99976 13.7761C1.99976 10.2566 2.57721 7.67118 4.24878 5.99975C5.92034 4.32856 8.50531 3.75171 12.0242 3.75171C15.5435 3.75175 18.1289 4.32842 19.8005 5.99975C21.4721 7.67119 22.0486 10.2567 22.0486 13.7761Z" fill="#253035"/>
<path d="M15.283 6.31177V3.05005C15.283 2.63584 15.6188 2.30005 16.033 2.30005C16.4472 2.30005 16.783 2.63584 16.783 3.05005V6.31177C16.783 6.72598 16.4472 7.06177 16.033 7.06177C15.6188 7.06177 15.283 6.72598 15.283 6.31177Z" fill="#253035"/>
<path d="M7.27466 6.31177V3.05005C7.27466 2.63584 7.61045 2.30005 8.02466 2.30005C8.43887 2.30005 8.77466 2.63584 8.77466 3.05005V6.31177C8.77466 6.72598 8.43887 7.06177 8.02466 7.06177C7.61045 7.06177 7.27466 6.72598 7.27466 6.31177Z" fill="#253035"/>
</svg>
