<svg width="24" height="24" viewBox="0 0 24 24" fill="none" xmlns="http://www.w3.org/2000/svg">
<path d="M20.5486 13.776C20.5486 10.3397 19.9667 8.28677 18.74 7.06018C17.5132 5.83361 15.4604 5.25163 12.0242 5.25159C8.58848 5.25159 6.53607 5.83381 5.30933 7.06018C4.08263 8.28677 3.49976 10.3396 3.49976 13.776C3.4998 17.2122 4.08268 19.2643 5.30933 20.4908C6.53606 21.7173 8.58841 22.2994 12.0242 22.2994C15.4604 22.2994 17.5132 21.7174 18.74 20.4908C19.9666 19.2643 20.5485 17.212 20.5486 13.776ZM22.0486 13.776C22.0485 17.2952 21.472 19.88 19.8005 21.5514C18.1289 23.2227 15.5435 23.7994 12.0242 23.7994C8.50525 23.7994 5.92034 23.2226 4.24878 21.5514C2.57727 19.88 1.9998 17.2954 1.99976 13.776C1.99976 10.2564 2.57721 7.67106 4.24878 5.99964C5.92034 4.32844 8.50531 3.75159 12.0242 3.75159C15.5435 3.75163 18.1289 4.3283 19.8005 5.99964C21.4721 7.67107 22.0486 10.2566 22.0486 13.776Z" fill="#253035"/>
<path d="M21.033 9.574C21.4472 9.574 21.783 9.90979 21.783 10.324C21.783 10.7382 21.4472 11.074 21.033 11.074H3.02515C2.61093 11.074 2.27515 10.7382 2.27515 10.324C2.27515 9.90979 2.61093 9.574 3.02515 9.574H21.033Z" fill="#253035"/>
<path d="M16.4373 13.511C16.8515 13.511 17.1873 13.8468 17.1873 14.261C17.1873 14.6752 16.8515 15.011 16.4373 15.011H16.4285C16.0143 15.011 15.6785 14.6752 15.6785 14.261C15.6785 13.8468 16.0143 13.511 16.4285 13.511H16.4373Z" fill="#253035"/>
<path d="M12.0379 13.511C12.4521 13.511 12.7879 13.8468 12.7879 14.261C12.7879 14.6752 12.4521 15.011 12.0379 15.011H12.0291C11.6149 15.011 11.2791 14.6752 11.2791 14.261C11.2791 13.8468 11.6149 13.511 12.0291 13.511H12.0379Z" fill="#253035"/>
<path d="M7.63013 13.511C8.04435 13.511 8.38013 13.8468 8.38013 14.261C8.38013 14.6752 8.04435 15.011 7.63013 15.011H7.62135C7.20713 15.011 6.87135 14.6752 6.87135 14.261C6.87135 13.8468 7.20713 13.511 7.62135 13.511H7.63013Z" fill="#253035"/>
<path d="M16.4373 17.3629C16.8515 17.3629 17.1873 17.6987 17.1873 18.1129C17.1873 18.5271 16.8515 18.8629 16.4373 18.8629H16.4285C16.0143 18.8629 15.6785 18.5271 15.6785 18.1129C15.6785 17.6987 16.0143 17.3629 16.4285 17.3629H16.4373Z" fill="#253035"/>
<path d="M12.0379 17.3629C12.4521 17.3629 12.7879 17.6987 12.7879 18.1129C12.7879 18.5271 12.4521 18.8629 12.0379 18.8629H12.0291C11.6149 18.8629 11.2791 18.5271 11.2791 18.1129C11.2791 17.6987 11.6149 17.3629 12.0291 17.3629H12.0379Z" fill="#253035"/>
<path d="M7.63013 17.3629C8.04435 17.3629 8.38013 17.6987 8.38013 18.1129C8.38013 18.5271 8.04435 18.8629 7.63013 18.8629H7.62135C7.20713 18.8629 6.87135 18.5271 6.87135 18.1129C6.87135 17.6987 7.20713 17.3629 7.62135 17.3629H7.63013Z" fill="#253035"/>
<path d="M15.283 6.31177V3.05005C15.283 2.63584 15.6188 2.30005 16.033 2.30005C16.4472 2.30005 16.783 2.63584 16.783 3.05005V6.31177C16.783 6.72598 16.4472 7.06177 16.033 7.06177C15.6188 7.06177 15.283 6.72598 15.283 6.31177Z" fill="#253035"/>
<path d="M7.27466 6.31177V3.05005C7.27466 2.63584 7.61044 2.30005 8.02466 2.30005C8.43887 2.30005 8.77466 2.63584 8.77466 3.05005V6.31177C8.77466 6.72598 8.43887 7.06177 8.02466 7.06177C7.61044 7.06177 7.27466 6.72598 7.27466 6.31177Z" fill="#253035"/>
</svg>
