<svg width="24" height="24" viewBox="0 0 24 24" fill="none" xmlns="http://www.w3.org/2000/svg">
<path fill-rule="evenodd" clip-rule="evenodd" d="M17.2036 4.26291V2.65991C17.2036 2.24591 16.8676 1.90991 16.4536 1.90991C16.0396 1.90991 15.7036 2.24591 15.7036 2.65991V5.92291C15.7036 6.18291 15.8446 6.40191 16.0466 6.53591C15.9276 6.61591 15.7926 6.67291 15.6386 6.67291C15.2246 6.67291 14.8886 6.33691 14.8886 5.92291V3.75691C14.0866 3.66091 13.2126 3.61191 12.2496 3.61191C11.1156 3.61191 10.1046 3.67991 9.19559 3.81691V2.65991C9.19559 2.24591 8.85959 1.90991 8.44559 1.90991C8.03159 1.90991 7.69559 2.24591 7.69559 2.65991V5.92291C7.69559 6.18291 7.83659 6.40191 8.03859 6.53591C7.91959 6.61591 7.78459 6.67291 7.63059 6.67291C7.21659 6.67291 6.88059 6.33691 6.88059 5.92291V4.39291C4.74659 5.21591 3.49459 6.74691 2.90259 9.18491H21.5976C20.9696 6.59891 19.5816 5.04691 17.2036 4.26291Z" fill="#253035"/>
<path fill-rule="evenodd" clip-rule="evenodd" d="M16.6626 14.6213C16.2486 14.6213 15.9086 14.2853 15.9086 13.8713C15.9086 13.4573 16.2396 13.1213 16.6536 13.1213H16.6626C17.0766 13.1213 17.4126 13.4573 17.4126 13.8713C17.4126 14.2853 17.0766 14.6213 16.6626 14.6213ZM16.6626 18.4743C16.2486 18.4743 15.9086 18.1383 15.9086 17.7243C15.9086 17.3093 16.2396 16.9743 16.6536 16.9743H16.6626C17.0766 16.9743 17.4126 17.3093 17.4126 17.7243C17.4126 18.1383 17.0766 18.4743 16.6626 18.4743ZM12.2636 14.6213C11.8496 14.6213 11.5086 14.2853 11.5086 13.8713C11.5086 13.4573 11.8406 13.1213 12.2546 13.1213H12.2636C12.6776 13.1213 13.0136 13.4573 13.0136 13.8713C13.0136 14.2853 12.6776 14.6213 12.2636 14.6213ZM12.2636 18.4743C11.8496 18.4743 11.5086 18.1383 11.5086 17.7243C11.5086 17.3093 11.8406 16.9743 12.2546 16.9743H12.2636C12.6776 16.9743 13.0136 17.3093 13.0136 17.7243C13.0136 18.1383 12.6776 18.4743 12.2636 18.4743ZM7.85559 14.6213C7.44159 14.6213 7.10059 14.2853 7.10059 13.8713C7.10059 13.4573 7.43259 13.1213 7.84659 13.1213H7.85559C8.26959 13.1213 8.60559 13.4573 8.60559 13.8713C8.60559 14.2853 8.26959 14.6213 7.85559 14.6213ZM7.85559 18.4743C7.44159 18.4743 7.10059 18.1383 7.10059 17.7243C7.10059 17.3093 7.43259 16.9743 7.84659 16.9743H7.85559C8.26959 16.9743 8.60559 17.3093 8.60559 17.7243C8.60559 18.1383 8.26959 18.4743 7.85559 18.4743ZM21.8696 10.6843H2.63059C2.52859 11.5043 2.47559 12.3973 2.47559 13.3863C2.47559 20.6013 5.03359 23.1593 12.2496 23.1593C19.4666 23.1593 22.0246 20.6013 22.0246 13.3863C22.0246 12.3973 21.9716 11.5043 21.8696 10.6843Z" fill="#253035"/>
</svg>
