<svg width="24" height="24" viewBox="0 0 24 24" fill="none" xmlns="http://www.w3.org/2000/svg">
<path d="M14.436 1.7549C18.4851 2.20467 21.684 5.39902 22.1382 9.44826C22.1843 9.85974 21.8884 10.231 21.477 10.2774C21.0654 10.3235 20.6941 10.0269 20.6479 9.61525C20.2719 6.26281 17.6226 3.61744 14.27 3.24513C13.8584 3.19929 13.5622 2.8286 13.6079 2.41701C13.6537 2.00546 14.0244 1.70919 14.436 1.7549Z" fill="#A2B5BE"/>
<path d="M13.6167 5.90044C13.6956 5.49396 14.0891 5.22798 14.4956 5.30669C16.567 5.70905 18.1859 7.32894 18.5893 9.39946C18.6685 9.80599 18.4031 10.2001 17.9966 10.2793C17.59 10.3585 17.1959 10.0931 17.1167 9.68657C16.8301 8.21528 15.6807 7.06511 14.2104 6.77934C13.804 6.70039 13.538 6.3069 13.6167 5.90044Z" fill="#A2B5BE"/>
<path d="M4.64356 2.07717C5.30338 1.7397 5.94183 1.65251 6.5791 1.86428C7.16088 2.05768 7.65188 2.47547 8.09961 2.91311C8.33052 3.13883 8.57299 3.39383 8.82422 3.65823C9.07838 3.9257 9.34734 4.20876 9.64551 4.50686C10.3891 5.25055 10.6942 5.97227 10.6748 6.72854C10.6658 7.07861 10.5871 7.39825 10.502 7.67483C10.4593 7.8133 10.413 7.94967 10.3691 8.07522C10.324 8.20452 10.2819 8.32238 10.2432 8.44241C10.0928 8.90781 10.0147 9.31749 10.1348 9.80667C10.2588 10.312 10.62 11.0011 11.5615 11.9424C12.5031 12.8838 13.1922 13.2444 13.6973 13.3682C14.1862 13.488 14.5954 13.4095 15.0605 13.2588C15.1805 13.22 15.2985 13.1781 15.4277 13.1328C15.5531 13.089 15.6889 13.0417 15.8272 12.999C16.1036 12.9137 16.4234 12.8354 16.7734 12.8262C17.4353 12.8087 18.0709 13.0396 18.7178 13.5957L18.9951 13.8545L19.4316 14.2823C19.5732 14.4186 19.711 14.5496 19.8447 14.6768C20.109 14.9282 20.3634 15.1702 20.5889 15.4014C21.0264 15.85 21.443 16.3418 21.6357 16.9239C21.8467 17.5611 21.76 18.1991 21.4229 18.8584C21.102 19.4858 20.5399 20.1647 19.749 20.9551C19.7299 20.9742 19.7096 20.9929 19.6885 21.0098C19.708 20.9941 19.7127 20.9871 19.6572 21.044C19.6169 21.0853 19.5567 21.147 19.4844 21.2158C19.3374 21.3556 19.1341 21.5294 18.8672 21.6944C18.3229 22.0307 17.5544 22.3041 16.5147 22.2412C14.48 22.1181 11.5257 20.7199 7.1543 16.3496C2.78275 11.9792 1.38323 9.02517 1.25879 6.99026C1.19528 5.95044 1.46773 5.18131 1.80371 4.63674C1.96857 4.3696 2.14246 4.16572 2.28223 4.01858C2.35111 3.94607 2.41369 3.88616 2.45508 3.84573C2.51179 3.79032 2.50479 3.79517 2.48926 3.81448L2.54395 3.75393C3.33632 2.9615 4.01583 2.39827 4.64356 2.07717ZM6.10645 3.28811C5.92825 3.22887 5.70894 3.21786 5.32715 3.41311C4.91321 3.62483 4.36694 4.05197 3.60449 4.81448L3.60254 4.81253C3.56095 4.85758 3.52256 4.8998 3.50293 4.91897C3.4593 4.96159 3.41679 5.00266 3.37012 5.05178C3.27868 5.14803 3.17553 5.2692 3.08008 5.42385C2.89543 5.72306 2.71342 6.1876 2.75684 6.89846C2.84646 8.36533 3.90903 10.9844 8.21485 15.2891C12.5203 19.5934 15.1393 20.6544 16.6055 20.7432C17.3155 20.7861 17.7791 20.6037 18.0781 20.419C18.2326 20.3235 18.354 20.2204 18.4502 20.1289C18.4994 20.0822 18.5413 20.0399 18.584 19.9961C18.6032 19.9765 18.6444 19.9372 18.6895 19.8955L18.6885 19.8946C19.449 19.1345 19.8754 18.5892 20.0869 18.1758C20.2819 17.7945 20.2712 17.5746 20.2119 17.3955C20.1344 17.1615 19.9336 16.8778 19.5156 16.4492C19.3134 16.242 19.0805 16.0195 18.8115 15.7637C18.5456 15.5107 18.2482 15.2287 17.9346 14.9151C17.4088 14.3898 17.0647 14.3195 16.8125 14.3262C16.6584 14.3303 16.488 14.3655 16.2705 14.4326C16.1618 14.4662 16.0489 14.5047 15.9229 14.5489C15.8007 14.5916 15.6638 14.6401 15.5234 14.6856C14.9463 14.8725 14.2218 15.0413 13.3398 14.8252C12.4741 14.613 11.5537 14.0554 10.501 13.003C9.44815 11.9504 8.89026 11.0299 8.67774 10.1641C8.46132 9.28233 8.62991 8.55877 8.81641 7.98147C8.8618 7.84098 8.90947 7.70334 8.95215 7.58108C8.99618 7.45497 9.03487 7.3422 9.06836 7.23342C9.13543 7.01558 9.17079 6.84481 9.17481 6.69045C9.18132 6.43783 9.11069 6.09322 8.58496 5.56741C8.27123 5.25374 7.98924 4.9576 7.73633 4.69143C7.4805 4.4222 7.25894 4.18889 7.05176 3.98635C6.62337 3.5676 6.34005 3.36588 6.10645 3.28811Z" fill="#253035"/>
</svg>
