<svg width="24" height="24" viewBox="0 0 24 24" fill="none" xmlns="http://www.w3.org/2000/svg">
<path d="M20.999 8.71973C21.4132 8.71973 21.749 9.05551 21.749 9.46973C21.749 9.88394 21.4132 10.2197 20.999 10.2197H3C2.58579 10.2197 2.25 9.88394 2.25 9.46973C2.25 9.05551 2.58579 8.71973 3 8.71973H20.999Z" fill="#A2B5BE"/>
<path d="M18.5129 14.2622C18.5129 13.848 18.8487 13.5122 19.2629 13.5122C19.6769 13.5124 20.0129 13.8481 20.0129 14.2622V18.0601L20.4797 17.6099C20.7778 17.3227 21.2528 17.3314 21.5402 17.6294C21.8276 17.9275 21.8187 18.4024 21.5207 18.6899L19.7951 20.354C19.7914 20.3578 19.7882 20.362 19.7844 20.3657C19.7794 20.3706 19.7729 20.3738 19.7678 20.3784C19.737 20.4067 19.7044 20.4327 19.6692 20.4556C19.6641 20.4588 19.6586 20.4612 19.6535 20.4644C19.5395 20.5345 19.4066 20.5776 19.2629 20.5776C19.052 20.5776 18.8621 20.4893 18.7258 20.3491L17.0051 18.6899C16.7069 18.4024 16.6981 17.9276 16.9856 17.6294C17.273 17.3313 17.7479 17.3226 18.0461 17.6099L18.5129 18.0601V14.2622Z" fill="#A2B5BE"/>
<path d="M20.249 11.6328V8.33887C20.249 7.27271 19.9192 6.42472 19.3848 5.85059C18.8559 5.2825 18.0709 4.92188 17.0342 4.92188H6.96484C5.93215 4.92188 5.14731 5.28205 4.61719 5.85059C4.08162 6.42514 3.75002 7.27354 3.75 8.33887V14.9258C3.75002 15.992 4.08073 16.8399 4.61523 17.4141C5.14411 17.982 5.92825 18.3428 6.96484 18.3428H10.291C10.7052 18.3428 11.041 18.6786 11.041 19.0928C11.041 19.507 10.7052 19.8428 10.291 19.8428H6.96484C5.55762 19.8428 4.35907 19.3414 3.5166 18.4365C2.67978 17.5377 2.25002 16.3016 2.25 14.9258V8.33887C2.25002 6.96223 2.68211 5.72655 3.51953 4.82812C4.36247 3.92382 5.56052 3.42188 6.96484 3.42188H17.0342C18.4413 3.42188 19.64 3.92334 20.4824 4.82812C21.3192 5.72698 21.749 6.96308 21.749 8.33887V11.6328C21.7488 12.0468 21.4131 12.3828 20.999 12.3828C20.5851 12.3827 20.2492 12.0467 20.249 11.6328Z" fill="#253035"/>
<path d="M13.9133 19.3298V15.53L13.4475 15.9792C13.1494 16.2668 12.6745 16.2588 12.387 15.9607C12.0994 15.6626 12.1084 15.1877 12.4065 14.9001L14.1428 13.2244L14.259 13.1326C14.5457 12.9485 14.9305 12.9792 15.1848 13.2244L16.9221 14.9001C17.2201 15.1877 17.2291 15.6626 16.9416 15.9607C16.6541 16.2589 16.1793 16.2668 15.8811 15.9792L15.4133 15.5281V19.3298C15.4132 19.7439 15.0775 20.0798 14.6633 20.0798C14.2494 20.0796 13.9135 19.7438 13.9133 19.3298Z" fill="#253035"/>
</svg>
