<svg width="24" height="24" viewBox="0 0 24 24" fill="none" xmlns="http://www.w3.org/2000/svg">
<path d="M16.0234 2.64844C16.2178 2.28265 16.6713 2.14357 17.0371 2.33789C17.4027 2.53223 17.5418 2.98585 17.3477 3.35156L16.0215 5.84863H18.0801C19.2668 5.84888 20.0909 6.98718 19.7773 8.08789L19.6992 8.30762L19.1055 9.68555C19.4342 10.1654 19.7297 10.6289 19.9473 11.1377C20.2258 11.7892 20.3681 12.4859 20.3682 13.3818C20.3682 15.5293 19.5566 17.4862 18.2266 18.9678L19.1406 19.8818C19.4333 20.1746 19.4331 20.6495 19.1406 20.9424C18.8477 21.2353 18.373 21.2352 18.0801 20.9424L17.1279 19.9902C15.7111 21.0914 13.9331 21.7499 12 21.75C10.0526 21.7499 8.2616 21.0827 6.83984 19.9668L5.86523 20.9424C5.57234 21.2353 5.09757 21.2353 4.80469 20.9424C4.51236 20.6495 4.512 20.1745 4.80469 19.8818L5.74609 18.9395C4.43184 17.4614 3.63281 15.5152 3.63281 13.3818C3.63286 12.4859 3.77418 11.7893 4.05273 11.1377C4.26875 10.6325 4.56171 10.1716 4.8877 9.69531L4.26953 8.3457C3.73475 7.17838 4.5872 5.84896 5.87109 5.84863H14.3232L16.0234 2.64844ZM7.50293 9.00977C7.08888 9.00996 6.75293 9.34567 6.75293 9.75977C6.75299 10.1738 7.08892 10.5096 7.50293 10.5098H17.1377C17.5518 10.5097 17.8876 10.1739 17.8877 9.75977C17.8877 9.34557 17.5519 9.0098 17.1377 9.00977H7.50293Z" fill="#253035"/>
</svg>
