<svg width="24" height="24" viewBox="0 0 24 24" fill="none" xmlns="http://www.w3.org/2000/svg">
<path d="M18.8679 13.3826C18.8679 12.661 18.7566 12.1685 18.5681 11.7274C18.404 11.3436 18.1733 10.9791 17.8513 10.5096H8.5036C8.08943 10.5096 7.75367 10.1737 7.7536 9.75959C7.7536 9.34538 8.08939 9.00959 8.5036 9.00959H17.7643L18.321 7.71467C18.3952 7.5416 18.2684 7.34851 18.0798 7.34846H5.87079C5.67978 7.34878 5.55299 7.54678 5.63251 7.72053L6.42841 9.45881C6.53903 9.70028 6.51391 9.98215 6.362 10.2C5.9249 10.8269 5.62967 11.2635 5.43134 11.7274C5.24278 12.1684 5.13251 12.6611 5.13251 13.3826C5.13268 17.1752 8.20713 20.2497 11.9997 20.2498C13.7476 20.2498 15.3422 19.5957 16.5544 18.5203C16.5769 18.4896 16.6018 18.4602 16.6296 18.4324C16.6705 18.3915 16.7153 18.3565 16.7624 18.327C18.0591 17.0778 18.8678 15.3253 18.8679 13.3826ZM20.3679 13.3826C20.3678 15.5303 19.5573 17.4881 18.2272 18.9696L19.1403 19.8826C19.4332 20.1755 19.4332 20.6503 19.1403 20.9432C18.8474 21.236 18.3726 21.236 18.0798 20.9432L17.1276 19.991C15.7109 21.0918 13.9327 21.7498 11.9997 21.7498C10.0526 21.7498 8.26215 21.083 6.84052 19.9676L5.86591 20.9432C5.57307 21.236 5.09827 21.2359 4.80536 20.9432C4.51247 20.6503 4.51247 20.1755 4.80536 19.8826L5.74677 18.9403C4.43221 17.4623 3.63259 15.5162 3.63251 13.3826C3.63251 12.4864 3.77381 11.7892 4.05243 11.1375C4.26837 10.6325 4.56154 10.1722 4.88739 9.69612L4.26923 8.34553C3.73444 7.1782 4.58689 5.84878 5.87079 5.84846H14.3229L16.0231 2.64826C16.2174 2.28253 16.671 2.14353 17.0368 2.33772C17.4026 2.53203 17.5416 2.98561 17.3474 3.35139L16.0212 5.84846H18.0798C19.3459 5.84851 20.1992 7.14409 19.6989 8.30744L19.1052 9.68635C19.4337 10.166 19.7295 10.629 19.947 11.1375C20.2256 11.7892 20.3679 12.4864 20.3679 13.3826Z" fill="#253035"/>
</svg>
