<svg width="24" height="24" viewBox="0 0 24 24" fill="none" xmlns="http://www.w3.org/2000/svg">
<path d="M6.25532 18.4325C6.54822 18.1396 7.02298 18.1396 7.31587 18.4325C7.60872 18.7254 7.60875 19.2002 7.31587 19.4931L5.86568 20.9433C5.57279 21.2361 5.09801 21.2361 4.80513 20.9433C4.51225 20.6504 4.51228 20.1756 4.80513 19.8827L6.25532 18.4325ZM16.6293 18.4325C16.9222 18.1396 17.397 18.1396 17.6899 18.4325L19.1401 19.8827C19.433 20.1756 19.433 20.6504 19.1401 20.9433C18.8472 21.2359 18.3724 21.2361 18.0795 20.9433L16.6293 19.4931C16.3365 19.2003 16.3367 18.7254 16.6293 18.4325ZM18.1381 9.00967C18.5523 9.00974 18.8881 9.3455 18.8881 9.75967C18.8881 10.1738 18.5523 10.5096 18.1381 10.5097H8.50337C8.08916 10.5097 7.75337 10.1739 7.75337 9.75967C7.75337 9.34546 8.08916 9.00967 8.50337 9.00967H18.1381ZM16.0229 2.64834C16.2172 2.28255 16.6718 2.14346 17.0375 2.3378C17.4029 2.53217 17.542 2.98588 17.3481 3.35147L15.5717 6.69522C15.3774 7.06102 14.9229 7.2001 14.5571 7.00577C14.1913 6.81142 14.0522 6.3569 14.2465 5.99112L16.0229 2.64834Z" fill="#A2B5BE"/>
<path d="M18.8679 13.3823C18.8678 12.661 18.7566 12.169 18.5681 11.728C18.3697 11.2641 18.0745 10.8277 17.6374 10.2007C17.4891 9.98795 17.4617 9.71332 17.5641 9.4751L18.321 7.71533C18.3954 7.54221 18.2685 7.34917 18.0798 7.34912H5.87079C5.67975 7.34944 5.5529 7.54742 5.63251 7.72119L6.42841 9.45947C6.53895 9.70091 6.51388 9.98285 6.362 10.2007C5.92496 10.8275 5.62965 11.2642 5.43134 11.728C5.24287 12.169 5.13255 12.6611 5.13251 13.3823C5.13251 17.175 8.20703 20.2503 11.9997 20.2505C15.7925 20.2505 18.8679 17.1751 18.8679 13.3823ZM20.3679 13.3823C20.3679 18.0035 16.6209 21.7505 11.9997 21.7505C7.3786 21.7503 3.63251 18.0034 3.63251 13.3823C3.63255 12.4864 3.77387 11.7898 4.05243 11.1382C4.26845 10.6329 4.56137 10.1721 4.88739 9.6958L4.26923 8.34619C3.73444 7.17886 4.58689 5.84944 5.87079 5.84912H18.0798C19.2667 5.84917 20.0907 6.98754 19.777 8.08838L19.6989 8.30811L19.1052 9.68604C19.4339 10.1659 19.7294 10.6294 19.947 11.1382C20.2255 11.7898 20.3678 12.4863 20.3679 13.3823Z" fill="#253035"/>
</svg>
