<svg width="24" height="24" viewBox="0 0 24 24" fill="none" xmlns="http://www.w3.org/2000/svg">
<path fill-rule="evenodd" clip-rule="evenodd" d="M16.3058 11.8559C15.7358 11.8559 15.2718 11.3919 15.2718 10.8219C15.2718 10.2519 15.7358 9.78686 16.3058 9.78686C16.8758 9.78686 17.3408 10.2519 17.3408 10.8219C17.3408 11.3919 16.8758 11.8559 16.3058 11.8559ZM12.2998 11.8559C11.7298 11.8559 11.2658 11.3919 11.2658 10.8219C11.2658 10.2519 11.7298 9.78686 12.2998 9.78686C12.8708 9.78686 13.3348 10.2519 13.3348 10.8219C13.3348 11.3919 12.8708 11.8559 12.2998 11.8559ZM8.29378 11.8559C7.72378 11.8559 7.25978 11.3919 7.25978 10.8219C7.25978 10.2519 7.72378 9.78686 8.29378 9.78686C8.86478 9.78686 9.32878 10.2519 9.32878 10.8219C9.32878 11.3919 8.86478 11.8559 8.29378 11.8559ZM17.3628 3.15186H7.24078C4.93078 3.15186 3.05078 5.03086 3.05078 7.34086V14.2569C3.05078 16.5659 4.93078 18.4459 7.24078 18.4459H8.30878C8.81178 18.4459 9.30378 18.6489 9.65678 19.0039L11.0788 20.4259C11.4058 20.7519 11.8398 20.9329 12.3018 20.9329C12.7628 20.9319 13.1978 20.7519 13.5228 20.4259L14.9448 19.0049C15.3048 18.6449 15.7848 18.4459 16.2938 18.4459H17.3628C19.6718 18.4459 21.5508 16.5659 21.5508 14.2569V7.34086C21.5508 5.03086 19.6718 3.15186 17.3628 3.15186Z" fill="#253035"/>
</svg>
