<svg width="24" height="24" viewBox="0 0 24 24" fill="none" xmlns="http://www.w3.org/2000/svg">
<path d="M21.0508 11.8418V6.49121C21.0506 5.22469 20.0249 4.19922 18.7578 4.19922H10.9287C9.65376 4.19932 8.62905 5.22583 8.62891 6.49121V7.26953C8.62891 7.68374 8.29312 8.01953 7.87891 8.01953C7.46469 8.01953 7.12891 7.68374 7.12891 7.26953V6.49121C7.12905 4.39461 8.82813 2.69932 10.9287 2.69922H18.7578C20.8527 2.69922 22.5506 4.39563 22.5508 6.49121V11.8418C22.5506 13.943 20.8538 15.6406 18.7578 15.6406H17.9316C17.9073 15.6406 17.8827 15.6428 17.7949 15.6514C17.3828 15.6913 17.0166 15.3897 16.9766 14.9775C16.9365 14.5653 17.2381 14.1983 17.6504 14.1582C17.7023 14.1532 17.8162 14.1406 17.9316 14.1406H18.7578C20.0238 14.1406 21.0506 13.1162 21.0508 11.8418Z" fill="#A2B5BE"/>
<path d="M16.9727 10.3154C16.9725 9.04761 15.9447 8.01953 14.6768 8.01953H6.84766C5.57881 8.01966 4.55093 9.04784 4.55078 10.3154V15.665C4.55096 16.9337 5.57898 17.9618 6.84766 17.9619H7.67383C8.31481 17.9619 8.9304 18.2155 9.38477 18.6699L10.4834 19.7695C10.6371 19.9231 10.8863 19.923 11.04 19.7695L12.1396 18.6699C12.594 18.2157 13.2088 17.962 13.8496 17.9619H14.6768C15.9445 17.9619 16.9725 16.9339 16.9727 15.665V10.3154ZM18.4727 15.665C18.4725 17.7621 16.7732 19.4619 14.6768 19.4619H13.8496C13.6054 19.462 13.3723 19.5584 13.2002 19.7305L12.1006 20.8301C11.3611 21.5693 10.1623 21.5694 9.42285 20.8301L8.32324 19.7305C8.15107 19.5584 7.91807 19.4619 7.67383 19.4619H6.84766C4.75056 19.4618 3.05096 17.7621 3.05078 15.665V10.3154C3.05093 8.21911 4.75069 6.51966 6.84766 6.51953H14.6768C16.7731 6.51953 18.4725 8.21918 18.4727 10.3154V15.665Z" fill="#253035"/>
<path d="M12.9522 12.1016C13.5229 12.1016 13.9872 12.564 13.9873 13.1358C13.9873 13.7074 13.5231 14.1709 12.9522 14.1709C12.3806 14.1708 11.918 13.7067 11.918 13.1358C11.9182 12.5648 12.3809 12.1017 12.9522 12.1016Z" fill="#253035"/>
<path d="M8.2666 12.1016C8.83738 12.1016 9.30158 12.5641 9.30176 13.1358C9.30176 13.7074 8.83766 14.1709 8.2666 14.1709C7.69508 14.1708 7.23242 13.7067 7.23242 13.1358C7.23259 12.5647 7.69536 12.1017 8.2666 12.1016Z" fill="#253035"/>
</svg>
