<svg width="24" height="24" viewBox="0 0 24 24" fill="none" xmlns="http://www.w3.org/2000/svg">
<path fill-rule="evenodd" clip-rule="evenodd" d="M18.2608 3.19727H10.4308C8.94758 3.19727 7.68751 4.17898 7.2829 5.52692C7.24621 5.64913 7.34139 5.76727 7.46899 5.76727H14.1808C16.6808 5.76727 18.7208 7.80727 18.7208 10.3173V14.8679C18.7208 14.9892 18.8282 15.083 18.9469 15.058C20.4352 14.7451 21.5508 13.4182 21.5508 11.8373V6.48727C21.5508 4.67727 20.0708 3.19727 18.2608 3.19727Z" fill="#253035"/>
<path fill-rule="evenodd" clip-rule="evenodd" d="M12.4508 14.1673C11.8808 14.1673 11.4208 13.7073 11.4208 13.1373C11.4208 12.5673 11.8808 12.0973 12.4508 12.0973C13.0208 12.0973 13.4908 12.5673 13.4908 13.1373C13.4908 13.7073 13.0208 14.1673 12.4508 14.1673ZM7.77078 14.1673C7.20078 14.1673 6.73078 13.7073 6.73078 13.1373C6.73078 12.5673 7.20078 12.0973 7.77078 12.0973C8.34078 12.0973 8.80078 12.5673 8.80078 13.1373C8.80078 13.7073 8.34078 14.1673 7.77078 14.1673ZM14.1808 7.01733H6.35078C4.53078 7.01733 3.05078 8.49733 3.05078 10.3173V15.6673C3.05078 17.4773 4.53078 18.9573 6.35078 18.9573H7.17078C7.55078 18.9573 7.91078 19.1073 8.18078 19.3773L9.28078 20.4773C9.54078 20.7373 9.89078 20.8873 10.2608 20.8873C10.6308 20.8873 10.9808 20.7373 11.2508 20.4773L12.3508 19.3773C12.6108 19.1073 12.9708 18.9573 13.3508 18.9573H14.1808C15.9908 18.9573 17.4708 17.4773 17.4708 15.6673V10.3173C17.4708 8.49733 15.9908 7.01733 14.1808 7.01733Z" fill="#253035"/>
</svg>
