<svg width="24" height="24" viewBox="0 0 24 24" fill="none" xmlns="http://www.w3.org/2000/svg">
<path d="M21.0508 7.34082C21.0507 5.57955 19.6236 4.1524 17.8623 4.15234H7.74023C5.97873 4.15241 4.55085 5.5798 4.55078 7.34082V14.2568C4.5508 16.0182 5.97895 17.4462 7.74023 17.4463H8.80859C9.5791 17.4463 10.3185 17.7521 10.8643 18.2979L12.2861 19.7188C12.5715 20.0041 13.0317 20.0039 13.3154 19.7197L14.7383 18.2979C15.2841 17.7521 16.0234 17.4463 16.7939 17.4463H17.8623C19.6234 17.4462 21.0508 16.0184 21.0508 14.2568V7.34082ZM22.5508 14.2568C22.5508 16.8464 20.4523 18.9462 17.8623 18.9463H16.7939C16.4669 18.9463 16.1517 19.0595 15.9014 19.2646L15.7988 19.3584L14.376 20.7803C13.5057 21.6511 12.096 21.6495 11.2256 20.7793L9.80371 19.3584C9.53995 19.0946 9.18226 18.9463 8.80859 18.9463H7.74023C5.15051 18.9462 3.0508 16.8466 3.05078 14.2568V7.34082C3.05085 4.75089 5.15079 2.65241 7.74023 2.65234H17.8623C20.452 2.6524 22.5507 4.75113 22.5508 7.34082V14.2568Z" fill="#253035"/>
<path d="M16.8057 9.7871C17.3765 9.7871 17.8407 10.2498 17.8408 10.8213C17.8408 11.3929 17.3767 11.8564 16.8057 11.8564C16.2341 11.8563 15.7715 11.3922 15.7715 10.8213C15.7717 10.2505 16.2342 9.78722 16.8057 9.7871Z" fill="#253035"/>
<path d="M12.7998 9.7871C13.3709 9.7871 13.8348 10.2499 13.8349 10.8213C13.8349 11.3928 13.371 11.8564 12.7998 11.8564C12.2282 11.8563 11.7656 11.3922 11.7656 10.8213C11.7658 10.2505 12.2283 9.78722 12.7998 9.7871Z" fill="#253035"/>
<path d="M8.79395 9.7871C9.36487 9.7871 9.82893 10.2498 9.82911 10.8213C9.82911 11.3929 9.36498 11.8564 8.79395 11.8564C8.22242 11.8563 7.75977 11.3922 7.75977 10.8213C7.75994 10.2505 8.22253 9.78723 8.79395 9.7871Z" fill="#253035"/>
</svg>
