<svg width="24" height="24" viewBox="0 0 24 24" fill="none" xmlns="http://www.w3.org/2000/svg">
<path d="M20.5 13C20.5 9.57311 19.9193 7.52668 18.6963 6.30371C17.4733 5.08074 15.4269 4.5 12 4.5C8.5731 4.5 6.52668 5.08074 5.30371 6.30371C4.08074 7.52668 3.5 9.57311 3.5 13C3.5 16.4269 4.08074 18.4733 5.30371 19.6963C6.52668 20.9193 8.57311 21.5 12 21.5C15.4269 21.5 17.4733 20.9193 18.6963 19.6963C19.9193 18.4733 20.5 16.4269 20.5 13ZM22 13C22 16.5101 21.4246 19.0891 19.7568 20.7568C18.0891 22.4246 15.5101 23 12 23C8.48991 23 5.91094 22.4246 4.24316 20.7568C2.57539 19.0891 2 16.5101 2 13C2 9.48991 2.57539 6.91094 4.24316 5.24316C5.91094 3.57539 8.4899 3 12 3C15.5101 3 18.0891 3.57539 19.7568 5.24316C21.4246 6.91094 22 9.48991 22 13Z" fill="#A2B5BE"/>
<path d="M14.0141 10.2214C14.307 9.92848 14.7818 9.9285 15.0747 10.2214C15.3676 10.5143 15.3676 10.9891 15.0747 11.282L10.2825 16.0742C9.98957 16.3671 9.51479 16.3671 9.22188 16.0742C8.92897 15.7813 8.92897 15.3065 9.22188 15.0136L14.0141 10.2214Z" fill="#253035"/>
<path d="M9.21968 10.2197C9.51259 9.92677 9.98737 9.92677 10.2803 10.2197L15.0803 15.0197C15.3732 15.3126 15.3732 15.7874 15.0803 16.0803C14.7874 16.3732 14.3126 16.3732 14.0197 16.0803L9.21968 11.2803C8.92677 10.9874 8.92677 10.5126 9.21968 10.2197Z" fill="#253035"/>
</svg>
