<svg width="24" height="24" viewBox="0 0 24 24" fill="none" xmlns="http://www.w3.org/2000/svg">
<path d="M13.8638 10.0644C14.1567 9.77153 14.6314 9.77154 14.9243 10.0644C15.2172 10.3573 15.2172 10.8321 14.9243 11.125L10.1323 15.9169C9.83943 16.2098 9.36467 16.2098 9.07178 15.9169C8.77889 15.6241 8.77888 15.1493 9.07178 14.8564L13.8638 10.0644Z" fill="#253035"/>
<path d="M9.06958 10.0627C9.36247 9.76981 9.83723 9.76982 10.1301 10.0627L14.9299 14.8625C15.2228 15.1554 15.2228 15.6302 14.9299 15.9231C14.637 16.2159 14.1623 16.2159 13.8694 15.9231L9.06958 11.1233C8.77668 10.8304 8.77669 10.3556 9.06958 10.0627Z" fill="#253035"/>
<path d="M20.5 13C20.5 9.57311 19.9193 7.52668 18.6963 6.30371C17.4733 5.08074 15.4269 4.5 12 4.5C8.5731 4.5 6.52668 5.08074 5.30371 6.30371C4.08074 7.52668 3.5 9.57311 3.5 13C3.5 16.4269 4.08074 18.4733 5.30371 19.6963C6.52668 20.9193 8.57311 21.5 12 21.5C15.4269 21.5 17.4733 20.9193 18.6963 19.6963C19.9193 18.4733 20.5 16.4269 20.5 13ZM22 13C22 16.5101 21.4246 19.0891 19.7568 20.7568C18.0891 22.4246 15.5101 23 12 23C8.48991 23 5.91094 22.4246 4.24316 20.7568C2.57539 19.0891 2 16.5101 2 13C2 9.48991 2.57539 6.91094 4.24316 5.24316C5.91094 3.57539 8.4899 3 12 3C15.5101 3 18.0891 3.57539 19.7568 5.24316C21.4246 6.91094 22 9.48991 22 13Z" fill="#253035"/>
</svg>
