<svg width="24" height="24" viewBox="0 0 24 24" fill="none" xmlns="http://www.w3.org/2000/svg">
<path d="M5.30963 6.80881C5.60253 6.51594 6.0773 6.51592 6.37018 6.80881C6.66304 7.10169 6.66304 7.57647 6.37018 7.86935L4.95514 9.28439C4.66232 9.5772 4.18751 9.57711 3.89459 9.28439L2.47858 7.86935C2.18577 7.57655 2.18585 7.10174 2.47858 6.80881C2.77138 6.516 3.24619 6.51608 3.53913 6.80881L4.42389 7.69357L5.30963 6.80881Z" fill="#253035"/>
<path d="M3.6749 8.67383V6.53809C3.6749 4.16987 5.59477 2.25 7.96299 2.25C8.37716 2.25005 8.71299 2.58582 8.71299 3C8.71299 3.41418 8.37716 3.74995 7.96299 3.75C6.4232 3.75 5.1749 4.9983 5.1749 6.53809V8.67383C5.1749 9.08804 4.83912 9.42383 4.4249 9.42383C4.01069 9.42383 3.6749 9.08804 3.6749 8.67383Z" fill="#253035"/>
<path d="M19.8965 6.95819C19.8965 5.24175 18.5486 3.83997 16.8535 3.75409L16.6885 3.75018C14.9165 3.75019 13.4795 5.18665 13.4795 6.95819C13.4795 8.72972 14.9165 10.1662 16.6885 10.1662C18.4603 10.1662 19.8965 8.72997 19.8965 6.95819ZM21.3965 6.95819C21.3965 9.55841 19.2887 11.6662 16.6885 11.6662C14.0885 11.6662 11.9795 9.55864 11.9795 6.95819C11.9795 4.35773 14.0885 2.25019 16.6885 2.25018L16.9307 2.25604C19.4184 2.38208 21.3965 4.43919 21.3965 6.95819Z" fill="#253035"/>
<path d="M10.5215 17.0422C10.5215 15.2706 9.08454 13.8342 7.3125 13.8342C5.54072 13.8342 4.1045 15.2704 4.10449 17.0422L4.1084 17.2072C4.19429 18.9023 5.59606 20.2502 7.3125 20.2502C9.08453 20.2502 10.5215 18.8137 10.5215 17.0422ZM12.0215 17.0422C12.0215 19.6426 9.91246 21.7502 7.3125 21.7502C4.79351 21.7502 2.7364 19.772 2.61035 17.2844L2.60449 17.0422C2.6045 14.442 4.71229 12.3342 7.3125 12.3342C9.91247 12.3342 12.0215 14.4417 12.0215 17.0422Z" fill="#253035"/>
<path d="M19.1016 14.6622C19.3961 14.422 19.8309 14.4396 20.1055 14.714L21.5215 16.129C21.8143 16.4218 21.8143 16.8967 21.5215 17.1896C21.2287 17.4824 20.7539 17.4823 20.461 17.1896L19.5753 16.3038L18.6905 17.1896C18.3976 17.4824 17.9228 17.4824 17.6299 17.1896C17.3371 16.8967 17.3371 16.4219 17.6299 16.129L19.045 14.714L19.1016 14.6622Z" fill="#253035"/>
<path d="M18.8252 17.4601V15.3244C18.8252 14.9102 19.161 14.5744 19.5752 14.5744C19.9894 14.5744 20.3252 14.9102 20.3252 15.3244V17.4601C20.3252 19.8283 18.4053 21.7482 16.0371 21.7482C15.6229 21.7482 15.2871 21.4124 15.2871 20.9982C15.2872 20.5841 15.623 20.2482 16.0371 20.2482C17.5769 20.2482 18.8252 18.9999 18.8252 17.4601Z" fill="#253035"/>
</svg>
