<svg width="24" height="24" viewBox="0 0 24 24" fill="none" xmlns="http://www.w3.org/2000/svg">
<path d="M19.8965 6.95801C19.8965 5.24157 18.5486 3.83979 16.8535 3.75391L16.6885 3.75C14.9165 3.75001 13.4795 5.18647 13.4795 6.95801C13.4795 8.72954 14.9165 10.166 16.6885 10.166C18.4603 10.166 19.8965 8.72979 19.8965 6.95801ZM21.3965 6.95801C21.3965 9.55823 19.2887 11.666 16.6885 11.666C14.0885 11.666 11.9795 9.55846 11.9795 6.95801C11.9795 4.35755 14.0885 2.25001 16.6885 2.25L16.9307 2.25586C19.4184 2.3819 21.3965 4.43901 21.3965 6.95801Z" fill="#A2B5BE"/>
<path d="M10.5215 17.042C10.5215 15.2705 9.08454 13.834 7.3125 13.834C5.54072 13.834 4.1045 15.2702 4.10449 17.042L4.1084 17.207C4.19429 18.9021 5.59606 20.25 7.3125 20.25C9.08453 20.25 10.5215 18.8135 10.5215 17.042ZM12.0215 17.042C12.0215 19.6425 9.91246 21.75 7.3125 21.75C4.79351 21.75 2.7364 19.7718 2.61035 17.2842L2.60449 17.042C2.6045 14.4418 4.71229 12.334 7.3125 12.334C9.91246 12.334 12.0215 14.4415 12.0215 17.042Z" fill="#A2B5BE"/>
<path d="M5.30963 6.80852C5.60253 6.51566 6.0773 6.51564 6.37018 6.80852C6.66304 7.10141 6.66304 7.57618 6.37018 7.86907L4.95514 9.28411C4.66232 9.57692 4.18751 9.57682 3.89459 9.28411L2.47858 7.86907C2.18577 7.57627 2.18585 7.10146 2.47858 6.80852C2.77138 6.51571 3.24619 6.5158 3.53913 6.80852L4.42389 7.69329L5.30963 6.80852Z" fill="#253035"/>
<path d="M3.6749 8.67383V6.53809C3.6749 4.16987 5.59477 2.25 7.96298 2.25C8.37716 2.25005 8.71298 2.58582 8.71298 3C8.71298 3.41418 8.37716 3.74995 7.96298 3.75C6.4232 3.75 5.1749 4.9983 5.1749 6.53809V8.67383C5.1749 9.08804 4.83911 9.42383 4.4249 9.42383C4.01068 9.42383 3.6749 9.08804 3.6749 8.67383Z" fill="#253035"/>
<path d="M19.1016 14.6621C19.3961 14.4218 19.8309 14.4394 20.1055 14.7138L21.5215 16.1289C21.8143 16.4217 21.8142 16.8965 21.5215 17.1894C21.2287 17.4822 20.7539 17.4821 20.461 17.1894L19.5752 16.3037L18.6905 17.1894C18.3976 17.4823 17.9228 17.4823 17.6299 17.1894C17.337 16.8965 17.3371 16.4218 17.6299 16.1289L19.045 14.7138L19.1016 14.6621Z" fill="#253035"/>
<path d="M18.8252 17.4599V15.3242C18.8252 14.91 19.161 14.5742 19.5752 14.5742C19.9894 14.5742 20.3252 14.91 20.3252 15.3242V17.4599C20.3252 19.8282 18.4053 21.748 16.0371 21.748C15.6229 21.748 15.2871 21.4122 15.2871 20.998C15.2872 20.5839 15.6229 20.248 16.0371 20.248C17.5769 20.248 18.8252 18.9997 18.8252 17.4599Z" fill="#253035"/>
</svg>
