<svg width="24" height="24" viewBox="0 0 24 24" fill="none" xmlns="http://www.w3.org/2000/svg">
<path d="M12.3018 14.9336C12.3018 14.4406 12.1498 14.0818 11.9375 13.8536C11.7307 13.6314 11.4116 13.4727 10.9482 13.4727H5.6045C5.14359 13.4727 4.82393 13.6307 4.61621 13.8536C4.40309 14.0823 4.25098 14.4413 4.25098 14.9336V18.4297C4.25101 18.9223 4.40264 19.2814 4.61524 19.5098C4.82219 19.7321 5.14149 19.8907 5.6045 19.8907H10.9482C11.4113 19.8907 11.7306 19.7322 11.9375 19.5098C12.1501 19.2814 12.3017 18.9223 12.3018 18.4297V14.9336ZM13.8018 18.4297C13.8017 19.2319 13.5499 19.9782 13.0352 20.5313C12.5147 21.0905 11.7821 21.3907 10.9482 21.3907H5.6045C4.7707 21.3907 4.03803 21.0905 3.51758 20.5313C3.00283 19.9782 2.75101 19.2319 2.75098 18.4297V14.9336C2.75098 14.1301 3.00435 13.3838 3.51953 12.8311C4.04018 12.2726 4.77234 11.9727 5.6045 11.9727H10.9482C11.7818 11.9727 12.5146 12.2719 13.0352 12.8311C13.5501 13.3842 13.8018 14.131 13.8018 14.9336V18.4297Z" fill="#253035"/>
<path d="M13.0518 14.7832C13.4659 14.7833 13.8018 15.1191 13.8018 15.5332C13.8018 15.9473 13.4659 16.2831 13.0518 16.2832H3.5C3.08579 16.2832 2.75 15.9474 2.75 15.5332C2.75 15.119 3.08579 14.7832 3.5 14.7832H13.0518Z" fill="#253035"/>
<path d="M20.75 7.16113C20.75 5.47702 19.3853 4.11153 17.7012 4.11133C16.0168 4.11133 14.6504 5.47714 14.6504 7.16113C14.6506 8.84498 16.0169 10.21 17.7012 10.21C19.3852 10.2098 20.7498 8.84509 20.75 7.16113ZM22.25 7.16113C22.2498 9.67351 20.2136 11.7098 17.7012 11.71C15.1889 11.71 13.1506 9.67388 13.1504 7.16113C13.1504 4.64822 15.1888 2.61133 17.7012 2.61133C20.2137 2.61153 22.25 4.6486 22.25 7.16113Z" fill="#253035"/>
<path d="M20.7491 15.5273C20.7491 15.1132 21.085 14.7775 21.4991 14.7773C21.9133 14.7773 22.2491 15.1131 22.2491 15.5273C22.2491 18.7638 19.6251 21.3876 16.3887 21.3876C16.1431 21.3876 15.9127 21.268 15.7725 21.0664C15.6324 20.8647 15.6001 20.6071 15.6856 20.3769L16.292 18.7441C16.4363 18.3558 16.8686 18.1574 17.2569 18.3017C17.6451 18.446 17.8425 18.8783 17.6983 19.2666L17.5225 19.7382C19.3808 19.2389 20.7491 17.5431 20.7491 15.5273Z" fill="#253035"/>
<path d="M2.75 8.46973C2.75023 5.2336 5.37422 2.6096 8.61035 2.60938C8.85593 2.60938 9.08637 2.73 9.22656 2.93164C9.36653 3.13315 9.39883 3.39009 9.31348 3.62012L8.70703 5.25391C8.56264 5.64182 8.13123 5.83933 7.74316 5.69531C7.35503 5.5511 7.15684 5.11961 7.30078 4.73145L7.47559 4.25977C5.61808 4.7595 4.25019 6.45464 4.25 8.46973C4.25 8.88394 3.91421 9.21973 3.5 9.21973C3.08579 9.21973 2.75 8.88394 2.75 8.46973Z" fill="#253035"/>
</svg>
