<svg width="24" height="24" viewBox="0 0 24 24" fill="none" xmlns="http://www.w3.org/2000/svg">
<path d="M3.37793 12.7949V6.10059C3.37793 5.03717 3.7123 4.0683 4.37305 3.3584C5.0394 2.64257 5.98311 2.25 7.07422 2.25H12.2705C13.2326 2.25 14.0811 2.5523 14.7275 3.11914C15.3716 3.68392 15.7686 4.46999 15.9062 5.3584C15.9697 5.76767 15.6895 6.15134 15.2803 6.21484C14.8709 6.27828 14.4873 5.99722 14.4238 5.58789C14.3327 5 14.0835 4.54976 13.7383 4.24707C13.3954 3.94646 12.9106 3.75 12.2705 3.75H7.07422C6.35607 3.75 5.82594 4.0003 5.47168 4.38086C5.11194 4.76733 4.87793 5.34871 4.87793 6.10059V12.7949C4.87793 13.4799 5.07264 14.0249 5.37891 14.4062C5.68025 14.7814 6.12339 15.0418 6.71484 15.1152C7.12586 15.1662 7.41808 15.5411 7.36719 15.9521C7.31621 16.3632 6.94134 16.6555 6.53027 16.6045C5.57254 16.4856 4.76852 16.0409 4.20996 15.3457C3.65614 14.6562 3.37793 13.7636 3.37793 12.7949Z" fill="#A2B5BE"/>
<path d="M19.5391 11.209C19.539 10.4567 19.3064 9.87693 18.9482 9.49219C18.5957 9.1135 18.0665 8.86336 17.3438 8.86328H12.1484C11.4292 8.86328 10.8988 9.11274 10.5449 9.49219C10.1857 9.87745 9.95223 10.4577 9.95215 11.209V17.9043C9.95215 18.6568 10.1847 19.2373 10.543 19.6221C10.8956 20.0007 11.4256 20.25 12.1484 20.25H17.3428C18.0659 20.2499 18.5956 20.0006 18.9482 19.6221C19.3066 19.2373 19.5391 18.6568 19.5391 17.9043V11.209ZM21.0391 17.9043C21.0391 18.9663 20.7067 19.9339 20.0459 20.6436C19.3795 21.3592 18.4364 21.7499 17.3428 21.75H12.1484C11.0551 21.75 10.1116 21.3592 9.44531 20.6436C8.7847 19.9339 8.45215 18.9663 8.45215 17.9043V11.209C8.45224 10.1463 8.78646 9.17869 9.44727 8.46973C10.1138 7.75481 11.0576 7.36328 12.1484 7.36328H17.3438C18.437 7.36337 19.3807 7.75413 20.0469 8.46973C20.7073 9.17923 21.039 10.1472 21.0391 11.209V17.9043Z" fill="#253035"/>
</svg>
