<svg width="24" height="24" viewBox="0 0 24 24" fill="none" xmlns="http://www.w3.org/2000/svg">
<path d="M20.4998 13C20.4998 9.57311 19.919 7.52668 18.696 6.30371C17.4731 5.08075 15.4266 4.5 11.9998 4.5C8.57286 4.5 6.52644 5.08074 5.30347 6.30371C4.08049 7.52668 3.49976 9.57311 3.49976 13C3.49976 16.4269 4.08049 18.4733 5.30347 19.6963C6.52644 20.9193 8.57287 21.5 11.9998 21.5C15.4266 21.5 17.4731 20.9192 18.696 19.6963C19.919 18.4733 20.4998 16.4269 20.4998 13ZM21.9998 13C21.9998 16.5101 21.4244 19.0891 19.7566 20.7568C18.0888 22.4246 15.5098 23 11.9998 23C8.48966 23 5.9107 22.4246 4.24292 20.7568C2.57514 19.0891 1.99976 16.5101 1.99976 13C1.99976 9.48991 2.57514 6.91094 4.24292 5.24316C5.9107 3.5754 8.48966 3 11.9998 3C15.5098 3 18.0888 3.5754 19.7566 5.24316C21.4244 6.91094 21.9998 9.48991 21.9998 13Z" fill="#253035"/>
<path d="M11.2498 13.0004V9.10486C11.2498 8.69065 11.5856 8.35486 11.9998 8.35486C12.414 8.35486 12.7498 8.69065 12.7498 9.10486V13.0004C12.7495 13.4144 12.4138 13.7504 11.9998 13.7504C11.5857 13.7504 11.2501 13.4144 11.2498 13.0004Z" fill="#253035"/>
<path d="M12.0043 15.7499C12.4185 15.7499 12.7543 16.0857 12.7543 16.4999C12.7543 16.9141 12.4185 17.2499 12.0043 17.2499H11.9955C11.5813 17.2499 11.2455 16.9141 11.2455 16.4999C11.2455 16.0857 11.5813 15.7499 11.9955 15.7499H12.0043Z" fill="#253035"/>
</svg>
