<svg width="24" height="24" viewBox="0 0 24 24" fill="none" xmlns="http://www.w3.org/2000/svg">
<path d="M12 3.25C13.24 3.25 14.3505 3.99179 15.4317 5.19727C16.522 6.41307 17.6986 8.23043 19.0654 10.6611C19.4627 11.3678 20.3499 12.866 21.0781 14.4746C21.4429 15.2803 21.7772 16.1348 21.9942 16.9521C22.2078 17.757 22.3264 18.593 22.1953 19.334C22.0679 20.0555 21.7627 20.6765 21.2295 21.1738C20.7102 21.6581 20.0228 21.9793 19.2051 22.2012C17.5931 22.6385 15.2336 22.75 12 22.75C8.76619 22.75 6.40684 22.6386 4.79493 22.2012C3.9772 21.9793 3.28988 21.6582 2.77052 21.1738C2.23737 20.6766 1.93233 20.0555 1.8047 19.334C1.67362 18.593 1.79221 17.757 2.00587 16.9521C2.22284 16.1348 2.55715 15.2803 2.92189 14.4746C3.6501 12.866 4.5373 11.3678 4.93458 10.6611C6.30144 8.23042 7.47804 6.41307 8.56837 5.19727C9.64956 3.99178 10.7601 3.25 12 3.25ZM12 4.75C11.4037 4.75 10.67 5.10066 9.68556 6.19824C8.71033 7.28558 7.59932 8.98309 6.2422 11.3965C5.82478 12.1389 4.98277 13.5604 4.28907 15.0928C3.94286 15.8575 3.64297 16.6291 3.45509 17.3369C3.26391 18.0571 3.20684 18.6456 3.28224 19.0723C3.36116 19.5184 3.53013 19.8311 3.79396 20.0771C4.07165 20.336 4.50482 20.5686 5.18751 20.7539C6.57695 21.131 8.73944 21.25 12 21.25C15.2604 21.25 17.4229 21.1309 18.8125 20.7539C19.4955 20.5686 19.9294 20.3361 20.207 20.0771C20.4707 19.8312 20.6391 19.5191 20.7178 19.0732C20.7932 18.6466 20.7361 18.0571 20.5449 17.3369C20.357 16.6291 20.0572 15.8575 19.7109 15.0928C19.0173 13.5604 18.1752 12.1389 17.7578 11.3965C16.4007 8.98309 15.2897 7.28558 14.3145 6.19824C13.33 5.10065 12.5963 4.75 12 4.75Z" fill="#253035"/>
<path d="M11.25 13.3945V9.5C11.25 9.08579 11.5858 8.75 12 8.75C12.4142 8.75 12.75 9.08579 12.75 9.5V13.3945C12.75 13.8087 12.4142 14.1445 12 14.1445C11.5858 14.1445 11.25 13.8087 11.25 13.3945Z" fill="#253035"/>
<path d="M12.0045 16.145C12.4187 16.145 12.7545 16.4808 12.7545 16.895C12.7545 17.3092 12.4187 17.645 12.0045 17.645H11.9957C11.5815 17.645 11.2457 17.3092 11.2457 16.895C11.2457 16.4808 11.5815 16.145 11.9957 16.145H12.0045Z" fill="#253035"/>
</svg>
