<svg width="24" height="24" viewBox="0 0 24 24" fill="none" xmlns="http://www.w3.org/2000/svg">
<path d="M18.7617 15.8066C18.7618 15.0281 19.0697 14.2816 19.6191 13.7295L20.3301 13.0186C20.893 12.4506 20.8896 11.5336 20.3223 10.9697L19.6201 10.2666L19.6182 10.2656C19.0687 9.71336 18.7608 8.96583 18.7607 8.1875V7.1875C18.7607 6.38677 18.1123 5.73737 17.3115 5.7373H16.3086C15.5289 5.7373 14.7833 5.42761 14.2314 4.88086L14.2285 4.8789L13.5391 4.18847C13.5356 4.18522 13.5317 4.18202 13.5283 4.17871L13.5215 4.17187C12.9531 3.60733 12.0344 3.61013 11.4707 4.17773L10.7695 4.87988L10.7676 4.88281C10.2151 5.43006 9.46925 5.73684 8.6914 5.73828H7.68847C6.88897 5.73839 6.24023 6.38754 6.24023 7.18847C6.24022 7.20126 6.23891 7.21393 6.23827 7.22656V8.18554C6.23818 8.96471 5.92888 9.71198 5.37988 10.2637L4.68066 10.9629C4.67669 10.9671 4.67398 10.9725 4.66992 10.9766C4.14208 11.5085 4.11246 12.3476 4.5791 12.9141L4.6787 13.0234L5.38183 13.7275C5.93054 14.279 6.24014 15.0251 6.24023 15.8047V16.8096C6.24023 17.6105 6.88899 18.2596 7.68847 18.2598H8.68749C9.3699 18.2598 10.0266 18.4962 10.5498 18.9219L10.7656 19.1152L10.7676 19.1182L11.4668 19.8174C11.4695 19.8201 11.4719 19.8234 11.4746 19.8262C12.0434 20.3892 12.961 20.3855 13.5244 19.8174L14.2275 19.1152C14.7801 18.5642 15.5281 18.2568 16.3066 18.2568H17.3125C18.1114 18.2572 18.7599 17.6098 18.7617 16.8096V15.8066ZM20.2607 8.1875C20.2608 8.56945 20.4116 8.9357 20.6797 9.20605L21.3789 9.90527L21.4844 10.0146C22.5341 11.1687 22.5053 12.9565 21.3935 14.0762L20.6816 14.7881C20.4127 15.0587 20.2618 15.4245 20.2617 15.8066V16.8115C20.2588 18.4384 18.9398 19.7578 17.3115 19.7568H16.3066C15.9237 19.7568 15.5565 19.908 15.2861 20.1777L14.5879 20.876L14.5869 20.875C13.4398 22.0295 11.5759 22.0367 10.4199 20.8926L10.4141 20.8867C10.4113 20.8839 10.409 20.8807 10.4062 20.8779L9.70995 20.1816L9.60253 20.0859C9.34416 19.8758 9.0215 19.7598 8.68749 19.7598H7.68847C6.06009 19.7596 4.74023 18.4385 4.74023 16.8096V15.8047C4.74014 15.423 4.58844 15.0565 4.31835 14.7852L3.62011 14.0859C2.46743 12.9403 2.4585 11.0752 3.60449 9.91992C3.60594 9.91844 3.60693 9.91651 3.60839 9.91503L4.31738 9.20507C4.58673 8.93407 4.73818 8.56718 4.73827 8.18554V7.18847C4.73827 7.16223 4.73955 7.13589 4.74218 7.11035C4.78338 5.51736 6.0861 4.23839 7.68847 4.23828H8.68847C9.07192 4.23761 9.43959 4.08616 9.71191 3.8164L10.4062 3.12011C11.5485 1.97001 13.4028 1.96027 14.5596 3.08984L14.5713 3.10058L14.5732 3.10156C14.5791 3.10708 14.5841 3.11246 14.5898 3.11816L15.2871 3.81543L15.3935 3.91113C15.6519 4.12128 15.9746 4.2373 16.3086 4.2373H17.3115C18.9407 4.23737 20.2607 5.55831 20.2607 7.1875V8.1875Z" fill="#253035"/>
<path d="M14.3945 9.02442C14.6874 8.73161 15.1622 8.73155 15.4551 9.02442C15.7478 9.31728 15.7478 9.79209 15.4551 10.085L10.5586 14.9814C10.2657 15.2742 9.79089 15.2742 9.49802 14.9814C9.20515 14.6886 9.20521 14.2138 9.49802 13.9209L14.3945 9.02442Z" fill="#253035"/>
<path d="M14.9004 13.4424C15.3768 13.4909 15.75 13.8937 15.75 14.3838C15.7498 14.9068 15.3251 15.3289 14.8037 15.3291C14.3139 15.3291 13.9108 14.9574 13.8623 14.4805L13.8574 14.3838L13.8623 14.2871C13.9106 13.8102 14.3135 13.4375 14.8037 13.4375L14.9004 13.4424Z" fill="#253035"/>
<path d="M10.1367 8.67676C10.6134 8.72533 10.9853 9.12814 10.9853 9.61817C10.9852 10.1407 10.562 10.5633 10.04 10.5635C9.55007 10.5635 9.14716 10.1915 9.09863 9.71485L9.09374 9.61817L9.09863 9.52149C9.14691 9.0445 9.5499 8.67188 10.04 8.67188L10.1367 8.67676Z" fill="#253035"/>
</svg>
