<svg width="24" height="24" viewBox="0 0 24 24" fill="none" xmlns="http://www.w3.org/2000/svg">
<path d="M20.5002 13.0001C20.5002 9.57325 19.9195 7.52681 18.6965 6.30383C17.4736 5.08087 15.4271 4.50013 12.0002 4.50012C8.57336 4.50012 6.52692 5.08086 5.30396 6.30383C4.08099 7.5268 3.50024 9.57323 3.50024 13.0001C3.50025 16.427 4.08099 18.4734 5.30396 19.6964C6.52692 20.9194 8.57337 21.5001 12.0002 21.5001C15.4271 21.5001 17.4736 20.9194 18.6965 19.6964C19.9195 18.4734 20.5002 16.427 20.5002 13.0001ZM22.0002 13.0001C22.0002 16.5102 21.4248 19.0892 19.7571 20.757C18.0893 22.4247 15.5103 23.0001 12.0002 23.0001C8.49017 23.0001 5.91118 22.4247 4.24341 20.757C2.57564 19.0892 2.00025 16.5102 2.00024 13.0001C2.00024 9.49003 2.57564 6.91106 4.24341 5.24329C5.91118 3.57551 8.49017 3.00012 12.0002 3.00012C15.5103 3.00013 18.0893 3.57552 19.7571 5.24329C21.4248 6.91106 22.0002 9.49005 22.0002 13.0001Z" fill="#253035"/>
<path d="M14.0393 9.89963C14.3321 9.60679 14.8069 9.6069 15.0999 9.89963C15.3927 10.1925 15.3927 10.6673 15.0999 10.9602L9.96021 16.0998C9.66731 16.3927 9.19255 16.3927 8.89966 16.0998C8.60694 15.8069 8.60683 15.3321 8.89966 15.0393L14.0393 9.89963Z" fill="#253035"/>
<path d="M14.5043 14.75C14.9185 14.75 15.2543 15.0858 15.2543 15.5C15.2543 15.9142 14.9185 16.25 14.5043 16.25H14.4955C14.0813 16.25 13.7455 15.9142 13.7455 15.5C13.7455 15.0858 14.0813 14.75 14.4955 14.75H14.5043Z" fill="#253035"/>
<path d="M9.50429 9.75C9.91851 9.75 10.2543 10.0858 10.2543 10.5C10.2543 10.9142 9.91851 11.25 9.50429 11.25H9.4955C9.08129 11.25 8.7455 10.9142 8.7455 10.5C8.7455 10.0858 9.08129 9.75 9.4955 9.75H9.50429Z" fill="#253035"/>
</svg>
