<svg width="24" height="24" viewBox="0 0 24 24" fill="none" xmlns="http://www.w3.org/2000/svg">
<path fill-rule="evenodd" clip-rule="evenodd" d="M14.1679 15.0949C13.6559 15.0949 13.2399 14.6779 13.2399 14.1669C13.2399 13.6549 13.6559 13.2379 14.1679 13.2379C14.6799 13.2379 15.0969 13.6549 15.0969 14.1669C15.0969 14.6779 14.6799 15.0949 14.1679 15.0949ZM10.3539 14.7609C10.2069 14.9079 10.0159 14.9809 9.82293 14.9809C9.63093 14.9809 9.43893 14.9079 9.29293 14.7609C8.99993 14.4679 8.99993 13.9929 9.29293 13.6999L13.7489 9.24394C14.0419 8.95094 14.5169 8.95094 14.8099 9.24394C15.1029 9.53694 15.1029 10.0119 14.8099 10.3049L10.3539 14.7609ZM9.83193 8.90194C10.3439 8.90194 10.7609 9.31894 10.7609 9.83094C10.7609 10.3429 10.3439 10.7589 9.83193 10.7589C9.31993 10.7589 8.90393 10.3429 8.90393 9.83094C8.90393 9.31894 9.31993 8.90194 9.83193 8.90194ZM21.4799 8.37394C21.5379 8.10394 21.4709 7.82494 21.2969 7.60994C21.1219 7.39394 20.8629 7.27094 20.5159 7.27094C19.8579 7.27094 19.3239 6.73594 19.3239 6.07894V5.94194C19.3239 5.65194 19.1989 5.37594 18.9799 5.18394C18.7619 4.99194 18.4639 4.90494 18.1819 4.94194L17.6249 5.01694C17.1079 5.08594 16.8519 5.11994 16.5949 5.14994C13.5459 5.51594 10.4539 5.51594 7.40493 5.14994C7.14793 5.11994 6.89193 5.08594 6.37593 5.01694L5.81693 4.94194C5.52993 4.90594 5.23693 4.99294 5.01993 5.18394C4.80093 5.37594 4.67593 5.65194 4.67593 5.94194V6.07894C4.67593 6.73594 4.14193 7.27094 3.41293 7.27094C3.13693 7.27094 2.87793 7.39394 2.70293 7.60994C2.52893 7.82494 2.46193 8.10394 2.51993 8.37494C3.03793 10.7809 3.03793 13.2199 2.51993 15.6269C2.46193 15.8969 2.52893 16.1759 2.70293 16.3909C2.87693 16.6059 3.13593 16.7299 3.48393 16.7299C4.14193 16.7299 4.67593 17.2649 4.67593 17.9229V18.0589C4.67593 18.3499 4.80193 18.6269 5.02093 18.8179C5.23893 19.0099 5.53193 19.0959 5.81793 19.0579L6.63493 18.9499C6.98593 18.9029 7.19593 18.8749 7.40493 18.8499C10.4539 18.4849 13.5459 18.4849 16.5949 18.8499C16.8039 18.8749 17.0139 18.9029 17.3649 18.9499L18.1819 19.0579C18.2269 19.0639 18.2719 19.0669 18.3159 19.0669C18.5589 19.0669 18.7949 18.9799 18.9799 18.8179C19.1979 18.6269 19.3239 18.3499 19.3239 18.0589V17.9229C19.3239 17.2649 19.8579 16.7299 20.5869 16.7299C20.8639 16.7299 21.1229 16.6059 21.2969 16.3909C21.4709 16.1759 21.5379 15.8969 21.4799 15.6259C20.9619 13.2199 20.9619 10.7809 21.4799 8.37394Z" fill="#253035"/>
</svg>
