<svg width="24" height="24" viewBox="0 0 24 24" fill="none" xmlns="http://www.w3.org/2000/svg">
<path d="M2.75 15.9727V8.02637C2.75 6.39816 3.26128 4.94775 4.24023 3.89746C5.22466 2.84132 6.62686 2.25 8.28223 2.25H13.3311C13.7453 2.25 14.0811 2.58579 14.0811 3C14.0811 3.41421 13.7453 3.75 13.3311 3.75H8.28223C6.99844 3.75 6.00862 4.19929 5.33691 4.91992C4.65985 5.6464 4.25 6.7097 4.25 8.02637V15.9727C4.25 17.2902 4.65827 18.3531 5.33398 19.0791C6.00418 19.7991 6.99358 20.249 8.28223 20.249H16.7148C18.0041 20.249 18.9935 19.7991 19.6641 19.0791C20.3402 18.353 20.749 17.2902 20.749 15.9727V12.8906C20.749 12.4764 21.0848 12.1406 21.499 12.1406C21.9131 12.1407 22.249 12.4765 22.249 12.8906V15.9727C22.249 17.6001 21.7402 19.0508 20.7617 20.1016C19.7776 21.1583 18.3745 21.749 16.7148 21.749H8.28223C6.62304 21.749 5.22007 21.1583 4.23633 20.1016C3.25823 19.0508 2.75 17.5999 2.75 15.9727Z" fill="#A2B5BE"/>
<path d="M18.2706 8.8418V3C18.2706 2.58579 18.6064 2.25 19.0206 2.25C19.4348 2.25 19.7706 2.58579 19.7706 3V8.8418C19.7704 9.2558 19.4347 9.5918 19.0206 9.5918C18.6065 9.5918 18.2709 9.2558 18.2706 8.8418Z" fill="#253035"/>
<path d="M20.9688 5.82226C21.2611 5.52897 21.7359 5.52813 22.0293 5.82031C22.3226 6.11259 22.3235 6.58741 22.0313 6.88086L19.5537 9.36914C19.413 9.51047 19.221 9.58982 19.0215 9.58984C18.8222 9.58974 18.6309 9.51034 18.4903 9.36914L16.0118 6.88086C15.7195 6.58741 15.7203 6.11263 16.0137 5.82031C16.3072 5.52802 16.7819 5.52886 17.0743 5.82226L19.0215 7.77636L20.9688 5.82226Z" fill="#253035"/>
<path d="M13.4814 9.94633C13.7743 9.65343 14.2501 9.65343 14.543 9.94633C14.8355 10.2392 14.8355 10.714 14.543 11.0069L9.64551 15.9034C9.35261 16.1962 8.87785 16.1963 8.58496 15.9034C8.29227 15.6104 8.29213 15.1356 8.58496 14.8428L13.4814 9.94633Z" fill="#253035"/>
<path d="M13.9873 14.3643C14.4638 14.4128 14.8369 14.8155 14.8369 15.3057C14.8367 15.828 14.4129 16.2518 13.8906 16.252C13.4007 16.252 12.9977 15.8791 12.9492 15.4024L12.9443 15.3057L12.9492 15.209C12.9975 14.7316 13.4009 14.3594 13.8906 14.3594L13.9873 14.3643Z" fill="#253035"/>
<path d="M9.22363 9.60648C9.70004 9.65502 10.0732 10.0575 10.0732 10.5479C10.0731 11.0708 9.64853 11.493 9.12695 11.4932C8.63726 11.4932 8.2341 11.1216 8.18555 10.6446L8.18066 10.5479L8.18555 10.4512C8.23383 9.97395 8.63706 9.6016 9.12695 9.6016L9.22363 9.60648Z" fill="#253035"/>
</svg>
