<svg width="24" height="24" viewBox="0 0 24 24" fill="none" xmlns="http://www.w3.org/2000/svg">
<path d="M19.1592 6.92383C19.1591 5.8478 18.8606 5.07116 18.3867 4.56836C17.9188 4.072 17.1924 3.75008 16.1426 3.75H8.84277C7.78915 3.75 7.0708 4.07188 6.61035 4.56543C6.14273 5.06674 5.84966 5.84336 5.84961 6.92383L5.83203 19.1787C5.83214 19.5131 6.18077 19.732 6.48145 19.5879L7.23535 19.2266C7.87994 18.917 8.62519 18.8952 9.28711 19.166L11.4316 20.041C12.1153 20.3194 12.8831 20.32 13.5664 20.041L15.708 19.166C16.3702 18.8951 17.1156 18.9174 17.7598 19.2256L18.5205 19.5898C18.8213 19.7334 19.1683 19.5134 19.168 19.1807L19.1592 6.92383ZM20.668 19.1797C20.6693 20.6176 19.1686 21.5631 17.8721 20.9424L17.1123 20.5781C16.8498 20.4526 16.5462 20.4443 16.2764 20.5547L14.1338 21.4297C13.0872 21.857 11.9135 21.8566 10.8672 21.4307L8.71973 20.5547C8.45011 20.4445 8.14656 20.4534 7.88477 20.5791L7.88281 20.5801L7.12891 20.9395C5.83028 21.5619 4.33072 20.6145 4.33203 19.1768L4.34961 6.92285C4.34984 5.5813 4.71626 4.39674 5.51367 3.54199C6.31862 2.67921 7.47171 2.25 8.84277 2.25H16.1426C17.5102 2.25008 18.6669 2.67929 19.4775 3.53906C20.2822 4.39253 20.6591 5.57758 20.6592 6.92383L20.668 19.1797Z" fill="#253035"/>
<path d="M14.3936 9.04785C14.6865 8.75503 15.1613 8.75498 15.4541 9.04785C15.7469 9.34072 15.7469 9.81552 15.4541 10.1084L10.6065 14.9561C10.3136 15.2488 9.8388 15.2488 9.54593 14.9561C9.25307 14.6632 9.25312 14.1884 9.54593 13.8955L14.3936 9.04785Z" fill="#253035"/>
<path d="M14.8701 13.3096C15.3415 13.3572 15.7099 13.7554 15.7099 14.2402C15.7097 14.757 15.2911 15.1746 14.7754 15.1748C14.2913 15.1748 13.8928 14.8073 13.8447 14.3359L13.8398 14.2402L13.8447 14.1445C13.8925 13.6728 14.291 13.3047 14.7754 13.3047L14.8701 13.3096Z" fill="#253035"/>
<path d="M10.3701 8.80957C10.8416 8.8572 11.2099 9.25545 11.2099 9.74024C11.2097 10.2569 10.7912 10.6746 10.2754 10.6748C9.79114 10.6748 9.39276 10.3072 9.34469 9.83594L9.3398 9.74024L9.34469 9.64453C9.39246 9.17291 9.79094 8.80469 10.2754 8.80469L10.3701 8.80957Z" fill="#253035"/>
</svg>
