<svg width="24" height="24" viewBox="0 0 24 24" fill="none" xmlns="http://www.w3.org/2000/svg">
<path fill-rule="evenodd" clip-rule="evenodd" d="M14.275 15.174C13.759 15.174 13.34 14.755 13.34 14.239C13.34 13.724 13.759 13.304 14.275 13.304C14.791 13.304 15.21 13.724 15.21 14.239C15.21 14.755 14.791 15.174 14.275 15.174ZM10.107 14.955C9.96003 15.102 9.76803 15.175 9.57603 15.175C9.38403 15.175 9.19203 15.102 9.04603 14.955C8.75303 14.662 8.75303 14.188 9.04603 13.895L13.894 9.04702C14.187 8.75402 14.661 8.75402 14.954 9.04702C15.247 9.34002 15.247 9.81502 14.954 10.108L10.107 14.955ZM9.77503 8.80202C10.291 8.80202 10.71 9.22202 10.71 9.73702C10.71 10.253 10.291 10.672 9.77503 10.672C9.25903 10.672 8.84003 10.253 8.84003 9.73702C8.84003 9.22202 9.25903 8.80202 9.77503 8.80202ZM19.909 6.92302C19.909 4.19502 18.274 2.49902 15.642 2.49902H8.34303C5.68603 2.49902 4.10003 4.15302 4.10003 6.92202L4.08203 19.175C4.08203 19.765 4.37903 20.304 4.87703 20.619C5.37503 20.934 5.98903 20.969 6.52203 20.714L7.27503 20.353C7.60103 20.196 7.97903 20.185 8.31403 20.322L10.462 21.198C10.958 21.4 11.478 21.501 11.999 21.501C12.521 21.501 13.043 21.4 13.539 21.197L15.681 20.322C16.016 20.185 16.395 20.197 16.72 20.352L17.48 20.716H17.481C18.011 20.97 18.627 20.934 19.125 20.62C19.622 20.306 19.919 19.767 19.918 19.179L19.909 6.92302Z" fill="#253035"/>
</svg>
