<svg width="24" height="24" viewBox="0 0 24 24" fill="none" xmlns="http://www.w3.org/2000/svg">
<path d="M14.248 9.24315C14.5409 8.95026 15.0166 8.95026 15.3095 9.24315C15.6021 9.53599 15.6021 10.0109 15.3095 10.3037L10.8535 14.7598C10.5607 15.0523 10.0858 15.0523 9.79294 14.7598C9.50004 14.4669 9.50004 13.9911 9.79294 13.6982L14.248 9.24315Z" fill="#253035"/>
<path d="M14.7636 13.2432C15.2313 13.2907 15.5967 13.6859 15.5967 14.167C15.5964 14.6798 15.1811 15.0946 14.6689 15.0947C14.1882 15.0947 13.7927 14.7298 13.7451 14.2617L13.7402 14.167L13.7451 14.0713C13.7928 13.6031 14.1885 13.2383 14.6689 13.2383L14.7636 13.2432Z" fill="#253035"/>
<path d="M10.4277 8.90721C10.8952 8.95483 11.2608 9.34979 11.2608 9.83104C11.2606 10.3441 10.8448 10.7585 10.333 10.7588C9.852 10.7588 9.45679 10.3935 9.40919 9.92576L9.40431 9.83104L9.40919 9.73631C9.45648 9.26821 9.85186 8.90233 10.333 8.90233L10.4277 8.90721Z" fill="#253035"/>
<path d="M18.2891 6.25585C17.7727 6.32469 17.5078 6.35989 17.2432 6.39159C14.0926 6.76903 10.9074 6.76903 7.75684 6.39159C7.49225 6.35989 7.22726 6.3247 6.71095 6.25585L6.41895 6.21679C6.35354 7.38906 5.4647 8.33763 4.31934 8.49511C4.76659 10.8107 4.76655 13.1902 4.31934 15.5058C5.46429 15.6632 6.35298 16.6115 6.41895 17.7832L7.75684 17.6094C10.9074 17.232 14.0926 17.232 17.2432 17.6094C17.5078 17.6411 17.7728 17.6763 18.2891 17.7451L18.5801 17.7832C18.646 16.6118 19.5352 15.6636 20.6797 15.5058C20.2325 13.1903 20.2325 10.8106 20.6797 8.49511C19.5348 8.33722 18.6455 7.38876 18.5801 6.21679L18.2891 6.25585ZM20.0733 18.0596C20.0732 18.8203 19.4035 19.407 18.6494 19.3066L18.0908 19.2324C17.5704 19.1631 17.317 19.1289 17.0645 19.0986C14.0324 18.7354 10.9676 18.7354 7.93556 19.0986L6.90919 19.2324L6.35059 19.3066C5.59649 19.4069 4.92687 18.8203 4.92677 18.0596V17.9228C4.92677 17.4025 4.50477 16.9807 3.98438 16.9805H3.91309C3.17255 16.9805 2.62077 16.297 2.77638 15.5732L2.86524 15.1308C3.28079 12.9144 3.25126 10.6353 2.77638 8.42772C2.62095 7.70397 3.17276 7.02147 3.91309 7.02147H3.98438C4.50461 7.02128 4.92657 6.59933 4.92677 6.07909V5.9414C4.927 5.22813 5.51586 4.66781 6.21095 4.68358L6.35059 4.69433L6.90919 4.76952C7.42934 4.83888 7.68304 4.87208 7.93556 4.90233C10.9676 5.26557 14.0324 5.26557 17.0645 4.90233C17.317 4.87208 17.5705 4.83889 18.0908 4.76952L18.6494 4.69433L18.7891 4.68358C19.4842 4.6678 20.073 5.22815 20.0733 5.9414V6.07909C20.0734 6.5993 20.4954 7.02127 21.0156 7.02147H21.0869C21.8273 7.02147 22.3795 7.70455 22.2236 8.4287C21.7172 10.7832 21.7171 13.2188 22.2236 15.5732C22.3793 16.2972 21.8273 16.9805 21.0869 16.9805H21.0156C20.4953 16.9807 20.0733 17.4025 20.0733 17.9228V18.0596Z" fill="#253035"/>
</svg>
