<svg width="24" height="24" viewBox="0 0 24 24" fill="none" xmlns="http://www.w3.org/2000/svg">
<path d="M8.80834 13.6748C8.94413 13.2837 9.3713 13.0764 9.76244 13.2119C10.1538 13.3476 10.3611 13.7756 10.2253 14.1669C9.48858 16.2906 9.41776 17.6367 9.60521 18.4306C9.7787 19.165 10.1608 19.4133 10.5203 19.4873L10.7732 19.5322C11.0019 19.5648 11.1583 19.5618 11.2419 19.5302C11.2756 19.5175 11.2912 19.5058 11.2995 19.498C11.3094 19.4888 11.3251 19.4696 11.3454 19.4306C11.3954 19.3349 11.4329 19.1999 11.488 18.9521C12.3378 15.1308 14.6152 13.2716 16.4861 13.2714C16.9003 13.2714 17.2361 13.6072 17.2361 14.0214C17.2359 14.4355 16.9002 14.7714 16.4861 14.7714C15.6113 14.7716 13.7235 15.8081 12.9519 19.2773C12.8623 19.6803 12.6972 20.5839 11.7732 20.9335C11.2026 21.1494 10.5484 21.0247 10.2185 20.957C9.24334 20.7565 8.44237 20.033 8.14525 18.7753C7.86235 17.5772 8.03292 15.9098 8.80834 13.6748Z" fill="#A2B5BE"/>
<path d="M20.7498 5.60742C20.7498 5.26411 20.749 5.05097 20.7361 4.89063C20.724 4.73983 20.7047 4.70094 20.7019 4.69531C20.658 4.60745 20.5866 4.53606 20.4988 4.49219C20.4926 4.48911 20.4528 4.47 20.3035 4.45801C20.1431 4.44514 19.9299 4.44434 19.5867 4.44434H19.3562C18.8474 4.44434 18.5098 4.44503 18.2507 4.46582C18.0002 4.48595 17.8877 4.52136 17.8191 4.55566C17.615 4.65773 17.4495 4.82329 17.3474 5.02734C17.3131 5.09606 17.2777 5.20843 17.2576 5.45898C17.2368 5.71803 17.2361 6.05558 17.2361 6.56445V12.3564C17.2361 12.8654 17.2368 13.2029 17.2576 13.4619C17.2777 13.712 17.3131 13.8238 17.3474 13.8926L17.4353 14.0381C17.5345 14.1758 17.6658 14.2886 17.8191 14.3652C17.8878 14.3995 18.0007 14.435 18.2507 14.4551C18.5098 14.4759 18.8474 14.4766 19.3562 14.4766H19.5867C19.9299 14.4766 20.1431 14.4758 20.3035 14.4629C20.4523 14.4509 20.4924 14.4319 20.4988 14.4287C20.5866 14.3848 20.658 14.3134 20.7019 14.2256C20.7045 14.2204 20.7239 14.182 20.7361 14.0303C20.749 13.87 20.7498 13.6567 20.7498 13.3135V5.60742ZM22.2498 13.3135C22.2498 13.6324 22.251 13.9161 22.2322 14.1504C22.2127 14.3933 22.168 14.6478 22.0437 14.8965C21.8546 15.2747 21.5479 15.5815 21.1697 15.7705C20.921 15.8948 20.6665 15.9385 20.4236 15.958C20.1893 15.9768 19.9057 15.9766 19.5867 15.9766H19.3562C18.8717 15.9766 18.4637 15.9769 18.1306 15.9502C17.7891 15.9227 17.4614 15.863 17.1492 15.707C16.6542 15.4597 16.2529 15.0583 16.0056 14.5635C15.8497 14.2512 15.7899 13.9237 15.7625 13.582C15.7357 13.249 15.7361 12.8411 15.7361 12.3564V6.56445C15.7361 6.07984 15.7357 5.6719 15.7625 5.33887C15.7899 4.99725 15.8496 4.66966 16.0056 4.35742C16.2529 3.86244 16.6542 3.46117 17.1492 3.21387C17.4614 3.05786 17.789 2.99815 18.1306 2.9707C18.4637 2.94397 18.8717 2.94434 19.3562 2.94434H19.5867C19.9057 2.94434 20.1893 2.94408 20.4236 2.96289C20.6665 2.98241 20.9209 3.02608 21.1697 3.15039C21.548 3.33943 21.8546 3.64617 22.0437 4.02441C22.168 4.27318 22.2127 4.52757 22.2322 4.77051C22.251 5.00483 22.2498 5.28844 22.2498 5.60742V13.3135Z" fill="#253035"/>
<path d="M18.3926 6.10892V6.09916C18.3926 5.68494 18.7284 5.34916 19.1426 5.34916C19.5568 5.34916 19.8926 5.68494 19.8926 6.09916V6.10892C19.8926 6.52314 19.5568 6.85892 19.1426 6.85892C18.7284 6.85892 18.3926 6.52314 18.3926 6.10892Z" fill="#253035"/>
<path d="M2.75025 10.3629V8.12558C2.75025 7.63528 2.74624 7.28176 2.81959 6.93808C2.88389 6.63681 2.9925 6.34673 3.14088 6.07675C3.31015 5.76879 3.54384 5.50338 3.86451 5.13241L4.34498 4.57675C4.73618 4.12418 5.0148 3.7944 5.36353 3.55331C5.6687 3.34235 6.0083 3.18628 6.36744 3.09335C6.77788 2.98719 7.20964 2.99277 7.80787 2.99277H12.2151C12.4799 2.99277 12.6709 2.99195 12.8626 3.01425C13.0309 3.03384 13.1976 3.06655 13.3606 3.11288C13.5463 3.16566 13.7225 3.24009 13.967 3.3414L16.7737 4.50351C17.1563 4.6621 17.3375 5.10135 17.179 5.48398C17.0204 5.86652 16.5821 6.04773 16.1995 5.88925L13.3928 4.72714C13.1174 4.61305 13.0333 4.57979 12.9504 4.55624C12.8651 4.53198 12.778 4.5138 12.6897 4.50351C12.6042 4.49355 12.5131 4.49277 12.2151 4.49277H7.80787C7.13193 4.49277 6.92587 4.49832 6.74342 4.5455C6.55486 4.59427 6.37627 4.67596 6.21607 4.78671C6.06104 4.89389 5.92184 5.04577 5.47974 5.55722L4.99928 6.11386C4.63764 6.53222 4.53071 6.66225 4.45533 6.79941C4.37751 6.94105 4.32012 7.0935 4.28639 7.25156C4.25381 7.4045 4.25025 7.573 4.25025 8.12558V10.3629C4.25025 10.9824 4.25051 11.4032 4.27662 11.7281C4.30204 12.0443 4.34811 12.205 4.40357 12.316C4.54453 12.598 4.77396 12.8265 5.05592 12.9674C5.16686 13.0228 5.32709 13.0689 5.64283 13.0943C5.9677 13.1204 6.38853 13.1207 7.00807 13.1207H10.6028C11.0169 13.1207 11.3527 13.4566 11.3528 13.8707C11.3528 14.2849 11.017 14.6207 10.6028 14.6207H7.00807C6.41286 14.6207 5.92162 14.6215 5.52271 14.5894C5.1663 14.5608 4.83384 14.5033 4.51881 14.3707L4.38502 14.3092C3.81235 14.0231 3.3479 13.5585 3.06178 12.9859C2.88472 12.6315 2.81424 12.2555 2.7815 11.8482C2.74945 11.4493 2.75025 10.9581 2.75025 10.3629Z" fill="#253035"/>
</svg>
