<svg width="24" height="24" viewBox="0 0 24 24" fill="none" xmlns="http://www.w3.org/2000/svg">
<path d="M12.1689 19.3516C12.5832 19.3516 12.9189 19.6874 12.9189 20.1016C12.9189 20.5158 12.5832 20.8516 12.1689 20.8516H7.54688C7.13266 20.8516 6.79688 20.5158 6.79688 20.1016C6.79688 19.6874 7.13266 19.3516 7.54688 19.3516H12.1689Z" fill="#A2B5BE"/>
<path d="M17.1055 15.75C17.5197 15.75 17.8555 16.0858 17.8555 16.5C17.8555 16.9142 17.5197 17.25 17.1055 17.25H11.8848C11.4706 17.25 11.1348 16.9142 11.1348 16.5C11.1348 16.0858 11.4706 15.75 11.8848 15.75H17.1055Z" fill="#A2B5BE"/>
<path d="M18.2715 3.14844C18.6857 3.14844 19.0215 3.48422 19.0215 3.89844C19.0215 4.31265 18.6857 4.64844 18.2715 4.64844H13.6504C13.2362 4.64844 12.9004 4.31265 12.9004 3.89844C12.9004 3.48422 13.2362 3.14844 13.6504 3.14844H18.2715Z" fill="#A2B5BE"/>
<path d="M13.8516 6.75C14.2658 6.75 14.6016 7.08578 14.6016 7.5C14.6016 7.91421 14.2658 8.25 13.8516 8.25H8.65429C8.24008 8.25 7.90429 7.91421 7.90429 7.5C7.90429 7.08578 8.24008 6.75 8.65429 6.75H13.8516Z" fill="#A2B5BE"/>
<path d="M18.2715 19.3516C18.6855 19.3518 19.0215 19.6875 19.0215 20.1016C19.0215 20.5156 18.6855 20.8513 18.2715 20.8516H15.9824C15.5682 20.8516 15.2324 20.5158 15.2324 20.1016C15.2324 19.6873 15.5682 19.3516 15.9824 19.3516H18.2715Z" fill="#253035"/>
<path d="M9.83691 3.14844C10.2511 3.14844 10.5869 3.48422 10.5869 3.89844C10.5869 4.31265 10.2511 4.64844 9.83691 4.64844H7.54882C7.13461 4.64844 6.79882 4.31265 6.79882 3.89844C6.79882 3.48422 7.13461 3.14844 7.54882 3.14844H9.83691Z" fill="#253035"/>
<path d="M17.5596 21C17.5596 16.8861 15.1468 14.8404 12.4297 12.5762C9.7468 10.3404 6.75977 7.88613 6.75977 3C6.75977 2.58579 7.09555 2.25 7.50977 2.25C7.92398 2.25 8.25977 2.58579 8.25977 3C8.25977 7.11379 10.6726 9.15962 13.3896 11.4238C16.0725 13.6596 19.0596 16.1139 19.0596 21C19.0596 21.4142 18.7238 21.75 18.3096 21.75C17.8955 21.7499 17.5596 21.4141 17.5596 21Z" fill="#253035"/>
<path d="M6.75977 21C6.75977 16.1139 9.7468 13.6596 12.4297 11.4238C15.1468 9.15957 17.5596 7.11386 17.5596 3C17.5596 2.58586 17.8955 2.25012 18.3096 2.25C18.7238 2.25 19.0596 2.58579 19.0596 3C19.0596 7.88613 16.0725 10.3404 13.3896 12.5762C10.6726 14.8404 8.25977 16.8862 8.25977 21C8.25977 21.4142 7.92398 21.75 7.50977 21.75C7.09555 21.75 6.75977 21.4142 6.75977 21Z" fill="#253035"/>
</svg>
