<svg width="24" height="24" viewBox="0 0 24 24" fill="none" xmlns="http://www.w3.org/2000/svg">
<path fill-rule="evenodd" clip-rule="evenodd" d="M13.553 12C15.985 9.918 18.4 7.414 18.4 3C18.4 2.447 17.952 2 17.4 2C16.883 2 16.472 2.397 16.42 2.9H12.741C12.188 2.9 11.741 3.348 11.741 3.9C11.741 4.453 12.188 4.9 12.741 4.9H16.192C15.618 7.446 13.904 9.088 12 10.695C11.17 9.994 10.377 9.285 9.69698 8.5H12.942C13.494 8.5 13.942 8.053 13.942 7.5C13.942 6.947 13.494 6.5 12.942 6.5H8.36298C8.12698 6.007 7.93798 5.477 7.80798 4.9H8.92698C9.47898 4.9 9.92698 4.453 9.92698 3.9C9.92698 3.348 9.47898 2.9 8.92698 2.9H7.57998C7.52798 2.397 7.11698 2 6.59998 2C6.04798 2 5.59998 2.447 5.59998 3C5.59998 4.957 6.07898 6.534 6.81898 7.87C6.83198 7.903 6.85398 7.929 6.87098 7.961C7.79898 9.594 9.11798 10.862 10.447 12C8.01498 14.082 5.59998 16.586 5.59998 21C5.59998 21.553 6.04798 22 6.59998 22C7.11698 22 7.52798 21.603 7.57998 21.1H11.26C11.812 21.1 12.26 20.652 12.26 20.1C12.26 19.547 11.812 19.1 11.26 19.1H7.80798C8.38298 16.554 10.096 14.912 12 13.305C12.83 14.006 13.623 14.715 14.303 15.5H10.975C10.423 15.5 9.97498 15.947 9.97498 16.5C9.97498 17.053 10.423 17.5 10.975 17.5H15.637C15.873 17.993 16.062 18.523 16.192 19.1H15.072C14.52 19.1 14.072 19.547 14.072 20.1C14.072 20.652 14.52 21.1 15.072 21.1H16.42C16.472 21.603 16.883 22 17.4 22C17.952 22 18.4 21.553 18.4 21C18.4 16.586 15.985 14.082 13.553 12Z" fill="#253035"/>
</svg>
