<svg width="24" height="24" viewBox="0 0 24 24" fill="none" xmlns="http://www.w3.org/2000/svg">
<path d="M15.7159 15.4736C16.1301 15.4736 16.4659 15.8094 16.4659 16.2236C16.4659 16.6378 16.1301 16.9736 15.7159 16.9736H8.49621C8.082 16.9736 7.74621 16.6378 7.74621 16.2236C7.74621 15.8094 8.082 15.4736 8.49621 15.4736H15.7159Z" fill="#253035"/>
<path d="M15.7159 11.2871C16.1301 11.2871 16.4659 11.6229 16.4659 12.0371C16.4659 12.4513 16.1301 12.7871 15.7159 12.7871H8.49621C8.082 12.7871 7.74621 12.4513 7.74621 12.0371C7.74621 11.6229 8.082 11.2871 8.49621 11.2871H15.7159Z" fill="#253035"/>
<path d="M11.2512 7.1103C11.6654 7.1103 12.0012 7.44609 12.0012 7.8603C12.0012 8.27451 11.6654 8.6103 11.2512 8.6103H8.49631C8.0821 8.6103 7.74631 8.27451 7.74631 7.8603C7.74631 7.44609 8.0821 7.1103 8.49631 7.1103H11.2512Z" fill="#253035"/>
<path d="M19.6656 7.35742C19.6656 6.1206 19.2855 5.169 18.6676 4.53125C18.0525 3.89645 17.1323 3.50004 15.9088 3.5H15.5787C15.3689 3.50011 15.0692 3.50079 14.7096 3.50098C13.9897 3.50135 13.0293 3.50145 12.069 3.50195C10.1941 3.50293 8.3171 3.50288 8.22327 3.50293L8.22424 3.50391C7.01275 3.51137 6.10089 3.9093 5.49084 4.54297C4.87801 5.17971 4.50061 6.12717 4.50061 7.35742V16.5527C4.50061 17.7897 4.88099 18.7412 5.49866 19.3789C6.11346 20.0135 7.03315 20.4101 8.25647 20.4102H8.58655C8.79641 20.4101 9.09608 20.4093 9.45569 20.4092C10.1755 20.4089 11.136 20.4086 12.0963 20.4082C13.9655 20.4075 15.8366 20.4073 15.941 20.4072L16.1647 20.4014C17.2654 20.3492 18.1032 19.9617 18.6754 19.3672C19.2885 18.7301 19.6656 17.7828 19.6656 16.5527V7.35742ZM21.1656 16.5527C21.1656 18.0924 20.6881 19.4391 19.7565 20.4072C18.8218 21.3783 17.4983 21.8977 15.9498 21.9072H14.7389C14.0175 21.9075 13.0566 21.9078 12.0963 21.9082C11.1362 21.9086 10.1764 21.9089 9.45667 21.9092C9.09675 21.9093 8.79646 21.9101 8.58655 21.9102H8.25745C6.69707 21.9101 5.36268 21.3946 4.42053 20.4219C3.48146 19.4521 3.00061 18.0996 3.00061 16.5527V7.35742C3.00061 5.81767 3.47812 4.47094 4.40979 3.50293C5.34424 2.53208 6.66718 2.01344 8.21545 2.00391H8.55334C8.76434 2.0038 9.065 2.00312 9.42542 2.00293C10.1468 2.00255 11.1077 2.00245 12.068 2.00195C13.0284 2.00145 13.9887 2.00135 14.7086 2.00098C15.0685 2.00079 15.3688 2.00011 15.5787 2H15.9088C17.4691 2.00004 18.8024 2.51479 19.7448 3.4873C20.6843 4.45706 21.1656 5.81025 21.1656 7.35742V16.5527Z" fill="#253035"/>
</svg>
