<svg width="24" height="24" viewBox="0 0 24 24" fill="none" xmlns="http://www.w3.org/2000/svg">
<path d="M20.5002 12C20.5002 8.57313 19.9195 6.52668 18.6965 5.30371C17.4736 4.08074 15.4271 3.5 12.0002 3.5C8.57336 3.5 6.52692 4.08074 5.30396 5.30371C4.08099 6.52668 3.50024 8.57311 3.50024 12C3.50025 15.4269 4.08099 17.4733 5.30396 18.6963C6.52692 19.9193 8.57338 20.5 12.0002 20.5C15.4271 20.5 17.4736 19.9193 18.6965 18.6963C19.9195 17.4733 20.5002 15.4269 20.5002 12ZM22.0002 12C22.0002 15.5101 21.4248 18.0891 19.7571 19.7568C18.0893 21.4246 15.5103 22 12.0002 22C8.49017 22 5.91118 21.4246 4.24341 19.7568C2.57564 18.0891 2.00025 15.5101 2.00024 12C2.00024 8.48991 2.57564 5.91094 4.24341 4.24316C5.91118 2.57539 8.49017 2 12.0002 2C15.5103 2 18.0893 2.5754 19.7571 4.24316C21.4248 5.91094 22.0002 8.48993 22.0002 12Z" fill="#A2B5BE"/>
<path d="M14.8518 10.1345C15.086 9.79287 15.5531 9.70594 15.8948 9.94017C16.2148 10.1598 16.3112 10.5832 16.1292 10.9167L16.0891 10.9822L16.0881 10.9831C16.0878 10.9837 16.0878 10.9851 16.0872 10.9861C16.0858 10.9881 16.0838 10.9912 16.0813 10.9949C16.0763 11.0022 16.0683 11.0126 16.0588 11.0261C16.04 11.0531 16.0126 11.0921 15.9778 11.1413C15.908 11.24 15.8075 11.3799 15.6838 11.5476C15.4371 11.8823 15.0948 12.3321 14.7151 12.7839C14.3387 13.2317 13.9095 13.7019 13.4905 14.0661C13.2814 14.2479 13.0568 14.4186 12.8284 14.5476C12.6114 14.6702 12.3222 14.7947 12.0002 14.7947C11.6783 14.7946 11.3891 14.6701 11.1721 14.5476C10.9439 14.4186 10.72 14.2477 10.511 14.0661C10.0919 13.702 9.66202 13.2317 9.28541 12.7839C8.90551 12.3322 8.56259 11.8832 8.31568 11.5486C8.19185 11.3807 8.09165 11.24 8.02173 11.1413C7.98685 11.0921 7.95951 11.0531 7.94068 11.0261C7.93126 11.0126 7.92327 11.0022 7.91822 10.9949C7.91571 10.9912 7.91374 10.9881 7.91236 10.9861L7.91138 10.9841L7.91041 10.9831C7.67615 10.6417 7.76258 10.1746 8.10377 9.94017C8.4453 9.70581 8.91238 9.79296 9.14673 10.1345L9.14771 10.1355C9.14862 10.1368 9.15056 10.1394 9.15259 10.1423L9.24537 10.2742C9.31049 10.3661 9.40541 10.499 9.52271 10.6579C9.75797 10.9768 10.081 11.3985 10.4338 11.8181C10.7902 12.2418 11.1613 12.6439 11.4944 12.9333C11.6613 13.0783 11.8014 13.1803 11.9104 13.2419C11.9509 13.2648 11.9811 13.2762 12.0002 13.2839C12.0194 13.2762 12.05 13.2651 12.0911 13.2419C12.2 13.1804 12.3393 13.0783 12.5061 12.9333C12.839 12.6439 13.2105 12.2428 13.5667 11.8191C13.9194 11.3994 14.2417 10.9768 14.4768 10.6579C14.5938 10.4992 14.6881 10.367 14.7532 10.2751C14.7857 10.2292 14.8117 10.1927 14.8284 10.1687C14.8366 10.1569 14.8429 10.1481 14.8469 10.1423C14.8489 10.1394 14.8499 10.1368 14.8508 10.1355L14.8518 10.1345Z" fill="#253035"/>
</svg>
