<svg width="24" height="24" viewBox="0 0 24 24" fill="none" xmlns="http://www.w3.org/2000/svg">
<path d="M20.5002 12C20.5002 8.57313 19.9195 6.52668 18.6965 5.30371C17.4736 4.08074 15.4271 3.5 12.0002 3.5C8.57336 3.5 6.52692 4.08074 5.30396 5.30371C4.08099 6.52668 3.50024 8.57311 3.50024 12C3.50025 15.4269 4.08099 17.4733 5.30396 18.6963C6.52692 19.9193 8.57337 20.5 12.0002 20.5C15.4271 20.5 17.4736 19.9193 18.6965 18.6963C19.9195 17.4733 20.5002 15.4269 20.5002 12ZM22.0002 12C22.0002 15.5101 21.4248 18.0891 19.7571 19.7568C18.0893 21.4246 15.5103 22 12.0002 22C8.49017 22 5.91118 21.4246 4.24341 19.7568C2.57564 18.0891 2.00025 15.5101 2.00024 12C2.00024 8.48991 2.57564 5.91094 4.24341 4.24316C5.91118 2.57539 8.49017 2 12.0002 2C15.5103 2 18.0893 2.5754 19.7571 4.24316C21.4248 5.91094 22.0002 8.48993 22.0002 12Z" fill="#253035"/>
<path d="M14.8518 10.1343C15.086 9.79262 15.5531 9.70569 15.8948 9.93992C16.2148 10.1595 16.3112 10.5829 16.1291 10.9165L16.0891 10.9819L16.0881 10.9829L16.0872 10.9858C16.0858 10.9878 16.0838 10.9909 16.0813 10.9946C16.0762 11.0019 16.0682 11.0123 16.0588 11.0259C16.04 11.0529 16.0126 11.0919 15.9778 11.1411C15.908 11.2397 15.8075 11.3797 15.6838 11.5473C15.4371 11.882 15.0948 12.3319 14.7151 12.7837C14.3387 13.2314 13.9094 13.7017 13.4905 14.0659C13.2814 14.2476 13.0567 14.4183 12.8284 14.5473C12.6114 14.6699 12.3222 14.7944 12.0002 14.7944C11.6783 14.7943 11.3891 14.6699 11.1721 14.5473C10.9439 14.4184 10.72 14.2475 10.511 14.0659C10.0918 13.7017 9.66201 13.2314 9.2854 12.7837C8.9055 12.332 8.56259 11.883 8.31567 11.5483C8.19184 11.3805 8.09164 11.2398 8.02173 11.1411C7.98685 11.0918 7.9595 11.0529 7.94067 11.0259C7.93125 11.0123 7.92327 11.0019 7.91821 10.9946C7.91571 10.991 7.91374 10.9878 7.91235 10.9858L7.91138 10.9839L7.9104 10.9829C7.67614 10.6415 7.76258 10.1744 8.10376 9.93992C8.4453 9.70556 8.91237 9.79271 9.14673 10.1343L9.1477 10.1352C9.1477 10.1352 9.15056 10.1391 9.15259 10.1421L9.24536 10.2739C9.31048 10.3658 9.4054 10.4987 9.5227 10.6577C9.75797 10.9765 10.081 11.3983 10.4338 11.8178C10.7902 12.2415 11.1613 12.6436 11.4944 12.9331C11.6613 13.0781 11.8014 13.1801 11.9104 13.2417C11.9509 13.2645 11.9811 13.2759 12.0002 13.2837C12.0194 13.2759 12.05 13.2649 12.0911 13.2417C12.2 13.1801 12.3393 13.0781 12.5061 12.9331C12.839 12.6437 13.2105 12.2425 13.5666 11.8188C13.9194 11.3992 14.2417 10.9766 14.4768 10.6577C14.5938 10.499 14.6881 10.3668 14.7532 10.2749C14.7857 10.2289 14.8117 10.1924 14.8284 10.1684C14.8366 10.1567 14.8429 10.1479 14.8469 10.1421C14.8489 10.1391 14.8508 10.1352 14.8508 10.1352L14.8518 10.1343Z" fill="#253035"/>
</svg>
