<svg width="24" height="24" viewBox="0 0 24 24" fill="none" xmlns="http://www.w3.org/2000/svg">
<path d="M18.3975 8.05378C18.6232 7.74825 19.0478 7.65699 19.3818 7.85456C19.7382 8.06553 19.8563 8.5255 19.6455 8.8819V8.88288H19.6445V8.88386C19.6439 8.88495 19.6427 8.88683 19.6416 8.88874C19.6393 8.8926 19.6361 8.89825 19.6318 8.90534C19.6233 8.91958 19.6108 8.9403 19.5947 8.96686C19.5623 9.02039 19.5141 9.09811 19.4531 9.19636C19.3311 9.39279 19.1544 9.67227 18.9336 10.0069C18.4928 10.6748 17.8727 11.5692 17.1582 12.4669C16.4471 13.3602 15.6239 14.2804 14.7773 14.9835C13.9595 15.6627 12.9901 16.2501 12 16.2501C11.01 16.2501 10.0405 15.6627 9.22266 14.9835C8.3762 14.2804 7.55396 13.3602 6.84277 12.4669C6.12812 11.5691 5.50735 10.6749 5.06641 10.0069C4.84552 9.67229 4.66891 9.39278 4.54687 9.19636C4.48586 9.09815 4.43769 9.02038 4.40527 8.96686C4.38921 8.94034 4.37668 8.91957 4.36816 8.90534C4.36394 8.89828 4.36069 8.89259 4.3584 8.88874C4.35728 8.88686 4.35611 8.88493 4.35547 8.88386V8.88288H4.35449V8.8819C4.14368 8.52553 4.26185 8.06555 4.61816 7.85456C4.95215 7.65699 5.37681 7.74825 5.60254 8.05378L5.64746 8.12116C5.64914 8.12399 5.65166 8.12881 5.65527 8.13483C5.66256 8.14701 5.67363 8.166 5.68848 8.1905C5.71816 8.2395 5.7625 8.31229 5.82031 8.40534C5.93611 8.59172 6.10605 8.85912 6.31836 9.18073C6.7438 9.82522 7.33822 10.6811 8.0166 11.5333C8.69836 12.3896 9.44718 13.2199 10.1807 13.8292C10.943 14.4623 11.5625 14.7501 12 14.7501C12.4378 14.7501 13.057 14.4623 13.8193 13.8292C14.553 13.2198 15.3025 12.3898 15.9844 11.5333C16.6627 10.6811 17.2563 9.82521 17.6816 9.18073C17.8939 8.85911 18.0639 8.59172 18.1797 8.40534C18.2375 8.31227 18.2818 8.2395 18.3115 8.1905C18.3264 8.166 18.3374 8.14701 18.3447 8.13483C18.3483 8.12884 18.3509 8.12398 18.3525 8.12116L18.3975 8.05378Z" fill="#253035"/>
</svg>
