<svg width="24" height="24" viewBox="0 0 24 24" fill="none" xmlns="http://www.w3.org/2000/svg">
<path d="M17.3926 13.9122C18.0213 13.2337 19.0545 13.1534 19.7784 13.6983L19.919 13.8155L20.6143 14.4591L20.7422 14.5899C21.3407 15.2693 21.3395 16.306 20.711 16.9854L17.7793 20.212C17.3905 20.6469 16.8669 20.9356 16.294 21.0323H16.293L15.5371 21.1583L15.5381 21.1592C14.4939 21.3349 13.5723 20.4639 13.6866 19.4122L13.7705 18.6329C13.8278 18.1003 14.0507 17.5987 14.4092 17.1993L14.4121 17.1964L17.3877 13.918L17.3926 13.9122ZM18.9004 14.9171C18.7834 14.8088 18.601 14.8156 18.4932 14.9317L15.5225 18.2051C15.4134 18.3277 15.3344 18.4732 15.292 18.6309L15.2618 18.794L15.1778 19.5733V19.5743C15.1709 19.6382 15.2264 19.6903 15.2891 19.6798L16.044 19.5528C16.2827 19.5125 16.5001 19.393 16.6612 19.213L16.6651 19.2081L19.6055 15.9717L19.6104 15.9659C19.7048 15.8635 19.711 15.7113 19.6328 15.6026L19.5948 15.5596L18.9004 14.9161V14.9171Z" fill="#A2B5BE"/>
<path d="M15.3046 8.27148C15.3046 6.08972 13.5362 4.32056 11.3544 4.32031C9.17253 4.32031 7.40328 6.08957 7.40328 8.27148C7.40353 10.4532 9.17269 12.2217 11.3544 12.2217C13.536 12.2214 15.3044 10.453 15.3046 8.27148ZM16.8046 8.27148C16.8044 11.2815 14.3644 13.7214 11.3544 13.7217C8.34426 13.7217 5.90353 11.2816 5.90328 8.27148C5.90328 5.26114 8.34411 2.82031 11.3544 2.82031C14.3646 2.82056 16.8046 5.26129 16.8046 8.27148Z" fill="#253035"/>
<path d="M4.12401 17.6523C4.12421 14.8089 6.42897 12.5039 9.27245 12.5039H13.5557C13.9367 12.5039 14.3093 12.5451 14.668 12.624C15.0725 12.7131 15.3283 13.114 15.2392 13.5185C15.1501 13.9227 14.75 14.1786 14.3457 14.0898C14.092 14.034 13.8274 14.0039 13.5557 14.0039H9.27245C7.25741 14.0039 5.62421 15.6373 5.62401 17.6523C5.62401 18.3687 5.58157 18.9151 5.67772 19.4687C5.74846 19.8767 5.47523 20.2649 5.06737 20.3359C4.6594 20.4068 4.27125 20.1335 4.20018 19.7256C4.07464 19.0028 4.12401 18.2252 4.12401 17.6523Z" fill="#253035"/>
</svg>
