<svg width="24" height="24" viewBox="0 0 24 24" fill="none" xmlns="http://www.w3.org/2000/svg">
<path d="M11.1438 17.5288C11.558 17.5288 11.8938 17.8646 11.8938 18.2788C11.8938 18.693 11.558 19.0287 11.1438 19.0288H4.67114C4.25693 19.0288 3.92114 18.693 3.92114 18.2788C3.92114 17.8646 4.25693 17.5288 4.67114 17.5288H11.1438Z" fill="#A2B5BE"/>
<path d="M20.6482 7.04013C21.0624 7.04017 21.3982 7.37594 21.3982 7.79013C21.3982 8.20432 21.0624 8.54009 20.6482 8.54013H14.1765C13.7623 8.54013 13.4265 8.20434 13.4265 7.79013C13.4265 7.37592 13.7623 7.04013 14.1765 7.04013H20.6482Z" fill="#A2B5BE"/>
<path d="M19.8984 18.2796C19.8983 17.3004 19.7252 16.8867 19.5224 16.6839C19.3195 16.481 18.9056 16.3079 17.9267 16.3079C16.9478 16.3079 16.5339 16.481 16.331 16.6839C16.1282 16.8867 15.955 17.3005 15.955 18.2796C15.955 19.2588 16.1281 19.6735 16.331 19.8763C16.534 20.079 16.9483 20.2513 17.9267 20.2513C18.905 20.2513 19.3193 20.0789 19.5224 19.8763C19.7252 19.6735 19.8984 19.2588 19.8984 18.2796ZM21.3984 18.2796C21.3984 19.342 21.2307 20.2892 20.5829 20.9368C19.9352 21.5842 18.9885 21.7513 17.9267 21.7513C16.8649 21.7513 15.9182 21.5842 15.2704 20.9368C14.6226 20.2892 14.455 19.342 14.455 18.2796C14.455 17.2171 14.6227 16.27 15.2704 15.6224C15.9182 14.975 16.8649 14.8079 17.9267 14.8079C18.9884 14.8079 19.9352 14.975 20.5829 15.6224C21.2307 16.27 21.3983 17.2171 21.3984 18.2796Z" fill="#253035"/>
<path d="M9.36511 7.7887C9.3651 6.81003 9.19211 6.39596 8.98914 6.19299C8.78612 5.99005 8.37204 5.81702 7.39343 5.81702C6.41421 5.81702 5.99982 5.98999 5.79675 6.19299C5.59375 6.39594 5.42079 6.81002 5.42078 7.7887C5.42078 8.768 5.59385 9.18258 5.79675 9.38538C5.99986 9.58815 6.41446 9.76037 7.39343 9.76038C8.37179 9.76038 8.78608 9.58808 8.98914 9.38538C9.19201 9.18256 9.36511 8.76798 9.36511 7.7887ZM10.8651 7.7887C10.8651 8.8512 10.6975 9.79829 10.0497 10.4459C9.40191 11.0933 8.45527 11.2604 7.39343 11.2604C6.33113 11.2604 5.38409 11.0935 4.73621 10.4459C4.08821 9.79827 3.92078 8.85118 3.92078 7.7887C3.92079 6.72667 4.08845 5.78014 4.73621 5.13245C5.38403 4.4848 6.33092 4.31702 7.39343 4.31702C8.45554 4.31702 9.40197 4.48481 10.0497 5.13245C10.6974 5.78012 10.8651 6.72658 10.8651 7.7887Z" fill="#253035"/>
</svg>
