<svg width="24" height="24" viewBox="0 0 24 24" fill="none" xmlns="http://www.w3.org/2000/svg">
<path d="M18.9394 4.93164C19.2444 4.65171 19.7188 4.67188 19.999 4.97657C20.2792 5.28161 20.2591 5.7569 19.9541 6.03711L18.8066 7.09082C18.5016 7.37104 18.0263 7.35095 17.7461 7.0459C17.4663 6.74088 17.4862 6.26643 17.791 5.98633L18.9394 4.93164Z" fill="#253035"/>
<path d="M18.0712 16.4434C18.344 16.1317 18.8182 16.1003 19.1298 16.373L20.3027 17.3994C20.6144 17.6722 20.6458 18.1463 20.373 18.458C20.1002 18.7696 19.6261 18.8011 19.3144 18.5283L18.1415 17.502C17.8299 17.2292 17.7985 16.755 18.0712 16.4434Z" fill="#253035"/>
<path d="M3.62987 4.99219C3.90588 4.6834 4.38061 4.65667 4.68944 4.93262L5.85155 5.97168C6.16037 6.24772 6.18716 6.72243 5.91112 7.03125C5.63506 7.34 5.16035 7.36586 4.85155 7.08984L3.68944 6.05176C3.38064 5.77574 3.35391 5.30102 3.62987 4.99219Z" fill="#253035"/>
<path d="M5.65526 16.8857C5.96627 16.6122 6.44028 16.6431 6.71386 16.9541C6.98737 17.2651 6.95745 17.7391 6.64647 18.0127L5.47557 19.042C5.16459 19.3154 4.69053 19.2855 4.41698 18.9746C4.1434 18.6636 4.17435 18.1896 4.48534 17.916L5.65526 16.8857Z" fill="#253035"/>
<path d="M6.18608 12.5501L9.88936 3.51392C9.97248 3.28734 10.1882 3.13672 10.4295 3.13672H15.3941C15.7911 3.13672 16.0689 3.52943 15.9365 3.90381L13.7411 9.05654C13.6087 9.43092 13.8864 9.82363 14.2835 9.82363H18.9713C19.4658 9.82363 19.7299 10.4062 19.404 10.7781L10.5033 20.9376C10.1022 21.3954 9.35775 20.9983 9.51456 20.4102L11.2113 14.0472C11.3087 13.6819 11.0334 13.3236 10.6554 13.3236H6.72624C6.32627 13.3236 6.04834 12.9256 6.18608 12.5501Z" fill="#253035"/>
</svg>
