<svg width="24" height="24" viewBox="0 0 24 24" fill="none" xmlns="http://www.w3.org/2000/svg">
<path d="M18.9394 4.93164C19.2444 4.65171 19.7188 4.67188 19.999 4.97657C20.2792 5.28161 20.2591 5.7569 19.9541 6.03711L18.8066 7.09082C18.5016 7.37104 18.0263 7.35095 17.7461 7.0459C17.4663 6.74088 17.4862 6.26643 17.791 5.98633L18.9394 4.93164Z" fill="#253035"/>
<path d="M18.0712 16.4434C18.344 16.1317 18.8182 16.1003 19.1298 16.373L20.3027 17.3994C20.6144 17.6722 20.6458 18.1463 20.373 18.458C20.1002 18.7696 19.6261 18.8011 19.3144 18.5283L18.1415 17.502C17.8299 17.2292 17.7985 16.755 18.0712 16.4434Z" fill="#253035"/>
<path d="M3.62987 4.99219C3.90588 4.6834 4.38061 4.65667 4.68944 4.93262L5.85155 5.97168C6.16037 6.24772 6.18716 6.72243 5.91112 7.03125C5.63506 7.34 5.16035 7.36586 4.85155 7.08984L3.68944 6.05176C3.38064 5.77574 3.35391 5.30102 3.62987 4.99219Z" fill="#253035"/>
<path d="M5.65526 16.8857C5.96627 16.6122 6.44028 16.6431 6.71386 16.9541C6.98737 17.2651 6.95745 17.7391 6.64647 18.0127L5.47557 19.042C5.16459 19.3154 4.69053 19.2855 4.41698 18.9746C4.1434 18.6636 4.17435 18.1896 4.48534 17.916L5.65526 16.8857Z" fill="#253035"/>
<path d="M15.3945 2.38672C16.3088 2.387 16.9485 3.29185 16.6435 4.1543C16.6383 4.16898 16.633 4.18391 16.6269 4.19824L14.5488 9.07324H18.9717C20.1105 9.07354 20.7185 10.4158 19.9678 11.2725L11.0674 21.4316C10.1435 22.4861 8.42881 21.5715 8.79002 20.2168L10.4277 14.0732H6.72655C5.8052 14.0732 5.16513 13.157 5.48241 12.292L5.49217 12.2656L9.1953 3.22949C9.39358 2.72217 9.88311 2.38672 10.4297 2.38672H15.3945ZM6.98729 12.5732H10.6553C11.526 12.5732 12.1598 13.3989 11.9355 14.2402L10.4316 19.8809L18.5869 10.5732H14.2832C13.3687 10.573 12.7293 9.66901 13.0342 8.80664L13.0508 8.7627L15.1279 3.88672H10.5469L6.98729 12.5732Z" fill="#253035"/>
</svg>
