<svg width="24" height="24" viewBox="0 0 24 24" fill="none" xmlns="http://www.w3.org/2000/svg">
<path d="M20.4971 17.6083C21.6936 17.6083 22.5363 18.7803 22.1592 19.914C21.8031 20.9821 20.802 21.704 19.6758 21.704H5.32423C4.19799 21.704 3.19698 20.983 2.84083 19.9149C2.46376 18.7813 3.30641 17.6083 4.50294 17.6083H20.4971ZM4.50294 19.1083C4.33172 19.1083 4.20935 19.2762 4.26368 19.4403L4.33302 19.6044C4.52315 19.9683 4.90345 20.204 5.32423 20.204H19.6758C20.1569 20.204 20.5846 19.8957 20.7363 19.4403L20.749 19.3798C20.7602 19.2374 20.6472 19.1083 20.4971 19.1083H4.50294Z" fill="#253035"/>
<path d="M13.0722 9.46551V8.33465C13.0722 8.01784 12.8151 7.7614 12.5 7.7614C12.1842 7.76142 11.9277 8.01748 11.9277 8.33465V9.46551C11.9276 9.8796 11.5918 10.2155 11.1777 10.2155C10.7636 10.2155 10.4279 9.8796 10.4277 9.46551V8.33465C10.4277 7.19044 11.3544 6.26142 12.5 6.26141C13.6442 6.26141 14.5722 7.19006 14.5722 8.33465V9.46551C14.5721 9.8796 14.2364 10.2155 13.8222 10.2155C13.4081 10.2155 13.0724 9.87957 13.0722 9.46551Z" fill="#253035"/>
<path d="M12.501 8.60357C17.3829 8.60366 21.2703 12.6899 21.0273 17.5665L20.9863 18.3965C20.9653 18.81 20.6127 19.1282 20.1992 19.1075C19.7855 19.0866 19.4664 18.734 19.4873 18.3204L19.5293 17.4913C19.7293 13.4716 16.5249 10.1037 12.501 10.1036C8.47547 10.1036 5.27034 13.4724 5.47168 17.4922L5.5127 18.3213C5.53309 18.735 5.21443 19.087 4.80078 19.1075C4.38715 19.1279 4.03516 18.8092 4.01465 18.3956L3.97363 17.5665C3.72963 12.6897 7.61804 8.60357 12.501 8.60357Z" fill="#253035"/>
<path d="M17.9942 4.82586C18.2871 4.53315 18.7619 4.53304 19.0547 4.82586C19.3474 5.11871 19.3474 5.59355 19.0547 5.88641C18.8803 6.06082 18.8808 6.34254 19.0537 6.51532C19.3469 6.80792 19.3473 7.28268 19.0547 7.57586C18.7621 7.86903 18.2873 7.86944 17.9942 7.57684C17.2335 6.81743 17.2347 5.58542 17.9942 4.82586Z" fill="#253035"/>
<path d="M3.64356 6.51598C3.93646 6.22309 4.41122 6.22309 4.70411 6.51598C5.46374 7.27562 5.46413 8.50756 4.70313 9.26696C4.40993 9.55946 3.93514 9.55916 3.64259 9.26598C3.35027 8.97276 3.35143 8.49793 3.64454 8.20544C3.81737 8.03267 3.81794 7.7509 3.64356 7.57653C3.35067 7.28364 3.35067 6.80888 3.64356 6.51598Z" fill="#253035"/>
<path d="M8.10547 2.51598C8.39838 2.22324 8.87317 2.22314 9.16602 2.51598C9.92532 3.27544 9.92543 4.50659 9.16504 5.26598C8.99058 5.44045 8.99193 5.72312 9.16504 5.89586C9.45821 6.18845 9.45859 6.66322 9.16602 6.95641C8.87341 7.24939 8.3986 7.2499 8.10547 6.95739C7.34458 6.19798 7.34587 4.96601 8.10547 4.20641C8.27853 4.03372 8.27979 3.75101 8.10547 3.57653C7.81258 3.28364 7.81258 2.80888 8.10547 2.51598Z" fill="#253035"/>
</svg>
