<svg width="24" height="24" viewBox="0 0 24 24" fill="none" xmlns="http://www.w3.org/2000/svg">
<path d="M18.3336 5.10573C18.6264 4.81291 19.1012 4.81305 19.3941 5.10573C19.687 5.39863 19.687 5.87339 19.3941 6.16628L6.66661 18.8938C6.37371 19.1867 5.89895 19.1867 5.60606 18.8938C5.31337 18.6009 5.31323 18.1261 5.60606 17.8333L18.3336 5.10573Z" fill="#253035"/>
<path d="M5.60546 5.10542C9.41307 1.29781 15.5865 1.29814 19.3941 5.10573C23.2017 8.91335 23.2021 15.0868 19.3945 18.8945C15.5868 22.7021 9.41368 22.7014 5.60606 18.8938C1.79847 15.0861 1.79785 8.91304 5.60546 5.10542ZM18.334 6.16597C15.1121 2.94416 9.88782 2.94416 6.66601 6.16597C3.44419 9.38778 3.4442 14.612 6.66601 17.8339C9.88783 21.0557 15.1121 21.0558 18.334 17.8339C21.5558 14.612 21.5558 9.38779 18.334 6.16597Z" fill="#253035"/>
</svg>
