<svg width="24" height="24" viewBox="0 0 24 24" fill="none" xmlns="http://www.w3.org/2000/svg">
<path d="M18.3336 5.1058C18.6264 4.81297 19.1012 4.81311 19.3942 5.1058C19.6871 5.39869 19.6871 5.87345 19.3942 6.16634L6.66662 18.8939C6.37373 19.1868 5.89897 19.1868 5.60607 18.8939C5.31338 18.601 5.31325 18.1262 5.60607 17.8333L18.3336 5.1058Z" fill="#A2B5BE"/>
<path d="M5.60546 5.10546C9.41307 1.29784 15.5868 1.29787 19.3945 5.10546C23.2021 8.91307 23.2021 15.0868 19.3945 18.8945C15.5868 22.7021 9.41307 22.7021 5.60546 18.8945C1.79787 15.0868 1.79784 8.91307 5.60546 5.10546ZM18.334 6.166C15.1121 2.94419 9.88782 2.94419 6.666 6.166C3.44419 9.38782 3.44419 14.6121 6.666 17.834C9.88782 21.0558 15.1121 21.0558 18.334 17.834C21.5558 14.6121 21.5558 9.38782 18.334 6.166Z" fill="#253035"/>
</svg>
