<svg width="24" height="24" viewBox="0 0 24 24" fill="none" xmlns="http://www.w3.org/2000/svg">
<path d="M20.5 8.61475C20.5 7.50738 20.1728 6.62677 19.6484 6.03369C19.1325 5.45022 18.3765 5.0874 17.3848 5.0874H6.60449C5.61305 5.0874 4.86069 5.45019 4.34766 6.03271C3.82576 6.62536 3.5 7.50596 3.5 8.61475V15.3862C3.50006 16.4949 3.8258 17.3757 4.34766 17.9683C4.86069 18.5507 5.61315 18.9136 6.60449 18.9136H17.3848C18.371 18.9136 19.1278 18.5507 19.6455 17.9663C20.1712 17.3727 20.4999 16.4921 20.5 15.3862V8.61475ZM22 15.3862C21.9999 16.7845 21.5824 18.0426 20.7686 18.9614C19.9465 19.8895 18.7697 20.4136 17.3848 20.4136H6.60449C5.21516 20.4136 4.0406 19.8894 3.22168 18.9595C2.41168 18.0396 2.00006 16.7819 2 15.3862V8.61475C2 7.21896 2.41167 5.96137 3.22168 5.0415C4.0406 4.11157 5.21514 3.5874 6.60449 3.5874H17.3848C18.7738 3.5874 19.951 4.11148 20.7725 5.04053C21.5852 5.95993 22 7.21775 22 8.61475V15.3862Z" fill="#A2B5BE"/>
<path d="M10.5519 11.25C10.9661 11.25 11.3019 11.5858 11.3019 12C11.3019 12.4142 10.9661 12.75 10.5519 12.75H6.29999C5.88577 12.75 5.54999 12.4142 5.54999 12C5.54999 11.5858 5.88577 11.25 6.29999 11.25H10.5519Z" fill="#253035"/>
<path d="M10.5519 14.25C10.9661 14.25 11.3019 14.5858 11.3019 15C11.3019 15.4142 10.9661 15.75 10.5519 15.75H6.29999C5.88577 15.75 5.54999 15.4142 5.54999 15C5.54999 14.5858 5.88577 14.25 6.29999 14.25H10.5519Z" fill="#253035"/>
<path d="M8.94647 8.25C9.36068 8.25 9.69647 8.58579 9.69647 9C9.69647 9.41421 9.36068 9.75 8.94647 9.75H6.29999C5.88577 9.75 5.54999 9.41421 5.54999 9C5.54999 8.58579 5.88577 8.25 6.29999 8.25H8.94647Z" fill="#253035"/>
<path d="M15.0641 14.4688V13.2979L14.0504 13.8838C13.6918 14.0908 13.2331 13.9679 13.026 13.6094C12.8189 13.2507 12.9418 12.7921 13.3004 12.585L14.3131 12L13.3004 11.415C12.9417 11.2079 12.8189 10.7493 13.026 10.3906C13.2331 10.0319 13.6917 9.9091 14.0504 10.1162L15.0641 10.7012V9.53125C15.0641 9.11718 15.4001 8.78148 15.8141 8.78125C16.2283 8.78125 16.5641 9.11704 16.5641 9.53125V10.7002L17.5758 10.1162C17.9345 9.90912 18.3931 10.032 18.6002 10.3906C18.8073 10.7493 18.6845 11.2079 18.3258 11.415L17.3121 12L18.3258 12.585C18.6845 12.7921 18.8073 13.2507 18.6002 13.6094C18.393 13.9678 17.9344 14.0908 17.5758 13.8838L16.5641 13.2988V14.4688C16.5639 14.8828 16.2282 15.2188 15.8141 15.2188C15.4002 15.2185 15.0643 14.8827 15.0641 14.4688Z" fill="#253035"/>
</svg>
