<svg width="24" height="24" viewBox="0 0 24 24" fill="none" xmlns="http://www.w3.org/2000/svg">
<path d="M20.5 8.61475C20.5 7.50738 20.1728 6.62677 19.6484 6.03369C19.1325 5.45022 18.3765 5.0874 17.3848 5.0874H6.60449C5.61305 5.0874 4.86069 5.45019 4.34766 6.03271C3.82576 6.62536 3.5 7.50596 3.5 8.61475V15.3862C3.50006 16.4949 3.8258 17.3757 4.34766 17.9683C4.86069 18.5507 5.61315 18.9136 6.60449 18.9136H17.3848C18.371 18.9136 19.1278 18.5507 19.6455 17.9663C20.1712 17.3727 20.4999 16.4921 20.5 15.3862V8.61475ZM22 15.3862C21.9999 16.7845 21.5824 18.0426 20.7686 18.9614C19.9465 19.8895 18.7697 20.4136 17.3848 20.4136H6.60449C5.21516 20.4136 4.0406 19.8894 3.22168 18.9595C2.41168 18.0396 2.00006 16.7819 2 15.3862V8.61475C2 7.21896 2.41167 5.96137 3.22168 5.0415C4.0406 4.11157 5.21514 3.5874 6.60449 3.5874H17.3848C18.7738 3.5874 19.951 4.11148 20.7725 5.04053C21.5852 5.95993 22 7.21775 22 8.61475V15.3862Z" fill="#253035"/>
<path d="M10.5519 11.2502C10.9661 11.2503 11.3019 11.586 11.3019 12.0002C11.3019 12.4144 10.9661 12.7502 10.5519 12.7502H6.29999C5.88578 12.7502 5.54999 12.4145 5.54999 12.0002C5.54999 11.586 5.88578 11.2502 6.29999 11.2502H10.5519Z" fill="#253035"/>
<path d="M10.5519 14.2502C10.9661 14.2503 11.3019 14.586 11.3019 15.0002C11.3019 15.4144 10.9661 15.7502 10.5519 15.7502H6.29999C5.88578 15.7502 5.54999 15.4145 5.54999 15.0002C5.54999 14.586 5.88578 14.2502 6.29999 14.2502H10.5519Z" fill="#253035"/>
<path d="M8.94647 8.25024C9.36069 8.25024 9.69647 8.58603 9.69647 9.00024C9.69647 9.41445 9.36069 9.75024 8.94647 9.75024H6.29999C5.88578 9.75024 5.54999 9.41446 5.54999 9.00024C5.54999 8.58603 5.88578 8.25024 6.29999 8.25024H8.94647Z" fill="#253035"/>
<path d="M15.0641 14.469V13.2981L14.0504 13.884C13.6918 14.091 13.2331 13.9681 13.026 13.6096C12.8189 13.251 12.9418 12.7924 13.3004 12.5852L14.3131 12.0002L13.3004 11.4153C12.9417 11.2082 12.8189 10.7496 13.026 10.3909C13.2331 10.0321 13.6917 9.90934 14.0504 10.1165L15.0641 10.7014V9.53149C15.0641 9.11742 15.4001 8.78172 15.8141 8.78149C16.2283 8.78149 16.5641 9.11728 16.5641 9.53149V10.7004L17.5758 10.1165C17.9345 9.90936 18.3931 10.0322 18.6002 10.3909C18.8073 10.7496 18.6845 11.2082 18.3258 11.4153L17.3121 12.0002L18.3258 12.5852C18.6845 12.7923 18.8073 13.2509 18.6002 13.6096C18.393 13.968 17.9344 14.0911 17.5758 13.884L16.5641 13.2991V14.469C16.5639 14.883 16.2282 15.219 15.8141 15.219C15.4002 15.2188 15.0643 14.8829 15.0641 14.469Z" fill="#253035"/>
</svg>
