<svg width="24" height="24" viewBox="0 0 24 24" fill="none" xmlns="http://www.w3.org/2000/svg">
<path d="M11.75 21V12.0977C11.75 11.6835 12.0858 11.3477 12.5 11.3477C12.9142 11.3477 13.25 11.6835 13.25 12.0977V21C13.25 21.4142 12.9142 21.75 12.5 21.75C12.0858 21.75 11.75 21.4142 11.75 21Z" fill="#A2B5BE"/>
<path d="M8.4502 2.25C10.4421 2.25 11.6509 3.6839 12.3135 4.88867C12.6534 5.50681 12.8821 6.11786 13.0254 6.57031C13.0975 6.79789 13.1487 6.9891 13.1826 7.125C13.1996 7.19295 13.213 7.24744 13.2217 7.28613C13.226 7.30539 13.2291 7.32084 13.2315 7.33203C13.2326 7.33764 13.2337 7.34222 13.2344 7.3457L13.2354 7.35059V7.35254L13.2471 7.43555C13.2638 7.62935 13.2048 7.82347 13.0801 7.97559C12.9376 8.14927 12.7246 8.25 12.5 8.25H8.4502C6.79275 8.24975 5.4502 6.90653 5.4502 5.24902C5.45046 3.59367 6.79291 2.25025 8.4502 2.25ZM6.9502 5.24902C6.9502 6.07811 7.62119 6.74975 8.4502 6.75H11.5029C11.3818 6.4074 11.2167 6.00706 10.999 5.61133C10.4242 4.5662 9.60778 3.75 8.4502 3.75C7.62134 3.75025 6.95046 4.4221 6.9502 5.24902Z" fill="#253035"/>
<path d="M18.0518 5.24902C18.0515 4.42193 17.3798 3.75 16.5508 3.75C15.3934 3.75013 14.5776 4.56628 14.003 5.61133C13.7854 6.00709 13.6202 6.40738 13.4991 6.75H16.5508C17.38 6.75 18.0518 6.07828 18.0518 5.24902ZM19.5518 5.24902C19.5518 6.90666 18.2085 8.25 16.5508 8.25H12.502C12.2773 8.25 12.0644 8.14933 11.9219 7.97559C11.7795 7.80183 11.7226 7.57286 11.7667 7.35254V7.35059L11.7676 7.3457C11.7683 7.34222 11.7694 7.33765 11.7706 7.33203C11.7729 7.32079 11.777 7.3055 11.7813 7.28613C11.7899 7.24744 11.8024 7.19295 11.8194 7.125C11.8533 6.9891 11.9046 6.79789 11.9766 6.57031C12.1198 6.11786 12.3486 5.5068 12.6885 4.88867C13.351 3.68395 14.5591 2.25013 16.5508 2.25C18.2083 2.25 19.5515 3.59354 19.5518 5.24902Z" fill="#253035"/>
<path d="M2.98242 10.1162V9.29785C2.98259 7.90576 4.11139 6.7775 5.50391 6.77734H19.3887C20.8399 6.77749 22.0166 7.95393 22.0166 9.40527V10.2217C22.0165 11.6149 20.8858 12.7432 19.4941 12.7432H5.61035C4.15919 12.7432 2.98242 11.5668 2.98242 10.1162ZM4.48242 10.1162C4.48242 10.738 4.98716 11.2432 5.61035 11.2432H19.4941C20.0579 11.2432 20.5165 10.7859 20.5166 10.2217V9.40527C20.5166 8.78242 20.0116 8.27749 19.3887 8.27734H5.50391C4.93928 8.2775 4.48259 8.73473 4.48242 9.29785V10.1162Z" fill="#253035"/>
<path d="M4.52734 18.5273V12.0195C4.52734 11.6053 4.86313 11.2695 5.27734 11.2695C5.69156 11.2695 6.02734 11.6053 6.02734 12.0195V18.5273C6.02734 19.4772 6.79817 20.248 7.74804 20.248H17.2539C18.2033 20.2479 18.9727 19.4775 18.9727 18.5273V12.0195C18.9727 11.6054 19.3086 11.2697 19.7227 11.2695C20.1369 11.2695 20.4727 11.6053 20.4727 12.0195V18.5273C20.4727 20.3051 19.0325 21.7479 17.2539 21.748H7.74804C5.96972 21.748 4.52734 20.3056 4.52734 18.5273Z" fill="#253035"/>
</svg>
