<svg width="24" height="24" viewBox="0 0 24 24" fill="none" xmlns="http://www.w3.org/2000/svg">
<path fill-rule="evenodd" clip-rule="evenodd" d="M18.326 13.2001C18.685 13.4071 18.807 13.8661 18.6 14.2241C18.393 14.5841 17.934 14.7061 17.576 14.4991L16.565 13.9151V15.0831C16.565 15.4971 16.229 15.8331 15.815 15.8331C15.401 15.8331 15.065 15.4971 15.065 15.0831V13.9131L14.05 14.4991C13.691 14.7061 13.232 14.5841 13.025 14.2241C12.818 13.8661 12.941 13.4071 13.3 13.2001L14.313 12.6151L13.3 12.0301C12.941 11.8231 12.818 11.3651 13.025 11.0061C13.232 10.6461 13.691 10.5241 14.05 10.7311L15.065 11.3171V10.1461C15.065 9.73215 15.401 9.39615 15.815 9.39615C16.229 9.39615 16.565 9.73215 16.565 10.1461V11.3151L17.576 10.7311C17.934 10.5241 18.393 10.6461 18.6 11.0061C18.807 11.3651 18.685 11.8231 18.326 12.0301L17.313 12.6151L18.326 13.2001ZM10.552 13.3651H6.3C5.886 13.3651 5.55 13.0291 5.55 12.6151C5.55 12.2011 5.886 11.8651 6.3 11.8651H10.552C10.966 11.8651 11.302 12.2011 11.302 12.6151C11.302 13.0291 10.966 13.3651 10.552 13.3651ZM10.552 16.3651H6.3C5.886 16.3651 5.55 16.0291 5.55 15.6151C5.55 15.2011 5.886 14.8651 6.3 14.8651H10.552C10.966 14.8651 11.302 15.2011 11.302 15.6151C11.302 16.0291 10.966 16.3651 10.552 16.3651ZM6.3 8.86515H8.946C9.36 8.86515 9.696 9.20115 9.696 9.61515C9.696 10.0291 9.36 10.3651 8.946 10.3651H6.3C5.886 10.3651 5.55 10.0291 5.55 9.61515C5.55 9.20115 5.886 8.86515 6.3 8.86515ZM17.385 4.45215H6.604C3.999 4.45215 2.25 6.37215 2.25 9.23015V16.0011C2.25 18.8581 3.999 20.7781 6.604 20.7781H17.385C19.995 20.7781 21.75 18.8581 21.75 16.0011V9.23015C21.75 6.37215 19.995 4.45215 17.385 4.45215Z" fill="#253035"/>
</svg>
