<svg width="24" height="24" viewBox="0 0 24 24" fill="none" xmlns="http://www.w3.org/2000/svg">
<path fill-rule="evenodd" clip-rule="evenodd" d="M7.66322 3.01172H5.13522C3.68322 3.01172 2.50122 4.19372 2.50122 5.64572V8.17372C2.50122 9.62672 3.68322 10.8077 5.13522 10.8077H7.66322C9.11522 10.8077 10.2972 9.62672 10.2972 8.17372V5.64572C10.2972 4.19372 9.11522 3.01172 7.66322 3.01172Z" fill="#253035"/>
<path fill-rule="evenodd" clip-rule="evenodd" d="M15.2149 10.5599C15.7129 11.0579 16.3739 11.3319 17.0779 11.3319C17.7819 11.3319 18.4439 11.0579 18.9419 10.5599L20.7289 8.77192C21.7549 7.74592 21.7559 6.07492 20.7289 5.04692L18.9419 3.25992C17.9449 2.26492 16.2099 2.26492 15.2149 3.25992L13.4279 5.04692C12.4019 6.07492 12.4019 7.74592 13.4289 8.77192L15.2149 10.5599Z" fill="#253035"/>
<path fill-rule="evenodd" clip-rule="evenodd" d="M18.3429 13.6904H15.8149C14.3629 13.6904 13.1809 14.8724 13.1809 16.3244V18.8524C13.1809 20.3054 14.3629 21.4864 15.8149 21.4864H18.3429C19.7959 21.4864 20.9769 20.3054 20.9769 18.8524V16.3244C20.9769 14.8724 19.7959 13.6904 18.3429 13.6904Z" fill="#253035"/>
<path fill-rule="evenodd" clip-rule="evenodd" d="M7.66322 13.6904H5.13522C3.68322 13.6904 2.50122 14.8724 2.50122 16.3244V18.8524C2.50122 20.3054 3.68322 21.4864 5.13522 21.4864H7.66322C9.11522 21.4864 10.2972 20.3054 10.2972 18.8524V16.3244C10.2972 14.8724 9.11522 13.6904 7.66322 13.6904Z" fill="#253035"/>
</svg>
