<svg width="24" height="24" viewBox="0 0 24 24" fill="none" xmlns="http://www.w3.org/2000/svg">
<path d="M20.75 16.1973C20.7499 15.3976 20.1015 14.75 19.3018 14.75H16.6982C15.8985 14.75 15.2501 15.3976 15.25 16.1973V18.8018C15.2501 19.6014 15.8985 20.25 16.6982 20.25H19.3018C20.1015 20.25 20.7499 19.6014 20.75 18.8018V16.1973ZM9.75 5.19824C9.75 4.39846 9.10154 3.75 8.30176 3.75H5.69824C4.89846 3.75 4.25 4.39846 4.25 5.19824V7.80176C4.25 8.60154 4.89846 9.25 5.69824 9.25H8.30176C9.10154 9.25 9.75 8.60154 9.75 7.80176V5.19824ZM22.25 18.8018C22.2499 20.4299 20.9299 21.75 19.3018 21.75H16.6982C15.0701 21.75 13.7501 20.4299 13.75 18.8018V16.1973C13.7501 14.5692 15.0701 13.25 16.6982 13.25H19.3018C20.9299 13.25 22.2499 14.5692 22.25 16.1973V18.8018ZM11.25 7.80176C11.25 9.42997 9.92997 10.75 8.30176 10.75H5.69824C4.07003 10.75 2.75 9.42997 2.75 7.80176V5.19824C2.75 3.57003 4.07003 2.25 5.69824 2.25H8.30176C9.92997 2.25 11.25 3.57003 11.25 5.19824V7.80176Z" fill="#A2B5BE"/>
<path d="M9.75 16.1975C9.74998 15.3977 9.10153 14.7492 8.30176 14.7492H5.69824C4.89847 14.7492 4.25002 15.3977 4.25 16.1975V18.802C4.25024 19.6015 4.8986 20.2492 5.69824 20.2492H8.30176C9.1014 20.2492 9.74976 19.6015 9.75 18.802V16.1975ZM15.915 2.57345C17.0664 1.42213 18.9336 1.42213 20.085 2.57345L21.9258 4.41525C23.077 5.56658 23.0771 7.43292 21.9258 8.58419L20.085 10.425C18.9336 11.5763 17.0664 11.5763 15.915 10.425L14.0742 8.58419C12.9229 7.4329 12.923 5.56657 14.0742 4.41525L15.915 2.57345ZM19.0234 3.634C18.4579 3.06882 17.541 3.06858 16.9756 3.634L15.1348 5.4758C14.5693 6.04134 14.5693 6.95814 15.1348 7.52365L16.9756 9.36447C17.5411 9.92998 18.4579 9.92993 19.0234 9.36447L20.8652 7.52365C21.4307 6.95816 21.4306 6.04134 20.8652 5.4758L19.0234 3.634ZM11.25 18.802C11.2498 20.43 9.92982 21.7492 8.30176 21.7492H5.69824C4.07018 21.7492 2.75024 20.43 2.75 18.802V16.1975C2.75002 14.5693 4.07004 13.2492 5.69824 13.2492H8.30176C9.92996 13.2492 11.25 14.5693 11.25 16.1975V18.802Z" fill="#253035"/>
</svg>
