<svg width="24" height="24" viewBox="0 0 24 24" fill="none" xmlns="http://www.w3.org/2000/svg">
<path d="M16.2013 12.6545C16.5304 11.2812 18.0973 10.5752 19.34 11.2951C20.8274 12.1567 21.7389 13.9151 21.3331 15.8146L21.2892 15.9982C20.8994 17.5149 19.6307 18.7016 18.0987 19.0031L18.0997 19.0041C17.8755 19.0487 17.6536 19.0738 17.4376 19.0832C16.0108 19.1441 14.971 17.7987 15.2941 16.4504L16.2013 12.6545ZM18.588 12.5929C18.2571 12.4013 17.8201 12.5604 17.6837 12.9279L17.6603 13.0041L16.753 16.799C16.6524 17.2189 16.9822 17.6005 17.3722 17.5842C17.514 17.578 17.6603 17.5617 17.8077 17.5324C18.7778 17.3416 19.5922 16.5775 19.837 15.6252C20.1665 14.3453 19.5759 13.1651 18.588 12.5929Z" fill="#253035"/>
<path d="M16.4893 17.9824C16.6847 17.6171 17.1397 17.4794 17.5049 17.6748C17.8699 17.8702 18.0076 18.3243 17.8125 18.6894C16.919 20.3596 15.9545 21.1971 14.791 21.542C14.2373 21.706 13.6798 21.7459 13.1436 21.75C12.8753 21.752 12.6011 21.7452 12.3321 21.7382C12.0593 21.7312 11.7891 21.7236 11.5098 21.7236C11.0956 21.7236 10.7598 21.3878 10.7598 20.9736C10.7598 20.5594 11.0956 20.2236 11.5098 20.2236C11.8119 20.2236 12.1021 20.2313 12.3711 20.2382C12.6438 20.2453 12.8935 20.2518 13.1328 20.25C13.6116 20.2463 14.007 20.2102 14.3643 20.1045C15.023 19.9093 15.7162 19.4273 16.4893 17.9824Z" fill="#253035"/>
<path d="M4.66014 11.2949C5.9028 10.5752 7.46872 11.2811 7.79784 12.6543L8.70506 16.4502C9.02818 17.7986 7.98948 19.144 6.56249 19.083C6.34645 19.0736 6.12359 19.0485 5.8994 19.0039C4.46364 18.7209 3.25894 17.6593 2.79295 16.2783L2.70995 15.998C2.2029 14.0286 3.12446 12.1841 4.66014 11.2949ZM6.33885 13.0039C6.23795 12.583 5.76502 12.3885 5.4121 12.5927C4.42423 13.1649 3.83266 14.3442 4.1621 15.624L4.16307 15.625C4.40788 16.5772 5.22039 17.3414 6.19042 17.5322H6.19237C6.33956 17.5615 6.48521 17.5788 6.62694 17.5849L6.6992 17.583C7.05649 17.5531 7.34126 17.1935 7.24706 16.7998L6.33885 13.0039Z" fill="#253035"/>
<path d="M18.6015 12.2041V10.3525C18.6015 6.70656 15.6459 3.75 11.999 3.75C8.35229 3.75004 5.39655 6.70658 5.39647 10.3525V12.2041C5.39647 12.6183 5.06068 12.9541 4.64647 12.9541C4.23225 12.9541 3.89647 12.6183 3.89647 12.2041V10.3525C3.89655 5.8783 7.52372 2.25004 11.999 2.25C16.4744 2.25 20.1015 5.87827 20.1015 10.3525V12.2041C20.1015 12.6183 19.7658 12.9541 19.3515 12.9541C18.9374 12.954 18.6015 12.6182 18.6015 12.2041Z" fill="#253035"/>
</svg>
