<svg width="24" height="24" viewBox="0 0 24 24" fill="none" xmlns="http://www.w3.org/2000/svg">
<path d="M21.1602 7.31445C21.1602 5.50348 19.6918 4.03516 17.8809 4.03516H7.93848C6.1286 4.03516 4.66016 5.50336 4.66016 7.31445V12.7705C4.66016 14.5816 6.1286 16.0498 7.93848 16.0498H17.8809C19.6918 16.0498 21.1602 14.5815 21.1602 12.7705V7.31445ZM22.6602 12.7705C22.6602 15.4099 20.5203 17.5498 17.8809 17.5498H7.93848C5.29993 17.5498 3.16016 15.4098 3.16016 12.7705V7.31445C3.16016 4.67517 5.29993 2.53516 7.93848 2.53516H17.8809C20.5203 2.53516 22.6602 4.67505 22.6602 7.31445V12.7705Z" fill="#253035"/>
<path d="M17.8535 19.9688C18.2676 19.969 18.6035 20.3047 18.6035 20.7188C18.6035 21.1329 18.2676 21.4686 17.8535 21.4688H7.96484C7.55062 21.4688 7.21484 21.133 7.21484 20.7188C7.21484 20.3046 7.55062 19.9688 7.96484 19.9688H17.8535Z" fill="#253035"/>
<path d="M10.0537 16.6768C10.1202 16.2679 10.5052 15.9901 10.914 16.0567C11.3227 16.1232 11.6004 16.5083 11.5341 16.917L10.8964 20.835C10.8297 21.2435 10.4447 21.5204 10.0361 21.4541C9.62728 21.3876 9.34951 21.0026 9.41596 20.5938L10.0537 16.6768Z" fill="#253035"/>
<path d="M14.9053 16.0567C15.314 15.9903 15.6991 16.268 15.7656 16.6768L16.4033 20.5938C16.4697 21.0025 16.1919 21.3876 15.7832 21.4541C15.3745 21.5206 14.9896 21.2435 14.9229 20.835L14.2852 16.917C14.2188 16.5083 14.4965 16.1232 14.9053 16.0567Z" fill="#253035"/>
<path d="M11.4131 6.54688C11.7356 6.547 12.0218 6.75365 12.124 7.05957L13.4619 11.0654L14.4873 8.79102L14.5371 8.69922C14.6652 8.49578 14.8847 8.36346 15.1289 8.34961C15.4082 8.33379 15.6734 8.47542 15.8164 8.71582L16.4336 9.75293H18.1738C18.588 9.75293 18.9238 10.0887 18.9238 10.5029C18.9238 10.9171 18.588 11.2529 18.1738 11.2529H16.0059C15.7415 11.2528 15.4964 11.113 15.3613 10.8857L15.2627 10.7207L14.043 13.4297C13.9162 13.7111 13.6296 13.8865 13.3213 13.8711C13.0129 13.8555 12.7453 13.6522 12.6475 13.3594L11.4121 9.66309L11.0527 10.7402C10.9505 11.0462 10.6643 11.2528 10.3418 11.2529H7.64258C7.22841 11.2529 6.89265 10.9171 6.89258 10.5029C6.89258 10.0887 7.22836 9.75293 7.64258 9.75293H9.80078L10.7012 7.05957C10.8034 6.75357 11.0905 6.54687 11.4131 6.54688Z" fill="#253035"/>
</svg>
