<svg width="24" height="24" viewBox="0 0 24 24" fill="none" xmlns="http://www.w3.org/2000/svg">
<path d="M17.0186 11.1582L16.6416 11.8057C15.7884 13.2711 14.2119 14.5652 12.2812 14.543L12.2822 14.5439C12.278 14.544 12.2738 14.5429 12.2695 14.543C12.2653 14.5429 12.2611 14.544 12.2568 14.5439V14.543C10.3266 14.5647 8.75054 13.2708 7.89746 11.8057L7.52051 11.1582L8.81641 10.4033L9.19434 11.0518C9.8779 12.2255 11.0314 13.0651 12.2568 13.0439H12.2822C13.5076 13.0651 14.6612 12.2255 15.3447 11.0518L15.7227 10.4033L17.0186 11.1582Z" fill="#A2B5BE"/>
<path d="M14.5664 3.21875C15.6504 2.88185 16.7525 2.96772 17.7666 3.29492L18.043 3.38965C20.8521 4.42896 22.2393 7.06862 22.25 9.77051L22.2471 10.0303C22.1754 12.71 20.7974 15.0256 18.9805 16.874C17.1036 18.7834 14.6996 20.2577 12.5557 21.208L12.2715 21.334L12.25 21.3252L12.2285 21.334L11.9443 21.208C9.80046 20.2577 7.39636 18.7833 5.51953 16.874C3.64434 14.9664 2.23667 12.5611 2.25 9.77148C2.26078 6.98214 3.73875 4.25972 6.7334 3.29492L7.11719 3.18359C8.02236 2.95255 8.98497 2.92394 9.9336 3.21875C10.7685 3.47828 11.5512 3.97562 12.25 4.7373C12.9488 3.97562 13.7315 3.47828 14.5664 3.21875ZM9.48828 4.65137C8.76025 4.42511 7.98033 4.46772 7.19336 4.72168V4.72265C4.94201 5.448 3.75879 7.49472 3.75 9.77734V9.77832C3.73916 12.0322 4.87533 14.0781 6.58985 15.8223C8.21742 17.4779 10.3139 18.8039 12.25 19.6992C14.1862 18.8038 16.2835 17.4781 17.9111 15.8223C19.5183 14.1871 20.6163 12.2865 20.7383 10.1982L20.75 9.77734C20.7411 7.4949 19.5579 5.44795 17.3066 4.72265V4.72168C16.5197 4.46772 15.7397 4.42511 15.0117 4.65137C14.2895 4.87588 13.5474 5.38688 12.8652 6.36621L12.25 7.25L11.6348 6.36621C10.9526 5.38688 10.2105 4.87588 9.48828 4.65137Z" fill="#253035"/>
</svg>
