<svg width="24" height="24" viewBox="0 0 24 24" fill="none" xmlns="http://www.w3.org/2000/svg">
<path fill-rule="evenodd" clip-rule="evenodd" d="M17.264 11.1253H15.096C14.831 11.1253 14.587 10.9863 14.451 10.7593L14.354 10.5953L13.133 13.3033C13.012 13.5733 12.743 13.7453 12.45 13.7453C12.437 13.7453 12.424 13.7453 12.411 13.7443C12.104 13.7293 11.836 13.5253 11.739 13.2333L10.502 9.53827L10.142 10.6133C10.039 10.9193 9.753 11.1253 9.431 11.1253H6.733C6.319 11.1253 5.983 10.7893 5.983 10.3753C5.983 9.96127 6.319 9.62527 6.733 9.62527H8.891L9.792 6.93727C9.895 6.63127 10.181 6.42527 10.503 6.42527C10.826 6.42527 11.113 6.63127 11.214 6.93727L12.553 10.9393L13.577 8.66727C13.692 8.41227 13.939 8.24227 14.218 8.22627C14.515 8.20427 14.763 8.35127 14.906 8.59127L15.522 9.62527H17.264C17.678 9.62527 18.014 9.96127 18.014 10.3753C18.014 10.7893 17.678 11.1253 17.264 11.1253ZM10.128 19.8453L10.562 17.1753H13.437L13.871 19.8453H10.128ZM16.971 2.65527H7.029C4.532 2.65527 2.5 4.68827 2.5 7.18627V12.6453C2.5 15.1433 4.532 17.1753 7.029 17.1753H9.042L8.608 19.8453H7.055C6.641 19.8453 6.305 20.1813 6.305 20.5953C6.305 21.0093 6.641 21.3453 7.055 21.3453H16.944C17.358 21.3453 17.694 21.0093 17.694 20.5953C17.694 20.1813 17.358 19.8453 16.944 19.8453H15.391L14.957 17.1753H16.971C19.468 17.1753 21.5 15.1433 21.5 12.6453V7.18627C21.5 4.68827 19.468 2.65527 16.971 2.65527Z" fill="#253035"/>
</svg>
