<svg width="24" height="24" viewBox="0 0 24 24" fill="none" xmlns="http://www.w3.org/2000/svg">
<path d="M15.1442 15.3848C15.5582 15.385 15.8942 15.7207 15.8942 16.1348C15.8942 16.5488 15.5582 16.8845 15.1442 16.8848H9.32877C8.91455 16.8848 8.57877 16.549 8.57877 16.1348C8.57877 15.7206 8.91455 15.3848 9.32877 15.3848H15.1442Z" fill="#A2B5BE"/>
<path d="M21.0719 13.7129C21.0719 10.8689 20.9041 9.7613 20.4518 8.97168C20.2262 8.57796 19.9069 8.22601 19.4019 7.75977C19.149 7.52619 18.8621 7.27571 18.525 6.97852C18.196 6.6885 17.8259 6.36031 17.4137 5.97852C16.6372 5.3516 15.7725 4.56088 14.8043 3.87695C13.8194 3.1812 12.9271 2.75 12.2076 2.75C11.4906 2.75015 10.6109 3.18129 9.63925 3.87793C8.67645 4.56821 7.83745 5.34877 7.05722 5.97852C6.64546 6.35988 6.27661 6.68875 5.94785 6.97852C5.61065 7.27572 5.32395 7.52617 5.07089 7.75977C4.56588 8.22595 4.24677 8.57802 4.02109 8.97168C3.56859 9.76127 3.4 10.8689 3.39999 13.7129C3.39999 15.769 3.52327 17.2453 3.80136 18.3154C4.07432 19.3657 4.48115 19.9675 5.02011 20.3545C5.58311 20.7586 6.38698 20.9993 7.59726 21.124C8.80646 21.2487 10.315 21.25 12.2359 21.25C14.1569 21.25 15.6654 21.2487 16.8746 21.124C18.0849 20.9993 18.8887 20.7586 19.4518 20.3545C19.9907 19.9675 20.3975 19.3658 20.6705 18.3154C20.9486 17.2453 21.0719 15.769 21.0719 13.7129ZM22.5719 13.7129C22.5719 15.8002 22.4502 17.4319 22.1227 18.6924C21.79 19.9724 21.2306 20.9243 20.3268 21.5732C19.4467 22.205 18.3299 22.482 17.0279 22.6162C15.7248 22.7505 14.1283 22.75 12.2359 22.75C10.3436 22.75 8.74707 22.7505 7.44394 22.6162C6.14194 22.482 5.0252 22.205 4.14511 21.5732C3.2413 20.9243 2.68183 19.9724 2.34921 18.6924C2.02169 17.4319 1.89999 15.8002 1.89999 13.7129C1.9 10.9261 2.03869 9.41441 2.71933 8.22656C3.06021 7.63173 3.514 7.15507 4.05331 6.65723C4.32252 6.40873 4.62677 6.14339 4.95566 5.85352C5.28746 5.56106 5.65317 5.23687 6.05917 4.86035L6.09824 4.82617C6.75874 4.29448 7.76343 3.37742 8.76523 2.65918C9.76545 1.94207 10.9819 1.25014 12.2076 1.25C13.43 1.25 14.6568 1.93599 15.6695 2.65137C16.1802 3.0121 16.6872 3.41959 17.151 3.80469L18.3746 4.82617L18.4137 4.86035C18.8197 5.23689 19.1854 5.56105 19.5172 5.85352C19.8461 6.14343 20.1503 6.40869 20.4195 6.65723C20.9588 7.15511 21.4128 7.63168 21.7535 8.22656C22.4338 9.41439 22.5719 10.9263 22.5719 13.7129Z" fill="#253035"/>
</svg>
