<svg width="24" height="24" viewBox="0 0 24 24" fill="none" xmlns="http://www.w3.org/2000/svg">
<path fill-rule="evenodd" clip-rule="evenodd" d="M15.1581 16.885H9.34303C8.92903 16.885 8.59303 16.549 8.59303 16.135C8.59303 15.721 8.92903 15.385 9.34303 15.385H15.1581C15.5721 15.385 15.9081 15.721 15.9081 16.135C15.9081 16.549 15.5721 16.885 15.1581 16.885ZM19.4991 6.158C19.1361 5.838 18.7231 5.476 18.2311 5.021C18.0081 4.841 17.7641 4.635 17.5051 4.417C16.0451 3.186 14.0451 1.5 12.2221 1.5C10.4201 1.5 8.54903 3.092 7.04603 4.371C6.76803 4.607 6.50803 4.829 6.24303 5.044C5.77703 5.476 5.36403 5.839 5.00003 6.16C2.61303 8.261 2.16403 8.812 2.16403 13.713C2.16403 22.5 4.70503 22.5 12.2501 22.5C19.7941 22.5 22.3361 22.5 22.3361 13.713C22.3361 8.811 21.8871 8.26 19.4991 6.158Z" fill="#253035"/>
</svg>
