<svg width="24" height="24" viewBox="0 0 24 24" fill="none" xmlns="http://www.w3.org/2000/svg">
<path d="M16.4951 10.4294C16.4951 9.75922 15.9519 9.21655 15.2822 9.21655H6.46289C5.79318 9.21655 5.25 9.75924 5.25 10.4294V13.5085C5.25 16.6135 7.76794 19.1316 10.873 19.1316C13.9778 19.1313 16.4951 16.6134 16.4951 13.5085V10.4294ZM17.9951 13.5085C17.9951 17.4418 14.8063 20.6313 10.873 20.6316C6.93953 20.6316 3.75 17.442 3.75 13.5085V10.4294C3.75 8.9304 4.96516 7.71655 6.46289 7.71655H15.2822C16.78 7.71655 17.9951 8.93042 17.9951 10.4294V13.5085Z" fill="#253035"/>
<path d="M18.1689 19.1308C18.5832 19.1308 18.9189 19.4666 18.9189 19.8808C18.9189 20.2951 18.5832 20.6308 18.1689 20.6308H4.67578C4.26157 20.6308 3.92578 20.2951 3.92578 19.8808C3.92578 19.4666 4.26157 19.1308 4.67578 19.1308H18.1689Z" fill="#253035"/>
<path d="M19.75 12.4304C19.7499 11.7048 19.1621 11.1169 18.4365 11.1169H17.2461C16.8319 11.1169 16.4961 10.7812 16.4961 10.3669C16.4961 9.95273 16.8319 9.61694 17.2461 9.61694H18.4365C19.9906 9.61694 21.2499 10.8764 21.25 12.4304C21.25 13.9846 19.9906 15.2439 18.4365 15.2439H17.1738C16.7596 15.2439 16.4238 14.9081 16.4238 14.4939C16.424 14.0798 16.7597 13.7439 17.1738 13.7439H18.4365C19.1622 13.7439 19.75 13.1562 19.75 12.4304Z" fill="#253035"/>
<path d="M6.85938 5.62988V4.11914C6.85938 3.70493 7.19517 3.36914 7.60938 3.36914C8.02359 3.36914 8.35938 3.70493 8.35938 4.11914V5.62988C8.35938 6.0441 8.02359 6.37988 7.60938 6.37988C7.19517 6.37988 6.85938 6.0441 6.85938 5.62988ZM10.084 5.62988V4.11914C10.084 3.705 10.4199 3.36925 10.834 3.36914C11.2482 3.36914 11.584 3.70493 11.584 4.11914V5.62988C11.584 6.0441 11.2482 6.37988 10.834 6.37988C10.4199 6.37977 10.084 6.04403 10.084 5.62988ZM13.3086 5.62988V4.11914C13.3086 3.70503 13.6445 3.3693 14.0586 3.36914C14.4728 3.36914 14.8086 3.70493 14.8086 4.11914V5.62988C14.8086 6.0441 14.4728 6.37988 14.0586 6.37988C13.6445 6.37972 13.3086 6.044 13.3086 5.62988Z" fill="#253035"/>
</svg>
