<svg width="24" height="24" viewBox="0 0 24 24" fill="none" xmlns="http://www.w3.org/2000/svg">
<path d="M20.5002 12.9999C20.5002 9.573 19.9195 7.52656 18.6965 6.30359C17.4736 5.08062 15.4271 4.49988 12.0002 4.49988C8.57337 4.49988 6.52692 5.08062 5.30396 6.30359C4.08099 7.52656 3.50025 9.57298 3.50024 12.9999C3.50024 16.4268 4.08099 18.4732 5.30396 19.6962C6.52692 20.9191 8.57336 21.4999 12.0002 21.4999C15.4271 21.4999 17.4736 20.9191 18.6965 19.6962C19.9195 18.4732 20.5002 16.4268 20.5002 12.9999ZM22.0002 12.9999C22.0002 16.51 21.4248 19.0889 19.7571 20.7567C18.0893 22.4245 15.5103 22.9999 12.0002 22.9999C8.49016 22.9999 5.91118 22.4245 4.24341 20.7567C2.57564 19.0889 2.00024 16.51 2.00024 12.9999C2.00025 9.48978 2.57564 6.91082 4.24341 5.24304C5.91118 3.57527 8.49017 2.99988 12.0002 2.99988C15.5103 2.99988 18.0893 3.57527 19.7571 5.24304C21.4248 6.91082 22.0002 9.48979 22.0002 12.9999Z" fill="#253035"/>
<path d="M11.2502 16.8945V13C11.2502 12.5858 11.586 12.25 12.0002 12.25C12.4144 12.25 12.7502 12.5858 12.7502 13V16.8945C12.7502 17.3087 12.4144 17.6445 12.0002 17.6445C11.586 17.6445 11.2502 17.3087 11.2502 16.8945Z" fill="#253035"/>
<path d="M12.0043 8.75C12.4185 8.75 12.7543 9.08578 12.7543 9.5C12.7543 9.91421 12.4185 10.25 12.0043 10.25H11.9955C11.5813 10.25 11.2455 9.91421 11.2455 9.5C11.2455 9.08578 11.5813 8.75 11.9955 8.75H12.0043Z" fill="#253035"/>
</svg>
