<svg width="24" height="24" viewBox="0 0 24 24" fill="none" xmlns="http://www.w3.org/2000/svg">
<path fill-rule="evenodd" clip-rule="evenodd" d="M4.89161 12.5908C4.80628 12.5908 4.72165 12.587 4.63758 12.5802C4.45398 12.5655 4.28961 12.7042 4.28961 12.8884V17.8528C4.29361 18.6898 4.62261 19.4738 5.21761 20.0608C5.80461 20.6418 6.58161 20.9608 7.40261 20.9608H8.48661C8.6523 20.9608 8.78661 20.8265 8.78661 20.6608V17.6708C8.78661 15.8948 10.2276 14.4508 11.9996 14.4508C13.7706 14.4508 15.2126 15.8948 15.2126 17.6708V20.6608C15.2126 20.8265 15.3469 20.9608 15.5126 20.9608H16.5686C17.3676 20.9668 18.1886 20.6458 18.7816 20.0598C19.3756 19.4728 19.7056 18.6888 19.7096 17.8508V12.8884C19.7096 12.7042 19.5452 12.5654 19.3616 12.5802C19.2774 12.5869 19.1927 12.5908 19.1076 12.5908H4.89161Z" fill="#253035"/>
<path fill-rule="evenodd" clip-rule="evenodd" d="M11.9997 15.9512C11.0557 15.9512 10.2867 16.7222 10.2867 17.6712V20.6612C10.2867 20.8269 10.421 20.9612 10.5867 20.9612H13.4127C13.5784 20.9612 13.7127 20.8269 13.7127 20.6612V17.6712C13.7127 16.7222 12.9437 15.9512 11.9997 15.9512Z" fill="#253035"/>
<path fill-rule="evenodd" clip-rule="evenodd" d="M6.84571 11.0749C6.99424 11.0736 7.11897 10.9638 7.13963 10.8167L8.09967 3.98236C8.12503 3.80185 7.98487 3.64062 7.80259 3.64062H5.78568C4.78368 3.64062 3.90668 4.25463 3.54568 5.21763L2.65768 7.80464C2.37468 8.55763 2.47868 9.40064 2.93568 10.0606C3.38968 10.7156 4.10268 11.0906 4.89168 11.0906C5.05993 11.0906 6.299 11.0798 6.84571 11.0749Z" fill="#253035"/>
<path fill-rule="evenodd" clip-rule="evenodd" d="M15.0383 11.0906C15.2206 11.0906 15.3608 10.9294 15.3358 10.7488C15.0204 8.46502 14.7527 6.16569 14.3818 3.89139C14.3581 3.74665 14.2329 3.64062 14.0863 3.64062H9.91936C9.76972 3.64062 9.64331 3.7484 9.62259 3.8966C9.48267 4.8974 8.96545 8.59634 8.66312 10.7505C8.63779 10.9311 8.77818 11.0906 8.96046 11.0906H15.0383Z" fill="#253035"/>
<path fill-rule="evenodd" clip-rule="evenodd" d="M21.3464 7.81763L20.4484 5.20563C20.1004 4.26963 19.2024 3.64062 18.2134 3.64062H16.1965C16.0142 3.64062 15.874 3.80184 15.899 3.98241C16.2144 6.26623 16.4821 8.5656 16.853 10.8399C16.8766 10.9846 17.0019 11.0906 17.1485 11.0906H19.1074C19.8964 11.0906 20.6094 10.7146 21.0624 10.0606C21.5194 9.40064 21.6244 8.55762 21.3464 7.81763Z" fill="#253035"/>
</svg>
