<svg width="24" height="24" viewBox="0 0 24 24" fill="none" xmlns="http://www.w3.org/2000/svg">
<path d="M13.7138 20.1597V16.6783C13.7137 15.7328 12.9461 14.9665 11.9999 14.9663C11.054 14.9663 10.2871 15.7323 10.287 16.6783V20.1597C10.287 20.5739 9.95124 20.9097 9.53703 20.9097C9.12287 20.9096 8.78703 20.5739 8.78703 20.1597V16.6783C8.78714 14.904 10.2256 13.4663 11.9999 13.4663C13.7738 13.4665 15.2137 14.9036 15.2138 16.6783V20.1597C15.2138 20.5738 14.8778 20.9094 14.4638 20.9097C14.0496 20.9097 13.7138 20.5739 13.7138 20.1597ZM9.54386 3.0972C9.95406 3.15477 10.2401 3.53467 10.1825 3.94486L9.27726 10.399C9.2197 10.8092 8.8398 11.0952 8.42961 11.0376C8.01962 10.9799 7.7335 10.601 7.79093 10.191L8.69718 3.73588C8.75485 3.32593 9.13389 3.03986 9.54386 3.0972ZM14.5517 3.0972C14.9618 3.03966 15.3406 3.32585 15.3984 3.73588L16.3046 10.191C16.3621 10.6011 16.0761 10.9801 15.6659 11.0376C15.2558 11.0951 14.8768 10.8091 14.8193 10.399L13.913 3.94486C13.8554 3.53469 14.1415 3.15481 14.5517 3.0972Z" fill="#A2B5BE"/>
<path d="M18.2139 3.08984C19.2488 3.08984 20.1737 3.69968 20.6035 4.62695L20.6826 4.81641L20.6894 4.83594L21.5762 7.41895H21.5771C22.1196 8.87093 21.3303 10.4361 19.96 10.9043V17.5557C19.9499 19.4177 18.4332 20.9173 16.5723 20.9092V20.9102H7.42578V20.9092C5.5648 20.916 4.04899 19.4156 4.04003 17.5537V10.9043C2.66972 10.436 1.87947 8.87075 2.42382 7.41797L3.30956 4.83594L3.31738 4.81543C3.7049 3.78379 4.68221 3.08992 5.78613 3.08984H18.2139ZM5.54003 17.5459L5.55078 17.7373C5.65094 18.6813 6.4518 19.4145 7.42187 19.4102H16.5771C17.6105 19.4155 18.4532 18.5839 18.4609 17.5518H18.46V11.0449H5.54003V17.5459ZM5.78613 4.58984C5.32197 4.58992 4.8947 4.88233 4.72167 5.34277L3.83593 7.9248C3.83368 7.93137 3.83056 7.93783 3.82812 7.94434C3.53191 8.73519 4.11237 9.54492 4.89257 9.54492H19.1084C19.8879 9.54479 20.4679 8.73516 20.1719 7.94336C20.1696 7.9372 20.1672 7.93102 20.165 7.9248L19.2773 5.3418C19.1052 4.88228 18.6782 4.58984 18.2139 4.58984H5.78613Z" fill="#253035"/>
</svg>
