<svg width="24" height="24" viewBox="0 0 24 24" fill="none" xmlns="http://www.w3.org/2000/svg">
<path d="M13.7138 20.1606V16.6792C13.7137 15.7338 12.9461 14.9674 11.9999 14.9673C11.054 14.9673 10.2871 15.7333 10.287 16.6792V20.1606C10.287 20.5749 9.95123 20.9106 9.53701 20.9106C9.12285 20.9106 8.78701 20.5748 8.78701 20.1606V16.6792C8.78712 14.9049 10.2255 13.4673 11.9999 13.4673C13.7738 13.4674 15.2137 14.9045 15.2138 16.6792V20.1606C15.2138 20.5747 14.8778 20.9104 14.4638 20.9106C14.0496 20.9106 13.7138 20.5749 13.7138 20.1606ZM9.54385 3.09814C9.95404 3.15571 10.2401 3.53561 10.1825 3.9458L9.27725 10.3999C9.21968 10.8101 8.83978 11.0961 8.42959 11.0386C8.01961 10.9809 7.73348 10.6019 7.79092 10.1919L8.69717 3.73682C8.75484 3.32687 9.13387 3.0408 9.54385 3.09814ZM14.5517 3.09814C14.9617 3.0406 15.3406 3.32679 15.3983 3.73682L16.3046 10.1919C16.3621 10.602 16.0761 10.981 15.6659 11.0386C15.2558 11.0961 14.8768 10.8101 14.8192 10.3999L13.913 3.9458C13.8554 3.53563 14.1415 3.15575 14.5517 3.09814Z" fill="#253035"/>
<path d="M18.2139 3.08984C19.2488 3.08984 20.1737 3.69968 20.6035 4.62695L20.6826 4.81641L20.6894 4.83594L21.5762 7.41895C22.1187 8.87093 21.3303 10.4361 19.96 10.9043V17.5557C19.9499 19.4177 18.4332 20.9173 16.5723 20.9092L7.42578 20.9102C5.5648 20.917 4.04899 19.4156 4.04003 17.5537V10.9043C2.66972 10.436 1.87947 8.87075 2.42382 7.41797L3.30956 4.83594L3.31738 4.81543C3.7049 3.78379 4.68221 3.08992 5.78613 3.08984H18.2139ZM5.54003 17.5459L5.55078 17.7373C5.65094 18.6813 6.4518 19.4145 7.42187 19.4102H16.5771C17.6105 19.4155 18.4532 18.5839 18.4609 17.5518L18.46 11.0449H5.54003V17.5459ZM5.78613 4.58984C5.32197 4.58992 4.8947 4.88233 4.72167 5.34277L3.83593 7.9248C3.83368 7.93137 3.83056 7.93783 3.82812 7.94434C3.53191 8.73519 4.11237 9.54492 4.89257 9.54492H19.1084C19.8879 9.54479 20.4679 8.73516 20.1719 7.94336C20.1696 7.9372 20.1672 7.93102 20.165 7.9248L19.2773 5.3418C19.1052 4.88228 18.6782 4.58984 18.2139 4.58984H5.78613Z" fill="#253035"/>
</svg>
