<svg width="24" height="24" viewBox="0 0 24 24" fill="none" xmlns="http://www.w3.org/2000/svg">
<path d="M20.25 8.02637C20.25 6.70868 19.8411 5.64605 19.165 4.91992C18.4945 4.19983 17.5056 3.75 16.2168 3.75H7.78223C6.49854 3.75 5.50964 4.19942 4.83789 4.91992C4.16068 5.64646 3.75 6.70951 3.75 8.02637V15.9736C3.75001 17.2914 4.15907 18.354 4.83496 19.0801C5.50521 19.8 6.49356 20.25 7.78223 20.25H16.2158C17.5052 20.25 18.4944 19.8002 19.165 19.0801C19.8412 18.354 20.25 17.2913 20.25 15.9736V8.02637ZM21.75 15.9736C21.75 17.6011 21.2413 19.0518 20.2627 20.1025C19.2785 21.1593 17.8755 21.75 16.2158 21.75H7.78223C6.12288 21.75 4.72013 21.1594 3.73633 20.1025C2.75818 19.0517 2.25001 17.601 2.25 15.9736V8.02637C2.25 6.39807 2.76123 4.9478 3.74023 3.89746C4.72472 2.84126 6.12676 2.25 7.78223 2.25H16.2168C17.876 2.25 19.2787 2.84078 20.2627 3.89746C21.2411 4.94822 21.75 6.39888 21.75 8.02637V15.9736Z" fill="#253035"/>
<path d="M14.5977 12.331C14.5977 10.8111 13.3647 9.57824 11.8447 9.57812C10.3247 9.57812 9.0918 10.8111 9.0918 12.331C9.09193 13.851 10.3248 15.084 11.8447 15.084C13.3646 15.0839 14.5975 13.8509 14.5977 12.331ZM16.0977 12.331C16.0975 14.6794 14.1931 16.5839 11.8447 16.584C9.49633 16.584 7.59193 14.6795 7.5918 12.331C7.5918 9.98264 9.49624 8.07812 11.8447 8.07812C14.1931 8.07824 16.0977 9.98272 16.0977 12.331Z" fill="#253035"/>
<path d="M16.9707 6.34961C17.4945 6.40317 17.8984 6.84673 17.8984 7.37891C17.8984 7.95 17.4353 8.413 16.8643 8.41309C16.3321 8.41309 15.8885 8.00914 15.835 7.48535L15.8291 7.37891L15.834 7.27344C15.8868 6.75159 16.3286 6.34375 16.8643 6.34375L16.9707 6.34961Z" fill="#253035"/>
</svg>
