<svg width="24" height="24" viewBox="0 0 24 24" fill="none" xmlns="http://www.w3.org/2000/svg">
<path d="M14.0518 4.96582C14.0515 5.37968 13.7156 5.71558 13.3018 5.71582H12.083V7.0332H13.3018C13.7158 7.03345 14.0518 7.36914 14.0518 7.7832V8.99805H15.3633V7.7832C15.3633 7.36899 15.6991 7.0332 16.1133 7.0332H17.3311V5.71582H16.1133C15.6992 5.71582 15.3635 5.37983 15.3633 4.96582V3.75H14.0518V4.96582ZM16.8633 4.21582H17.5703C18.2677 4.21582 18.8311 4.78215 18.8311 5.47656V7.27246C18.8309 7.9687 18.2667 8.5332 17.5703 8.5332H16.8633V9.2373C16.8633 9.93356 16.2989 10.4979 15.6025 10.498H13.8125C13.1161 10.498 12.5518 9.93364 12.5518 9.2373V8.5332H11.8438C11.1476 8.53317 10.5831 7.96878 10.583 7.27246V5.47656C10.583 4.78207 11.1466 4.21585 11.8438 4.21582H12.5518V3.51074C12.5518 2.81635 13.1151 2.25 13.8125 2.25H15.6025C16.2998 2.25013 16.8633 2.81643 16.8633 3.51074V4.21582Z" fill="#A2B5BE"/>
<path d="M18.5332 14.0292C19.4001 13.3756 20.5915 13.4173 21.4092 14.0986L21.5674 14.2441L21.7266 14.4208C22.4685 15.3342 22.4159 16.681 21.5674 17.5322C20.3536 18.7513 19.1545 20.0199 17.3916 20.8036L17.0313 20.954C14.3135 22.0111 11.7925 21.482 9.30957 20.9911C8.41607 20.8143 7.58499 20.8007 6.60059 20.8007C6.18638 20.8007 5.85059 20.4649 5.85059 20.0507C5.8507 19.6366 6.18645 19.3007 6.60059 19.3007C7.58536 19.3007 8.54828 19.3112 9.60059 19.5195L10.5352 19.7011C12.6725 20.1047 14.5184 20.3223 16.4873 19.5566L16.7832 19.4325C18.235 18.7884 19.2433 17.7407 20.5049 16.4736L20.5615 16.4101C20.8244 16.0863 20.8067 15.6068 20.5059 15.3036L20.3897 15.207C20.145 15.0383 19.8279 15.0157 19.5635 15.1474L19.4355 15.2265C19.1455 15.4448 18.855 15.6878 18.5303 15.9531C18.2132 16.212 17.8703 16.4868 17.5088 16.7353C16.7898 17.2294 15.9286 17.6702 14.9141 17.6943C14.5403 17.7032 14.1487 17.6796 13.832 17.6699C13.4955 17.6595 13.2031 17.6619 12.9277 17.7021C12.518 17.7617 12.137 17.478 12.0772 17.0683C12.0173 16.6585 12.3013 16.2777 12.7109 16.2177C13.1215 16.1577 13.522 16.1598 13.8789 16.1708C14.2555 16.1825 14.5591 16.2019 14.8779 16.1943C15.4695 16.1803 16.0415 15.9234 16.6592 15.499C16.966 15.2881 17.268 15.0476 17.5811 14.7919C17.8864 14.5426 18.2119 14.271 18.5332 14.0292Z" fill="#253035"/>
<path d="M15.1758 15.2636C15.1758 14.8304 14.8929 14.4657 14.418 14.3466C13.3195 14.071 12.2845 13.8698 11.2227 13.8964C9.64392 13.9347 8.55842 14.7925 7.01758 15.8241C6.6734 16.0544 6.20795 15.9622 5.97754 15.6181C5.7471 15.2739 5.8394 14.8085 6.1836 14.578C7.56918 13.6504 9.06863 12.449 11.1846 12.3974C12.4537 12.3656 13.6471 12.6067 14.7822 12.8915C15.8678 13.1636 16.6758 14.0855 16.6758 15.2636C16.6756 16.6948 15.5061 17.6767 14.1748 17.6767H12.8184C12.4043 17.6765 12.0684 17.3408 12.0684 16.9267C12.0686 16.5127 12.4044 16.1768 12.8184 16.1767H14.1748C14.7795 16.1767 15.1756 15.7681 15.1758 15.2636Z" fill="#253035"/>
<path d="M5.85059 19.6786V15.1366C5.85059 14.903 5.78033 14.7657 5.71387 14.6943C5.65305 14.6289 5.54457 14.5624 5.34082 14.5624H4.32422C3.91001 14.5624 3.57422 14.2266 3.57422 13.8124C3.57422 13.3982 3.91001 13.0624 4.32422 13.0624H5.34082C5.91446 13.0624 6.4367 13.2701 6.81152 13.6728C7.1805 14.0693 7.35059 14.5941 7.35059 15.1366V19.6786C7.35054 20.2208 7.18039 20.7453 6.81152 21.1415C6.43674 21.5439 5.91445 21.7519 5.34082 21.7519H4.32422C3.91009 21.7519 3.57436 21.416 3.57422 21.0019C3.57422 20.5877 3.91001 20.2519 4.32422 20.2519H5.34082C5.54448 20.2519 5.65299 20.1853 5.71387 20.12C5.78035 20.0487 5.85054 19.9115 5.85059 19.6786Z" fill="#253035"/>
</svg>
