<svg width="24" height="24" viewBox="0 0 24 24" fill="none" xmlns="http://www.w3.org/2000/svg">
<path d="M12.777 10.2168H14.568C15.124 10.2168 15.578 9.7638 15.578 9.2078V8.2478H16.536C17.093 8.2478 17.546 7.7938 17.546 7.2368V5.4478C17.546 4.8808 17.102 4.4368 16.536 4.4368H15.578V3.4768C15.578 2.9198 15.124 2.4668 14.568 2.4668H12.777C12.219 2.4668 11.766 2.9198 11.766 3.4768V4.4368H10.808C10.242 4.4368 9.797 4.8808 9.797 5.4478V7.2368C9.797 7.7938 10.25 8.2478 10.808 8.2478H11.766V9.2078C11.766 9.7638 12.219 10.2168 12.777 10.2168Z" fill="#253035"/>
<path fill-rule="evenodd" clip-rule="evenodd" d="M15.629 15.4593C15.6362 15.3829 15.6399 15.3053 15.6399 15.2268C15.6399 14.1008 14.8809 13.1508 13.7479 12.8598C12.7029 12.5968 11.4519 12.3358 10.1539 12.3678C8.37561 12.4058 7.06166 13.2442 5.8102 14.0956C5.51211 13.5884 4.97442 13.2781 4.30643 13.2781H3.28943C3.01343 13.2781 2.78943 13.5011 2.78943 13.7781V20.9671C2.78943 21.2431 3.01343 21.4671 3.28943 21.4671H4.30643C4.92108 21.4671 5.42542 21.2039 5.73428 20.7666C6.65512 20.7685 7.44472 20.7909 8.33128 20.9644C9.78528 21.2534 11.1943 21.5334 12.6263 21.5334C13.7253 21.5334 14.8363 21.3684 15.9933 20.9174C17.8476 20.2026 19.0608 18.9799 20.3445 17.6863L20.3563 17.6744L20.5303 17.4984C21.4363 16.5974 21.4383 15.1224 20.5303 14.2054C19.7123 13.3884 18.4083 13.3024 17.4983 13.9974C17.2443 14.1884 16.9883 14.3974 16.7293 14.6094L16.7237 14.6139C16.3647 14.9075 16.0008 15.2049 15.629 15.4593ZM6.06643 19.2683C6.93168 19.2761 7.70693 19.3138 8.56428 19.4804C11.0753 19.9804 13.1903 20.4004 15.4513 19.5184C17.0105 18.9179 18.0632 17.8566 19.2824 16.6274L19.4693 16.4384C19.7933 16.1164 19.7913 15.5914 19.4683 15.2634C19.1853 14.9794 18.7283 14.9454 18.4053 15.1914C18.1654 15.3723 17.9303 15.5648 17.6916 15.7603L17.6793 15.7704C16.6193 16.6374 15.4193 17.6184 13.8803 17.6564C13.6264 17.6628 13.3725 17.6557 13.1178 17.6468H12.0988C12.0294 17.6523 11.9609 17.6597 11.8933 17.6694C11.4893 17.7224 11.1043 17.4454 11.0433 17.0344C11.0378 16.9968 11.0352 16.9593 11.0353 16.9224C11.035 16.9139 11.0349 16.9054 11.0349 16.8968C11.0349 16.4828 11.3699 16.1468 11.7849 16.1468H12.0369C12.3948 16.1221 12.7431 16.1336 13.0826 16.1447L13.1053 16.1454L13.1394 16.1468C13.7184 16.1468 14.1399 15.7598 14.1399 15.2268C14.1399 14.7838 13.8489 14.4338 13.3789 14.3138C12.3879 14.0648 11.2859 13.8308 10.1889 13.8678C8.76364 13.8977 7.70048 14.622 6.46862 15.4612L6.06643 15.7352V19.2683Z" fill="#253035"/>
</svg>
