<svg width="24" height="24" viewBox="0 0 24 24" fill="none" xmlns="http://www.w3.org/2000/svg">
<path d="M18.5332 14.0293C19.4001 13.3757 20.5915 13.4173 21.4092 14.0986L21.5674 14.2442L21.7266 14.4209C22.4685 15.3342 22.4159 16.6811 21.5674 17.5322C20.3536 18.7514 19.1545 20.02 17.3916 20.8037L17.0313 20.9541C14.3135 22.0112 11.7925 21.4821 9.30957 20.9912C8.41607 20.8144 7.58499 20.8008 6.60059 20.8008C6.18638 20.8008 5.85059 20.465 5.85059 20.0508C5.8507 19.6367 6.18645 19.3008 6.60059 19.3008C7.58536 19.3008 8.54828 19.3113 9.60059 19.5195L10.5352 19.7012C12.6725 20.1048 14.5184 20.3224 16.4873 19.5567L16.7832 19.4326C18.235 18.7885 19.2433 17.7408 20.5049 16.4736L20.5615 16.4102C20.8244 16.0864 20.8067 15.6069 20.5059 15.3037L20.3897 15.207C20.145 15.0383 19.8279 15.0158 19.5635 15.1475L19.4355 15.2266C19.1455 15.4449 18.855 15.6879 18.5303 15.9531C18.2132 16.2121 17.8703 16.4869 17.5088 16.7354C16.7898 17.2295 15.9286 17.6703 14.9141 17.6943C14.5403 17.7033 14.1487 17.6797 13.832 17.6699C13.4955 17.6596 13.2031 17.6619 12.9277 17.7022C12.518 17.7618 12.137 17.4781 12.0772 17.0684C12.0173 16.6586 12.3013 16.2778 12.7109 16.2178C13.1215 16.1578 13.522 16.1599 13.8789 16.1709C14.2555 16.1825 14.5591 16.202 14.8779 16.1943C15.4695 16.1804 16.0415 15.9235 16.6592 15.499C16.966 15.2882 17.268 15.0477 17.5811 14.792C17.8864 14.5427 18.2119 14.2711 18.5332 14.0293Z" fill="#253035"/>
<path d="M15.1758 15.2636C15.1758 14.8305 14.8929 14.4658 14.418 14.3467C13.3195 14.0711 12.2845 13.8699 11.2227 13.8965C9.64392 13.9348 8.55842 14.7926 7.01758 15.8242C6.6734 16.0545 6.20795 15.9623 5.97754 15.6181C5.7471 15.2739 5.8394 14.8085 6.1836 14.5781C7.56918 13.6504 9.06863 12.4491 11.1846 12.3974C12.4537 12.3656 13.6471 12.6068 14.7822 12.8916C15.8678 13.1637 16.6758 14.0856 16.6758 15.2636C16.6756 16.6949 15.5061 17.6767 14.1748 17.6767H12.8184C12.4043 17.6765 12.0684 17.3408 12.0684 16.9267C12.0686 16.5128 12.4044 16.1769 12.8184 16.1767H14.1748C14.7795 16.1767 15.1756 15.7682 15.1758 15.2636Z" fill="#253035"/>
<path d="M5.85059 19.6787V15.1367C5.85059 14.9031 5.78033 14.7658 5.71387 14.6943C5.65305 14.629 5.54457 14.5625 5.34082 14.5625H4.32422C3.91001 14.5625 3.57422 14.2267 3.57422 13.8125C3.57422 13.3983 3.91001 13.0625 4.32422 13.0625H5.34082C5.91446 13.0625 6.4367 13.2702 6.81152 13.6729C7.1805 14.0694 7.35059 14.5942 7.35059 15.1367V19.6787C7.35054 20.2209 7.18039 20.7453 6.81152 21.1416C6.43674 21.544 5.91445 21.752 5.34082 21.752H4.32422C3.91009 21.752 3.57436 21.416 3.57422 21.002C3.57422 20.5877 3.91001 20.252 4.32422 20.252H5.34082C5.54448 20.252 5.65299 20.1854 5.71387 20.1201C5.78035 20.0487 5.85054 19.9116 5.85059 19.6787Z" fill="#253035"/>
<path d="M14.0517 4.96582C14.0515 5.37968 13.7156 5.71558 13.3017 5.71582H12.083V7.0332H13.3017C13.7158 7.03345 14.0517 7.36914 14.0517 7.7832V8.99805H15.3633V7.7832C15.3633 7.36899 15.6991 7.0332 16.1133 7.0332H17.331V5.71582H16.1133C15.6992 5.71582 15.3635 5.37983 15.3633 4.96582V3.75H14.0517V4.96582ZM16.8633 4.21582H17.5703C18.2677 4.21582 18.831 4.78215 18.831 5.47656V7.27246C18.8309 7.9687 18.2667 8.5332 17.5703 8.5332H16.8633V9.2373C16.8633 9.93356 16.2989 10.4979 15.6025 10.498H13.8125C13.116 10.498 12.5517 9.93364 12.5517 9.2373V8.5332H11.8437C11.1476 8.53317 10.5831 7.96877 10.583 7.27246V5.47656C10.583 4.78207 11.1466 4.21585 11.8437 4.21582H12.5517V3.51074C12.5518 2.81635 13.1151 2.25 13.8125 2.25H15.6025C16.2998 2.25013 16.8632 2.81643 16.8633 3.51074V4.21582Z" fill="#253035"/>
</svg>
