<svg width="24" height="24" viewBox="0 0 24 24" fill="none" xmlns="http://www.w3.org/2000/svg">
<path d="M18.0225 16.5718C18.4367 16.5718 18.7725 16.9076 18.7725 17.3218C18.7725 17.736 18.4367 18.0718 18.0225 18.0718H6.97852C6.5643 18.0718 6.22852 17.736 6.22852 17.3218C6.22852 16.9076 6.5643 16.5718 6.97852 16.5718H18.0225Z" fill="#A2B5BE"/>
<path d="M20.75 10.3369C20.7499 8.1943 19.0134 6.45141 16.8652 6.45117C16.7181 6.45117 16.5701 6.46368 16.3906 6.48633C16.0861 6.52477 15.7882 6.37413 15.6396 6.10547C15.0212 4.98679 13.8538 4.23828 12.4961 4.23828C11.1478 4.23828 9.97891 4.98539 9.35059 6.1084C9.20066 6.37644 8.90212 6.52646 8.59766 6.48633C8.43104 6.46429 8.28204 6.45117 8.13574 6.45117C5.98639 6.45143 4.25007 8.19442 4.25 10.3369C4.25 12.1011 5.41796 13.5853 7.02051 14.0615C7.32088 14.1508 7.53457 14.4178 7.55566 14.7305L7.80957 18.4932C7.85784 19.2067 8.45124 19.7617 9.16699 19.7617H15.835C16.5507 19.7617 17.1438 19.2061 17.1914 18.4932L17.4434 14.7627C17.4508 14.4424 17.6634 14.1554 17.9795 14.0615C19.582 13.5853 20.75 12.1011 20.75 10.3369ZM22.25 10.3369C22.25 12.5926 20.8697 14.5172 18.9102 15.3203L18.6885 18.5947C18.5878 20.0961 17.3392 21.2617 15.835 21.2617H9.16699C7.66243 21.2617 6.41408 20.0958 6.3125 18.5947L6.09082 15.3213C4.13058 14.5185 2.75 12.5931 2.75 10.3369C2.75007 7.36784 5.15611 4.95143 8.13574 4.95117C8.19296 4.95117 8.24952 4.95474 8.30469 4.95703C9.22601 3.62277 10.7474 2.73828 12.4961 2.73828C14.2498 2.73828 15.7733 3.6215 16.6895 4.95801C16.7468 4.95555 16.8055 4.95117 16.8652 4.95117C19.8439 4.95141 22.2499 7.36793 22.25 10.3369Z" fill="#253035"/>
</svg>
