<svg width="24" height="24" viewBox="0 0 24 24" fill="none" xmlns="http://www.w3.org/2000/svg">
<path d="M17.6553 2.25281C18.7765 2.31418 19.4897 3.24602 19.4912 4.32214V20.2509C19.4904 20.6507 19.3689 21.0783 19.0576 21.3876C18.7602 21.6831 18.3558 21.8008 17.9493 21.7274L17.7754 21.6844C17.6181 21.6347 17.457 21.5286 17.3409 21.4442C17.197 21.3398 17.025 21.1954 16.8369 21.0067C16.4596 20.6282 16.011 20.0641 15.5928 19.2626C14.7544 17.6555 14.0491 15.1232 14.2364 11.2684L14.2373 11.2479C14.3148 10.2324 14.7807 9.50734 15.5352 8.98718L15.6524 8.89636C15.7518 8.80761 15.801 8.72644 15.8301 8.6532C15.8627 8.57113 15.885 8.45997 15.8848 8.2987L15.877 8.11999C15.7811 6.97395 15.7041 6.31925 15.6348 5.39929L15.5674 4.36316C15.4992 3.1337 16.4447 2.18634 17.6553 2.25281ZM17.4619 3.75476C17.2137 3.78623 17.0489 3.97628 17.0655 4.27917L17.1309 5.29089C17.198 6.18136 17.2714 6.80305 17.3711 7.99499C17.4044 8.39152 17.3831 8.80722 17.2237 9.20788C17.0594 9.62053 16.7741 9.95425 16.3877 10.2216H16.3868C15.9839 10.4992 15.7745 10.8232 15.7334 11.3622C15.5603 14.9876 16.2298 17.2398 16.9229 18.5682C17.2711 19.2356 17.6286 19.6774 17.8985 19.9481C17.9299 19.9796 17.9625 20.0062 17.9912 20.0331C17.9947 17.7613 17.995 7.07588 17.9912 4.3241C17.9906 3.90404 17.7674 3.76148 17.5733 3.75085L17.4619 3.75476Z" fill="#A2B5BE"/>
<path d="M6.4873 2.62625C6.90081 2.64494 7.22144 2.99493 7.20312 3.40847L7.00781 7.78543C6.97836 8.51964 7.22105 9.11081 7.75098 9.58035C8.88046 10.5794 9.18565 11.8092 9.09766 13.1214L9.07519 13.385C8.83251 15.7083 8.65836 17.0566 8.49414 19.3567C8.46256 19.8043 8.90129 20.2502 9.36426 20.2503C9.82602 20.2503 10.265 19.8047 10.2334 19.3567C10.1517 18.2066 10.0671 17.2942 9.97266 16.3792L9.65234 13.385C9.50436 11.9744 9.77293 10.646 10.9775 9.58035L11.1621 9.39871C11.5059 9.02338 11.6888 8.57826 11.7178 8.05398L11.7197 7.78543C11.6614 6.32723 11.5908 4.87299 11.5254 3.40847C11.5071 2.99478 11.8275 2.64472 12.2412 2.62625C12.6549 2.60786 13.005 2.92832 13.0234 3.34207C13.0884 4.79822 13.1603 6.26339 13.2187 7.72586C13.2621 8.81044 12.9076 9.78785 12.1328 10.553L11.9717 10.7034C11.2385 11.3519 11.0298 12.1352 11.1445 13.2288L11.4648 16.2259C11.5604 17.1524 11.6467 18.0839 11.7295 19.2503C11.8297 20.6623 10.5972 21.7503 9.36426 21.7503C8.1308 21.7502 6.89781 20.6625 6.99805 19.2503C7.16459 16.9177 7.34316 15.5249 7.58301 13.2288L7.61035 12.8333C7.63542 12.0055 7.43073 11.3686 6.88769 10.8274L6.75586 10.7034C5.86919 9.91777 5.46334 8.88207 5.50977 7.72488C5.56822 6.26261 5.63911 4.798 5.7041 3.34207C5.72257 2.92827 6.0735 2.60778 6.4873 2.62625Z" fill="#253035"/>
<path d="M8.39649 2.70223C8.81055 2.70356 9.14562 3.04018 9.14453 3.45419L9.13477 6.49227C9.13337 6.90627 8.79678 7.24043 8.38282 7.23934C7.96862 7.23801 7.63347 6.90157 7.63477 6.48739L7.64453 3.45028C7.64586 3.03621 7.98247 2.70113 8.39649 2.70223Z" fill="#253035"/>
<path d="M10.3457 2.70223C10.7598 2.70355 11.0948 3.04018 11.0938 3.45418L11.084 6.49227C11.0826 6.90627 10.746 7.24043 10.332 7.23934C9.91785 7.23802 9.5827 6.90158 9.584 6.48739L9.59376 3.45028C9.59509 3.03619 9.93168 2.70111 10.3457 2.70223Z" fill="#253035"/>
</svg>
