<svg width="24" height="24" viewBox="0 0 24 24" fill="none" xmlns="http://www.w3.org/2000/svg">
<path d="M7.75 12C7.75 11.0101 8.33732 10.0405 9.0166 9.22269C9.71968 8.37623 10.6398 7.55399 11.5332 6.8428C12.4309 6.12815 13.3252 5.50738 13.9932 5.06644C14.3278 4.84555 14.6073 4.66894 14.8037 4.5469C14.9019 4.48589 14.9797 4.43772 15.0332 4.4053C15.0597 4.38924 15.0805 4.37671 15.0947 4.36819C15.1018 4.36397 15.1075 4.36072 15.1113 4.35843C15.1132 4.35731 15.1151 4.35614 15.1162 4.3555H15.1172V4.35452H15.1182C15.4745 4.14371 15.9345 4.26188 16.1455 4.61819C16.3431 4.95218 16.2518 5.37684 15.9463 5.60257L15.8789 5.64749C15.8761 5.64917 15.8713 5.65169 15.8652 5.6553C15.8531 5.66259 15.8341 5.67366 15.8096 5.68851C15.7606 5.71819 15.6878 5.76253 15.5947 5.82034C15.4083 5.93614 15.141 6.10608 14.8193 6.31839C14.1749 6.74383 13.319 7.33825 12.4668 8.01663C11.6104 8.69839 10.7802 9.44721 10.1709 10.1807C9.53773 10.943 9.25 11.5626 9.25 12C9.25 12.4378 9.53777 13.0571 10.1709 13.8194C10.7803 14.5531 11.6102 15.3026 12.4668 15.9844C13.3189 16.6627 14.1749 17.2563 14.8193 17.6817C15.141 17.8939 15.4083 18.0639 15.5947 18.1797C15.6878 18.2375 15.7606 18.2819 15.8096 18.3116C15.8341 18.3264 15.8531 18.3375 15.8652 18.3448C15.8712 18.3483 15.8761 18.3509 15.8789 18.3526L15.9463 18.3975C16.2518 18.6232 16.3431 19.0479 16.1455 19.3819C15.9345 19.7382 15.4746 19.8564 15.1182 19.6455H15.1172V19.6446H15.1162C15.1151 19.6439 15.1132 19.6428 15.1113 19.6416C15.1075 19.6393 15.1018 19.6361 15.0947 19.6319C15.0805 19.6233 15.0598 19.6108 15.0332 19.5948C14.9797 19.5623 14.902 19.5142 14.8037 19.4532C14.6073 19.3311 14.3278 19.1545 13.9932 18.9336C13.3253 18.4928 12.4308 17.8727 11.5332 17.1582C10.6398 16.4471 9.71969 15.6239 9.0166 14.7774C8.33736 13.9595 7.75 12.9901 7.75 12Z" fill="#253035"/>
</svg>
