<svg width="24" height="24" viewBox="0 0 24 24" fill="none" xmlns="http://www.w3.org/2000/svg">
<path d="M20.5 12C20.5 8.57312 19.9193 6.52668 18.6963 5.30371C17.4733 4.08074 15.4269 3.5 12 3.5C8.5731 3.5 6.52668 4.08074 5.30371 5.30371C4.08074 6.52668 3.5 8.57312 3.5 12C3.5 15.4269 4.08074 17.4733 5.30371 18.6963C6.52669 19.9192 8.57312 20.5 12 20.5C15.4269 20.5 17.4733 19.9192 18.6963 18.6963C19.9193 17.4733 20.5 15.4269 20.5 12ZM22 12C22 15.5101 21.4246 18.0891 19.7568 19.7568C18.0891 21.4246 15.5101 22 12 22C8.48992 22 5.91094 21.4246 4.24316 19.7568C2.57539 18.0891 2 15.5101 2 12C2 8.48992 2.57539 5.91094 4.24316 4.24316C5.91094 2.57539 8.4899 2 12 2C15.5101 2 18.0891 2.57539 19.7568 4.24316C21.4246 5.91094 22 8.48992 22 12Z" fill="#253035"/>
<path d="M13.0828 7.87012C13.4164 7.68766 13.8406 7.78346 14.0604 8.10351C14.2947 8.44505 14.2076 8.91213 13.866 9.14648L13.8651 9.14746C13.8651 9.14746 13.8612 9.15031 13.8582 9.15234C13.8524 9.15637 13.8436 9.16271 13.8319 9.1709C13.8079 9.18762 13.7714 9.21257 13.7254 9.24512C13.6335 9.31023 13.5015 9.40522 13.3426 9.52246C13.0237 9.75776 12.6011 10.0806 12.1815 10.4336C11.7578 10.7899 11.3556 11.1611 11.0662 11.4941C10.9213 11.6609 10.8202 11.8012 10.7586 11.9102C10.7356 11.9509 10.7234 11.9809 10.7157 12C10.7234 12.0191 10.7353 12.0496 10.7586 12.0908C10.8202 12.1997 10.9215 12.3393 11.0662 12.5059C11.3556 12.8388 11.7577 13.2103 12.1815 13.5664C12.6011 13.9191 13.0237 14.2415 13.3426 14.4766C13.5013 14.5936 13.6336 14.6879 13.7254 14.7529C13.7714 14.7854 13.8069 14.8114 13.8309 14.8281C13.8429 14.8365 13.8524 14.8426 13.8582 14.8467C13.8608 14.8484 13.8641 14.8506 13.8641 14.8506L13.866 14.8516L13.9266 14.8984C14.217 15.1439 14.28 15.5742 14.0604 15.8945C13.8407 16.2149 13.4165 16.3114 13.0828 16.1289L13.0174 16.0889L13.0145 16.0869C13.0125 16.0855 13.0093 16.0835 13.0057 16.0811C12.9984 16.076 12.988 16.068 12.9744 16.0586C12.9474 16.0398 12.9085 16.0124 12.8592 15.9775C12.7605 15.9077 12.6198 15.8073 12.452 15.6836C12.1174 15.4369 11.6683 15.0944 11.2166 14.7148C10.7689 14.3385 10.2986 13.9092 9.93441 13.4902C9.75261 13.2811 9.58203 13.0566 9.45296 12.8281C9.33037 12.6111 9.20589 12.3221 9.20589 12C9.20598 11.678 9.33042 11.3888 9.45296 11.1719C9.58193 10.9436 9.7528 10.7198 9.93441 10.5107C10.2985 10.0917 10.7679 9.66173 11.2157 9.28516C11.6675 8.90512 12.1173 8.56239 12.452 8.31543C12.6196 8.19178 12.7596 8.09138 12.8582 8.02148C12.9076 7.98651 12.9474 7.95927 12.9744 7.94043C12.988 7.93102 12.9984 7.92302 13.0057 7.91797C13.0092 7.91553 13.0125 7.91347 13.0145 7.91211L13.0164 7.91113L13.0174 7.91016L13.0828 7.87012Z" fill="#253035"/>
</svg>
