<svg width="24" height="24" viewBox="0 0 24 24" fill="none" xmlns="http://www.w3.org/2000/svg">
<path d="M20.5 12C20.5 8.57312 19.9193 6.52668 18.6963 5.30371C17.4733 4.08074 15.4269 3.5 12 3.5C8.5731 3.5 6.52668 4.08074 5.30371 5.30371C4.08074 6.52668 3.5 8.57312 3.5 12C3.5 15.4269 4.08074 17.4733 5.30371 18.6963C6.52669 19.9192 8.57312 20.5 12 20.5C15.4269 20.5 17.4733 19.9192 18.6963 18.6963C19.9193 17.4733 20.5 15.4269 20.5 12ZM22 12C22 15.5101 21.4246 18.0891 19.7568 19.7568C18.0891 21.4246 15.5101 22 12 22C8.48992 22 5.91094 21.4246 4.24316 19.7568C2.57539 18.0891 2 15.5101 2 12C2 8.48992 2.57539 5.91094 4.24316 4.24316C5.91094 2.57539 8.4899 2 12 2C15.5101 2 18.0891 2.57539 19.7568 4.24316C21.4246 5.91094 22 8.48992 22 12Z" fill="#A2B5BE"/>
<path d="M13.0829 7.87054C13.4164 7.68808 13.8406 7.78388 14.0604 8.10394C14.2948 8.44548 14.2076 8.91255 13.8661 9.14691L13.8651 9.14788C13.8638 9.1488 13.8612 9.15073 13.8582 9.15277C13.8524 9.1568 13.8436 9.16313 13.8319 9.17132C13.8079 9.18805 13.7714 9.21299 13.7254 9.24554C13.6335 9.31065 13.5015 9.40564 13.3426 9.52288C13.0237 9.75818 12.6012 10.081 12.1815 10.434C11.7578 10.7904 11.3556 11.1615 11.0663 11.4946C10.9214 11.6614 10.8202 11.8016 10.7586 11.9106C10.7356 11.9513 10.7234 11.9813 10.7157 12.0004C10.7234 12.0195 10.7354 12.05 10.7586 12.0912C10.8202 12.2001 10.9215 12.3397 11.0663 12.5063C11.3557 12.8392 11.7578 13.2107 12.1815 13.5668C12.6011 13.9195 13.0237 14.2419 13.3426 14.477C13.5014 14.594 13.6336 14.6883 13.7254 14.7534C13.7714 14.7859 13.8069 14.8118 13.8309 14.8285C13.8429 14.8369 13.8524 14.843 13.8582 14.8471C13.8608 14.8489 13.8628 14.8501 13.8641 14.851L13.8661 14.852L13.9266 14.8989C14.217 15.1444 14.28 15.5746 14.0604 15.895C13.8407 16.2153 13.4165 16.3118 13.0829 16.1293L13.0174 16.0893C13.0169 16.0889 13.0153 16.0879 13.0145 16.0873C13.0125 16.086 13.0093 16.0839 13.0057 16.0815C12.9984 16.0764 12.988 16.0684 12.9745 16.059C12.9474 16.0402 12.9085 16.0128 12.8592 15.978C12.7605 15.9081 12.6198 15.8077 12.452 15.684C12.1174 15.4373 11.6683 15.0949 11.2166 14.7153C10.7689 14.3389 10.2986 13.9096 9.93442 13.4907C9.75262 13.2815 9.58204 13.057 9.45297 12.8285C9.33038 12.6115 9.2059 12.3225 9.2059 12.0004C9.20599 11.6785 9.33043 11.3893 9.45297 11.1723C9.58195 10.944 9.75281 10.7202 9.93442 10.5112C10.2986 10.0921 10.768 9.66215 11.2157 9.28558C11.6675 8.90554 12.1173 8.56281 12.452 8.31585C12.6196 8.1922 12.7596 8.0918 12.8582 8.02191C12.9076 7.98693 12.9474 7.95969 12.9745 7.94085C12.988 7.93144 12.9984 7.92344 13.0057 7.91839C13.0092 7.91596 13.0125 7.91389 13.0145 7.91253L13.0164 7.91155L13.0174 7.91058L13.0829 7.87054Z" fill="#253035"/>
</svg>
