<svg width="24" height="24" viewBox="0 0 24 24" fill="none" xmlns="http://www.w3.org/2000/svg">
<path d="M2.75 10.6866C2.75 10.3676 2.74973 10.084 2.76855 9.84972C2.78808 9.60677 2.83175 9.35239 2.95605 9.10362C3.1451 8.72536 3.45181 8.41864 3.83008 8.2296C4.07884 8.1053 4.33323 8.06162 4.57617 8.0421C4.81051 8.02327 5.09408 8.02354 5.41309 8.02354H5.64355C6.12833 8.02354 6.53702 8.02314 6.87012 8.04991C7.21153 8.07737 7.53852 8.1372 7.85059 8.29307C8.3455 8.54037 8.74683 8.9417 8.99414 9.43663C9.15016 9.74888 9.20985 10.0764 9.23731 10.4181C9.26405 10.7511 9.26367 11.159 9.26367 11.6437V17.4357C9.26367 17.9203 9.26406 18.3282 9.23731 18.6612C9.20985 19.0029 9.15015 19.3304 8.99414 19.6427C8.74683 20.1375 8.34548 20.539 7.85059 20.7862C7.53854 20.9421 7.21149 21.0019 6.87012 21.0294C6.53701 21.0562 6.12832 21.0558 5.64355 21.0558H5.41309C5.09408 21.0558 4.8105 21.056 4.57617 21.0372C4.33323 21.0177 4.07884 20.974 3.83008 20.8497C3.45186 20.6607 3.14513 20.3539 2.95605 19.9757C2.8318 19.727 2.78808 19.4725 2.76855 19.2296C2.74973 18.9953 2.75 18.7116 2.75 18.3927V10.6866ZM4.25 18.3927C4.25 18.7359 4.25079 18.9492 4.26367 19.1095C4.27582 19.2604 4.29509 19.2993 4.29785 19.3048C4.34172 19.3926 4.41311 19.464 4.50098 19.5079C4.50715 19.511 4.54684 19.5301 4.69629 19.5421C4.85663 19.555 5.06979 19.5558 5.41309 19.5558H5.64355C6.15266 19.5558 6.49093 19.5551 6.75 19.5343C7.00025 19.5141 7.11203 19.4787 7.18066 19.4444C7.38499 19.3423 7.55024 19.1761 7.65234 18.9718C7.68666 18.903 7.72208 18.7914 7.74219 18.5411C7.763 18.2821 7.76367 17.9447 7.76367 17.4357V11.6437C7.76367 11.1348 7.76298 10.7972 7.74219 10.5382C7.72205 10.2877 7.68667 10.1752 7.65234 10.1066C7.55024 9.90246 7.3848 9.73692 7.18066 9.63487C7.11201 9.60056 7.00026 9.56517 6.75 9.54503C6.49092 9.52421 6.15265 9.52354 5.64355 9.52354H5.41309C5.06979 9.52354 4.85663 9.52433 4.69629 9.53722C4.54629 9.54927 4.50693 9.56842 4.50098 9.57139C4.41317 9.61527 4.34173 9.68671 4.29785 9.77452C4.29488 9.78047 4.27573 9.81982 4.26367 9.96983C4.25079 10.1302 4.25 10.3433 4.25 10.6866V18.3927Z" fill="#253035"/>
<path d="M5.10742 17.9005V17.8907C5.10742 17.4765 5.44321 17.1407 5.85742 17.1407C6.27163 17.1407 6.60742 17.4765 6.60742 17.8907V17.9005C6.60742 18.3147 6.27163 18.6505 5.85742 18.6505C5.44321 18.6505 5.10742 18.3147 5.10742 17.9005Z" fill="#253035"/>
<path d="M20.75 15.8741V13.6368C20.75 13.0173 20.7488 12.5965 20.7227 12.2716C20.6972 11.9557 20.6511 11.7956 20.5957 11.6847C20.4548 11.4027 20.2264 11.1732 19.9443 11.0323C19.8333 10.9769 19.6726 10.9308 19.3564 10.9054C19.0316 10.8793 18.6114 10.879 17.9922 10.879H14.3975C13.9832 10.879 13.6475 10.5432 13.6475 10.129C13.6475 9.71479 13.9832 9.379 14.3975 9.379H17.9922C18.5871 9.379 19.0778 9.37822 19.4766 9.41025C19.884 9.443 20.2606 9.5133 20.6152 9.69053C21.1879 9.97663 21.6524 10.4412 21.9385 11.0138C22.1155 11.3682 22.185 11.7443 22.2178 12.1515C22.2498 12.5504 22.25 13.0416 22.25 13.6368V15.8741C22.25 16.3643 22.2539 16.718 22.1807 17.0616C22.1164 17.363 22.0076 17.6531 21.8594 17.9229C21.6901 18.2308 21.4564 18.4963 21.1357 18.8673L20.6543 19.4229C20.2631 19.8756 19.9855 20.2063 19.6367 20.4474C19.3316 20.6582 18.9917 20.8134 18.6328 20.9063C18.2225 21.0123 17.7905 21.0069 17.1924 21.0069H12.7852C12.5204 21.0069 12.3292 21.0086 12.1377 20.9864C11.9691 20.9669 11.8024 20.933 11.6396 20.8868C11.4543 20.834 11.2778 20.7596 11.0332 20.6583L8.22656 19.4962C7.84389 19.3376 7.66177 18.8984 7.82031 18.5157C7.97889 18.1331 8.41814 17.9519 8.80078 18.1104L11.6074 19.2726C11.8825 19.3865 11.9668 19.4208 12.0498 19.4444C12.1356 19.4688 12.2224 19.486 12.3105 19.4962C12.3962 19.5061 12.4873 19.5069 12.7852 19.5069H17.1924C17.8682 19.5069 18.0742 19.5014 18.2568 19.4542L18.3965 19.4112C18.5336 19.3625 18.6642 19.2959 18.7842 19.213C18.9391 19.1059 19.0777 18.9537 19.5195 18.4425L20.001 17.8858C20.3621 17.4681 20.4696 17.3382 20.5449 17.2013L20.5996 17.0929C20.65 16.9829 20.6876 16.8675 20.7129 16.7491C20.7456 16.596 20.75 16.4272 20.75 15.8741Z" fill="#253035"/>
<path d="M13.2275 3.06651C13.7978 2.85107 14.451 2.97617 14.7812 3.04405C15.7564 3.24451 16.5574 3.96703 16.8545 5.22471C17.1375 6.4229 16.9669 8.09013 16.1914 10.3253C16.0556 10.7165 15.6285 10.9238 15.2373 10.7882C14.846 10.6524 14.6386 10.2244 14.7744 9.83311C15.5112 7.70927 15.5821 6.36332 15.3945 5.56944C15.221 4.83499 14.8389 4.58668 14.4795 4.5128C14.1105 4.43696 13.8693 4.42773 13.7578 4.46983C13.7237 4.48273 13.7085 4.49525 13.7002 4.50303C13.6904 4.51233 13.6745 4.53075 13.6543 4.56944C13.6043 4.6651 13.5678 4.80025 13.5127 5.04795C12.6629 8.86934 10.3847 10.7296 8.51367 10.7296C8.0996 10.7296 7.7639 10.3936 7.76367 9.9796C7.76367 9.56538 8.09946 9.2296 8.51367 9.2296C9.38837 9.2296 11.2762 8.19232 12.0478 4.72276C12.1375 4.31955 12.3034 3.41607 13.2275 3.06651Z" fill="#253035"/>
</svg>
