<svg width="24" height="24" viewBox="0 0 24 24" fill="none" xmlns="http://www.w3.org/2000/svg">
<path d="M13.2275 3.06651C13.7978 2.85107 14.451 2.97617 14.7812 3.04405C15.7564 3.24451 16.5574 3.96703 16.8545 5.22471C17.1375 6.4229 16.9669 8.09013 16.1914 10.3253C16.0556 10.7165 15.6285 10.9238 15.2373 10.7882C14.846 10.6524 14.6386 10.2244 14.7744 9.83311C15.5112 7.70927 15.5821 6.36332 15.3945 5.56944C15.221 4.83499 14.8389 4.58668 14.4795 4.5128C14.1105 4.43696 13.8693 4.42773 13.7578 4.46983C13.7237 4.48273 13.7085 4.49525 13.7002 4.50303C13.6904 4.51233 13.6745 4.53075 13.6543 4.56944C13.6043 4.6651 13.5678 4.80025 13.5127 5.04795C12.6629 8.86934 10.3847 10.7296 8.51367 10.7296C8.0996 10.7296 7.7639 10.3936 7.76367 9.9796C7.76367 9.56538 8.09946 9.2296 8.51367 9.2296C9.38837 9.2296 11.2762 8.19232 12.0479 4.72276C12.1375 4.31955 12.3034 3.41607 13.2275 3.06651Z" fill="#A2B5BE"/>
<path d="M2.75 10.6865C2.75 10.3675 2.74973 10.0839 2.76855 9.84961C2.78808 9.60667 2.83175 9.35229 2.95605 9.10352C3.1451 8.72525 3.45181 8.41854 3.83008 8.22949C4.07884 8.10519 4.33323 8.06152 4.57617 8.04199C4.81051 8.02317 5.09408 8.02344 5.41309 8.02344H5.64355C6.12833 8.02344 6.53702 8.02304 6.87012 8.04981C7.21153 8.07726 7.53852 8.1371 7.85059 8.29297C8.3455 8.54026 8.74683 8.94159 8.99414 9.43652C9.15016 9.74878 9.20985 10.0763 9.23731 10.418C9.26405 10.751 9.26367 11.1589 9.26367 11.6436V17.4355C9.26367 17.9202 9.26406 18.3281 9.23731 18.6611C9.20985 19.0028 9.15015 19.3303 8.99414 19.6426C8.74683 20.1374 8.34548 20.5389 7.85059 20.7861C7.53854 20.942 7.21149 21.0018 6.87012 21.0293C6.53701 21.0561 6.12832 21.0557 5.64355 21.0557H5.41309C5.09408 21.0557 4.8105 21.0559 4.57617 21.0371C4.33323 21.0176 4.07884 20.9739 3.83008 20.8496C3.45186 20.6606 3.14513 20.3538 2.95605 19.9756C2.8318 19.7269 2.78808 19.4724 2.76855 19.2295C2.74973 18.9952 2.75 18.7115 2.75 18.3926V10.6865ZM4.25 18.3926C4.25 18.7358 4.25079 18.9491 4.26367 19.1094C4.27582 19.2603 4.29509 19.2992 4.29785 19.3047C4.34172 19.3925 4.41311 19.4639 4.50098 19.5078C4.50715 19.5109 4.54684 19.53 4.69629 19.542C4.85663 19.5549 5.06979 19.5557 5.41309 19.5557H5.64355C6.15266 19.5557 6.49093 19.555 6.75 19.5342C7.00025 19.514 7.11203 19.4786 7.18066 19.4443C7.38499 19.3422 7.55024 19.176 7.65234 18.9717C7.68666 18.9029 7.72208 18.7913 7.74219 18.541C7.763 18.282 7.76367 17.9446 7.76367 17.4355V11.6436C7.76367 11.1346 7.76298 10.7971 7.74219 10.5381C7.72205 10.2876 7.68667 10.1751 7.65234 10.1064C7.55024 9.90236 7.3848 9.73681 7.18066 9.63477C7.11201 9.60046 7.00026 9.56506 6.75 9.54492C6.49092 9.5241 6.15265 9.52344 5.64355 9.52344H5.41309C5.06979 9.52344 4.85663 9.52423 4.69629 9.53711C4.54629 9.54916 4.50693 9.56832 4.50098 9.57129C4.41317 9.61516 4.34173 9.68661 4.29785 9.77441C4.29488 9.78036 4.27573 9.81972 4.26367 9.96973C4.25079 10.1301 4.25 10.3432 4.25 10.6865V18.3926Z" fill="#253035"/>
<path d="M5.10742 17.9004V17.8906C5.10742 17.4764 5.44321 17.1406 5.85742 17.1406C6.27163 17.1406 6.60742 17.4764 6.60742 17.8906V17.9004C6.60742 18.3146 6.27163 18.6504 5.85742 18.6504C5.44321 18.6504 5.10742 18.3146 5.10742 17.9004Z" fill="#253035"/>
<path d="M20.75 15.874V13.6367C20.75 13.0171 20.7488 12.5964 20.7227 12.2715C20.6972 11.9556 20.6511 11.7955 20.5957 11.6846C20.4548 11.4026 20.2264 11.1731 19.9443 11.0322C19.8333 10.9768 19.6726 10.9307 19.3564 10.9053C19.0316 10.8792 18.6114 10.8789 17.9922 10.8789H14.3975C13.9832 10.8789 13.6475 10.5431 13.6475 10.1289C13.6475 9.71468 13.9832 9.3789 14.3975 9.3789H17.9922C18.5871 9.3789 19.0778 9.37811 19.4766 9.41015C19.884 9.4429 20.2606 9.5132 20.6152 9.69042C21.1879 9.97653 21.6524 10.4411 21.9385 11.0137C22.1155 11.3681 22.185 11.7442 22.2178 12.1514C22.2498 12.5503 22.25 13.0415 22.25 13.6367V15.874C22.25 16.3642 22.2539 16.7179 22.1807 17.0615C22.1164 17.3629 22.0076 17.653 21.8594 17.9228C21.6901 18.2307 21.4564 18.4962 21.1357 18.8672L20.6543 19.4228C20.2631 19.8755 19.9855 20.2062 19.6367 20.4473C19.3316 20.6581 18.9917 20.8133 18.6328 20.9062C18.2225 21.0122 17.7905 21.0068 17.1924 21.0068H12.7852C12.5204 21.0068 12.3292 21.0085 12.1377 20.9863C11.9691 20.9667 11.8024 20.9329 11.6396 20.8867C11.4543 20.8339 11.2778 20.7595 11.0332 20.6582L8.22656 19.4961C7.84389 19.3375 7.66177 18.8983 7.82031 18.5156C7.97889 18.133 8.41814 17.9518 8.80078 18.1103L11.6074 19.2725C11.8825 19.3864 11.9668 19.4207 12.0498 19.4443C12.1356 19.4687 12.2224 19.4859 12.3105 19.4961C12.3962 19.506 12.4873 19.5068 12.7852 19.5068H17.1924C17.8682 19.5068 18.0742 19.5013 18.2568 19.4541L18.3965 19.4111C18.5336 19.3624 18.6642 19.2958 18.7842 19.2129C18.9391 19.1058 19.0777 18.9536 19.5195 18.4424L20.001 17.8857C20.3621 17.468 20.4696 17.3381 20.5449 17.2012L20.5996 17.0928C20.65 16.9827 20.6876 16.8674 20.7129 16.749C20.7456 16.5959 20.75 16.4271 20.75 15.874Z" fill="#253035"/>
</svg>
