<svg width="24" height="24" viewBox="0 0 24 24" fill="none" xmlns="http://www.w3.org/2000/svg">
<path d="M20.25 8.02637C20.25 6.70868 19.8412 5.64605 19.165 4.91992C18.4945 4.19983 17.5056 3.75 16.2168 3.75H7.78223C6.49854 3.75 5.50964 4.19942 4.83789 4.91992C4.16068 5.64646 3.75 6.70951 3.75 8.02637V15.9736C3.75001 17.2914 4.15907 18.354 4.83496 19.0801C5.50521 19.8 6.49356 20.25 7.78223 20.25H16.2158C17.5052 20.25 18.4944 19.8002 19.165 19.0801C19.8412 18.354 20.25 17.2913 20.25 15.9736V8.02637ZM21.75 15.9736C21.75 17.6011 21.2413 19.0518 20.2627 20.1025C19.2785 21.1593 17.8755 21.75 16.2158 21.75H7.78223C6.12288 21.75 4.72013 21.1594 3.73633 20.1025C2.75818 19.0517 2.25001 17.601 2.25 15.9736V8.02637C2.25 6.39807 2.76123 4.9478 3.74023 3.89746C4.72472 2.84126 6.12676 2.25 7.78223 2.25H16.2168C17.876 2.25 19.2787 2.84078 20.2627 3.89746C21.2411 4.94822 21.75 6.39888 21.75 8.02637V15.9736Z" fill="#A2B5BE"/>
<path d="M7.13281 15.8008V10.9922C7.13281 10.578 7.4686 10.2422 7.88281 10.2422C8.29703 10.2422 8.63281 10.578 8.63281 10.9922V15.8008C8.63266 16.2149 8.29693 16.5508 7.88281 16.5508C7.4687 16.5508 7.13297 16.2149 7.13281 15.8008Z" fill="#253035"/>
<path d="M15.4756 15.8008V12.4307C15.4755 11.4467 14.6781 10.6484 13.6933 10.6484C12.7097 10.6485 11.9112 11.447 11.9111 12.4307V15.8008C11.9111 16.215 11.5753 16.5508 11.1611 16.5508C10.7469 16.5508 10.4111 16.215 10.4111 15.8008V12.4307C10.4112 10.6186 11.8813 9.14853 13.6933 9.14844C15.5069 9.14844 16.9755 10.6187 16.9756 12.4307V15.8008C16.9756 16.215 16.6398 16.5508 16.2256 16.5508C15.8115 16.5506 15.4756 16.2149 15.4756 15.8008Z" fill="#253035"/>
<path d="M7.88281 7.44922C8.35655 7.44922 8.74194 7.83305 8.74219 8.30762C8.74219 8.78231 8.35679 9.16699 7.88281 9.16699C7.40841 9.16676 7.02441 8.78154 7.02441 8.30762C7.02466 7.83381 7.40865 7.44945 7.88281 7.44922Z" fill="#253035"/>
</svg>
