<svg width="24" height="24" viewBox="0 0 24 24" fill="none" xmlns="http://www.w3.org/2000/svg">
<path d="M13.6284 10.5392C13.6284 9.59432 12.8623 8.82828 11.9174 8.82825C10.9726 8.82825 10.2065 9.5943 10.2065 10.5392C10.2065 11.484 10.9726 12.2501 11.9174 12.2501C12.8623 12.2501 13.6284 11.484 13.6284 10.5392ZM15.1284 10.5392C15.1284 12.3124 13.6907 13.7501 11.9174 13.7501C10.1442 13.7501 8.70655 12.3125 8.70651 10.5392C8.70651 8.76587 10.1441 7.32825 11.9174 7.32825C13.6907 7.32828 15.1284 8.76589 15.1284 10.5392Z" fill="#A2B5BE"/>
<path d="M11.9462 1.98906C16.5999 2.00499 20.3598 5.78973 20.3456 10.4432V10.5447C20.2883 13.5672 18.61 16.2857 16.662 18.3416L16.6581 18.3465C15.5462 19.5011 14.3042 20.5229 12.9589 21.3943C12.349 21.8777 11.4883 21.8785 10.8778 21.3963C8.86473 20.0823 7.09714 18.4261 5.65613 16.5018V16.5008C4.32257 14.7555 3.56456 12.6385 3.48914 10.4432V10.3885L3.50183 9.95488C3.74281 5.50252 7.43692 1.97379 11.9462 1.98906ZM11.9413 3.48906C8.1149 3.4761 5.00214 6.56796 4.98914 10.3943C5.05038 12.1618 5.62604 13.8703 6.64246 15.3113L6.85242 15.5965L6.8573 15.6023C8.11432 17.281 9.63856 18.7404 11.369 19.9217L11.7177 20.1541L11.7997 20.2156C11.8673 20.2739 11.9674 20.2739 12.035 20.2156L12.119 20.1521C13.3775 19.3397 14.538 18.3845 15.577 17.3055C17.3973 15.3831 18.7935 13.0135 18.8456 10.5301V10.4412C18.8585 6.61495 15.7675 3.5023 11.9413 3.48906Z" fill="#253035"/>
</svg>
