<svg width="24" height="24" viewBox="0 0 24 24" fill="none" xmlns="http://www.w3.org/2000/svg">
<path d="M21.791 11.3708C22.2052 11.3708 22.541 11.7066 22.541 12.1208C22.541 12.535 22.2052 12.8708 21.791 12.8708H9.74999C9.33578 12.8708 8.99999 12.535 8.99999 12.1208C8.99999 11.7066 9.33578 11.3708 9.74999 11.3708H21.791Z" fill="#253035"/>
<path d="M18.333 8.67553C18.6253 8.38215 19.1001 8.38133 19.3936 8.67358L22.3213 11.5896C22.4626 11.7303 22.542 11.9214 22.542 12.1208C22.542 12.3203 22.4626 12.5114 22.3213 12.6521L19.3936 15.5681C19.1001 15.8604 18.6253 15.8595 18.333 15.5662C18.0408 15.2727 18.0416 14.7979 18.335 14.5056L20.7285 12.1208L18.335 9.73608C18.0416 9.44378 18.0408 8.96899 18.333 8.67553Z" fill="#253035"/>
<path d="M1.50885 12C1.50885 10.2773 1.50824 8.79239 1.62311 7.55762C1.73775 6.32552 1.97404 5.24894 2.50787 4.37988C3.62794 2.55675 5.81001 2.00004 9.35944 2C12.0369 2 13.9274 2.31566 15.1817 3.24512C16.4898 4.21457 16.9362 5.71395 17.1065 7.56152C17.1443 7.97384 16.8411 8.33893 16.4288 8.37695C16.0164 8.41496 15.6516 8.11148 15.6133 7.69922C15.4537 5.96693 15.0649 5.02575 14.2881 4.4502C13.4574 3.83469 12.0119 3.5 9.35944 3.5C5.80857 3.50005 4.44038 4.09848 3.78522 5.16504C3.43148 5.74097 3.22353 6.54349 3.11627 7.69629C3.00926 8.84647 3.00885 10.2528 3.00885 12C3.00885 13.7472 3.00926 15.1535 3.11627 16.3037C3.22353 17.4565 3.43149 18.259 3.78522 18.835C4.44038 19.9015 5.80857 20.5 9.35944 20.5C12.0119 20.5 13.4574 20.1653 14.2881 19.5498C15.0649 18.9743 15.4537 18.0331 15.6133 16.3008C15.6516 15.8885 16.0164 15.585 16.4288 15.623C16.8411 15.6611 17.1443 16.0262 17.1065 16.4385C16.9362 18.286 16.4898 19.7854 15.1817 20.7549C13.9274 21.6843 12.0369 22 9.35944 22C5.81 22 3.62794 21.4433 2.50787 19.6201C1.97404 18.7511 1.73775 17.6745 1.62311 16.4424C1.50824 15.2076 1.50885 13.7227 1.50885 12Z" fill="#253035"/>
</svg>
