<svg width="24" height="24" viewBox="0 0 24 24" fill="none" xmlns="http://www.w3.org/2000/svg">
<path d="M3.07519 5.89938C3.15886 5.49374 3.5553 5.23276 3.96094 5.31637L10.375 6.63864C10.383 6.63989 10.3914 6.64103 10.3994 6.64255C10.4133 6.64516 10.4269 6.64897 10.4404 6.65231L21.6494 8.96481C22.055 9.04847 22.3159 9.44498 22.2324 9.85055C22.1487 10.2562 21.7524 10.5172 21.3467 10.4336L10.8555 8.2695L8.43847 21.1152C8.36181 21.5222 7.96953 21.7904 7.5625 21.7138C7.15556 21.6372 6.88831 21.2448 6.96484 20.8379L9.38672 7.96579L3.6582 6.78512C3.25256 6.70145 2.99158 6.30502 3.07519 5.89938Z" fill="#A2B5BE"/>
<path d="M20.75 8.02637C20.75 6.70868 20.3412 5.64605 19.665 4.91992C18.9945 4.19983 18.0056 3.75 16.7168 3.75H8.28223C6.99854 3.75 6.00964 4.19942 5.33789 4.91992C4.66068 5.64646 4.25 6.70951 4.25 8.02637V15.9736C4.25001 17.2914 4.65907 18.354 5.33496 19.0801C6.00521 19.8 6.99356 20.25 8.28223 20.25H16.7158C18.0052 20.25 18.9944 19.8002 19.665 19.0801C20.3412 18.354 20.75 17.2913 20.75 15.9736V8.02637ZM22.25 15.9736C22.25 17.6011 21.7413 19.0518 20.7627 20.1025C19.7785 21.1593 18.3755 21.75 16.7158 21.75H8.28223C6.62288 21.75 5.22013 21.1594 4.23633 20.1025C3.25818 19.0517 2.75001 17.601 2.75 15.9736V8.02637C2.75 6.39807 3.26123 4.9478 4.24023 3.89746C5.22472 2.84126 6.62676 2.25 8.28223 2.25H16.7168C18.376 2.25 19.7787 2.84078 20.7627 3.89746C21.7411 4.94822 22.25 6.39888 22.25 8.02637V15.9736Z" fill="#253035"/>
<path d="M17.0528 14.4199C17.0528 13.3553 16.1897 12.4923 15.125 12.4922C14.0603 12.4922 13.1973 13.3552 13.1973 14.4199C13.1974 15.0982 13.6148 15.8554 14.1866 16.499C14.4611 16.8081 14.7442 17.0593 14.9717 17.2276C15.0291 17.27 15.0801 17.3058 15.1241 17.334H15.126C15.1699 17.3058 15.221 17.2699 15.2784 17.2276C15.5059 17.0592 15.789 16.8081 16.0635 16.499C16.6353 15.8554 17.0527 15.0982 17.0528 14.4199ZM14.375 14.4277V14.3965C14.3751 13.9823 14.7109 13.6465 15.125 13.6465C15.5391 13.6466 15.875 13.9824 15.875 14.3965V14.4277C15.875 14.8419 15.5391 15.1776 15.125 15.1777C14.7108 15.1777 14.3751 14.8419 14.375 14.4277ZM18.5528 14.4199C18.5527 15.6467 17.8445 16.7523 17.1846 17.4951C16.8435 17.879 16.4844 18.2021 16.17 18.4346C16.0136 18.5502 15.8568 18.6519 15.71 18.7285C15.5996 18.7862 15.3759 18.8955 15.125 18.8955C14.8742 18.8955 14.6506 18.7862 14.5401 18.7285C14.3934 18.6519 14.2365 18.5502 14.0801 18.4346C13.7656 18.2021 13.4056 17.8791 13.0645 17.4951C12.4046 16.7523 11.6974 15.6466 11.6973 14.4199C11.6973 12.5268 13.2319 10.9922 15.125 10.9922C17.0181 10.9923 18.5528 12.5269 18.5528 14.4199Z" fill="#253035"/>
</svg>
