<svg width="24" height="24" viewBox="0 0 24 24" fill="none" xmlns="http://www.w3.org/2000/svg">
<path d="M20.75 11.9736V8.02637C20.75 6.70868 20.3411 5.64605 19.665 4.91992C18.9945 4.19983 18.0056 3.75 16.7168 3.75H8.28223C6.99854 3.75 6.00964 4.19942 5.33789 4.91992C4.66068 5.64646 4.25 6.70951 4.25 8.02637V15.9736C4.25001 17.2914 4.65907 18.354 5.33496 19.0801C6.00521 19.8 6.99356 20.25 8.28223 20.25H12.7158C13.13 20.25 13.4658 20.5858 13.4658 21C13.4658 21.4142 13.13 21.75 12.7158 21.75H8.28223C6.62288 21.75 5.22013 21.1594 4.23633 20.1025C3.25818 19.0517 2.75001 17.601 2.75 15.9736V8.02637C2.75 6.39807 3.26123 4.9478 4.24023 3.89746C5.22472 2.84126 6.62676 2.25 8.28223 2.25H16.7168C18.376 2.25 19.7787 2.84078 20.7627 3.89746C21.7411 4.94822 22.25 6.39888 22.25 8.02637V11.9736C22.25 12.3878 21.9142 12.7236 21.5 12.7236C21.0858 12.7236 20.75 12.3878 20.75 11.9736Z" fill="#253035"/>
<path d="M3.08594 5.89454C3.17005 5.48905 3.56712 5.22849 3.97265 5.3125L12.6592 7.11231L21.6465 8.95997C22.0522 9.04338 22.3138 9.44004 22.2305 9.84571C22.147 10.2514 21.7504 10.513 21.3447 10.4297L13.1016 8.73438L10.7627 21.1387C10.6859 21.5456 10.2936 21.8129 9.88672 21.7363C9.47968 21.6596 9.2113 21.2674 9.28808 20.8604L11.6328 8.43067L3.66797 6.78125C3.26248 6.69714 3.00192 6.30007 3.08594 5.89454Z" fill="#253035"/>
<path d="M15.1465 14.6455C16.6016 13.191 18.9597 13.1913 20.4151 14.6455C21.689 15.9185 21.8482 17.8854 20.8926 19.332L22.0293 20.4688C22.322 20.7617 22.3212 21.2365 22.0283 21.5293C21.7354 21.822 21.2606 21.8222 20.9678 21.5293L19.832 20.3926C18.3855 21.3482 16.4202 21.1896 15.1465 19.916C13.737 18.5064 13.692 16.2474 15.0137 14.7852L15.1465 14.6455ZM19.3555 15.707C18.4859 14.8375 17.0767 14.8375 16.207 15.707C15.3379 16.5755 15.3374 17.9857 16.207 18.8555L16.376 19.0078C17.2506 19.7213 18.5402 19.6707 19.3555 18.8555L19.5078 18.6865C20.2215 17.8118 20.1704 16.5213 19.3555 15.707Z" fill="#253035"/>
</svg>
