<svg width="24" height="24" viewBox="0 0 24 24" fill="none" xmlns="http://www.w3.org/2000/svg">
<path fill-rule="evenodd" clip-rule="evenodd" d="M15.9966 2.02734H7.55664C4.83667 2.02734 2.86658 3.60736 2.25659 6.10736C2.23657 6.15735 2.21655 6.20734 2.20667 6.25732L2.20642 6.26123L2.20667 6.26434C2.20691 6.2666 2.20715 6.26886 2.20667 6.27136V6.28735C2.09656 6.76733 2.02661 7.26733 2.02661 7.80737V15.7473C2.02661 19.2073 4.24658 21.5273 7.55664 21.5273H11.9871C11.4061 20.5079 11.0742 19.3281 11.0742 18.0708C11.0742 14.2097 14.2043 11.0796 18.0654 11.0796C19.3247 11.0796 20.5061 11.4125 21.5266 11.9951V7.80737C21.5266 4.34735 19.3066 2.02734 15.9966 2.02734ZM11.2966 8.89734L9.20667 20.0273H7.67664L9.82666 8.59735L3.54663 7.29736C3.59656 6.76733 3.70667 6.26733 3.89661 5.83734L10.8566 7.27734L20.0266 9.15735V10.6973L11.2966 8.89734Z" fill="#253035"/>
<path fill-rule="evenodd" clip-rule="evenodd" d="M21.7465 20.6812C21.4106 20.3338 21.0701 19.9913 20.7261 19.6523C20.6478 19.5746 20.6368 19.5199 20.6965 19.4194C21.1229 18.6977 21.2966 17.9199 21.2108 17.0803C21.0015 15.0234 19.1256 13.5072 17.092 13.7581C14.564 14.0694 13.0878 16.7642 14.1707 19.0914C14.8688 20.5923 16.5029 21.4528 18.1205 21.1796C18.6416 21.0915 19.1194 20.8981 19.5726 20.6118C19.9399 20.9841 20.3025 21.3522 20.6663 21.7196C20.7186 21.7716 20.7749 21.8243 20.8374 21.8618C21.1676 22.0621 21.5747 21.9879 21.8082 21.6891C22.0479 21.3841 22.0265 20.9709 21.7465 20.6812ZM17.5507 19.7175C16.301 19.7203 15.3042 18.7275 15.3042 17.4796C15.3048 16.2498 16.3031 15.2424 17.5211 15.2424C18.7452 15.2431 19.7354 16.2407 19.7382 17.4761C19.7401 18.7095 18.759 19.7147 17.5507 19.7175Z" fill="#253035"/>
</svg>
