<svg width="24" height="24" viewBox="0 0 24 24" fill="none" xmlns="http://www.w3.org/2000/svg">
<path d="M15.543 5.86133V4.9375C15.543 4.28152 15.0123 3.75013 14.3564 3.75H11.4668C10.8107 3.75 10.2793 4.28146 10.2793 4.9375V5.86133C10.2793 6.27554 9.94351 6.61133 9.5293 6.61133C9.11508 6.61133 8.7793 6.27554 8.7793 5.86133V4.9375C8.7793 3.45302 9.98229 2.25 11.4668 2.25H14.3564C15.8408 2.25013 17.043 3.45313 17.043 4.9375V5.86133C17.043 6.27554 16.7072 6.61133 16.293 6.61133C15.8789 6.61115 15.543 6.27543 15.543 5.86133Z" fill="#A2B5BE"/>
<path d="M21.748 9.6328C22.1623 9.6328 22.498 9.96859 22.498 10.3828C22.498 10.797 22.1623 11.1328 21.748 11.1328H4.07227C3.65805 11.1328 3.32227 10.797 3.32227 10.3828C3.32227 9.96859 3.65805 9.6328 4.07227 9.6328H21.748Z" fill="#A2B5BE"/>
<path d="M21.0459 9.90332C21.0459 8.08651 19.5726 6.61328 17.7559 6.61328H8.06445C6.24766 6.61328 4.77441 8.08652 4.77441 9.90332V16.9619C4.77442 18.7787 6.24765 20.252 8.06445 20.252H17.7559C19.5726 20.252 21.0459 18.7787 21.0459 16.9619V9.90332ZM22.5459 16.9619C22.5459 19.6071 20.4011 21.752 17.7559 21.752H8.06445C5.41924 21.752 3.27442 19.6071 3.27441 16.9619V9.90332C3.27441 7.2581 5.41923 5.11328 8.06445 5.11328H17.7559C20.4011 5.11328 22.5459 7.25811 22.5459 9.90332V16.9619Z" fill="#253035"/>
<path d="M14.8789 14.6484C15.2931 14.6484 15.6289 14.9842 15.6289 15.3984C15.6289 15.8126 15.2931 16.1484 14.8789 16.1484H10.9453C10.5311 16.1484 10.1953 15.8126 10.1953 15.3984C10.1953 14.9842 10.5311 14.6484 10.9453 14.6484H14.8789Z" fill="#253035"/>
<path d="M12.1602 17.3633V13.4297C12.1602 13.0155 12.496 12.6797 12.9102 12.6797C13.3244 12.6797 13.6602 13.0155 13.6602 13.4297V17.3633C13.6602 17.7775 13.3244 18.1133 12.9102 18.1133C12.496 18.1133 12.1602 17.7775 12.1602 17.3633Z" fill="#253035"/>
</svg>
