<svg width="24" height="24" viewBox="0 0 24 24" fill="none" xmlns="http://www.w3.org/2000/svg">
<path fill-rule="evenodd" clip-rule="evenodd" d="M13.4133 13.5257L13.2853 13.5977C12.7133 13.9197 12.5113 14.0807 12.5153 14.3447C12.5203 14.7587 12.1893 15.0997 11.7753 15.1057H11.7653C11.3553 15.1057 11.0203 14.7767 11.0153 14.3657C10.9973 13.1637 11.9703 12.6167 12.5503 12.2907L12.6783 12.2177C13.1893 11.9357 13.4343 11.5647 13.4343 11.0777C13.4343 10.2767 12.7863 9.6257 11.9893 9.6257C11.1803 9.6257 10.5453 10.2627 10.5453 11.0777C10.5453 11.4917 10.2093 11.8277 9.79527 11.8277C9.38127 11.8277 9.04527 11.4917 9.04527 11.0777C9.04527 9.4497 10.3663 8.1257 11.9893 8.1257C13.6123 8.1257 14.9343 9.4497 14.9343 11.0777C14.9343 12.1147 14.3933 12.9837 13.4133 13.5257ZM12.5163 16.6097C12.5163 17.0247 12.1803 17.3597 11.7663 17.3597C11.3513 17.3597 11.0163 17.0247 11.0163 16.6097C11.0163 16.1957 11.3513 15.8567 11.7663 15.8567C12.1803 15.8567 12.5163 16.1897 12.5163 16.6037V16.6097ZM19.4733 6.8587C17.7813 4.7107 15.2603 3.3877 12.5553 3.2297C9.84227 3.0677 7.19327 4.0827 5.27727 6.0037C2.47227 8.8177 1.70727 13.1397 3.36427 16.7347C3.40427 16.8347 3.52627 17.1387 4.35427 18.5817C4.44727 18.7427 4.43727 18.9377 4.33027 19.0907C4.10827 19.4047 3.82727 19.8057 3.60827 20.1357C3.32527 20.5607 3.29927 21.1047 3.54027 21.5537C3.77827 21.9987 4.24027 22.2747 4.74427 22.2747H5.36127C7.73227 22.2747 11.1473 22.2717 11.9643 22.2747H11.9973C14.7993 22.2747 17.4483 21.0377 19.2693 18.8777C22.1673 15.4407 22.2533 10.3857 19.4733 6.8587Z" fill="#253035"/>
</svg>
