<svg width="24" height="24" viewBox="0 0 24 24" fill="none" xmlns="http://www.w3.org/2000/svg">
<path d="M5.61133 5.82614C9.6886 1.73537 16.4965 2.02829 20.1797 6.70309C22.9251 10.1867 22.923 15.213 20.2383 18.705L19.9707 19.0381C18.0033 21.3721 15.2361 22.5328 12.4736 22.5234H5.25684L5.25586 22.5224C3.94826 22.5232 3.1957 21.0677 3.90918 19.9961L4.27344 19.4609C4.39972 19.279 4.52645 19.1 4.63672 18.9443C4.67405 18.8905 4.68569 18.8256 4.6709 18.7646L4.64648 18.705C4.32823 18.1511 3.79496 17.2097 3.6416 16.8261V16.8252C1.9946 13.2137 2.6404 8.80606 5.61133 5.82614ZM19.001 7.6318C15.8809 3.67169 10.1235 3.42392 6.67383 6.88473L6.67285 6.88571C4.23048 9.33586 3.64049 12.9312 4.89258 15.9443L5.01953 16.2334L5.03418 16.2695C5.13763 16.5281 5.59759 17.35 5.94629 17.957H5.94726C6.28275 18.5404 6.24804 19.2623 5.86133 19.8105L5.86035 19.8115C5.75088 19.9661 5.62776 20.1407 5.50586 20.3164L5.1582 20.8271C5.13997 20.8545 5.13534 20.8767 5.13476 20.8945C5.13412 20.9147 5.1387 20.9377 5.15039 20.9599C5.16222 20.9823 5.17824 20.9983 5.19336 21.0078C5.2061 21.0158 5.22417 21.0234 5.25488 21.0234H12.4785C14.8155 21.0315 17.1537 20.0519 18.8232 18.0713C21.3154 15.1149 21.3931 10.6671 19.001 7.6318Z" fill="#A2B5BE"/>
<path d="M11.5254 16.6103V16.6035C11.5254 16.1893 11.8612 15.8535 12.2754 15.8535C12.6896 15.8535 13.0254 16.1893 13.0254 16.6035V16.6103C13.0254 17.0245 12.6896 17.3603 12.2754 17.3603C11.8612 17.3603 11.5254 17.0245 11.5254 16.6103Z" fill="#253035"/>
<path d="M13.9434 11.0771C13.9433 10.2692 13.2936 9.62524 12.499 9.625C11.6985 9.625 11.0548 10.2669 11.0547 11.0771C11.0547 11.4914 10.7189 11.8271 10.3047 11.8271C9.89047 11.8271 9.55469 11.4914 9.55469 11.0771C9.55477 9.44418 10.8644 8.125 12.499 8.125C14.1234 8.12524 15.4433 9.44217 15.4434 11.0771C15.4434 12.2354 14.7789 13.0529 13.9248 13.5254L13.9238 13.5244C13.6045 13.7068 13.383 13.8215 13.208 13.9795C13.0677 14.1063 13.0217 14.206 13.0234 14.3447C13.0288 14.7589 12.6974 15.0991 12.2832 15.1045C11.8692 15.1096 11.5298 14.7783 11.5244 14.3643C11.5157 13.6828 11.8359 13.1978 12.2031 12.8662C12.5343 12.5672 12.9597 12.3492 13.1895 12.2178L13.1982 12.2129C13.6919 11.9398 13.9434 11.5679 13.9434 11.0771Z" fill="#253035"/>
</svg>
