<svg width="24" height="24" viewBox="0 0 24 24" fill="none" xmlns="http://www.w3.org/2000/svg">
<path d="M2.75391 15.9727V8.02637C2.75391 6.39827 3.26486 4.94776 4.24316 3.89746C5.22695 2.84131 6.62815 2.25 8.28223 2.25H11.8594C12.2735 2.25015 12.6094 2.58588 12.6094 3C12.6094 3.41412 12.2735 3.74985 11.8594 3.75H8.28223C7.00023 3.75 6.01207 4.19929 5.34082 4.91992C4.66408 5.64647 4.25391 6.70957 4.25391 8.02637V15.9727C4.25391 17.2908 4.66253 18.3539 5.33789 19.0801C6.00763 19.8002 6.99535 20.25 8.28223 20.25H16.7168C18.0053 20.25 18.9936 19.8 19.6631 19.0801C20.3381 18.354 20.7461 17.2909 20.7461 15.9727V12.3916C20.7463 11.9775 21.082 11.6416 21.4961 11.6416C21.9102 11.6416 22.2459 11.9775 22.2461 12.3916V15.9727C22.2461 17.6 21.7381 19.0505 20.7607 20.1016C19.7776 21.1587 18.3761 21.75 16.7168 21.75H8.28223C6.62422 21.75 5.22237 21.1586 4.23926 20.1016C3.26201 19.0507 2.75391 17.6001 2.75391 15.9727Z" fill="#253035"/>
<path d="M16.626 3.39941C17.561 2.38922 19.1387 2.32839 20.1494 3.2627L21.3174 4.34375C22.3274 5.27871 22.3897 6.85396 21.4561 7.86523L15.9815 13.8408L15.9805 13.8398C15.4063 14.4789 14.6327 14.9055 13.7852 15.0479L12.5156 15.2607C11.0961 15.498 9.84063 14.3141 9.99513 12.8828L10.1377 11.5723C10.2237 10.7842 10.5527 10.0426 11.0811 9.45117L11.0879 9.44434L16.6231 3.40137L16.626 3.39941ZM19.0537 4.29883C18.6509 3.99565 18.0754 4.04107 17.7266 4.41797L12.1934 10.458C11.8776 10.8145 11.6807 11.2606 11.6289 11.7354L11.4863 13.0449C11.4388 13.4883 11.8279 13.8548 12.2676 13.7812L13.5371 13.5684C14.0523 13.4818 14.5219 13.2223 14.8692 12.834L14.876 12.8281L20.3506 6.85254L20.3535 6.84961C20.7266 6.44668 20.7021 5.81859 20.2988 5.44531L19.1318 4.36426L19.0537 4.29883Z" fill="#253035"/>
</svg>
