<svg width="24" height="24" viewBox="0 0 24 24" fill="none" xmlns="http://www.w3.org/2000/svg">
<path fill-rule="evenodd" clip-rule="evenodd" d="M13.7127 16.2678L11.7637 16.5948C11.5917 16.6228 11.4207 16.6378 11.2507 16.6378C10.4817 16.6378 9.74372 16.3468 9.17072 15.8068C8.47172 15.1468 8.12972 14.2198 8.23372 13.2638L8.44972 11.2698C8.56772 10.1788 9.01672 9.16883 9.74772 8.35083L13.8913 3.82747C14.0676 3.63503 13.931 3.32483 13.6701 3.32483H7.73772C4.58072 3.32483 2.45972 5.54583 2.45972 8.85083V16.7978C2.45972 20.1038 4.58072 22.3248 7.73772 22.3248H16.1717C19.3297 22.3248 21.4517 20.1038 21.4517 16.7978V10.2295C21.4517 9.9558 21.1153 9.82502 20.9305 10.0268L16.7267 14.6158C15.9567 15.4768 14.8797 16.0708 13.7127 16.2678Z" fill="#253035"/>
<path fill-rule="evenodd" clip-rule="evenodd" d="M10.4382 11.4854L10.2402 13.3144C10.1562 14.0854 10.8322 14.7224 11.5972 14.5944L13.3792 14.2954C14.1022 14.1734 14.7632 13.8104 15.2512 13.2644L21.0482 6.93738C21.7422 6.18938 21.6962 5.02138 20.9482 4.32938L19.7112 3.18338C18.9622 2.49138 17.7942 2.53638 17.1012 3.28338L11.2402 9.68238C10.7912 10.1854 10.5112 10.8154 10.4382 11.4854Z" fill="#253035"/>
</svg>
