<svg width="24" height="24" viewBox="0 0 24 24" fill="none" xmlns="http://www.w3.org/2000/svg">
<path fill-rule="evenodd" clip-rule="evenodd" d="M6.0668 5.30627H13.7618C14.4158 5.30627 14.9488 4.77227 14.9488 4.11527V3.08627C14.9488 2.43527 14.4158 1.90527 13.7618 1.90527H6.0668C5.4128 1.90527 4.8808 2.43527 4.8808 3.08627V4.11527C4.8808 4.77227 5.4128 5.30627 6.0668 5.30627Z" fill="#253035"/>
<path fill-rule="evenodd" clip-rule="evenodd" d="M15.7846 19.2252L15.8076 19.1672L15.7776 19.1552L15.7626 19.1932C15.7666 19.1952 15.7766 19.2222 15.7816 19.2242L15.7846 19.2252Z" fill="#253035"/>
<path fill-rule="evenodd" clip-rule="evenodd" d="M11.6034 14.6851H10.6654V15.6251C10.6654 16.0391 10.3294 16.3751 9.91541 16.3751C9.50041 16.3751 9.16541 16.0391 9.16541 15.6251V14.6851H8.22641C7.81141 14.6851 7.47641 14.3491 7.47641 13.9351C7.47641 13.5211 7.81141 13.1851 8.22641 13.1851H9.16541V12.2451C9.16541 11.8311 9.50041 11.4951 9.91541 11.4951C10.3294 11.4951 10.6654 11.8311 10.6654 12.2451V13.1851H11.6034C12.0174 13.1851 12.3534 13.5211 12.3534 13.9351C12.3534 14.3491 12.0174 14.6851 11.6034 14.6851ZM15.6614 11.7101C15.7618 11.6667 15.8643 11.6329 15.9674 11.6023C16.096 11.5641 16.1854 11.4476 16.1854 11.3135V11.0651C16.1854 10.8995 16.0511 10.7651 15.8854 10.7651H3.94441C3.77872 10.7651 3.64441 10.8995 3.64441 11.0651V16.9951C3.64441 17.1608 3.77872 17.2951 3.94441 17.2951H12.0045C12.1281 17.2951 12.239 17.2194 12.2839 17.1043L12.7744 15.8481L12.7749 15.8471C12.7776 15.8409 12.7802 15.8346 12.7824 15.8281L13.5214 13.9371C13.9134 12.9321 14.6734 12.1421 15.6614 11.7101Z" fill="#253035"/>
<path fill-rule="evenodd" clip-rule="evenodd" d="M11.776 19.1274C11.7807 18.9495 11.6429 18.7955 11.465 18.7955H3.95169C3.78441 18.7955 3.64788 18.9328 3.66709 19.0989C3.83773 20.5752 5.09122 21.7255 6.61058 21.7255H12.044C12.2958 21.7255 12.4386 21.4308 12.3079 21.2156C12.2328 21.0917 12.1642 20.9628 12.1046 20.8275C11.8637 20.2829 11.7609 19.7051 11.776 19.1274Z" fill="#253035"/>
<path fill-rule="evenodd" clip-rule="evenodd" d="M15.2406 7.71934L13.3046 6.22634C13.2176 6.15734 13.1106 6.12134 12.9996 6.12134H6.8306C6.7196 6.12134 6.6126 6.15734 6.5256 6.22634L4.5446 7.75734C4.2138 8.08185 3.96635 8.47798 3.81583 8.90741C3.75254 9.08799 3.89545 9.26534 4.0868 9.26534H15.7408C15.9326 9.26534 16.0756 9.08706 16.011 8.90639C15.8558 8.47241 15.5977 8.06618 15.2406 7.71934Z" fill="#253035"/>
<path fill-rule="evenodd" clip-rule="evenodd" d="M18.767 15.981L18.298 17.182L15.928 16.258L16.398 15.055C16.522 14.737 16.763 14.486 17.076 14.349C17.237 14.279 17.408 14.243 17.579 14.243C17.737 14.243 17.895 14.273 18.049 14.334C18.361 14.454 18.608 14.69 18.745 14.999C18.884 15.313 18.892 15.662 18.767 15.981ZM17.283 19.781C17.159 20.099 16.918 20.35 16.605 20.487C16.296 20.624 15.951 20.628 15.638 20.505L15.632 20.502C15.32 20.382 15.072 20.146 14.935 19.836C14.797 19.523 14.789 19.174 14.913 18.856L15.382 17.654L17.752 18.579L17.283 19.781ZM20.117 14.393C19.817 13.715 19.274 13.197 18.592 12.935C17.906 12.666 17.153 12.678 16.475 12.974C15.795 13.272 15.271 13.817 15 14.51L14.26 16.406C14.2598 16.4062 14.2601 16.4058 14.26 16.406C14.2581 16.4088 14.2575 16.413 14.256 16.416L13.516 18.311C13.245 19.004 13.262 19.761 13.563 20.443C13.862 21.119 14.404 21.636 15.09 21.901C15.417 22.03 15.759 22.094 16.1 22.094C16.475 22.094 16.85 22.016 17.205 21.862C17.886 21.564 18.41 21.019 18.681 20.326L20.1639 16.526C20.4349 15.833 20.418 15.075 20.117 14.393Z" fill="#253035"/>
</svg>
