<svg width="24" height="24" viewBox="0 0 24 24" fill="none" xmlns="http://www.w3.org/2000/svg">
<path d="M15.46 14.1641C16.0162 12.7382 17.6227 12.0318 19.0498 12.5879C20.3869 13.1097 21.0896 14.5558 20.7139 15.9092L20.624 16.1777L19.1406 19.9844C18.5844 21.4103 16.977 22.1158 15.5508 21.5596C14.125 21.0033 13.4194 19.3969 13.9756 17.9707L14.708 16.0899C14.7107 16.0822 14.7138 16.0741 14.7168 16.0664C14.7198 16.0588 14.7234 16.0514 14.7266 16.044L15.46 14.1641ZM15.3731 18.5156C15.118 19.1695 15.4409 19.9065 16.0947 20.1621C16.7489 20.4173 17.4878 20.0939 17.7432 19.4395L18.2119 18.2354L15.8418 17.3106L15.3731 18.5156ZM18.5049 13.9863C17.8496 13.731 17.1128 14.0545 16.8574 14.709L16.3867 15.9131L18.7568 16.8379L19.2266 15.6328L19.2676 15.5098C19.4403 14.8883 19.1179 14.2256 18.5049 13.9863Z" fill="#A2B5BE"/>
<path d="M10.7783 15.3965V14.457H9.83887C9.42465 14.457 9.08887 14.1212 9.08887 13.707C9.08892 13.2929 9.42469 12.957 9.83887 12.957H10.7783V12.0195C10.7783 11.6053 11.1141 11.2696 11.5283 11.2695C11.9425 11.2695 12.2783 11.6053 12.2783 12.0195V12.957H13.2158C13.63 12.957 13.9658 13.2929 13.9658 13.707C13.9658 14.1212 13.63 14.457 13.2158 14.457H12.2783V15.3965C12.2783 15.8107 11.9425 16.1465 11.5283 16.1465C11.1141 16.1464 10.7783 15.8107 10.7783 15.3965Z" fill="#A2B5BE"/>
<path d="M5.00684 18.5332V9.6621C5.00696 8.7918 5.36008 7.9578 5.98535 7.35156L7.92188 5.47656L8.03516 5.38671C8.15587 5.30836 8.29741 5.26563 8.44336 5.26562H8.48535C8.89951 5.26569 9.23535 5.60145 9.23535 6.01562C9.23535 6.2984 9.07681 6.54115 8.8457 6.66894L7.02832 8.42968C6.69483 8.75339 6.50696 9.19804 6.50684 9.6621V18.5332C6.50705 19.481 7.27572 20.249 8.22363 20.249H12.1328C12.5469 20.249 12.8826 20.585 12.8828 20.999C12.8828 21.4132 12.547 21.749 12.1328 21.749H8.22363C6.44731 21.749 5.00705 20.3094 5.00684 18.5332Z" fill="#253035"/>
<path d="M14.6123 5.26953C14.807 5.26953 14.9949 5.34501 15.1348 5.48047L17.0703 7.35547L17.0713 7.35644C17.6963 7.96256 18.0487 8.79472 18.0488 9.66601C18.0488 10.0802 17.713 10.416 17.2988 10.416H5.81348C5.39926 10.416 5.06348 10.0802 5.06348 9.66601C5.06372 9.25201 5.39941 8.91601 5.81348 8.91601H16.374C16.2874 8.73812 16.1724 8.5733 16.0273 8.43262L14.208 6.67187C13.9781 6.54374 13.8203 6.30141 13.8203 6.01953C13.8203 5.60548 14.1563 5.26979 14.5703 5.26953H14.6123Z" fill="#253035"/>
<path d="M10.9414 17.0685C11.3556 17.0685 11.6914 17.4043 11.6914 17.8185C11.6914 18.2327 11.3556 18.5685 10.9414 18.5685H5.81348C5.39926 18.5685 5.06348 18.2327 5.06348 17.8185C5.06348 17.4043 5.39926 17.0685 5.81348 17.0685H10.9414Z" fill="#253035"/>
<path d="M15.7568 3.97363C15.7566 3.8515 15.6563 3.75018 15.5322 3.75H7.52246C7.3984 3.7502 7.29805 3.85151 7.29785 3.97363V5.04297C7.29785 5.16526 7.39827 5.26738 7.52246 5.26758H15.5322C15.6565 5.2674 15.7568 5.16526 15.7568 5.04297V3.97363ZM17.2568 5.04297C17.2568 5.99468 16.4839 6.7674 15.5322 6.76758H7.52246C6.57082 6.76738 5.79785 5.99465 5.79785 5.04297V3.97363C5.79805 3.02211 6.57095 2.2502 7.52246 2.25H15.5322C16.4838 2.25018 17.2566 3.02208 17.2568 3.97363V5.04297Z" fill="#253035"/>
</svg>
