<svg width="24" height="24" viewBox="0 0 24 24" fill="none" xmlns="http://www.w3.org/2000/svg">
<path d="M20.25 8.02637C20.25 6.70868 19.8412 5.64605 19.165 4.91992C18.4945 4.19983 17.5056 3.75 16.2168 3.75H7.78223C6.49854 3.75 5.50964 4.19942 4.83789 4.91992C4.16068 5.64646 3.75 6.70951 3.75 8.02637V15.9736C3.75001 17.2914 4.15907 18.354 4.83496 19.0801C5.50521 19.8 6.49356 20.25 7.78223 20.25H16.2158C17.5052 20.25 18.4944 19.8002 19.165 19.0801C19.8412 18.354 20.25 17.2913 20.25 15.9736V8.02637ZM21.75 15.9736C21.75 17.6011 21.2413 19.0518 20.2627 20.1025C19.2785 21.1593 17.8755 21.75 16.2158 21.75H7.78223C6.12288 21.75 4.72013 21.1594 3.73633 20.1025C2.75818 19.0517 2.25001 17.601 2.25 15.9736V8.02637C2.25 6.39807 2.76123 4.9478 3.74023 3.89746C4.72472 2.84126 6.12676 2.25 7.78223 2.25H16.2168C17.876 2.25 19.2787 2.84078 20.2627 3.89746C21.2411 4.94822 21.75 6.39888 21.75 8.02637V15.9736Z" fill="#A2B5BE"/>
<path d="M13.0166 16.5714V16.5275C13.0166 16.1133 12.6808 15.7775 12.2666 15.7775C11.8524 15.7775 11.5166 16.1133 11.5166 16.5275V16.5714C11.5167 16.9856 11.8524 17.3214 12.2666 17.3214C12.6807 17.3214 13.0165 16.9856 13.0166 16.5714Z" fill="#253035"/>
<path d="M10.1699 10.0469C10.17 9.02987 10.9919 8.21484 12.0029 8.21484C13.0209 8.21498 13.8348 9.0283 13.835 10.0469C13.835 10.4611 14.1707 10.7969 14.585 10.7969C14.9992 10.7969 15.335 10.4611 15.335 10.0469C15.3348 8.19949 13.849 6.71498 12.0029 6.71484C10.1671 6.71484 8.67005 8.19775 8.66992 10.0469C8.66992 11.3481 9.41737 12.2688 10.3896 12.8057L10.3906 12.8047C10.7593 13.0146 11.038 13.1587 11.2578 13.3564C11.4198 13.5023 11.4991 13.6352 11.5146 13.8057L11.5205 13.958C11.5539 14.3368 11.8695 14.6365 12.2578 14.6416C12.6718 14.6469 13.012 14.3153 13.0176 13.9014C13.0274 13.1479 12.6728 12.6121 12.2607 12.2412C11.8847 11.9028 11.4026 11.6559 11.124 11.4971L11.1152 11.4922C10.5017 11.1534 10.1699 10.678 10.1699 10.0469Z" fill="#253035"/>
</svg>
