<svg width="24" height="24" viewBox="0 0 24 24" fill="none" xmlns="http://www.w3.org/2000/svg">
<path fill-rule="evenodd" clip-rule="evenodd" d="M10.385 12.806L10.536 12.891C11.229 13.279 11.517 13.502 11.512 13.882C11.506 14.296 11.838 14.636 12.252 14.642H12.262C12.672 14.642 13.006 14.313 13.012 13.902C13.03 12.569 11.928 11.952 11.27 11.582L11.12 11.498C10.485 11.147 10.166 10.66 10.166 10.048C10.166 9.038 10.989 8.216 11.998 8.216C13.008 8.216 13.83 9.038 13.83 10.048C13.83 10.462 14.166 10.798 14.58 10.798C14.994 10.798 15.33 10.462 15.33 10.048C15.33 8.211 13.835 6.716 11.998 6.716C10.161 6.716 8.666 8.211 8.666 10.048C8.666 11.213 9.277 12.193 10.385 12.806ZM11.512 16.572C11.512 16.986 11.848 17.322 12.262 17.322C12.676 17.322 13.012 16.986 13.012 16.572C13.012 16.158 12.676 15.799 12.262 15.799C11.848 15.799 11.512 16.114 11.512 16.528V16.572ZM7.783 2.5H16.218C19.377 2.5 21.5 4.721 21.5 8.027V15.975C21.5 19.28 19.377 21.5 16.218 21.5H7.784C4.624 21.5 2.5 19.28 2.5 15.975V8.027C2.5 4.721 4.623 2.5 7.783 2.5Z" fill="#253035"/>
</svg>
