<svg width="24" height="24" viewBox="0 0 24 24" fill="none" xmlns="http://www.w3.org/2000/svg">
<path d="M19.2024 2.49316C19.6164 2.49288 19.9528 2.82815 19.9534 3.24219L19.97 18.9824C19.9713 20.3518 18.5869 21.2696 17.3401 20.7695L17.22 20.7168L16.4866 20.3662C16.2349 20.246 15.9456 20.2371 15.6887 20.3418L13.6008 21.1934C12.5768 21.6108 11.4305 21.6108 10.4065 21.1934L8.32055 20.3418C8.06391 20.2369 7.7735 20.2453 7.5227 20.3652L6.7854 20.7188C5.51005 21.3285 4.03472 20.3986 4.03442 18.9863L4.04419 3.24316C4.04444 2.82909 4.38017 2.49314 4.79419 2.49316C5.20824 2.49342 5.54419 2.82916 5.54419 3.24316L5.53442 18.9863L5.54907 19.0967C5.61485 19.341 5.89269 19.4827 6.13696 19.3662L6.87524 19.0117C7.50777 18.7094 8.23986 18.6883 8.88794 18.9531L10.9729 19.8047C11.6339 20.074 12.3735 20.0741 13.0344 19.8047L15.1223 18.9531C15.7721 18.6882 16.5023 18.7108 17.134 19.0127L17.8684 19.3643L17.9739 19.3994C18.2225 19.4457 18.4703 19.2551 18.47 18.9834L18.4534 3.24414C18.4529 2.82993 18.7882 2.49362 19.2024 2.49316Z" fill="#253035"/>
<path d="M21 2.49394C21.4142 2.49394 21.75 2.82973 21.75 3.24394C21.75 3.65816 21.4142 3.99394 21 3.99394H3C2.58579 3.99394 2.25 3.65816 2.25 3.24394C2.25 2.82973 2.58579 2.49394 3 2.49394H21Z" fill="#253035"/>
<path d="M14.7559 13.3885C15.17 13.3885 15.5057 13.7244 15.5059 14.1385C15.5059 14.5527 15.1701 14.8885 14.7559 14.8885H9.25195C8.83774 14.8885 8.50195 14.5527 8.50195 14.1385C8.50213 13.7244 8.83785 13.3885 9.25195 13.3885H14.7559ZM12.9209 9.11308C13.3351 9.11308 13.6709 9.44887 13.6709 9.86308C13.6709 10.2773 13.3351 10.6131 12.9209 10.6131H9.25195C8.83774 10.6131 8.50195 10.2773 8.50195 9.86308C8.50195 9.44887 8.83774 9.11308 9.25195 9.11308H12.9209Z" fill="#253035"/>
</svg>
