<svg width="24" height="24" viewBox="0 0 24 24" fill="none" xmlns="http://www.w3.org/2000/svg">
<path d="M21 4.49365H3C2.447 4.49365 2 4.04665 2 3.49365C2 2.94065 2.447 2.49365 3 2.49365H21C21.553 2.49365 22 2.94065 22 3.49365C22 4.04665 21.553 4.49365 21 4.49365Z" fill="#253035"/>
<path fill-rule="evenodd" clip-rule="evenodd" d="M4.59232 5.73584C4.42671 5.73584 4.29243 5.87004 4.29232 6.03565L4.28394 19.2393C4.28394 19.8133 4.57394 20.3393 5.05894 20.6453C5.54994 20.9543 6.15394 20.9893 6.67494 20.7413L7.41394 20.3913C7.73294 20.2403 8.09594 20.2283 8.41494 20.3623L10.5029 21.2133C10.9859 21.4083 11.4939 21.5063 12.0029 21.5063C12.5119 21.5063 13.0209 21.4073 13.5059 21.2123L15.5989 20.3603C15.9149 20.2293 16.2759 20.2393 16.5949 20.3913L17.3289 20.7403C17.8499 20.9893 18.4549 20.9533 18.9429 20.6463C19.4299 20.3373 19.7209 19.8083 19.7199 19.2293L19.7057 6.03552C19.7055 5.86996 19.5712 5.73584 19.4057 5.73584H4.59232ZM9.25189 10.8598H12.9209C13.3349 10.8598 13.6709 10.5238 13.6709 10.1098C13.6709 9.6958 13.3349 9.3598 12.9209 9.3598H9.25189C8.83789 9.3598 8.50189 9.6958 8.50189 10.1098C8.50189 10.5238 8.83789 10.8598 9.25189 10.8598ZM9.25189 15.1388H14.7559C15.1699 15.1388 15.5059 14.8028 15.5059 14.3888C15.5059 13.9748 15.1699 13.6388 14.7559 13.6388H9.25189C8.83789 13.6388 8.50189 13.9748 8.50189 14.3888C8.50189 14.8028 8.83789 15.1388 9.25189 15.1388Z" fill="#253035"/>
</svg>
