<svg width="24" height="24" viewBox="0 0 24 24" fill="none" xmlns="http://www.w3.org/2000/svg">
<path d="M11.1055 14.832C11.3983 14.5392 11.8731 14.5393 12.166 14.832C12.4589 15.1249 12.4589 15.5997 12.166 15.8926L10.0605 17.9971L12.166 20.1025C12.4589 20.3954 12.4588 20.8701 12.166 21.1631C11.8732 21.456 11.3984 21.4569 11.1055 21.1641L8.46973 18.5283C8.3291 18.3877 8.25001 18.1969 8.25 17.998C8.25002 17.7991 8.32908 17.6084 8.46973 17.4678L11.1055 14.832Z" fill="#253035"/>
<path d="M2.25 12C2.25 8.27287 5.27171 5.25001 9 5.25001H13.1924L11.835 3.89356C11.5421 3.60072 11.5422 3.12594 11.835 2.83301C12.1278 2.54018 12.6026 2.54022 12.8955 2.83301L15.5312 5.46778C15.6429 5.5794 15.713 5.72317 15.7383 5.87696C15.7436 5.90926 15.747 5.94204 15.748 5.97559C15.7483 5.98309 15.751 5.99053 15.751 5.99805C15.751 6.00388 15.7492 6.00982 15.749 6.01563C15.7482 6.05394 15.7436 6.09125 15.7373 6.12794C15.7276 6.18298 15.7139 6.23685 15.6924 6.28809C15.6535 6.38148 15.5955 6.4644 15.5244 6.53419L12.8955 9.16505C12.6027 9.45763 12.1278 9.4576 11.835 9.16505C11.5421 8.87215 11.5421 8.39642 11.835 8.10352L13.1885 6.75001H9C6.1003 6.75001 3.75 9.10114 3.75 12C3.75 13.6713 4.5333 15.1573 5.75488 16.1211C6.07993 16.3777 6.13542 16.8497 5.87891 17.1748C5.62233 17.4999 5.15035 17.5554 4.8252 17.2988C3.26087 16.0646 2.25 14.1526 2.25 12Z" fill="#253035"/>
<path d="M20.25 11.999C20.25 10.3277 19.4667 8.84168 18.2451 7.87794C17.9201 7.62134 17.8646 7.14936 18.1211 6.82422C18.3777 6.49916 18.8497 6.44368 19.1748 6.7002C20.7391 7.93443 21.75 9.84646 21.75 11.999C21.75 15.7272 18.7282 18.749 15 18.749H9C8.58579 18.749 8.25 18.4123 8.25 17.998C8.25004 17.5839 8.58581 17.249 9 17.249H15C17.8998 17.249 20.25 14.8988 20.25 11.999Z" fill="#253035"/>
</svg>
