<svg width="24" height="24" viewBox="0 0 24 24" fill="none" xmlns="http://www.w3.org/2000/svg">
<path d="M20.75 8.08887C20.75 6.77107 20.3409 5.70851 19.665 4.98242C18.9948 4.26247 18.0064 3.8125 16.7178 3.8125H8.2832C6.9994 3.8125 6.0099 4.26176 5.33789 4.98242C4.66045 5.709 4.25 6.77211 4.25 8.08887V16.0361C4.25001 17.3538 4.65885 18.4165 5.33496 19.1426C6.00547 19.8627 6.99444 20.3125 8.2832 20.3125H16.7168C18.006 20.3125 18.9947 19.8625 19.665 19.1426C20.341 18.4165 20.75 17.3539 20.75 16.0361V8.08887ZM22.25 16.0361C22.25 17.6635 21.7419 19.1142 20.7637 20.165C19.7797 21.2219 18.3765 21.8125 16.7168 21.8125H8.2832C6.62396 21.8125 5.22133 21.2217 4.2373 20.165C3.2589 19.1143 2.75001 17.6636 2.75 16.0361V8.08887C2.75 6.46044 3.26193 5.01027 4.24121 3.95996C5.22592 2.90391 6.62782 2.3125 8.2832 2.3125H16.7178C18.3771 2.3125 19.7799 2.9031 20.7637 3.95996C21.7418 5.01076 22.25 6.46148 22.25 8.08887V16.0361Z" fill="#A2B5BE"/>
<path d="M14.0878 14.9336C14.5021 14.9336 14.8378 15.2694 14.8378 15.6836C14.8378 16.0978 14.5021 16.4336 14.0878 16.4336H12.7812C12.367 16.4336 12.0312 16.0978 12.0312 15.6836C12.0312 15.2694 12.367 14.9336 12.7812 14.9336H14.0878Z" fill="#253035"/>
<path d="M16.9395 11.1738C16.9395 10.7596 17.2753 10.4238 17.6895 10.4238C18.1037 10.4239 18.4395 10.7596 18.4395 11.1738V13.4677C18.4128 14.7783 17.5829 15.9392 16.3497 16.3877C15.9605 16.5289 15.5302 16.3276 15.3887 15.9384C15.2475 15.5493 15.4488 15.119 15.8379 14.9775C16.4879 14.7409 16.9253 14.1291 16.9395 13.4375V11.1738Z" fill="#253035"/>
<path d="M12.0312 12.3066V8.44141C12.0312 8.02719 12.367 7.69141 12.7812 7.69141C13.1954 7.69141 13.5312 8.02719 13.5312 8.44141V12.3066C13.5312 12.6329 13.7958 12.8975 14.122 12.8975H14.3378C14.6641 12.897 14.9287 12.6317 14.9287 12.3066V11.2754C14.9288 10.8614 15.2646 10.5255 15.6787 10.5254C16.0928 10.5254 16.4285 10.8613 16.4287 11.2754V12.3066C16.4287 13.4606 15.4924 14.3959 14.3398 14.3975H14.122C12.9674 14.3975 12.0312 13.4614 12.0312 12.3066Z" fill="#253035"/>
<path d="M6.5625 13.6963V12.7646C6.5625 12.3504 6.89829 12.0146 7.3125 12.0146C7.72671 12.0146 8.0625 12.3504 8.0625 12.7646V13.6963C8.0625 14.2152 8.48309 14.6357 9.00195 14.6357C9.5194 14.6355 9.93945 14.2153 9.93945 13.6963V8.44141C9.93945 8.02728 10.2754 7.69154 10.6895 7.69141C11.1037 7.69141 11.4395 8.02719 11.4395 8.44141V13.6963C11.4395 15.0432 10.3484 16.1355 9.00195 16.1357C7.65465 16.1357 6.5625 15.0436 6.5625 13.6963Z" fill="#253035"/>
</svg>
