<svg width="24" height="24" viewBox="0 0 24 24" fill="none" xmlns="http://www.w3.org/2000/svg">
<path d="M2.75 14.5156V13.167C2.75011 12.7529 3.08585 12.417 3.5 12.417C3.91415 12.417 4.24989 12.7529 4.25 13.167V14.5156C4.25 15.7289 5.23312 16.7114 6.44629 16.7119C7.65901 16.7112 8.64258 15.7285 8.64258 14.5156V6.32227C8.64258 5.90805 8.97836 5.57227 9.39258 5.57227C9.80669 5.57239 10.1426 5.90813 10.1426 6.32227V14.5156C10.1426 16.4926 8.59024 18.1079 6.6377 18.208L6.44727 18.2129C4.40525 18.2129 2.75 16.5576 2.75 14.5156Z" fill="#A2B5BE"/>
<path d="M15.6953 17.0527C16.1095 17.0528 16.4453 17.3885 16.4453 17.8027C16.4453 18.2169 16.1095 18.5527 15.6953 18.5527H13.0293C12.6151 18.5527 12.2793 18.2169 12.2793 17.8027C12.2793 17.3885 12.6151 17.0527 13.0293 17.0527H15.6953ZM20.751 10.8164C20.751 10.4022 21.0868 10.0664 21.501 10.0664C21.9151 10.0666 22.251 10.4023 22.251 10.8164V14.3584C22.2136 16.2183 21.0352 17.8628 19.2881 18.499C18.8989 18.6407 18.4679 18.44 18.3262 18.0508C18.1848 17.6617 18.3855 17.2316 18.7744 17.0898C19.9403 16.6654 20.726 15.5681 20.751 14.3281V10.8164ZM12.0762 12.6963V6.32031C12.0762 5.9061 12.412 5.57031 12.8262 5.57031C13.2404 5.57031 13.5762 5.9061 13.5762 6.32031V12.6963C13.5762 13.4278 14.1701 14.0214 14.9024 14.0215H15.8799C16.6114 14.0215 17.2051 13.4287 17.2051 12.6963V11.1006C17.2051 10.6864 17.5409 10.3506 17.9551 10.3506C18.3691 10.3508 18.7051 10.6865 18.7051 11.1006V12.6963C18.7051 14.2562 17.4408 15.5215 15.8799 15.5215H14.9024C13.3425 15.5214 12.0762 14.257 12.0762 12.6963Z" fill="#253035"/>
</svg>
