<svg width="24" height="24" viewBox="0 0 24 24" fill="none" xmlns="http://www.w3.org/2000/svg">
<path d="M14.75 12C14.75 11.5623 14.4622 10.943 13.8291 10.1807C13.2197 9.44702 12.3898 8.69751 11.5332 8.01567C10.6811 7.33736 9.82515 6.74377 9.18067 6.31841C8.85905 6.10614 8.59166 5.93613 8.40528 5.82036C8.31221 5.76255 8.23944 5.7182 8.19044 5.68852C8.16594 5.67369 8.14694 5.66261 8.13477 5.65532C8.12878 5.65173 8.12391 5.64918 8.1211 5.64751L8.05372 5.60259C7.74819 5.37686 7.65693 4.95221 7.8545 4.61821C8.06546 4.26185 8.52544 4.14371 8.88184 4.35454H8.88282V4.35552H8.8838C8.88489 4.35616 8.88677 4.35731 8.88868 4.35845C8.89254 4.36074 8.89818 4.36396 8.90528 4.36821C8.91952 4.37674 8.94024 4.38924 8.9668 4.40532C9.02033 4.43774 9.09805 4.4859 9.1963 4.54692C9.39273 4.66894 9.67221 4.8456 10.0068 5.06645C10.6747 5.50727 11.5692 6.12736 12.4668 6.84184C13.3602 7.55297 14.2803 8.37619 14.9834 9.2227C15.6626 10.0406 16.25 11.01 16.25 12C16.25 12.99 15.6627 13.9596 14.9834 14.7774C14.2803 15.6238 13.3602 16.4461 12.4668 17.1573C11.5691 17.8719 10.6748 18.4927 10.0068 18.9336C9.67223 19.1545 9.39272 19.3311 9.1963 19.4532C9.09809 19.5142 9.02032 19.5624 8.9668 19.5948C8.94028 19.6108 8.91951 19.6234 8.90528 19.6319C8.89822 19.6361 8.89253 19.6394 8.88868 19.6416C8.8868 19.6428 8.88487 19.6439 8.8838 19.6446H8.88282V19.6456H8.88184C8.52547 19.8564 8.06549 19.7382 7.8545 19.3819C7.65693 19.0479 7.74818 18.6232 8.05372 18.3975L8.1211 18.3526C8.12392 18.3509 8.12875 18.3484 8.13477 18.3448C8.14694 18.3375 8.16593 18.3264 8.19044 18.3116C8.23944 18.2819 8.31223 18.2375 8.40528 18.1797C8.59166 18.0639 8.85905 17.894 9.18067 17.6817C9.82516 17.2562 10.681 16.6618 11.5332 15.9834C12.3896 15.3017 13.2198 14.5529 13.8291 13.8194C14.4623 13.0571 14.75 12.4375 14.75 12Z" fill="#253035"/>
</svg>
