<svg width="24" height="24" viewBox="0 0 24 24" fill="none" xmlns="http://www.w3.org/2000/svg">
<path d="M19.6498 12C19.6498 8.56788 19.0905 6.51607 17.9164 5.29297C16.7509 4.07891 14.8024 3.5 11.5199 3.5C8.23751 3.50001 6.28889 4.07892 5.12341 5.29297C3.94932 6.51609 3.39002 8.56799 3.39001 12C3.39001 15.432 3.94933 17.4839 5.12341 18.707C6.28889 19.9211 8.23751 20.5 11.5199 20.5C14.8024 20.5 16.7509 19.9211 17.9164 18.707C19.0905 17.4839 19.6498 15.4321 19.6498 12ZM21.1498 12C21.1498 15.5049 20.5994 18.0784 18.9984 19.7461C17.3888 21.4227 14.8969 22 11.5199 22C8.1429 22 5.65099 21.4228 4.04138 19.7461C2.44044 18.0784 1.89001 15.5049 1.89001 12C1.89002 8.49513 2.44045 5.92155 4.04138 4.25391C5.65099 2.57725 8.14292 2.00001 11.5199 2C14.8969 2 17.3888 2.57732 18.9984 4.25391C20.5993 5.92155 21.1498 8.49513 21.1498 12Z" fill="#253035"/>
<path d="M9.52544 8.09413C9.76611 7.75713 10.2343 7.6788 10.5713 7.91933L10.5723 7.92031C10.5729 7.92072 10.5743 7.92156 10.5752 7.92226C10.5772 7.92364 10.5797 7.92571 10.5831 7.92812C10.5901 7.93317 10.6004 7.94021 10.6133 7.9496C10.6393 7.96846 10.6772 7.99568 10.7247 8.03066C10.8195 8.10061 10.954 8.20172 11.1153 8.32558C11.4369 8.57253 11.8686 8.91521 12.3028 9.29531C12.7331 9.67201 13.1851 10.1014 13.5352 10.5209C13.7101 10.7304 13.8745 10.9551 13.9981 11.183C14.1159 11.4002 14.2324 11.6849 14.2325 11.9994C14.2325 12.3141 14.1159 12.5995 13.9981 12.8168C13.8745 13.0446 13.71 13.2684 13.5352 13.4779C13.1852 13.8975 12.734 14.3275 12.3038 14.7045C11.8695 15.0849 11.4369 15.429 11.1153 15.6762C10.9542 15.7999 10.8194 15.9002 10.7247 15.9701C10.6772 16.0051 10.6393 16.0323 10.6133 16.0512C10.6005 16.0605 10.5911 16.0686 10.584 16.0736C10.5805 16.0762 10.5772 16.0781 10.5752 16.0795C10.5743 16.0801 10.5738 16.081 10.5733 16.0814C10.2363 16.3223 9.7663 16.2446 9.52544 15.9076C9.28474 15.5706 9.36332 15.1025 9.70024 14.8617L9.70122 14.8607C9.70248 14.8598 9.70427 14.8579 9.70708 14.8559L9.83403 14.7631C9.92208 14.6981 10.049 14.6037 10.2012 14.4867C10.507 14.2517 10.9122 13.929 11.3145 13.5766C11.7208 13.2206 12.1065 12.8495 12.3838 12.517C12.5225 12.3507 12.6194 12.2105 12.6788 12.101C12.7051 12.0523 12.7177 12.0188 12.7247 11.9994C12.7176 11.98 12.7059 11.9461 12.6797 11.8978C12.6204 11.7884 12.5225 11.649 12.3838 11.4828C12.1066 11.1506 11.7216 10.7798 11.3155 10.4242C10.9132 10.072 10.508 9.74988 10.2022 9.51503C10.0498 9.39798 9.92313 9.30265 9.83501 9.23769C9.79121 9.2054 9.75644 9.18111 9.73345 9.16445C9.72196 9.15612 9.71269 9.14993 9.70708 9.14589C9.70427 9.14387 9.70248 9.14191 9.70122 9.14101L9.70024 9.14003C9.36324 8.89936 9.28491 8.4312 9.52544 8.09413Z" fill="#253035"/>
</svg>
