<svg width="24" height="24" viewBox="0 0 24 24" fill="none" xmlns="http://www.w3.org/2000/svg">
<path d="M19.6498 12C19.6498 8.56788 19.0905 6.51607 17.9164 5.29297C16.7509 4.07891 14.8024 3.5 11.5199 3.5C8.23751 3.50001 6.28889 4.07892 5.12341 5.29297C3.94932 6.51609 3.39002 8.56799 3.39001 12C3.39001 15.432 3.94933 17.4839 5.12341 18.707C6.28889 19.9211 8.23751 20.5 11.5199 20.5C14.8024 20.5 16.7509 19.9211 17.9164 18.707C19.0905 17.4839 19.6498 15.4321 19.6498 12ZM21.1498 12C21.1498 15.5049 20.5994 18.0784 18.9984 19.7461C17.3888 21.4227 14.8969 22 11.5199 22C8.1429 22 5.65099 21.4228 4.04138 19.7461C2.44044 18.0784 1.89001 15.5049 1.89001 12C1.89002 8.49513 2.44045 5.92155 4.04138 4.25391C5.65099 2.57725 8.14292 2.00001 11.5199 2C14.8969 2 17.3888 2.57732 18.9984 4.25391C20.5993 5.92155 21.1498 8.49513 21.1498 12Z" fill="#A2B5BE"/>
<path d="M9.52541 8.09409C9.76608 7.75708 10.2342 7.67875 10.5713 7.91928H10.5723V7.92026C10.5729 7.92067 10.5742 7.92151 10.5752 7.92221C10.5771 7.9236 10.5797 7.92566 10.583 7.92807C10.5901 7.93313 10.6003 7.94017 10.6133 7.94956C10.6393 7.96842 10.6772 7.99564 10.7246 8.03061C10.8195 8.10056 10.954 8.20168 11.1153 8.32553C11.4368 8.57249 11.8686 8.91517 12.3028 9.29526C12.733 9.67197 13.185 10.1014 13.5352 10.5208C13.7101 10.7304 13.8744 10.955 13.9981 11.183C14.1159 11.4002 14.2324 11.6849 14.2324 11.9994C14.2324 12.314 14.1159 12.5994 13.9981 12.8167C13.8745 13.0446 13.71 13.2683 13.5352 13.4779C13.1852 13.8975 12.734 14.3275 12.3037 14.7044C11.8695 15.0849 11.4369 15.4289 11.1153 15.6761C10.9542 15.7999 10.8194 15.9001 10.7246 15.9701C10.6772 16.0051 10.6393 16.0322 10.6133 16.0511C10.6005 16.0604 10.591 16.0685 10.584 16.0736C10.5805 16.0761 10.5772 16.078 10.5752 16.0794C10.5743 16.0801 10.5738 16.081 10.5733 16.0814H10.5723C10.2353 16.3223 9.76627 16.2445 9.52541 15.9076C9.28471 15.5706 9.3633 15.1025 9.70021 14.8617L9.70119 14.8607C9.70245 14.8598 9.70424 14.8578 9.70705 14.8558L9.834 14.763C9.92205 14.6981 10.0489 14.6037 10.2012 14.4867C10.507 14.2516 10.9121 13.929 11.3145 13.5765C11.7208 13.2205 12.1065 12.8494 12.3838 12.5169C12.5225 12.3506 12.6194 12.2104 12.6787 12.1009C12.7051 12.0523 12.7177 12.0187 12.7246 11.9994C12.7176 11.9799 12.7059 11.9461 12.6797 11.8978C12.6204 11.7884 12.5225 11.649 12.3838 11.4828C12.1066 11.1506 11.7216 10.7798 11.3154 10.4242C10.9132 10.072 10.508 9.74984 10.2022 9.51499C10.0498 9.39794 9.92311 9.30261 9.83498 9.23764C9.79118 9.20535 9.75641 9.18107 9.73342 9.1644C9.72193 9.15607 9.71266 9.14988 9.70705 9.14585C9.70424 9.14383 9.70245 9.14187 9.70119 9.14096L9.70021 9.13999C9.36321 8.89931 9.28488 8.43115 9.52541 8.09409Z" fill="#253035"/>
</svg>
