<svg width="24" height="24" viewBox="0 0 24 24" fill="none" xmlns="http://www.w3.org/2000/svg">
<path d="M17.3291 17.0549C17.6215 16.7618 18.0964 16.7607 18.3897 17.053L21.8145 20.469C22.1077 20.7615 22.1089 21.2372 21.8164 21.5305C21.5239 21.8236 21.0491 21.8238 20.7559 21.5315L17.3311 18.1155C17.0379 17.823 17.0369 17.3482 17.3291 17.0549ZM13.1143 6.52367C13.2347 6.12753 13.6537 5.90347 14.0498 6.02367C15.6829 6.52032 16.9741 7.79042 17.4981 9.41039C17.6254 9.80442 17.4087 10.2273 17.0147 10.3547C16.6208 10.482 16.1979 10.2661 16.0703 9.8723C15.6974 8.71934 14.7773 7.81308 13.6143 7.45922C13.2181 7.33875 12.9941 6.91982 13.1143 6.52367Z" fill="#A2B5BE"/>
<path d="M19.7998 11.418C19.7998 7.18329 16.3674 3.75022 12.1328 3.75C7.89793 3.75 4.46484 7.18316 4.46484 11.418C4.4651 15.6527 7.8982 19.0859 12.1328 19.0859C16.3671 19.0857 19.7996 15.6526 19.7998 11.418ZM21.2998 11.418C21.2996 16.4808 17.1958 20.5857 12.1328 20.5859C7.06956 20.5859 2.9651 16.481 2.96484 11.418C2.96484 6.35472 7.06951 2.25 12.1328 2.25C17.1958 2.25022 21.2998 6.35486 21.2998 11.418Z" fill="#253035"/>
</svg>
