<svg width="24" height="24" viewBox="0 0 24 24" fill="none" xmlns="http://www.w3.org/2000/svg">
<path d="M9.3711 13.7417C10.8953 12.2174 13.3663 12.2174 14.8906 13.7417C15.1835 14.0346 15.1835 14.5094 14.8906 14.8023C14.5977 15.0949 14.1229 15.095 13.8301 14.8023C12.8916 13.8637 11.3701 13.8638 10.4316 14.8023C10.1388 15.095 9.66396 15.095 9.3711 14.8023C9.07824 14.5094 9.07834 14.0346 9.3711 13.7417Z" fill="#253035"/>
<path d="M19.7988 11.417C19.7988 7.18243 16.3664 3.75 12.1318 3.75C7.89734 3.75004 4.4649 7.18245 4.46484 11.417C4.46484 15.6517 7.89741 19.0849 12.1318 19.085C16.3663 19.085 19.7988 15.6517 19.7988 11.417ZM21.2988 11.417C21.2988 16.4799 17.195 20.585 12.1318 20.585C7.06877 20.5849 2.96484 16.4799 2.96484 11.417C2.9649 6.35402 7.06891 2.25004 12.1318 2.25C17.1948 2.25 21.2988 6.354 21.2988 11.417Z" fill="#253035"/>
<path d="M17.3282 17.0547C17.6206 16.7615 18.0954 16.7605 18.3887 17.0527L21.8135 20.4688C22.1067 20.7612 22.1077 21.236 21.8155 21.5293C21.523 21.8225 21.0482 21.8235 20.7549 21.5313L17.3301 18.1152C17.0369 17.8228 17.0359 17.348 17.3282 17.0547Z" fill="#253035"/>
<path d="M9.74024 8.45752C10.1544 8.45756 10.4902 8.79333 10.4902 9.20752C10.4902 9.62171 10.1544 9.95748 9.74024 9.95752H9.72656C9.31235 9.95752 8.97656 9.62173 8.97656 9.20752C8.97656 8.79331 9.31235 8.45752 9.72656 8.45752H9.74024ZM14.5371 8.45752C14.9513 8.45752 15.2871 8.79331 15.2871 9.20752C15.2871 9.62173 14.9513 9.95752 14.5371 9.95752H14.5234C14.1093 9.95738 13.7734 9.62164 13.7734 9.20752C13.7734 8.79339 14.1093 8.45766 14.5234 8.45752H14.5371Z" fill="#253035"/>
</svg>
