<svg width="24" height="24" viewBox="0 0 24 24" fill="none" xmlns="http://www.w3.org/2000/svg">
<path d="M17.3291 17.0547C17.6215 16.7615 18.0963 16.7605 18.3896 17.0527L21.8144 20.4688C22.1077 20.7613 22.1089 21.237 21.8164 21.5303C21.5239 21.8233 21.0491 21.8236 20.7558 21.5312L17.331 18.1152C17.0379 17.8228 17.0369 17.348 17.3291 17.0547Z" fill="#253035"/>
<path fill-rule="evenodd" clip-rule="evenodd" d="M12.1328 3C16.7816 3.00022 20.5498 6.76907 20.5498 11.418C20.5496 16.0667 16.7815 19.8357 12.1328 19.8359C7.48388 19.8359 3.7151 16.0669 3.71484 11.418C3.71484 6.76894 7.48372 3 12.1328 3ZM14.0498 6.02344C13.6537 5.90326 13.2348 6.12744 13.1143 6.52344C12.9941 6.91959 13.2181 7.33851 13.6143 7.45898C14.7772 7.81283 15.6973 8.7192 16.0703 9.87207C16.1979 10.2658 16.6207 10.4817 17.0146 10.3545C17.4086 10.227 17.6253 9.80414 17.498 9.41016C16.974 7.79028 15.6829 6.52007 14.0498 6.02344Z" fill="#253035"/>
</svg>
