<svg width="24" height="24" viewBox="0 0 24 24" fill="none" xmlns="http://www.w3.org/2000/svg">
<path d="M19.7998 11.418C19.7998 7.18329 16.3674 3.75022 12.1328 3.75C7.89793 3.75 4.46484 7.18316 4.46484 11.418C4.4651 15.6527 7.8982 19.0859 12.1328 19.0859C16.3671 19.0857 19.7996 15.6526 19.7998 11.418ZM13.1143 6.52344C13.2347 6.12731 13.6537 5.90326 14.0498 6.02344C15.6829 6.52009 16.974 7.79019 17.498 9.41016C17.6253 9.80419 17.4087 10.227 17.0146 10.3545C16.6208 10.4817 16.1979 10.2658 16.0703 9.87207C15.6974 8.7191 14.7773 7.81285 13.6143 7.45898C13.2181 7.33851 12.9941 6.91959 13.1143 6.52344ZM21.2998 11.418C21.2997 13.7905 20.3978 15.9521 18.9189 17.5801L21.8145 20.4688C22.1077 20.7613 22.1089 21.237 21.8164 21.5303C21.5239 21.8233 21.0491 21.8236 20.7559 21.5312L17.8213 18.6035C16.258 19.8431 14.2829 20.5858 12.1328 20.5859C7.06956 20.5859 2.9651 16.481 2.96484 11.418C2.96484 6.35472 7.06951 2.25 12.1328 2.25C17.1958 2.25022 21.2998 6.35486 21.2998 11.418Z" fill="#253035"/>
</svg>
