<svg width="24" height="24" viewBox="0 0 24 24" fill="none" xmlns="http://www.w3.org/2000/svg">
<path d="M2.5 15.7529V8.24707C2.5 6.64879 3.00214 5.20329 3.98535 4.14844C4.97594 3.08578 6.38102 2.5 8.0166 2.5H10.1201C10.6724 2.5 11.1201 2.94772 11.1201 3.5C11.1201 4.05228 10.6724 4.5 10.1201 4.5H8.0166C6.87647 4.5 6.02286 4.89731 5.44922 5.5127C4.86832 6.13586 4.5 7.06406 4.5 8.24707V15.7529L4.50391 15.9727C4.54636 17.0526 4.90304 17.9047 5.44629 18.4883C6.0183 19.1027 6.87164 19.5 8.0166 19.5H15.9814C17.127 19.5 17.9814 19.1028 18.5537 18.4883C19.1335 17.8657 19.5 16.9371 19.5 15.7529V14.1094C19.5 13.5571 19.9477 13.1094 20.5 13.1094C21.0523 13.1094 21.5 13.5571 21.5 14.1094V15.7529C21.5 17.3502 21.0006 18.7961 20.0176 19.8516C19.0271 20.9151 17.6209 21.5 15.9814 21.5H8.0166C6.37743 21.5 4.97252 20.9142 3.98242 19.8506C3.0613 18.8611 2.56433 17.5294 2.50586 16.0508L2.5 15.7529Z" fill="#253035"/>
<path d="M21.5 8.07422C21.4998 8.62629 21.052 9.07408 20.5 9.07422C19.9478 9.07422 19.5001 8.62638 19.5 8.07422V5.91406L14.0761 11.3379C13.6856 11.7282 13.0526 11.7282 12.6621 11.3379C12.2716 10.9474 12.2717 10.3144 12.6621 9.92383L18.0859 4.5H15.9257C15.3735 4.49997 14.9257 4.05226 14.9257 3.5C14.9257 2.94774 15.3735 2.50003 15.9257 2.5H20.5C21.0521 2.50014 21.5 2.9478 21.5 3.5V8.07422Z" fill="#253035"/>
</svg>
