<svg width="24" height="24" viewBox="0 0 24 24" fill="none" xmlns="http://www.w3.org/2000/svg">
<path d="M2.75 15.7529V8.24707C2.75 6.70064 3.23595 5.32024 4.16895 4.31934C5.10742 3.31258 6.44295 2.75 8.0166 2.75H10.1201C10.5343 2.75 10.8701 3.08579 10.8701 3.5C10.8701 3.91421 10.5343 4.25 10.1201 4.25H8.0166C6.81453 4.25 5.89139 4.67051 5.26562 5.3418C4.6345 6.01893 4.25 7.01222 4.25 8.24707V15.7529C4.25 16.9886 4.63299 17.9815 5.2627 18.6582C5.88697 19.3288 6.80978 19.75 8.0166 19.75H15.9814C17.1888 19.75 18.1117 19.3289 18.7363 18.6582C19.3665 17.9815 19.75 16.9887 19.75 15.7529V14.1094C19.75 13.6952 20.0858 13.3594 20.5 13.3594C20.9142 13.3594 21.25 13.6952 21.25 14.1094V15.7529C21.25 17.2985 20.7666 18.6793 19.834 19.6807C18.8958 20.688 17.5592 21.25 15.9814 21.25H8.0166C6.4392 21.25 5.10288 20.6881 4.16504 19.6807C3.23287 18.6793 2.75 17.2984 2.75 15.7529Z" fill="#A2B5BE"/>
<path d="M21.25 8.07422C21.2498 8.48822 20.914 8.82408 20.5 8.82422C20.0858 8.82422 19.7501 8.4883 19.75 8.07422V5.31055L13.8994 11.1611C13.6065 11.4539 13.1317 11.4539 12.8388 11.1611C12.546 10.8683 12.5461 10.3935 12.8388 10.1006L18.6894 4.25H15.9258C15.5116 4.24997 15.1758 3.91419 15.1758 3.5C15.1758 3.08581 15.5116 2.75003 15.9258 2.75H20.5C20.9141 2.75014 21.25 3.08587 21.25 3.5V8.07422Z" fill="#253035"/>
</svg>
