<svg width="24" height="24" viewBox="0 0 24 24" fill="none" xmlns="http://www.w3.org/2000/svg">
<path d="M18.9069 13.2747C18.9069 11.6681 18.9246 10.4316 18.941 9.47192C18.9576 8.50572 18.973 7.83804 18.9694 7.34888C18.9656 6.84861 18.9408 6.61164 18.9059 6.47681C18.8846 6.39485 18.8657 6.36145 18.7887 6.28442C18.5755 6.07121 17.7158 5.46416 16.4371 4.90649C15.1796 4.35808 13.6045 3.89673 11.985 3.89673C10.3656 3.89677 8.79056 4.35811 7.53284 4.90649C6.25384 5.46418 5.39346 6.07126 5.1803 6.28442C5.10345 6.3613 5.08434 6.39492 5.06311 6.47681C5.02825 6.61165 5.00437 6.84873 5.00061 7.34888C4.99695 7.83804 5.01136 8.50572 5.02795 9.47192C5.04443 10.4316 5.06213 11.6681 5.06213 13.2747C5.06213 16.2414 6.28785 18.2191 7.75842 19.468C9.2608 20.7438 11.01 21.2511 11.985 21.2512C12.9593 21.2512 14.7082 20.7439 16.2106 19.468C17.6811 18.2191 18.9069 16.2416 18.9069 13.2747ZM20.4069 13.2747C20.4069 16.7126 18.9641 19.0982 17.1823 20.6116C15.4321 22.0979 13.3446 22.7512 11.985 22.7512C10.6249 22.7512 8.53789 22.0978 6.78772 20.6116C5.00566 19.0982 3.56213 16.7127 3.56213 13.2747C3.56213 11.6794 3.54532 10.4519 3.52893 9.49731C3.51265 8.54925 3.49677 7.85171 3.50061 7.33813C3.50436 6.83647 3.52575 6.43236 3.61194 6.09985C3.71178 5.71484 3.88904 5.45466 4.11975 5.22388C4.52259 4.82104 5.57597 4.12331 6.93323 3.53149C8.31156 2.93052 10.0957 2.39677 11.985 2.39673C13.8743 2.39673 15.6586 2.93048 17.0367 3.53149C18.3938 4.12333 19.4465 4.82109 19.8492 5.22388C20.0801 5.45474 20.2582 5.71466 20.358 6.09985C20.4442 6.43236 20.4656 6.83647 20.4694 7.33813C20.4732 7.8517 20.4573 8.54925 20.441 9.49731C20.4246 10.4519 20.4069 11.6794 20.4069 13.2747Z" fill="#253035"/>
<path d="M9.57483 9.93222C9.86769 9.63936 10.3425 9.63939 10.6354 9.93222L14.3942 13.69C14.6871 13.9829 14.687 14.4577 14.3942 14.7506C14.1013 15.0434 13.6265 15.0434 13.3336 14.7506L9.57483 10.9928C9.28196 10.6999 9.282 10.2251 9.57483 9.93222Z" fill="#253035"/>
<path d="M13.3338 9.93223C13.6267 9.63943 14.1015 9.63947 14.3944 9.93223C14.6872 10.2252 14.6873 10.6999 14.3944 10.9928L10.6356 14.7506C10.3426 15.0434 9.86788 15.0435 9.57503 14.7506C9.2822 14.4577 9.2821 13.9829 9.57503 13.69L13.3338 9.93223Z" fill="#253035"/>
</svg>
