<svg width="24" height="24" viewBox="0 0 24 24" fill="none" xmlns="http://www.w3.org/2000/svg">
<path d="M20.4736 10.9904C21.5303 10.9904 22.3641 11.9165 22.2373 12.9738C22.1553 13.6569 22.0054 14.3218 21.792 14.9611C21.03 17.2461 19.4861 19.1714 17.4785 20.4133L17.0713 20.6525C16.3579 21.0498 15.5577 21.2326 14.7676 21.2326H10.2344C9.53944 21.2326 8.83837 21.0912 8.19532 20.7893L7.92383 20.6496C5.22614 19.1492 3.28463 16.4544 2.80469 13.2766L2.7627 12.967C2.63648 11.9078 3.47713 10.9907 4.5254 10.9904H20.4736ZM4.5254 12.4904C4.35817 12.4907 4.23474 12.6396 4.25196 12.7883L4.28711 13.052C4.69598 15.7598 6.35176 18.059 8.65333 19.3391C9.12379 19.601 9.67044 19.7326 10.2344 19.7326H14.7676C15.3297 19.7326 15.8742 19.6024 16.3418 19.342C18.2219 18.2971 19.6748 16.5655 20.3682 14.4865C20.5497 13.9427 20.6782 13.3768 20.7481 12.7951V12.7375C20.7341 12.6039 20.6183 12.4904 20.4736 12.4904H4.5254Z" fill="#253035"/>
<path d="M21.1113 13.9692C21.5256 13.9692 21.8613 14.305 21.8613 14.7192C21.8613 15.1334 21.5256 15.4692 21.1113 15.4692H4.01271C3.59849 15.4692 3.26271 15.1334 3.26271 14.7192C3.26271 14.305 3.59849 13.9692 4.01271 13.9692H21.1113Z" fill="#253035"/>
<path d="M14.081 3.40258C14.1447 2.99331 14.5282 2.7129 14.9375 2.7766C15.3467 2.84031 15.6271 3.22383 15.5634 3.63305L14.7353 8.9514C14.6716 9.36063 14.2881 9.641 13.8789 9.57738C13.4697 9.51367 13.1893 9.13014 13.2529 8.72094L14.081 3.40258ZM18.4726 4.3098C18.6627 3.94191 19.1154 3.79763 19.4834 3.98754C19.8514 4.17756 19.9956 4.63022 19.8056 4.99828L17.6465 9.17992C17.4565 9.5479 17.0047 9.69204 16.6367 9.50219C16.2688 9.31225 16.1238 8.86039 16.3134 8.49242L18.4726 4.3098Z" fill="#253035"/>
</svg>
