<svg width="24" height="24" viewBox="0 0 24 24" fill="none" xmlns="http://www.w3.org/2000/svg">
<path d="M21.1113 13.9692C21.5255 13.9692 21.8613 14.305 21.8613 14.7192C21.8613 15.1334 21.5255 15.4692 21.1113 15.4692H4.0127C3.59848 15.4692 3.2627 15.1334 3.2627 14.7192C3.2627 14.305 3.59848 13.9692 4.0127 13.9692H21.1113Z" fill="#A2B5BE"/>
<path d="M14.081 3.40258C14.1447 2.99331 14.5282 2.7129 14.9375 2.7766C15.3467 2.84031 15.627 3.22383 15.5634 3.63305L14.7353 8.9514C14.6716 9.36063 14.2881 9.641 13.8789 9.57738C13.4697 9.51367 13.1893 9.13014 13.2529 8.72094L14.081 3.40258ZM18.4726 4.3098C18.6627 3.94191 19.1154 3.79763 19.4834 3.98754C19.8514 4.17756 19.9956 4.63022 19.8056 4.99828L17.6464 9.17992C17.4565 9.54791 17.0047 9.69204 16.6367 9.50219C16.2688 9.31225 16.1238 8.86039 16.3134 8.49242L18.4726 4.3098Z" fill="#A2B5BE"/>
<path d="M20.4736 10.9902C21.5303 10.9902 22.3641 11.9163 22.2373 12.9736C22.1553 13.6567 22.0054 14.3216 21.792 14.9609C21.03 17.2459 19.4861 19.1712 17.4785 20.4131L17.0713 20.6523C16.3579 21.0496 15.5577 21.2324 14.7676 21.2324H10.2344C9.53944 21.2324 8.83837 21.091 8.19532 20.7891L7.92383 20.6494C5.22614 19.149 3.28463 16.4542 2.80469 13.2764L2.7627 12.9668C2.63648 11.9076 3.47713 10.9905 4.5254 10.9902H20.4736ZM4.5254 12.4902C4.35817 12.4905 4.23474 12.6394 4.25196 12.7881L4.28711 13.0518C4.69598 15.7596 6.35176 18.0588 8.65333 19.3389C9.12379 19.6008 9.67044 19.7324 10.2344 19.7324H14.7676C15.3297 19.7324 15.8742 19.6022 16.3418 19.3418H16.3428C18.2229 18.297 19.6748 16.5653 20.3682 14.4863H20.3691C20.5507 13.9425 20.6782 13.3766 20.7481 12.7949C20.7668 12.6381 20.6388 12.4902 20.4736 12.4902H4.5254Z" fill="#253035"/>
</svg>
