<svg width="24" height="24" viewBox="0 0 24 24" fill="none" xmlns="http://www.w3.org/2000/svg">
<path d="M6.76367 6.60547C6.76367 6.19126 7.09946 5.85547 7.51367 5.85547C7.92767 5.85572 8.26367 6.19141 8.26367 6.60547V18.9229C8.26367 19.2264 8.0803 19.5002 7.79981 19.6162C7.51915 19.7321 7.19569 19.6673 6.98145 19.4521L3.96875 16.4258C3.67649 16.1323 3.67719 15.6575 3.9707 15.3652C4.26412 15.0731 4.73896 15.074 5.03125 15.3672L6.76367 17.1064V6.60547Z" fill="#253035"/>
<path d="M13.9756 17.1943C14.3896 17.1946 14.7256 17.5303 14.7256 17.9443C14.7256 18.3584 14.3896 18.6941 13.9756 18.6943H11.6055C11.1913 18.6943 10.8555 18.3585 10.8555 17.9443C10.8555 17.5301 11.1913 17.1943 11.6055 17.1943H13.9756ZM16.6358 12.0811C17.0499 12.0811 17.3858 12.4169 17.3858 12.8311C17.3858 13.2452 17.0499 13.581 16.6358 13.5811H11.6055C11.1913 13.5811 10.8555 13.2453 10.8555 12.8311C10.8555 12.4169 11.1913 12.0811 11.6055 12.0811H16.6358ZM20.501 6.96875C20.9151 6.96891 21.251 7.30464 21.251 7.71875C21.251 8.13286 20.9151 8.46858 20.501 8.46875H11.6055C11.1913 8.46875 10.8555 8.13296 10.8555 7.71875C10.8555 7.30454 11.1913 6.96875 11.6055 6.96875H20.501Z" fill="#253035"/>
</svg>
