<svg width="24" height="24" viewBox="0 0 24 24" fill="none" xmlns="http://www.w3.org/2000/svg">
<path fill-rule="evenodd" clip-rule="evenodd" d="M2.25 5.94057C2.25 4.153 3.69889 2.7041 5.48647 2.7041H15.4323C17.2199 2.7041 18.6688 4.153 18.6688 5.94057V12.5711C18.6688 14.3587 17.2199 15.8076 15.4323 15.8076H10.7745C10.7552 15.8076 10.7366 15.8147 10.7221 15.8275L7.9177 18.3204C7.16677 18.9879 5.9797 18.4548 5.9797 17.4501V15.8076H5.48647C3.69889 15.8076 2.25 14.3587 2.25 12.5711V5.94057ZM5.48647 4.2041C4.52732 4.2041 3.75 4.98142 3.75 5.94057V12.5711C3.75 13.5303 4.52732 14.3076 5.48647 14.3076H6.31529C6.95837 14.3076 7.4797 14.8289 7.4797 15.472V16.7028L9.7256 14.7064C10.0146 14.4495 10.3878 14.3076 10.7745 14.3076H15.4323C16.3915 14.3076 17.1688 13.5303 17.1688 12.5711V5.94057C17.1688 4.98142 16.3915 4.2041 15.4323 4.2041H5.48647Z" fill="#253035"/>
<path fill-rule="evenodd" clip-rule="evenodd" d="M2.25 5.94057C2.25 4.153 3.69889 2.7041 5.48647 2.7041H15.4323C17.2199 2.7041 18.6688 4.153 18.6688 5.94057V12.5711C18.6688 14.3587 17.2199 15.8076 15.4323 15.8076H10.7745C10.7552 15.8076 10.7366 15.8147 10.7221 15.8275L7.9177 18.3204C7.16677 18.9879 5.9797 18.4548 5.9797 17.4501V15.8076H5.48647C3.69889 15.8076 2.25 14.3587 2.25 12.5711V5.94057ZM5.48647 4.2041C4.52732 4.2041 3.75 4.98142 3.75 5.94057V12.5711C3.75 13.5303 4.52732 14.3076 5.48647 14.3076H6.31529C6.95837 14.3076 7.4797 14.8289 7.4797 15.472V16.7028L9.7256 14.7064C10.0146 14.4495 10.3878 14.3076 10.7745 14.3076H15.4323C16.3915 14.3076 17.1688 13.5303 17.1688 12.5711V5.94057C17.1688 4.98142 16.3915 4.2041 15.4323 4.2041H5.48647Z" fill="#253035"/>
<path fill-rule="evenodd" clip-rule="evenodd" d="M2.25 5.94057C2.25 4.153 3.69889 2.7041 5.48647 2.7041H15.4323C17.2199 2.7041 18.6688 4.153 18.6688 5.94057V12.5711C18.6688 14.3587 17.2199 15.8076 15.4323 15.8076H10.7745C10.7552 15.8076 10.7366 15.8147 10.7221 15.8275L7.9177 18.3204C7.16677 18.9879 5.9797 18.4548 5.9797 17.4501V15.8076H5.48647C3.69889 15.8076 2.25 14.3587 2.25 12.5711V5.94057ZM16.6583 14.7064C15.6992 14.7064 4.5 14.0408 4.5 15L3.5 13C3.5 13.9592 4.52732 14.3076 5.48647 14.3076H6.31529C6.62946 14.5279 6 14.5 7 14.5L9.5 14.4846L10 14.5C10.5 14.5 10.3878 14.3076 10.7745 14.3076H15.4323C16.3915 14.3076 17.1688 13.5303 17.1688 12.5711V5.94057C17.1688 4.98142 18.9592 12.5711 18 12.5711L16.6583 14.7064Z" fill="#253035"/>
<path fill-rule="evenodd" clip-rule="evenodd" d="M21 9.56934C20.5858 9.56934 20.25 9.90512 20.25 10.3193V16.006C20.25 16.7697 19.6311 17.3885 18.8675 17.3885H18.1567C17.5462 17.3885 17.0512 17.8834 17.0512 18.494V19.3117L15.3027 17.7575C15.0353 17.5198 14.69 17.3885 14.3322 17.3885H11.2746C10.8604 17.3885 10.5246 17.7243 10.5246 18.1385C10.5246 18.5527 10.8604 18.8885 11.2746 18.8885H14.3173L16.7114 21.0166C17.4243 21.6503 18.5512 21.1442 18.5512 20.1904V18.8885H18.8675C20.4596 18.8885 21.75 17.5981 21.75 16.006V10.3193C21.75 9.90512 21.4142 9.56934 21 9.56934Z" fill="#253035"/>
<path fill-rule="evenodd" clip-rule="evenodd" d="M21 9.56934C20.5858 9.56934 20.25 9.90512 20.25 10.3193V16.006C20.25 16.7697 19.6311 17.3885 18.8675 17.3885H18.1567C17.5462 17.3885 17.0512 17.8834 17.0512 18.494V19.3117L15.3027 17.7575C15.0353 17.5198 14.69 17.3885 14.3322 17.3885H11.2746C10.8604 17.3885 10.5246 17.7243 10.5246 18.1385C10.5246 18.5527 10.8604 18.8885 11.2746 18.8885H14.3173L16.7114 21.0166C17.4243 21.6503 18.5512 21.1442 18.5512 20.1904V18.8885H18.8675C20.4596 18.8885 21.75 17.5981 21.75 16.006V10.3193C21.75 9.90512 21.4142 9.56934 21 9.56934Z" fill="#253035"/>
<path fill-rule="evenodd" clip-rule="evenodd" d="M21 9.56934C20.5858 9.56934 20.25 9.90512 20.25 10.3193V16.006C20.25 16.7697 19.6311 17.3885 18.8675 17.3885H18.1567C17.5462 17.3885 17.0512 17.8834 17.0512 18.494V19.3117L15.3027 17.7575C15.0353 17.5198 14.69 17.3885 14.3322 17.3885H11.2746C10.8604 17.3885 10.5246 17.7243 10.5246 18.1385C10.5246 18.5527 10.8604 18.8885 11.2746 18.8885H14.3173L16.7114 21.0166C17.4243 21.6503 18.5512 21.1442 18.5512 20.1904V18.8885H18.8675C20.4596 18.8885 21.75 17.5981 21.75 16.006V10.3193C21.75 9.90512 21.4142 9.56934 21 9.56934Z" fill="#253035"/>
</svg>
