<svg width="24" height="24" viewBox="0 0 24 24" fill="none" xmlns="http://www.w3.org/2000/svg">
<path d="M21.1348 13.2293C21.1346 12.382 20.4468 11.6951 19.5987 11.6951C18.7507 11.6953 18.0637 12.3821 18.0635 13.2293C18.0635 14.077 18.7509 14.7652 19.5987 14.7654C20.4465 14.7654 21.1348 14.0772 21.1348 13.2293ZM22.6348 13.2293C22.6348 14.9056 21.275 16.2654 19.5987 16.2654C17.9225 16.2652 16.5635 14.9055 16.5635 13.2293C16.5637 11.5529 17.923 10.1953 19.5987 10.1951C21.2744 10.1951 22.6346 11.5528 22.6348 13.2293Z" fill="#253035"/>
<path d="M8.33398 15.743V14.6014C8.33398 14.1872 8.66977 13.8514 9.08398 13.8514C9.4982 13.8514 9.83398 14.1872 9.83398 14.6014V15.743C9.83398 18.2322 11.8516 20.2498 14.3408 20.2498C16.829 20.2498 18.8467 18.2323 18.8467 15.743V15.5155C18.8467 15.1013 19.1825 14.7655 19.5967 14.7655C20.0109 14.7655 20.3467 15.1012 20.3467 15.5155V15.743C20.3467 19.0605 17.6576 21.7498 14.3408 21.7498C11.0231 21.7498 8.33398 19.0606 8.33398 15.743Z" fill="#253035"/>
<path d="M3.18652 9.39139V6.13455C3.18652 4.98735 3.59415 4.08878 4.31641 3.43826C5.0103 2.81344 5.93605 2.46887 6.89453 2.27323C7.30025 2.19041 7.69629 2.45255 7.7793 2.85819C7.86214 3.26403 7.60018 3.66011 7.19434 3.74295C6.36122 3.91303 5.7325 4.18136 5.32031 4.55252C4.93661 4.89803 4.68652 5.38054 4.68652 6.13455V9.39139C4.68652 10.6076 5.17613 11.6994 5.97559 12.5086L6.12793 12.6551C6.90973 13.3654 7.94896 13.7967 9.09277 13.7967C11.5201 13.7965 13.4893 11.8212 13.4893 9.39139V6.13455C13.4893 5.3834 13.2362 4.89798 12.8477 4.54862C12.4311 4.17417 11.7991 3.90392 10.9717 3.73416C10.566 3.65095 10.3046 3.25509 10.3877 2.8494C10.4709 2.44369 10.8668 2.18229 11.2725 2.26541C12.2278 2.46137 13.1545 2.80751 13.8506 3.43338C14.5747 4.08442 14.9893 4.98435 14.9893 6.13455V9.39139C14.9893 12.6462 12.352 15.2965 9.09277 15.2967C7.46101 15.2967 5.98286 14.6377 4.91504 13.5701L4.91211 13.5672C3.84873 12.4927 3.18652 11.0259 3.18652 9.39139Z" fill="#253035"/>
</svg>
