<svg width="24" height="24" viewBox="0 0 24 24" fill="none" xmlns="http://www.w3.org/2000/svg">
<path fill-rule="evenodd" clip-rule="evenodd" d="M18.6895 14.5092C17.9805 14.5092 17.4035 13.9352 17.4035 13.2302C17.4035 12.5182 17.9805 11.9392 18.6895 11.9392C19.3975 11.9392 19.9735 12.5182 19.9735 13.2302C19.9735 13.9352 19.3975 14.5092 18.6895 14.5092ZM21.9735 13.2302C21.9735 11.4152 20.5005 9.93918 18.6895 9.93918C16.8775 9.93918 15.4035 11.4152 15.4035 13.2302C15.4035 14.6662 16.3395 15.8762 17.6295 16.3182C17.3435 18.3922 15.5805 19.9992 13.4305 19.9992C11.0835 19.9992 9.17349 18.0882 9.17349 15.7392V15.4612C12.0925 14.9842 14.3295 12.4462 14.3295 9.38918V6.12918C14.3295 4.62518 13.6505 2.69218 10.4155 2.02018C9.87349 1.91118 9.34449 2.25418 9.23249 2.79618C9.12049 3.33718 9.46749 3.86618 10.0085 3.97918C12.0535 4.40318 12.3295 5.30418 12.3295 6.12918V9.38918C12.3295 11.6832 10.4685 13.5492 8.18149 13.5492C7.07249 13.5492 6.02849 13.1162 5.24549 12.3352C4.45949 11.5422 4.02649 10.4952 4.02649 9.38918V6.12918C4.02649 5.30018 4.29949 4.39818 6.33249 3.98918C6.87349 3.88018 7.22349 3.35418 7.11549 2.81218C7.00549 2.27118 6.47649 1.91918 5.93749 2.02918C2.70549 2.67918 2.02649 4.61718 2.02649 6.12918V9.38918C2.02649 11.0262 2.66549 12.5722 3.82949 13.7472C4.75149 14.6682 5.91449 15.2542 7.17349 15.4612V15.7392C7.17349 19.1912 9.98049 21.9992 13.4305 21.9992C16.6755 21.9992 19.3505 19.5142 19.6565 16.3472C20.9935 15.9322 21.9735 14.7002 21.9735 13.2302Z" fill="#253035"/>
</svg>
