<svg width="24" height="24" viewBox="0 0 24 24" fill="none" xmlns="http://www.w3.org/2000/svg">
<path d="M6.54883 17.3017C6.84173 17.0089 7.31651 17.0089 7.60937 17.3017C7.90221 17.5946 7.90226 18.0694 7.60937 18.3623L4.44043 21.5302C4.1475 21.8231 3.67274 21.8231 3.37988 21.5302C3.08703 21.2373 3.08696 20.7625 3.37988 20.4697L6.54883 17.3017Z" fill="#A2B5BE"/>
<path d="M12.5556 14.2822C12.8485 13.9893 13.3233 13.9893 13.6162 14.2822L15.5586 16.2246C15.8512 16.5175 15.8514 16.9923 15.5586 17.2851C15.2658 17.5779 14.7909 17.5777 14.498 17.2851L12.5556 15.3427C12.2627 15.0499 12.2627 14.5751 12.5556 14.2822Z" fill="#A2B5BE"/>
<path d="M13.9463 10.9931C14.2392 10.7002 14.714 10.7002 15.0069 10.9931L17.8994 13.8857C18.1923 14.1786 18.1923 14.6533 17.8994 14.9462C17.6065 15.2391 17.1318 15.2391 16.8389 14.9462L13.9463 12.0536C13.6534 11.7608 13.6534 11.286 13.9463 10.9931Z" fill="#A2B5BE"/>
<path d="M13.6787 4.56823C14.5079 4.53914 15.3081 4.84794 15.9756 5.4569L16.1074 5.58288L19.3281 8.80358L19.4541 8.93542C20.0641 9.60378 20.3732 10.4038 20.3437 11.2333C20.3125 12.1099 19.9063 12.9374 19.2344 13.6092L14.4814 18.3622C12.2913 20.5525 8.73905 20.5524 6.54883 18.3622C4.35907 16.1721 4.35863 12.6197 6.54883 10.4296L11.3018 5.67663C11.9741 5.0042 12.8022 4.59903 13.6787 4.56823ZM13.7314 6.06725C13.2974 6.08248 12.8146 6.28489 12.3623 6.73717L7.60937 11.4901C6.00518 13.0943 6.00518 15.6971 7.60937 17.3016C9.21377 18.906 11.8165 18.9061 13.4209 17.3016L18.1738 12.5487C18.6266 12.096 18.8292 11.6137 18.8447 11.1805C18.8599 10.7555 18.6982 10.2961 18.2666 9.86413L15.0469 6.64342C14.6167 6.21385 14.1574 6.05231 13.7314 6.06725Z" fill="#253035"/>
<path d="M17.6943 2.46967C17.9872 2.17678 18.462 2.17678 18.7549 2.46967L22.4394 6.15424C22.7323 6.44713 22.7323 6.92189 22.4394 7.21479C22.1465 7.50766 21.6718 7.50767 21.3789 7.21479L17.6943 3.53022C17.4014 3.23732 17.4014 2.76256 17.6943 2.46967Z" fill="#253035"/>
<path d="M19.5381 4.31342C19.831 4.02055 20.3057 4.0206 20.5986 4.31342C20.8915 4.60631 20.8915 5.08107 20.5986 5.37397L17.7178 8.25483C17.4249 8.54772 16.9501 8.54772 16.6572 8.25483C16.3644 7.96193 16.3644 7.48715 16.6572 7.19428L19.5381 4.31342Z" fill="#253035"/>
</svg>
