<svg width="24" height="24" viewBox="0 0 24 24" fill="none" xmlns="http://www.w3.org/2000/svg">
<path d="M16.9443 2.26086C17.4657 2.26305 17.9562 2.26715 18.335 2.27356C18.5238 2.27675 18.6889 2.28043 18.8174 2.28527C18.9216 2.28921 19.0611 2.29488 19.1572 2.31164L19.1563 2.31262C20.902 2.61342 22.2307 4.19039 22.2344 5.96496L22.25 8.43371C22.2517 9.49957 22.2422 10.5932 22.1982 11.0685C22.085 12.2969 21.5948 13.364 20.7822 14.2491L20.6152 14.4239C19.5872 15.4578 18.5565 16.4893 17.5254 17.5196L14.4307 20.6085C12.9326 22.1029 10.6034 22.1273 9.09375 20.631C7.34202 18.8949 5.59679 17.1505 3.86036 15.3976C2.36337 13.8869 2.38959 11.5586 3.88282 10.0616L10.0137 3.93078C11.115 2.83163 12.4674 2.26003 14.0332 2.25891C14.7214 2.25842 15.9013 2.25647 16.9443 2.26086ZM14.0342 3.75891C12.8718 3.75974 11.8983 4.16893 11.0732 4.99231C9.02842 7.03323 6.98527 9.07641 4.94434 11.1212L4.94336 11.1202C4.02432 12.0419 4.01832 13.4262 4.92579 14.3419C6.65866 16.0913 8.40072 17.8325 10.1494 19.5655C11.0643 20.4724 12.4484 20.4665 13.3711 19.546C15.4348 17.4881 17.4973 15.4314 19.5508 13.3663C20.228 12.6849 20.6167 11.8795 20.7041 10.9308L20.7285 10.505C20.7725 9.29166 20.7362 6.68679 20.7344 5.96887C20.7321 4.92039 19.926 3.96655 18.9014 3.79016L18.8994 3.78918C18.9246 3.79359 18.8981 3.78948 18.7607 3.7843C18.6474 3.78003 18.4944 3.77571 18.3096 3.77258C17.9406 3.76634 17.4579 3.76305 16.9385 3.76086C15.9001 3.75649 14.7247 3.75842 14.0342 3.75891Z" fill="#253035"/>
<path d="M16.4063 5.95618C17.5303 6.06251 18.4149 6.9299 18.5342 8.05286L18.5479 8.297C18.5549 9.58346 17.4881 10.6455 16.2051 10.6486C14.9199 10.6514 13.8496 9.60864 13.8438 8.31848C13.8383 7.03577 14.8681 5.95004 16.1621 5.94543L16.4063 5.95618ZM16.087 7.45032C15.6866 7.49495 15.342 7.85634 15.3438 8.31164C15.3458 8.76109 15.7295 9.14953 16.2012 9.14856C16.6632 9.14753 17.05 8.75346 17.0479 8.30676L17.043 8.21692C16.9975 7.77368 16.6376 7.44343 16.168 7.44543L16.087 7.45032Z" fill="#253035"/>
<path d="M8.01661 12.8409C8.3095 12.5481 8.78427 12.5481 9.07716 12.8409L11.6533 15.4171C11.9462 15.71 11.9462 16.1848 11.6533 16.4777C11.3604 16.7705 10.8857 16.7706 10.5928 16.4777L8.01661 13.9015C7.72372 13.6086 7.72372 13.1338 8.01661 12.8409Z" fill="#253035"/>
</svg>
