<svg width="24" height="24" viewBox="0 0 24 24" fill="none" xmlns="http://www.w3.org/2000/svg">
<path fill-rule="evenodd" clip-rule="evenodd" d="M17.3636 9.95471C16.9176 10.4047 16.3266 10.6537 15.7016 10.6547H15.6966C14.4036 10.6547 13.3466 9.61071 13.3406 8.32571V8.32471C13.3376 7.68971 13.5836 7.09171 14.0306 6.64071C14.4696 6.19771 15.0476 5.95371 15.6596 5.95171H15.6706C16.9936 5.95171 18.0356 6.98271 18.0446 8.30371C18.0486 8.92171 17.8066 9.50871 17.3636 9.95471ZM11.1516 16.4817C11.0046 16.6287 10.8126 16.7017 10.6206 16.7017C10.4286 16.7017 10.2376 16.6287 10.0906 16.4817L7.51359 13.9057C7.22059 13.6127 7.22059 13.1387 7.51359 12.8457C7.80659 12.5527 8.28059 12.5527 8.57359 12.8457L11.1516 15.4217C11.4446 15.7147 11.4446 16.1887 11.1516 16.4817ZM21.4856 6.62371L21.4806 5.96971C21.4776 4.30871 20.2426 2.84371 18.6116 2.56271C18.3816 2.52171 17.1846 2.50571 13.8476 2.51371H13.5296C12.0426 2.51471 10.7496 3.05271 9.68659 4.11171C7.64159 6.15371 5.59859 8.19671 3.55659 10.2417C2.16059 11.6417 2.15059 13.8307 3.53459 15.2257C5.27059 16.9777 7.01559 18.7237 8.76659 20.4587C9.46059 21.1457 10.3506 21.4897 11.2416 21.4897C12.1446 21.4897 13.0476 21.1387 13.7506 20.4357L14.0616 20.1257C16.0226 18.1707 17.9816 16.2157 19.9346 14.2517C20.8236 13.3557 21.3326 12.2787 21.4466 11.0507C21.5166 10.2887 21.4966 7.90471 21.4856 6.62371Z" fill="#253035"/>
<path fill-rule="evenodd" clip-rule="evenodd" d="M15.6693 7.45312C15.4443 7.48012 15.2523 7.53912 15.0963 7.69712C14.9303 7.86412 14.8393 8.08512 14.8403 8.31913C14.8433 8.77313 15.2343 9.15613 15.6963 9.15613H15.6983C15.9223 9.15513 16.1353 9.06413 16.2983 8.90013C16.4593 8.73812 16.5463 8.53013 16.5443 8.31413C16.5423 7.82212 16.1653 7.45312 15.6693 7.45312Z" fill="#253035"/>
<path fill-rule="evenodd" clip-rule="evenodd" d="M17.3636 9.95471C16.9176 10.4047 16.3266 10.6537 15.7016 10.6547H15.6966C14.4036 10.6547 13.3466 9.61071 13.3406 8.32571V8.32471C13.3376 7.68971 13.5836 7.09171 14.0306 6.64071C14.4696 6.19771 15.0476 5.95371 15.6596 5.95171H15.6706C16.9936 5.95171 18.0356 6.98271 18.0446 8.30371C18.0486 8.92171 17.8066 9.50871 17.3636 9.95471ZM11.1516 16.4817C11.0046 16.6287 10.8126 16.7017 10.6206 16.7017C10.4286 16.7017 10.2376 16.6287 10.0906 16.4817L7.51359 13.9057C7.22059 13.6127 7.22059 13.1387 7.51359 12.8457C7.80659 12.5527 8.28059 12.5527 8.57359 12.8457L11.1516 15.4217C11.4446 15.7147 11.4446 16.1887 11.1516 16.4817ZM21.4856 6.62371L21.4806 5.96971C21.4776 4.30871 20.2426 2.84371 18.6116 2.56271C18.3816 2.52171 17.1846 2.50571 13.8476 2.51371H13.5296C12.0426 2.51471 10.7496 3.05271 9.68659 4.11171C7.64159 6.15371 5.59859 8.19671 3.55659 10.2417C2.16059 11.6417 2.15059 13.8307 3.53459 15.2257C5.27059 16.9777 7.01559 18.7237 8.76659 20.4587C9.46059 21.1457 10.3506 21.4897 11.2416 21.4897C12.1446 21.4897 13.0476 21.1387 13.7506 20.4357L14.0616 20.1257C16.0226 18.1707 17.9816 16.2157 19.9346 14.2517C20.8236 13.3557 21.3326 12.2787 21.4466 11.0507C21.5166 10.2887 21.4966 7.90471 21.4856 6.62371Z" fill="#253035"/>
<path fill-rule="evenodd" clip-rule="evenodd" d="M15.6693 7.45312C15.4443 7.48012 15.2523 7.53912 15.0963 7.69712C14.9303 7.86412 14.8393 8.08512 14.8403 8.31913C14.8433 8.77313 15.2343 9.15613 15.6963 9.15613H15.6983C15.9223 9.15513 16.1353 9.06413 16.2983 8.90013C16.4593 8.73812 16.5463 8.53013 16.5443 8.31413C16.5423 7.82212 16.1653 7.45312 15.6693 7.45312Z" fill="#253035"/>
</svg>
