<svg width="24" height="24" viewBox="0 0 24 24" fill="none" xmlns="http://www.w3.org/2000/svg">
<path fill-rule="evenodd" clip-rule="evenodd" d="M16.5895 6.183C16.3995 6.577 16.3335 7.006 16.3635 7.428H15.3485V10.247C15.3485 10.662 15.0125 10.997 14.5985 10.997C14.1845 10.997 13.8485 10.662 13.8485 10.247V7.428H8.82354L12.1875 4.92C12.8895 4.396 13.2765 4.108 13.5675 3.999C14.2685 3.739 15.0395 3.85 15.6365 4.303C15.8835 4.489 16.1715 4.875 16.6955 5.579C16.7405 5.64 16.7765 5.686 16.8055 5.729C16.7635 5.823 16.6925 5.97 16.5895 6.183ZM15.3485 16.292C15.3485 16.706 15.0125 17.042 14.5985 17.042C14.1845 17.042 13.8485 16.706 13.8485 16.292V12.864C13.8485 12.45 14.1845 12.114 14.5985 12.114C15.0125 12.114 15.3485 12.45 15.3485 12.864V16.292ZM21.0965 16.006C21.0105 15.936 20.8925 15.874 20.4025 15.616C19.9915 15.4 19.7465 14.995 19.7465 14.532C19.7465 14.071 19.9915 13.668 20.4385 13.434C20.8885 13.199 21.0095 13.135 21.0945 13.065C21.3595 12.849 21.4355 12.724 21.4995 12.394C21.5155 12.315 21.5225 12.183 21.5225 11.917C21.5225 10.889 21.5225 10.372 21.3865 9.905C21.0575 8.769 20.1825 7.894 19.0475 7.566C18.7325 7.473 18.3825 7.445 17.8835 7.435C17.8435 7.235 17.8485 7.026 17.9425 6.833C18.1925 6.31 18.2445 6.197 18.2785 6.068C18.3785 5.683 18.3605 5.479 18.1825 5.103C18.1445 5.026 18.0665 4.908 17.8975 4.681C17.2715 3.841 16.9575 3.419 16.5395 3.105C15.5325 2.343 14.2245 2.151 13.0435 2.594C12.5525 2.776 12.1305 3.091 11.2905 3.717L6.55654 7.247C6.48854 7.298 6.43854 7.363 6.39254 7.43C5.73554 7.435 5.32654 7.457 4.95854 7.564C3.81854 7.893 2.94354 8.77 2.61454 9.91C2.47954 10.379 2.48054 10.894 2.48154 11.948C2.48254 12.184 2.48654 12.305 2.50254 12.393C2.56854 12.724 2.64554 12.849 2.90954 13.065C2.99354 13.132 3.11654 13.198 3.59754 13.452C4.00754 13.667 4.25154 14.072 4.25054 14.569C4.23554 14.995 3.99354 15.387 3.61754 15.593L3.50854 15.653C3.13454 15.859 2.94554 15.971 2.89254 16.015C2.62854 16.235 2.56254 16.347 2.49754 16.684C2.48354 16.761 2.47754 16.892 2.47754 17.157C2.47754 18.18 2.47754 18.695 2.61154 19.161C2.94154 20.301 3.81854 21.177 4.95654 21.505C5.42354 21.641 5.93754 21.641 6.96154 21.641H13.8485V18.854C13.8485 18.44 14.1845 18.104 14.5985 18.104C15.0125 18.104 15.3485 18.44 15.3485 18.854V21.641H17.0325C18.0615 21.641 18.5765 21.641 19.0455 21.504C20.1835 21.173 21.0585 20.298 21.3845 19.165C21.5235 18.694 21.5225 18.178 21.5215 17.152C21.5215 16.89 21.5155 16.761 21.4995 16.676C21.4355 16.345 21.3595 16.219 21.0965 16.006Z" fill="#253035"/>
<path fill-rule="evenodd" clip-rule="evenodd" d="M16.5895 6.183C16.3995 6.577 16.3335 7.006 16.3635 7.428H15.3485V10.247C15.3485 10.662 15.0125 10.997 14.5985 10.997C14.1845 10.997 13.8485 10.662 13.8485 10.247V7.428H8.82354L12.1875 4.92C12.8895 4.396 13.2765 4.108 13.5675 3.999C14.2685 3.739 15.0395 3.85 15.6365 4.303C15.8835 4.489 16.1715 4.875 16.6955 5.579C16.7405 5.64 16.7765 5.686 16.8055 5.729C16.7635 5.823 16.6925 5.97 16.5895 6.183ZM15.3485 16.292C15.3485 16.706 15.0125 17.042 14.5985 17.042C14.1845 17.042 13.8485 16.706 13.8485 16.292V12.864C13.8485 12.45 14.1845 12.114 14.5985 12.114C15.0125 12.114 15.3485 12.45 15.3485 12.864V16.292ZM21.0965 16.006C21.0105 15.936 20.8925 15.874 20.4025 15.616C19.9915 15.4 19.7465 14.995 19.7465 14.532C19.7465 14.071 19.9915 13.668 20.4385 13.434C20.8885 13.199 21.0095 13.135 21.0945 13.065C21.3595 12.849 21.4355 12.724 21.4995 12.394C21.5155 12.315 21.5225 12.183 21.5225 11.917C21.5225 10.889 21.5225 10.372 21.3865 9.905C21.0575 8.769 20.1825 7.894 19.0475 7.566C18.7325 7.473 18.3825 7.445 17.8835 7.435C17.8435 7.235 17.8485 7.026 17.9425 6.833C18.1925 6.31 18.2445 6.197 18.2785 6.068C18.3785 5.683 18.3605 5.479 18.1825 5.103C18.1445 5.026 18.0665 4.908 17.8975 4.681C17.2715 3.841 16.9575 3.419 16.5395 3.105C15.5325 2.343 14.2245 2.151 13.0435 2.594C12.5525 2.776 12.1305 3.091 11.2905 3.717L6.55654 7.247C6.48854 7.298 6.43854 7.363 6.39254 7.43C5.73554 7.435 5.32654 7.457 4.95854 7.564C3.81854 7.893 2.94354 8.77 2.61454 9.91C2.47954 10.379 2.48054 10.894 2.48154 11.948C2.48254 12.184 2.48654 12.305 2.50254 12.393C2.56854 12.724 2.64554 12.849 2.90954 13.065C2.99354 13.132 3.11654 13.198 3.59754 13.452C4.00754 13.667 4.25154 14.072 4.25054 14.569C4.23554 14.995 3.99354 15.387 3.61754 15.593L3.50854 15.653C3.13454 15.859 2.94554 15.971 2.89254 16.015C2.62854 16.235 2.56254 16.347 2.49754 16.684C2.48354 16.761 2.47754 16.892 2.47754 17.157C2.47754 18.18 2.47754 18.695 2.61154 19.161C2.94154 20.301 3.81854 21.177 4.95654 21.505C5.42354 21.641 5.93754 21.641 6.96154 21.641H13.8485V18.854C13.8485 18.44 14.1845 18.104 14.5985 18.104C15.0125 18.104 15.3485 18.44 15.3485 18.854V21.641H17.0325C18.0615 21.641 18.5765 21.641 19.0455 21.504C20.1835 21.173 21.0585 20.298 21.3845 19.165C21.5235 18.694 21.5225 18.178 21.5215 17.152C21.5215 16.89 21.5155 16.761 21.4995 16.676C21.4355 16.345 21.3595 16.219 21.0965 16.006Z" fill="#253035"/>
</svg>
