<svg width="24" height="24" viewBox="0 0 24 24" fill="none" xmlns="http://www.w3.org/2000/svg">
<path opacity="0.4" d="M20.4998 13.0001C20.4998 9.57323 19.919 7.5268 18.696 6.30383C17.4731 5.08088 15.4266 4.50012 11.9998 4.50012C8.57286 4.50013 6.52644 5.08087 5.30347 6.30383C4.08049 7.5268 3.49976 9.57323 3.49976 13.0001C3.49976 16.427 4.08049 18.4734 5.30347 19.6964C6.52644 20.9194 8.57287 21.5001 11.9998 21.5001C15.4266 21.5001 17.4731 20.9194 18.696 19.6964C19.919 18.4734 20.4998 16.427 20.4998 13.0001ZM21.9998 13.0001C21.9998 16.5102 21.4244 19.0892 19.7566 20.757C18.0888 22.4247 15.5098 23.0001 11.9998 23.0001C8.48966 23.0001 5.9107 22.4247 4.24292 20.757C2.57514 19.0892 1.99976 16.5102 1.99976 13.0001C1.99976 9.49004 2.57514 6.91106 4.24292 5.24329C5.9107 3.57552 8.48966 3.00013 11.9998 3.00012C15.5098 3.00012 18.0888 3.57553 19.7566 5.24329C21.4244 6.91106 21.9998 9.49003 21.9998 13.0001Z" fill="#253035"/>
<path d="M15.03 10.0968C15.3229 9.804 15.7977 9.80396 16.0906 10.0968C16.3834 10.3897 16.3834 10.8645 16.0906 11.1574L11.3445 15.9035C11.0516 16.1963 10.5768 16.1963 10.2839 15.9035L7.9099 13.5304C7.61704 13.2376 7.6171 12.7628 7.9099 12.4699C8.20274 12.177 8.67752 12.1771 8.97045 12.4699L10.8132 14.3127L15.03 10.0968Z" fill="#253035"/>
</svg>
