<svg width="24" height="24" viewBox="0 0 24 24" fill="none" xmlns="http://www.w3.org/2000/svg">
<path d="M12.0654 11.7344C12.4796 11.7344 12.8154 12.0702 12.8154 12.4844C12.8154 12.8986 12.4796 13.2344 12.0654 13.2344H7.35938C6.94516 13.2344 6.60938 12.8986 6.60938 12.4844C6.60938 12.0702 6.94516 11.7344 7.35938 11.7344H12.0654Z" fill="#253035"/>
<path d="M12.0654 7.47266C12.4796 7.47266 12.8154 7.80844 12.8154 8.22266C12.8154 8.63687 12.4796 8.97266 12.0654 8.97266H10.1914C9.77718 8.97266 9.4414 8.63687 9.4414 8.22266C9.4414 7.80844 9.77718 7.47266 10.1914 7.47266H12.0654Z" fill="#253035"/>
<path d="M20.8096 8.69043C20.8096 7.73145 20.8083 7.05555 20.7666 6.52734C20.7255 6.0075 20.6488 5.69426 20.5293 5.4502C20.2608 4.90216 19.8175 4.45893 19.2695 4.19043C19.0256 4.071 18.7118 3.99321 18.1924 3.95215C17.6642 3.91041 16.9883 3.91016 16.0293 3.91016H8.97168C8.01273 3.91016 7.33679 3.91042 6.80859 3.95215C6.2887 3.99323 5.97552 4.07086 5.73145 4.19043C5.18341 4.45892 4.74017 4.90216 4.47168 5.4502C4.35211 5.69427 4.27448 6.00745 4.2334 6.52734C4.19167 7.05554 4.19141 7.73148 4.19141 8.69043V11.8623C4.19141 12.8213 4.19166 13.4972 4.2334 14.0254C4.27446 14.5448 4.35224 14.8575 4.47168 15.1016C4.74014 15.6495 5.18353 16.0929 5.73145 16.3613C5.97552 16.4809 6.2887 16.5585 6.80859 16.5996C7.33679 16.6413 8.01271 16.6426 8.97168 16.6426H16.0293C16.9883 16.6426 17.6642 16.6413 18.1924 16.5996C18.712 16.5585 19.0246 16.4808 19.2686 16.3613C19.8164 16.0929 20.2608 15.6495 20.5293 15.1016C20.6487 14.8576 20.7255 14.5447 20.7666 14.0254C20.8083 13.4972 20.8096 12.8213 20.8096 11.8623V8.69043ZM22.3096 11.8623C22.3096 12.7974 22.3102 13.5426 22.2627 14.1436C22.2145 14.7527 22.1132 15.2774 21.876 15.7617C21.461 16.6086 20.7759 17.294 19.9287 17.709C19.4444 17.9462 18.9197 18.0476 18.3105 18.0957C17.7096 18.1432 16.9644 18.1426 16.0293 18.1426H8.97168C8.03662 18.1426 7.29141 18.1432 6.69043 18.0957C6.0811 18.0476 5.55574 17.9463 5.07129 17.709C4.22436 17.294 3.53989 16.6086 3.125 15.7617C2.88775 15.2773 2.78643 14.7527 2.73828 14.1436C2.6908 13.5426 2.69141 12.7974 2.69141 11.8623V8.69043C2.69141 7.75536 2.6908 7.01016 2.73828 6.40918C2.78643 5.79985 2.88767 5.27449 3.125 4.79004C3.5399 3.94333 4.22458 3.25865 5.07129 2.84375C5.55574 2.60642 6.0811 2.50518 6.69043 2.45703C7.29141 2.40955 8.0366 2.41016 8.97168 2.41016H16.0293C16.9644 2.41016 17.7096 2.40954 18.3105 2.45703C18.9197 2.50518 19.4444 2.60649 19.9287 2.84375C20.7758 3.25867 21.461 3.9432 21.876 4.79004C22.1133 5.27449 22.2146 5.79985 22.2627 6.40918C22.3102 7.01016 22.3096 7.75537 22.3096 8.69043V11.8623Z" fill="#253035"/>
<path d="M5.17382 17.0068C5.29406 16.6105 5.71303 16.3867 6.10937 16.5068L13.2656 18.6767C14.1912 18.9271 14.8445 19.1035 15.3652 19.2012C15.8778 19.2972 16.2009 19.3036 16.4678 19.2519C17.0668 19.1358 17.6105 18.824 18.0127 18.3652C18.2348 18.1117 18.4169 17.7459 18.6445 17.0254C18.7693 16.6304 19.191 16.4113 19.5859 16.5361C19.9807 16.661 20.1999 17.0827 20.0752 17.4775C19.8628 18.1499 19.6384 18.7024 19.2949 19.1621L19.1406 19.3535C18.5966 19.9741 17.8853 20.4213 17.0957 20.6435L16.7529 20.7246C16.2235 20.8272 15.6905 20.7873 15.0898 20.6748C14.4973 20.5637 13.7777 20.3691 12.875 20.125C12.8678 20.123 12.8606 20.1213 12.8535 20.1191L5.67382 17.9424C5.27753 17.8221 5.05368 17.4032 5.17382 17.0068Z" fill="#253035"/>
<path d="M15.3398 11.8477V8.66406C15.3398 8.24984 15.6756 7.91406 16.0898 7.91406C16.504 7.91406 16.8398 8.24984 16.8398 8.66406V11.8477C16.8397 12.2617 16.5039 12.5977 16.0898 12.5977C15.6757 12.5977 15.3399 12.2617 15.3398 11.8477Z" fill="#253035"/>
<path d="M15.3398 5.87402V3.16016C15.3398 2.74594 15.6756 2.41016 16.0898 2.41016C16.504 2.41016 16.8398 2.74594 16.8398 3.16016V5.87402C16.8397 6.28819 16.504 6.62402 16.0898 6.62402C15.6756 6.62402 15.3398 6.28819 15.3398 5.87402Z" fill="#253035"/>
<path d="M15.3398 17.3467V14.6328C15.3398 14.2186 15.6756 13.8828 16.0898 13.8828C16.504 13.8828 16.8398 14.2186 16.8398 14.6328V17.3467L16.8359 17.4228C16.7977 17.8012 16.4783 18.0967 16.0898 18.0967C15.7013 18.0967 15.3819 17.8012 15.3437 17.4228L15.3398 17.3467Z" fill="#253035"/>
</svg>
