<svg width="24" height="24" viewBox="0 0 24 24" fill="none" xmlns="http://www.w3.org/2000/svg">
<path d="M13.5635 2.45506C14.7401 2.01489 16.0604 2.20726 17.0625 2.96482C17.5005 3.29599 17.8669 3.79932 18.4199 4.541C18.5152 4.66894 18.6418 4.83315 18.7099 4.97557L18.7109 4.97654C18.7467 5.05157 18.8378 5.22958 18.8584 5.44236C18.8788 5.65477 18.8236 5.8458 18.8027 5.92674C18.7738 6.03936 18.711 6.17282 18.6748 6.25096C18.6247 6.35917 18.5536 6.50731 18.4639 6.69432C18.3418 6.94838 18.3337 7.23499 18.4443 7.48826C18.6099 7.86771 18.437 8.30974 18.0576 8.47557C17.678 8.64138 17.2351 8.46745 17.0693 8.08787C16.7771 7.41837 16.8083 6.67584 17.1113 6.0449C17.2031 5.85366 17.2688 5.71754 17.3135 5.62107C17.3189 5.60937 17.3226 5.5977 17.3271 5.58787L17.2168 5.43748C16.6016 4.6124 16.3829 4.33204 16.1582 4.16209C15.5657 3.71405 14.7846 3.60004 14.0889 3.86033C13.8251 3.95914 13.5351 4.16607 12.7099 4.78123L7.97557 8.31053C7.6435 8.55811 7.17336 8.49026 6.92577 8.15818C6.67821 7.82611 6.74703 7.35596 7.07909 7.10838L11.8135 3.57811C12.5552 3.02516 13.0494 2.64743 13.5635 2.45506Z" fill="#253035"/>
<path d="M14.3711 10.1064V7.82029C14.3711 7.40608 14.7069 7.07029 15.1211 7.07029C15.5353 7.07029 15.8711 7.40608 15.8711 7.82029V10.1064C15.8711 10.5206 15.5353 10.8564 15.1211 10.8564C14.7069 10.8564 14.3711 10.5206 14.3711 10.1064Z" fill="#253035"/>
<path d="M14.3711 16.1514V12.7227C14.3711 12.3085 14.7069 11.9727 15.1211 11.9727C15.5353 11.9727 15.8711 12.3085 15.8711 12.7227V16.1514C15.8711 16.5656 15.5353 16.9014 15.1211 16.9014C14.7069 16.9014 14.3711 16.5656 14.3711 16.1514Z" fill="#253035"/>
<path d="M14.3711 21.0009V18.7148C14.3711 18.3006 14.7069 17.9648 15.1211 17.9648C15.5353 17.9648 15.8711 18.3006 15.8711 18.7148V21.0009C15.8711 21.4151 15.5353 21.7509 15.1211 21.7509C14.7069 21.7509 14.3711 21.4151 14.3711 21.0009Z" fill="#253035"/>
<path d="M19.0195 14.3926C19.0195 13.4283 19.5601 12.6177 20.3437 12.207L20.7617 11.9863C20.7736 11.9799 20.7841 11.9732 20.7939 11.9678C20.7945 11.9228 20.7949 11.8633 20.7949 11.7783C20.7949 10.7453 20.7877 10.3862 20.709 10.1133C20.5 9.39528 19.9381 8.83437 19.2207 8.62595C18.948 8.54688 18.5904 8.53904 17.5566 8.53904H7.48925C6.58714 8.53904 6.20052 8.54459 5.93652 8.59861L5.82909 8.62498C5.10989 8.8334 4.54651 9.39592 4.33788 10.1152C4.27909 10.3198 4.26122 10.573 4.25585 11.122L4.2539 11.7783C4.25426 11.8621 4.25418 11.9214 4.25487 11.9668C4.26505 11.9724 4.27573 11.9796 4.28808 11.9863C4.38151 12.0373 4.51615 12.1079 4.70409 12.207C5.48613 12.6198 6.02452 13.4321 6.02343 14.3945V14.4726C5.99405 15.3193 5.53982 16.0506 4.87695 16.4707L4.74218 16.5498C4.54132 16.6599 4.39667 16.7391 4.29589 16.7959C4.27894 16.8054 4.26335 16.8136 4.24999 16.8213C4.24936 16.8678 4.24999 16.9295 4.24999 17.0176C4.24999 18.0465 4.25774 18.4034 4.33593 18.6748L4.3789 18.8076C4.61498 19.4635 5.15276 19.9709 5.82812 20.166C6.09837 20.2443 6.45456 20.2519 7.48437 20.2519H17.5566C18.5899 20.2519 18.9479 20.2442 19.2207 20.165C19.9388 19.9565 20.4999 19.3948 20.708 18.6767C20.7872 18.4052 20.7949 18.0471 20.7939 17.0136C20.7939 16.9282 20.7936 16.867 20.793 16.8213C20.7831 16.8158 20.7717 16.8102 20.7598 16.8037L20.3428 16.582C19.5577 16.1688 19.0195 15.3548 19.0195 14.3926ZM22.2949 11.7783C22.2949 11.9367 22.2986 12.1448 22.2676 12.3017C22.2515 12.383 22.2187 12.5806 22.1084 12.7636C22.0529 12.8557 21.9857 12.9323 21.9238 12.9922L21.7734 13.1211C21.6825 13.1944 21.5512 13.2647 21.4756 13.3056C21.3706 13.3624 21.2249 13.4386 21.041 13.5351L21.04 13.5361C20.7252 13.7012 20.5195 14.0144 20.5195 14.3926C20.5195 14.7722 20.7265 15.0888 21.042 15.2549L21.4775 15.4863C21.5545 15.5282 21.6832 15.5981 21.7725 15.6699L21.7744 15.6709C21.8389 15.723 21.9979 15.8437 22.1084 16.0263C22.1638 16.118 22.1995 16.2135 22.2236 16.2959L22.2685 16.4883L22.2695 16.4951C22.298 16.646 22.294 16.8491 22.2939 17.0117C22.2948 17.9413 22.3028 18.5661 22.1484 19.0957C21.797 20.3069 20.8501 21.2538 19.6387 21.6054C19.1095 21.7591 18.4856 21.7519 17.5566 21.7519H7.48437C6.55893 21.7519 5.93652 21.7589 5.41015 21.6064C4.27146 21.2771 3.36485 20.4219 2.96679 19.3154L2.89452 19.0908C2.74282 18.5645 2.74999 17.9429 2.74999 17.0176C2.74999 16.8544 2.74639 16.6476 2.77538 16.4961C2.78853 16.4281 2.81988 16.2209 2.92968 16.0361C3.03849 15.8531 3.20337 15.7264 3.25487 15.6836L3.26073 15.6797C3.34744 15.6087 3.47862 15.5349 3.55956 15.4892C3.67012 15.4269 3.82443 15.3423 4.02148 15.2344C4.31231 15.0749 4.51112 14.7725 4.52343 14.4209V14.3935C4.52394 14.0156 4.31863 13.6992 4.0039 13.5332C3.81999 13.4362 3.6751 13.3599 3.5703 13.3027C3.49329 13.2607 3.36501 13.1913 3.27636 13.1201L3.27538 13.1191C3.21057 13.0668 3.05116 12.9458 2.94042 12.7627C2.82988 12.5797 2.7964 12.383 2.78027 12.3017L2.77929 12.2949C2.7511 12.1455 2.75458 11.9416 2.7539 11.7822V11.1367C2.75854 10.5455 2.78281 10.0967 2.89648 9.70115L2.89745 9.70017C3.24864 8.4861 4.1973 7.53641 5.41112 7.18455L5.61425 7.13474C6.09958 7.03369 6.67839 7.03904 7.48925 7.03904H17.5566C18.4865 7.03904 19.1104 7.03188 19.6396 7.18553C20.7747 7.51532 21.6775 8.36791 22.0762 9.47068L22.1494 9.69431C22.3023 10.2229 22.2949 10.8484 22.2949 11.7783Z" fill="#253035"/>
</svg>
