<svg width="24" height="24" viewBox="0 0 24 24" fill="none" xmlns="http://www.w3.org/2000/svg">
<path d="M13.5635 2.45506C14.7401 2.01489 16.0604 2.20726 17.0625 2.96482C17.5005 3.29599 17.8669 3.79932 18.4199 4.541C18.5152 4.66894 18.6418 4.83315 18.7099 4.97557L18.7109 4.97654C18.7467 5.05157 18.8378 5.22958 18.8584 5.44236C18.8788 5.65477 18.8236 5.8458 18.8027 5.92674C18.7738 6.03936 18.711 6.17282 18.6748 6.25096C18.6247 6.35917 18.5536 6.50731 18.4639 6.69432C18.3418 6.94838 18.3337 7.23499 18.4443 7.48826C18.6099 7.86771 18.437 8.30974 18.0576 8.47557C17.678 8.64138 17.2351 8.46745 17.0693 8.08787C16.7771 7.41837 16.8083 6.67584 17.1113 6.0449C17.2031 5.85366 17.2688 5.71754 17.3135 5.62107C17.3189 5.60937 17.3226 5.5977 17.3271 5.58787L17.2168 5.43748C16.6016 4.61241 16.3829 4.33204 16.1582 4.16209C15.5657 3.71405 14.7846 3.60004 14.0889 3.86033C13.8251 3.95914 13.5351 4.16607 12.7099 4.78123L7.97557 8.31053C7.64349 8.55811 7.17335 8.49026 6.92576 8.15818C6.6782 7.82611 6.74702 7.35596 7.07908 7.10838L11.8135 3.57811C12.5552 3.02516 13.0494 2.64743 13.5635 2.45506Z" fill="#A2B5BE"/>
<path d="M14.3711 10.1064V7.82029C14.3711 7.40608 14.7069 7.07029 15.1211 7.07029C15.5353 7.07029 15.8711 7.40608 15.8711 7.82029V10.1064C15.8711 10.5206 15.5353 10.8564 15.1211 10.8564C14.7069 10.8564 14.3711 10.5206 14.3711 10.1064Z" fill="#A2B5BE"/>
<path d="M14.3711 16.1514V12.7227C14.3711 12.3085 14.7069 11.9727 15.1211 11.9727C15.5353 11.9727 15.8711 12.3085 15.8711 12.7227V16.1514C15.8711 16.5656 15.5353 16.9014 15.1211 16.9014C14.7069 16.9014 14.3711 16.5656 14.3711 16.1514Z" fill="#A2B5BE"/>
<path d="M14.3711 21.0009V18.7148C14.3711 18.3006 14.7069 17.9648 15.1211 17.9648C15.5353 17.9648 15.8711 18.3006 15.8711 18.7148V21.0009C15.8711 21.4151 15.5353 21.7509 15.1211 21.7509C14.7069 21.7509 14.3711 21.4151 14.3711 21.0009Z" fill="#A2B5BE"/>
<path d="M19.0195 14.3926C19.0195 13.4284 19.5601 12.6178 20.3437 12.2071L20.7617 11.9864C20.7736 11.9799 20.7841 11.9733 20.7939 11.9678C20.7945 11.9229 20.7949 11.8633 20.7949 11.7784C20.7949 10.7454 20.7877 10.3862 20.709 10.1133C20.5 9.39536 19.9381 8.83446 19.2207 8.62604V8.62506C18.948 8.54606 18.59 8.53913 17.5566 8.53913H7.48925C6.58713 8.53913 6.20052 8.54467 5.93652 8.5987L5.82909 8.62506C5.10989 8.83349 4.54651 9.396 4.33788 10.1153C4.27909 10.3199 4.26122 10.5731 4.25585 11.1221L4.2539 11.7784C4.25426 11.8622 4.25418 11.9215 4.25487 11.9669C4.26505 11.9725 4.27573 11.9797 4.28808 11.9864C4.38151 12.0374 4.51615 12.1079 4.70409 12.2071C5.48613 12.6199 6.02452 13.4322 6.02343 14.3946V14.4727C5.99405 15.3194 5.53982 16.0507 4.87695 16.4708L4.74218 16.5499C4.54132 16.6599 4.39667 16.7391 4.29589 16.796C4.27894 16.8055 4.26335 16.8137 4.24999 16.8214C4.24936 16.8679 4.24999 16.9296 4.24999 17.0176C4.24999 18.0466 4.25774 18.4034 4.33593 18.6749L4.3789 18.8077C4.61498 19.4636 5.15276 19.971 5.82812 20.1661C6.09837 20.2443 6.45456 20.252 7.48437 20.252H17.5566C18.5899 20.252 18.9479 20.2443 19.2207 20.1651C19.9388 19.9566 20.4999 19.3949 20.708 18.6768V18.6758C20.7872 18.4043 20.7949 18.0472 20.7939 17.0137V17.0128C20.7939 16.9273 20.7936 16.867 20.793 16.8214C20.7831 16.8159 20.7717 16.8103 20.7598 16.8038L20.3428 16.5821C19.5577 16.1689 19.0195 15.3549 19.0195 14.3926ZM22.2949 11.7784C22.2949 11.9367 22.2986 12.1448 22.2676 12.3018C22.2515 12.3831 22.2187 12.5807 22.1084 12.7637C22.0529 12.8558 21.9857 12.9324 21.9238 12.9923L21.7734 13.1212C21.6825 13.1945 21.5512 13.2648 21.4756 13.3057C21.3706 13.3625 21.2249 13.4387 21.041 13.5352L21.04 13.5362C20.7252 13.7012 20.5195 14.0145 20.5195 14.3926C20.5195 14.7723 20.7265 15.0889 21.042 15.2549L21.4775 15.4864C21.5545 15.5283 21.6832 15.5982 21.7725 15.67L21.7744 15.671C21.8389 15.7231 21.9979 15.8438 22.1084 16.0264C22.1638 16.1181 22.1995 16.2136 22.2236 16.296L22.2685 16.4883L22.2695 16.4952C22.298 16.6461 22.294 16.8492 22.2939 17.0118C22.2948 17.9413 22.3028 18.5661 22.1484 19.0958C21.797 20.307 20.8501 21.2539 19.6387 21.6055C19.1095 21.7591 18.4856 21.752 17.5566 21.752H7.48437C6.55893 21.752 5.93652 21.759 5.41015 21.6065V21.6055C4.27146 21.2762 3.36485 20.422 2.96679 19.3155L2.89452 19.0909C2.74282 18.5645 2.74999 17.943 2.74999 17.0176C2.74999 16.8545 2.74639 16.6476 2.77538 16.4962V16.4952C2.78853 16.4272 2.81988 16.221 2.92968 16.0362C3.03849 15.8532 3.20337 15.7265 3.25487 15.6837L3.26073 15.6798C3.34744 15.6088 3.47862 15.535 3.55956 15.4893C3.67012 15.427 3.82443 15.3424 4.02148 15.2344C4.31231 15.075 4.51112 14.7726 4.52343 14.421V14.3936C4.52394 14.0157 4.31863 13.6993 4.0039 13.5333C3.81999 13.4362 3.6751 13.36 3.5703 13.3028C3.49329 13.2608 3.36501 13.1914 3.27636 13.1202L3.27538 13.1192C3.21057 13.0669 3.05116 12.9459 2.94042 12.7628C2.82988 12.5798 2.7964 12.383 2.78027 12.3018L2.77929 12.295C2.7511 12.1455 2.75458 11.9417 2.7539 11.7823V11.1368C2.75854 10.5456 2.78281 10.0968 2.89648 9.70124L2.89745 9.70026C3.24864 8.48619 4.1973 7.53649 5.41112 7.18463L5.61425 7.13483C6.09958 7.03378 6.67839 7.03912 7.48925 7.03913H17.5566C18.3705 7.03912 18.9498 7.03325 19.4365 7.13483L19.6396 7.18561L19.8633 7.25788C20.8928 7.62957 21.704 8.4414 22.0762 9.47077L22.1494 9.6944V9.69538C22.3023 10.224 22.2949 10.8485 22.2949 11.7784Z" fill="#253035"/>
</svg>
