<svg width="24" height="24" viewBox="0 0 24 24" fill="none" xmlns="http://www.w3.org/2000/svg">
<path fill-rule="evenodd" clip-rule="evenodd" d="M6.99739 16.3566C7.64639 17.0066 8.50939 17.3646 9.42839 17.3646C10.3474 17.3646 11.2114 17.0066 11.8604 16.3566L17.7594 10.4596C19.0994 9.11764 19.0994 6.93664 17.7594 5.59464L15.5434 3.37964C14.2424 2.08064 11.9764 2.08164 10.6794 3.37964L4.78039 9.27764C3.44039 10.6196 3.44039 12.8006 4.78039 14.1416L6.99739 16.3566ZM15.6876 7.20334H10.4476C10.0336 7.20334 9.69763 6.86734 9.69763 6.45334C9.69763 6.03934 10.0336 5.70334 10.4476 5.70334H15.6876C16.1016 5.70334 16.4376 6.03934 16.4376 6.45334C16.4376 6.86734 16.1016 7.20334 15.6876 7.20334ZM7.62048 10.6881H14.8595C15.2735 10.6881 15.6095 10.3521 15.6095 9.93814C15.6095 9.52414 15.2735 9.18814 14.8595 9.18814H7.62048C7.20648 9.18814 6.87048 9.52414 6.87048 9.93814C6.87048 10.3521 7.20648 10.6881 7.62048 10.6881ZM12.0851 14.173H6.84607C6.43207 14.173 6.09607 13.837 6.09607 13.423C6.09607 13.009 6.43207 12.673 6.84607 12.673H12.0851C12.4991 12.673 12.8351 13.009 12.8351 13.423C12.8351 13.837 12.4991 14.173 12.0851 14.173Z" fill="#253035"/>
<path d="M16.4369 18.976C16.3921 19.0208 16.318 19.0272 16.2733 18.9824L14.0272 16.736C13.9101 16.6188 13.9101 16.4289 14.0273 16.3117L17.7121 12.6269C17.8293 12.5097 18.0192 12.5097 18.1364 12.6269L20.4132 14.9037C20.4402 14.9307 20.438 14.975 20.4109 15.002L16.4369 18.976Z" fill="#253035"/>
<path d="M17.4969 20.036C17.4522 20.0811 17.4458 20.1552 17.4907 20.2001L17.7913 20.5007C18.2463 20.9557 18.8513 21.2057 19.4953 21.2057C20.1393 21.2057 20.7433 20.9547 21.1973 20.4997L21.8993 19.7977C22.8393 18.8587 22.8393 17.3297 21.8993 16.3897L21.5693 16.0598C21.5426 16.033 21.4987 16.0353 21.4719 16.062L17.4969 20.036Z" fill="#253035"/>
<path d="M8.47869 21.5945H4.10669C3.69269 21.5945 3.35669 21.2585 3.35669 20.8445C3.35669 20.4305 3.69269 20.0945 4.10669 20.0945H8.47869C8.89269 20.0945 9.22869 20.4305 9.22869 20.8445C9.22869 21.2585 8.89269 21.5945 8.47869 21.5945Z" fill="#253035"/>
</svg>
