<svg width="24" height="24" viewBox="0 0 24 24" fill="none" xmlns="http://www.w3.org/2000/svg">
<path d="M8.35156 20.2362C8.76578 20.2362 9.10156 20.572 9.10156 20.9862C9.10156 21.4004 8.76578 21.7362 8.35156 21.7362H3.98047C3.56626 21.7362 3.23047 21.4004 3.23047 20.9862C3.23047 20.572 3.56626 20.2362 3.98047 20.2362H8.35156Z" fill="#A2B5BE"/>
<path d="M15.6319 11.0966C15.9248 10.8037 16.3995 10.8037 16.6924 11.0966L21.9512 16.3544C22.9896 17.3929 22.9887 19.0768 21.9502 20.1152L21.9512 20.1161L21.2491 20.8183C20.2107 21.8566 18.5257 21.8566 17.4873 20.8183L12.2295 15.5595C11.9366 15.2666 11.9367 14.7918 12.2295 14.499C12.5224 14.2061 12.9972 14.2061 13.2901 14.499L18.5489 19.7568C19.0015 20.2093 19.7359 20.2094 20.1885 19.7568L20.8897 19.0556L20.9698 18.9667C21.3408 18.5115 21.314 17.8393 20.8897 17.415L15.6319 12.1572C15.339 11.8643 15.339 11.3895 15.6319 11.0966Z" fill="#A2B5BE"/>
<path d="M10.376 3.34481C11.8168 1.90391 14.1529 1.90397 15.5937 3.34481L17.8096 5.56063C19.2501 7.00144 19.2501 9.33663 17.8096 10.7774L11.9111 16.6759C10.4703 18.1164 8.13514 18.1164 6.69433 16.6759L4.47851 14.46C3.03766 13.0192 3.03762 10.6831 4.47851 9.24227L10.376 3.34481ZM14.5332 4.40536C13.6781 3.55026 12.2915 3.55032 11.4365 4.40536L5.53905 10.3028C4.684 11.1578 4.68396 12.5444 5.53905 13.3995L7.75487 15.6153C8.60988 16.4701 9.99554 16.4701 10.8506 15.6153L16.749 9.71688C17.6038 8.86186 17.6038 7.47619 16.749 6.62118L14.5332 4.40536Z" fill="#253035"/>
</svg>
