<svg width="24" height="24" viewBox="0 0 24 24" fill="none" xmlns="http://www.w3.org/2000/svg">
<path d="M10.376 3.34481C11.8168 1.90391 14.1529 1.90397 15.5938 3.34481L17.8096 5.56063C19.2501 7.00144 19.2502 9.33663 17.8096 10.7774L11.9111 16.6759C10.4703 18.1164 8.13514 18.1164 6.69434 16.6759L4.47852 14.46C3.03767 13.0192 3.03763 10.6831 4.47852 9.24227L10.376 3.34481ZM14.5332 4.40536C13.6781 3.55026 12.2915 3.55032 11.4365 4.40536L5.53906 10.3028C4.68401 11.1578 4.68397 12.5444 5.53906 13.3995L7.75488 15.6153C8.60989 16.4701 9.99554 16.4701 10.8506 15.6153L16.749 9.71688C17.6038 8.86186 17.6038 7.47619 16.749 6.62118L14.5332 4.40536Z" fill="#253035"/>
<path d="M8.35156 20.2364C8.76578 20.2364 9.10156 20.5722 9.10156 20.9864C9.10156 21.4006 8.76578 21.7364 8.35156 21.7364H3.98047C3.56626 21.7364 3.23047 21.4006 3.23047 20.9864C3.23047 20.5722 3.56626 20.2364 3.98047 20.2364H8.35156Z" fill="#253035"/>
<path d="M15.6319 11.0968C15.9248 10.8039 16.3995 10.8039 16.6924 11.0968L21.9512 16.3546C22.9896 17.3931 22.9887 19.077 21.9502 20.1154L21.9512 20.1163L21.2491 20.8185C20.2107 21.8568 18.5257 21.8568 17.4873 20.8185L12.2295 15.5597C11.9366 15.2668 11.9367 14.7921 12.2295 14.4992C12.5224 14.2063 12.9972 14.2063 13.2901 14.4992L18.5489 19.757C19.0015 20.2096 19.7359 20.2096 20.1885 19.757L20.8897 19.0558L20.9698 18.9669C21.3408 18.5117 21.314 17.8395 20.8897 17.4152L15.6319 12.1574C15.339 11.8645 15.339 11.3897 15.6319 11.0968Z" fill="#253035"/>
</svg>
