<svg width="24" height="24" viewBox="0 0 24 24" fill="none" xmlns="http://www.w3.org/2000/svg">
<path d="M12 7.75C12.99 7.75 13.9595 8.33732 14.7773 9.0166C15.6238 9.71968 16.446 10.6398 17.1572 11.5332C17.8719 12.4309 18.4926 13.3252 18.9336 13.9932C19.1545 14.3278 19.3311 14.6073 19.4531 14.8037C19.5141 14.9019 19.5623 14.9797 19.5947 15.0332C19.6108 15.0597 19.6233 15.0805 19.6318 15.0947C19.6361 15.1018 19.6393 15.1075 19.6416 15.1113C19.6427 15.1132 19.6439 15.1151 19.6445 15.1162V15.1172H19.6455V15.1182C19.8563 15.4745 19.7381 15.9345 19.3818 16.1455C19.0478 16.3431 18.6232 16.2518 18.3974 15.9463L18.3525 15.8789C18.3508 15.8761 18.3483 15.8713 18.3447 15.8652C18.3374 15.8531 18.3264 15.8341 18.3115 15.8096C18.2818 15.7606 18.2375 15.6878 18.1797 15.5947C18.0639 15.4083 17.8939 15.141 17.6816 14.8193C17.2562 14.1749 16.6618 13.319 15.9834 12.4668C15.3016 11.6104 14.5528 10.7802 13.8193 10.1709C13.057 9.53773 12.4375 9.25 12 9.25C11.5622 9.25 10.9429 9.53777 10.1807 10.1709C9.44696 10.7803 8.69745 11.6102 8.01561 12.4668C7.3373 13.3189 6.74371 14.1749 6.31835 14.8193C6.10608 15.141 5.93607 15.4083 5.8203 15.5947C5.76249 15.6878 5.71814 15.7606 5.68846 15.8096C5.67363 15.8341 5.66255 15.8531 5.65526 15.8652C5.65167 15.8712 5.64912 15.8761 5.64745 15.8789L5.60253 15.9463C5.3768 16.2518 4.95215 16.3431 4.61815 16.1455C4.26179 15.9345 4.14365 15.4746 4.35448 15.1182V15.1172H4.35546V15.1162C4.3561 15.1151 4.35725 15.1132 4.35838 15.1113C4.36068 15.1075 4.3639 15.1018 4.36815 15.0947C4.37667 15.0805 4.38918 15.0598 4.40526 15.0332C4.43768 14.9797 4.48584 14.902 4.54686 14.8037C4.66887 14.6073 4.84554 14.3278 5.06639 13.9932C5.50721 13.3253 6.1273 12.4308 6.84178 11.5332C7.55291 10.6398 8.37612 9.71969 9.22264 9.0166C10.0405 8.33736 11.0099 7.75 12 7.75Z" fill="#253035"/>
</svg>
