<svg width="24" height="24" viewBox="0 0 24 24" fill="none" xmlns="http://www.w3.org/2000/svg">
<path d="M20.4998 12C20.4998 8.5731 19.919 6.52668 18.696 5.30371C17.4731 4.08075 15.4266 3.5 11.9998 3.5C8.57286 3.5 6.52644 4.08074 5.30347 5.30371C4.08049 6.52668 3.49976 8.5731 3.49976 12C3.49976 15.4269 4.0805 17.4733 5.30347 18.6963C6.52644 19.9193 8.57286 20.5 11.9998 20.5C15.4266 20.5 17.4731 19.9193 18.696 18.6963C19.919 17.4733 20.4998 15.4269 20.4998 12ZM21.9998 12C21.9998 15.5101 21.4244 18.0891 19.7566 19.7568C18.0888 21.4246 15.5098 22 11.9998 22C8.48966 22 5.9107 21.4246 4.24292 19.7568C2.57515 18.0891 1.99976 15.5101 1.99976 12C1.99976 8.4899 2.57514 5.91094 4.24292 4.24316C5.9107 2.57539 8.48966 2 11.9998 2C15.5098 2 18.0888 2.5754 19.7566 4.24316C21.4244 5.91094 21.9998 8.4899 21.9998 12Z" fill="#A2B5BE"/>
<path d="M11.9992 9.20557C12.3212 9.20557 12.6102 9.33006 12.8273 9.45264C13.0558 9.58168 13.2802 9.75229 13.4894 9.93408C13.9085 10.2983 14.3374 10.7685 14.714 11.2163C15.094 11.6681 15.4378 12.117 15.6847 12.4517C15.8084 12.6193 15.9088 12.7593 15.9786 12.8579C16.0136 12.9073 16.0409 12.9471 16.0597 12.9741C16.069 12.9875 16.0762 12.9981 16.0812 13.0054C16.0837 13.009 16.0856 13.0121 16.087 13.0142L16.09 13.0171C16.3243 13.3586 16.2372 13.8257 15.8956 14.0601C15.5541 14.2943 15.087 14.2072 14.8527 13.8657L14.8517 13.8647C14.8508 13.8634 14.8498 13.8608 14.8478 13.8579C14.8438 13.8521 14.8374 13.8433 14.8292 13.8315C14.8125 13.8075 14.7866 13.771 14.754 13.7251C14.689 13.6332 14.5947 13.501 14.4777 13.3423C14.2424 13.0234 13.9195 12.6008 13.5665 12.1812C13.2102 11.7574 12.8391 11.3553 12.506 11.0659C12.3391 10.9209 12.199 10.8199 12.09 10.7583C12.0488 10.735 12.0183 10.7231 11.9992 10.7153C11.98 10.7231 11.9501 10.7353 11.9093 10.7583C11.8004 10.8199 11.6601 10.9209 11.4933 11.0659C11.1604 11.3553 10.7898 11.7575 10.4337 12.1812C10.081 12.6008 9.75867 13.0234 9.52357 13.3423C9.40641 13.5012 9.31127 13.6332 9.24622 13.7251C9.21381 13.7709 9.1887 13.8066 9.172 13.8306C9.16365 13.8426 9.15751 13.852 9.15345 13.8579C9.15149 13.8608 9.14947 13.8625 9.14857 13.8638V13.8657C8.91437 14.2073 8.44722 14.2942 8.1056 14.0601C7.76396 13.8258 7.67704 13.3587 7.91126 13.0171V13.0161C7.91165 13.0156 7.91258 13.0151 7.91321 13.0142C7.91461 13.0121 7.91655 13.009 7.91907 13.0054C7.9241 12.9981 7.93122 12.9875 7.94056 12.9741C7.95933 12.9471 7.98681 12.9081 8.02161 12.8589C8.09147 12.7602 8.1928 12.6195 8.31653 12.4517C8.56325 12.117 8.9057 11.6679 9.28528 11.2163C9.66164 10.7685 10.0909 10.2983 10.5099 9.93408C10.7189 9.75244 10.9428 9.58164 11.171 9.45264C11.388 9.33005 11.6771 9.20563 11.9992 9.20557Z" fill="#253035"/>
</svg>
