<svg width="24" height="24" viewBox="0 0 24 24" fill="none" xmlns="http://www.w3.org/2000/svg">
<path d="M20.4998 12C20.4998 8.5731 19.919 6.52668 18.696 5.30371C17.4731 4.08075 15.4266 3.5 11.9998 3.5C8.57286 3.5 6.52644 4.08074 5.30347 5.30371C4.08049 6.52668 3.49976 8.5731 3.49976 12C3.49976 15.4269 4.0805 17.4733 5.30347 18.6963C6.52644 19.9193 8.57286 20.5 11.9998 20.5C15.4266 20.5 17.4731 19.9193 18.696 18.6963C19.919 17.4733 20.4998 15.4269 20.4998 12ZM21.9998 12C21.9998 15.5101 21.4244 18.0891 19.7566 19.7568C18.0888 21.4246 15.5098 22 11.9998 22C8.48966 22 5.9107 21.4246 4.24292 19.7568C2.57515 18.0891 1.99976 15.5101 1.99976 12C1.99976 8.4899 2.57514 5.91094 4.24292 4.24316C5.9107 2.57539 8.48966 2 11.9998 2C15.5098 2 18.0888 2.5754 19.7566 4.24316C21.4244 5.91094 21.9998 8.4899 21.9998 12Z" fill="#253035"/>
<path d="M11.9992 9.20589C12.3212 9.20589 12.6103 9.33038 12.8273 9.45296C13.0558 9.58201 13.2802 9.75262 13.4894 9.93441C13.9085 10.2986 14.3374 10.7689 14.714 11.2166C15.094 11.6684 15.4378 12.1173 15.6847 12.452C15.8084 12.6196 15.9088 12.7596 15.9787 12.8582C16.0136 12.9076 16.0409 12.9474 16.0597 12.9744C16.0691 12.9879 16.0762 12.9984 16.0812 13.0057C16.0837 13.0093 16.0857 13.0125 16.0871 13.0145L16.09 13.0174C16.3243 13.359 16.2372 13.826 15.8956 14.0604C15.5541 14.2947 15.087 14.2076 14.8527 13.866L14.8517 13.8651C14.8508 13.8637 14.8498 13.8611 14.8478 13.8582C14.8438 13.8524 14.8374 13.8436 14.8292 13.8319C14.8125 13.8079 14.7866 13.7714 14.754 13.7254C14.689 13.6335 14.5947 13.5013 14.4777 13.3426C14.2424 13.0237 13.9195 12.6011 13.5665 12.1815C13.2102 11.7578 12.8391 11.3557 12.506 11.0662C12.3392 10.9213 12.199 10.8202 12.09 10.7586C12.0488 10.7353 12.0183 10.7234 11.9992 10.7157C11.98 10.7234 11.9501 10.7356 11.9093 10.7586C11.8004 10.8202 11.6601 10.9212 11.4933 11.0662C11.1604 11.3556 10.7898 11.7578 10.4337 12.1815C10.081 12.6011 9.75868 13.0237 9.52358 13.3426C9.40642 13.5015 9.31128 13.6335 9.24623 13.7254C9.21382 13.7712 9.18871 13.8069 9.17201 13.8309C9.16366 13.8429 9.15752 13.8524 9.15346 13.8582C9.1515 13.8611 9.14948 13.8628 9.14858 13.8641V13.866C8.91439 14.2076 8.44723 14.2945 8.10561 14.0604C7.76397 13.8262 7.67705 13.359 7.91127 13.0174C7.91166 13.0169 7.91259 13.0154 7.91323 13.0145C7.91462 13.0125 7.91657 13.0093 7.91908 13.0057C7.92411 12.9984 7.93123 12.9879 7.94057 12.9744C7.95934 12.9475 7.98682 12.9084 8.02162 12.8592C8.09148 12.7605 8.19281 12.6198 8.31655 12.452C8.56326 12.1173 8.90571 11.6683 9.2853 11.2166C9.66165 10.7689 10.0909 10.2986 10.5099 9.93441C10.7189 9.75276 10.9428 9.58196 11.171 9.45296C11.388 9.33037 11.6771 9.20595 11.9992 9.20589Z" fill="#253035"/>
</svg>
