<svg width="24" height="24" viewBox="0 0 24 24" fill="none" xmlns="http://www.w3.org/2000/svg">
<path d="M7.38968 9.73389H6.45609C4.8355 9.73412 3.52151 11.0488 3.52151 12.6694V17.5444C3.52173 19.1638 4.8355 20.4778 6.45609 20.478H17.5869C19.2075 20.4778 20.5213 19.1638 20.5215 17.5444V12.6587C20.5213 11.0439 19.212 9.73398 17.5977 9.73389H16.6543C16.2402 9.73379 15.9043 9.39804 15.9043 8.98389C15.9044 8.5698 16.2402 8.23399 16.6543 8.23389H17.5977C20.041 8.23398 22.0213 10.216 22.0215 12.6587V17.5444C22.0213 19.9924 20.0357 21.9778 17.5869 21.978H6.45609C4.00734 21.9778 2.02173 19.9924 2.02151 17.5444V12.6694C2.02151 10.2204 4.00707 8.23412 6.45609 8.23389H7.38968C7.80377 8.23398 8.1396 8.56979 8.13968 8.98389C8.13968 9.39805 7.80382 9.7338 7.38968 9.73389Z" fill="#A2B5BE"/>
<path d="M11.2714 2.19043C11.2714 1.77622 11.6072 1.44043 12.0214 1.44043C12.4356 1.44043 12.7714 1.77622 12.7714 2.19043V14.2314C12.7714 14.6457 12.4356 14.9814 12.0214 14.9814C11.6072 14.9814 11.2714 14.6457 11.2714 14.2314V2.19043Z" fill="#253035"/>
<path d="M8.57699 5.64999C8.28365 5.35774 8.28286 4.88292 8.57504 4.58945L11.4901 1.66171C11.6308 1.52041 11.822 1.44045 12.0214 1.44043C12.2208 1.44044 12.4118 1.5204 12.5526 1.66171L15.4686 4.58945C15.7608 4.88289 15.76 5.35769 15.4666 5.64999C15.1732 5.94224 14.6984 5.9414 14.4061 5.64804L12.0213 3.25449L9.63754 5.64804C9.34528 5.94138 8.87047 5.94217 8.57699 5.64999Z" fill="#253035"/>
</svg>
