<svg width="24" height="24" viewBox="0 0 24 24" fill="none" xmlns="http://www.w3.org/2000/svg">
<path d="M7.38968 9.7338H6.45609C4.88613 9.73403 3.604 10.9675 3.52542 12.518L3.52151 12.6694V17.5444C3.52173 19.1637 4.8355 20.4777 6.45609 20.4779H17.5869L17.7373 20.474C19.288 20.3955 20.5213 19.1133 20.5215 17.5444V12.6586C20.5213 11.0438 19.212 9.7339 17.5977 9.7338H16.6543C16.2402 9.7337 15.9043 9.39796 15.9043 8.9838C15.9044 8.56972 16.2402 8.23391 16.6543 8.2338H17.5977C20.041 8.2339 22.0213 10.2159 22.0215 12.6586V17.5444C22.0213 19.9161 20.1575 21.8534 17.8145 21.9721L17.5869 21.9779H6.45609C4.00734 21.9777 2.02173 19.9924 2.02151 17.5444V12.6694L2.02737 12.4408C2.14611 10.0978 4.08357 8.23403 6.45609 8.2338H7.38968C7.80377 8.23389 8.1396 8.56971 8.13968 8.9838C8.13968 9.39796 7.80382 9.73372 7.38968 9.7338Z" fill="#253035"/>
<path d="M11.2714 2.19043C11.2714 1.77622 11.6072 1.44043 12.0214 1.44043C12.4356 1.44043 12.7714 1.77622 12.7714 2.19043V14.2314C12.7714 14.6457 12.4356 14.9814 12.0214 14.9814C11.6072 14.9814 11.2714 14.6457 11.2714 14.2314V2.19043Z" fill="#253035"/>
<path d="M8.57702 5.64999C8.28368 5.35774 8.28289 4.88292 8.57506 4.58945L11.4901 1.66171C11.6308 1.52041 11.822 1.44045 12.0214 1.44043C12.2208 1.44044 12.4119 1.5204 12.5526 1.66171L15.4686 4.58945C15.7609 4.88289 15.76 5.35769 15.4667 5.64999C15.1732 5.94224 14.6984 5.9414 14.4061 5.64804L12.0214 3.25449L9.63756 5.64804C9.34531 5.94138 8.87049 5.94217 8.57702 5.64999Z" fill="#253035"/>
</svg>
