<svg width="24" height="24" viewBox="0 0 24 24" fill="none" xmlns="http://www.w3.org/2000/svg">
<path d="M16.5352 6.69238C16.5351 4.51505 14.7701 2.75 12.5928 2.75C10.4155 2.75006 8.65045 4.51509 8.65039 6.69238C8.65039 8.86973 10.4154 10.6347 12.5928 10.6348C14.7702 10.6348 16.5352 8.86977 16.5352 6.69238ZM18.0352 6.69238C18.0352 9.69819 15.5986 12.1348 12.5928 12.1348C9.58702 12.1347 7.15039 9.69815 7.15039 6.69238C7.15045 3.68667 9.58706 1.25006 12.5928 1.25C15.5985 1.25 18.0351 3.68663 18.0352 6.69238Z" fill="#A2B5BE"/>
<path d="M18.4287 18.0586C18.4285 16.048 16.7987 14.4182 14.7881 14.418H10.5117C8.50096 14.418 6.87135 16.0479 6.87109 18.0586C6.87109 18.7736 6.82893 19.3187 6.9248 19.8711C6.99566 20.2791 6.72233 20.6682 6.31445 20.7393C5.90635 20.8101 5.51716 20.536 5.44629 20.1279C5.32101 19.4063 5.37109 18.6303 5.37109 18.0586C5.37135 15.2194 7.67255 12.918 10.5117 12.918H14.7881C17.6271 12.9182 19.9285 15.2196 19.9287 18.0586C19.9287 18.6303 19.9778 19.4063 19.8525 20.1279C19.7817 20.536 19.3935 20.8101 18.9853 20.7393C18.5774 20.6684 18.3044 20.28 18.375 19.8721C18.4709 19.3195 18.4287 18.7738 18.4287 18.0586Z" fill="#253035"/>
</svg>
