<svg width="24" height="24" viewBox="0 0 24 24" fill="none" xmlns="http://www.w3.org/2000/svg">
<path fill-rule="evenodd" clip-rule="evenodd" d="M12.0896 10.5703H11.4646V12.1203H12.0896C12.5156 12.1203 12.8626 11.7743 12.8626 11.3493C12.8626 10.9203 12.5156 10.5703 12.0896 10.5703Z" fill="#253035"/>
<path fill-rule="evenodd" clip-rule="evenodd" d="M19.775 14.4999C19.775 14.8219 19.569 15.1079 19.264 15.2109C18.956 15.3119 18.622 15.2089 18.427 14.9529L16.369 12.2389V14.6399C16.369 15.0539 16.033 15.3899 15.619 15.3899C15.205 15.3899 14.869 15.0539 14.869 14.6399V10.0099C14.869 9.68792 15.075 9.40092 15.379 9.29892C15.686 9.19392 16.021 9.29992 16.216 9.55692L18.275 12.2709V9.87992C18.275 9.46592 18.611 9.12992 19.025 9.12992C19.439 9.12992 19.775 9.46592 19.775 9.87992V14.4999ZM12.089 13.6199H11.464V14.6889C11.464 15.1039 11.129 15.4389 10.714 15.4389C10.3 15.4389 9.964 15.1039 9.964 14.6889V9.81992C9.964 9.40592 10.3 9.06992 10.714 9.06992H12.089C13.343 9.06992 14.363 10.0929 14.363 11.3499C14.363 12.6019 13.343 13.6199 12.089 13.6199ZM9.262 10.2079L7.313 14.8879C7.197 15.1669 6.923 15.3499 6.621 15.3499C6.318 15.3499 6.045 15.1679 5.928 14.8879L3.979 10.2079C3.82 9.82592 4.001 9.38692 4.383 9.22792C4.768 9.06892 5.205 9.24992 5.364 9.63192L6.621 12.6479L7.877 9.63192C8.036 9.24992 8.473 9.06892 8.858 9.22792C9.24 9.38692 9.421 9.82592 9.262 10.2079ZM17.932 3.66992H6.067C3.335 3.66992 1.5 5.59092 1.5 8.44992V15.5499C1.5 18.4089 3.335 20.3299 6.067 20.3299H17.931C20.664 20.3299 22.5 18.4089 22.5 15.5499V8.44992C22.5 5.59092 20.664 3.66992 17.932 3.66992Z" fill="#253035"/>
</svg>
