<svg width="24" height="24" viewBox="0 0 24 24" fill="none" xmlns="http://www.w3.org/2000/svg">
<path d="M21.75 8.44824C21.75 7.35071 21.4096 6.47597 20.8574 5.88281C20.3108 5.29576 19.5007 4.92383 18.4326 4.92383H6.56738C5.50348 4.92383 4.6925 5.29504 4.14453 5.88281C3.59115 6.47643 3.25004 7.35166 3.25 8.44824V15.5508C3.25 16.6478 3.59026 17.5228 4.14258 18.1162C4.68924 18.7035 5.49932 19.0762 6.56738 19.0762H18.4316C19.5003 19.0762 20.3107 18.7035 20.8574 18.1162C21.4098 17.5228 21.75 16.6478 21.75 15.5508V8.44824ZM23.25 15.5508C23.25 16.9576 22.8097 18.2207 21.9551 19.1387C21.0948 20.0625 19.8708 20.5762 18.4316 20.5762H6.56738C5.12844 20.5762 3.90404 20.0627 3.04395 19.1387C2.18953 18.2207 1.75 16.9575 1.75 15.5508V8.44824C1.75004 7.04012 2.19265 5.77774 3.04785 4.86035C3.90853 3.93717 5.13194 3.42383 6.56738 3.42383H18.4326C19.8714 3.42383 21.0959 3.9364 21.9561 4.86035C22.8105 5.7782 23.25 7.04108 23.25 8.44824V15.5508Z" fill="#253035"/>
<path d="M15.3691 14.6357V10.0107C15.3691 9.68872 15.5747 9.40253 15.8798 9.2998C16.1851 9.19714 16.5221 9.30097 16.7168 9.55762L18.7744 12.2705V9.88086C18.7744 9.46669 19.1102 9.13093 19.5244 9.13086C19.9386 9.13086 20.2744 9.46664 20.2744 9.88086V14.501C20.2744 14.823 20.0688 15.1092 19.7636 15.2119C19.4583 15.3146 19.1213 15.2107 18.9267 14.9541L16.8691 12.2402V14.6357C16.869 15.0498 16.5332 15.3857 16.1191 15.3857C15.705 15.3857 15.3692 15.0498 15.3691 14.6357Z" fill="#253035"/>
<path d="M13.3632 11.3457C13.3632 10.9188 13.0167 10.5723 12.5898 10.5723H11.9648V12.1182H12.5898C13.0169 12.1182 13.3631 11.7711 13.3632 11.3457ZM14.8632 11.3457C14.8631 12.6001 13.8448 13.6182 12.5898 13.6182H11.9648V14.6943C11.9648 15.1086 11.629 15.4443 11.2148 15.4443C10.8006 15.4443 10.4648 15.1086 10.4648 14.6943V9.82227C10.4648 9.40805 10.8006 9.07227 11.2148 9.07227H12.5898C13.8451 9.07227 14.8632 10.0904 14.8632 11.3457Z" fill="#253035"/>
<path d="M8.37793 9.62988C8.53712 9.24751 8.97602 9.06645 9.3584 9.22558C9.74075 9.38476 9.92178 9.82369 9.7627 10.2061L7.81348 14.8887C7.69703 15.1681 7.42385 15.3506 7.1211 15.3506C6.81835 15.3506 6.54518 15.1681 6.42872 14.8887L4.4795 10.2061C4.3204 9.82368 4.50144 9.38476 4.88379 9.22558C5.26616 9.06649 5.70509 9.24753 5.86426 9.62988L7.1211 12.6484L8.37793 9.62988Z" fill="#253035"/>
</svg>
