<svg width="24" height="24" viewBox="0 0 24 24" fill="none" xmlns="http://www.w3.org/2000/svg">
<path d="M14.2217 12.1112C14.2219 10.282 15.705 8.79888 17.5342 8.79871H21.3906C21.8049 8.79871 22.1406 9.1345 22.1406 9.54871C22.1406 9.96293 21.8049 10.2987 21.3906 10.2987H17.5342C16.5335 10.2989 15.7219 11.1104 15.7217 12.1112C15.7217 13.1133 16.5335 13.9255 17.5342 13.9257H21.4209C21.8351 13.9257 22.1709 14.2615 22.1709 14.6757C22.1708 15.0898 21.835 15.4257 21.4209 15.4257H17.5342C15.7047 15.4255 14.2217 13.9413 14.2217 12.1112Z" fill="#A2B5BE"/>
<path d="M17.9718 11.3031C18.386 11.3031 18.7218 11.6389 18.7218 12.0531C18.7218 12.4673 18.386 12.8031 17.9718 12.8031H17.6749C17.2607 12.8031 16.9249 12.4673 16.9249 12.0531C16.9249 11.6389 17.2607 11.3031 17.6749 11.3031H17.9718Z" fill="#A2B5BE"/>
<path d="M11.9158 7.39355C12.33 7.39355 12.6658 7.72934 12.6658 8.14355C12.6658 8.55777 12.33 8.89355 11.9158 8.89355H7.8562C7.44199 8.89355 7.1062 8.55777 7.1062 8.14355C7.1062 7.72934 7.44199 7.39355 7.8562 7.39355H11.9158Z" fill="#A2B5BE"/>
<path d="M20.8147 12.2532C20.8147 9.1048 20.2359 7.24702 19.0237 6.13403C17.7922 5.00341 15.7213 4.46411 12.2649 4.46411C8.8083 4.46413 6.73769 5.00359 5.5061 6.13403C4.29382 7.24701 3.71411 9.1048 3.71411 12.2532C3.71411 15.401 4.29378 17.2582 5.5061 18.3713C6.73767 19.5021 8.80805 20.0422 12.2649 20.0422C15.7213 20.0422 17.7922 19.5021 19.0237 18.3713C20.2357 17.2582 20.8147 15.4008 20.8147 12.2532ZM22.3147 12.2532C22.3147 15.5091 21.7323 17.9214 20.0383 19.4768C18.3636 21.0146 15.7836 21.5422 12.2649 21.5422C8.7459 21.5422 6.16628 21.0144 4.49146 19.4768C2.79735 17.9214 2.21411 15.5091 2.21411 12.2532C2.21411 8.99678 2.79731 6.5849 4.49146 5.02954C6.16629 3.49191 8.74582 2.96413 12.2649 2.96411C15.7836 2.96411 18.3636 3.49186 20.0383 5.02954C21.7322 6.5849 22.3147 8.99692 22.3147 12.2532Z" fill="#253035"/>
</svg>
