<svg width="24" height="24" viewBox="0 0 24 24" fill="none" xmlns="http://www.w3.org/2000/svg">
<path d="M13.9105 11.8732C13.9107 10.0623 15.3785 8.59313 17.1908 8.5929H20.9984C21.4126 8.5929 21.7484 8.92869 21.7484 9.3429C21.7484 9.75711 21.4126 10.0929 20.9984 10.0929H17.1908C16.2073 10.0931 15.4107 10.8903 15.4105 11.8732C15.4105 12.8574 16.2074 13.6552 17.1908 13.6554H20.9984C21.4126 13.6554 21.7484 13.9912 21.7484 14.4054C21.7483 14.8196 21.4126 15.1554 20.9984 15.1554H17.1908C15.3782 15.1552 13.9105 13.6851 13.9105 11.8732Z" fill="#253035"/>
<path d="M16.9966 11.0671C17.4108 11.0671 17.7466 11.4029 17.7466 11.8171C17.7466 12.2313 17.4108 12.5671 16.9966 12.5671H16.9937C16.5795 12.5671 16.2437 12.2313 16.2437 11.8171C16.2437 11.4029 16.5795 11.0671 16.9937 11.0671H16.9966Z" fill="#253035"/>
<path d="M20.25 15.373V8.62305C20.2498 6.31126 18.3763 4.43769 16.0645 4.4375H7.93555C5.62376 4.43769 3.75019 6.31126 3.75 8.62305V11.6113C3.75 12.0255 3.41421 12.3613 3 12.3613C2.58579 12.3613 2.25 12.0255 2.25 11.6113V8.62305C2.25019 5.48284 4.79534 2.93769 7.93555 2.9375H16.0645C19.2047 2.93769 21.7498 5.48284 21.75 8.62305V15.373C21.7499 18.5134 19.2048 21.0584 16.0645 21.0586H11.6973C11.2831 21.0585 10.9473 20.7228 10.9473 20.3086C10.9474 19.8945 11.2832 19.5587 11.6973 19.5586H16.0645C18.3763 19.5584 20.2499 17.6849 20.25 15.373Z" fill="#253035"/>
<path d="M4.96777 20.3104V18.3407H3C2.58588 18.3407 2.25015 18.0048 2.25 17.5907C2.25 17.1765 2.58579 16.8407 3 16.8407H4.96777V14.8729C4.96777 14.4587 5.30356 14.1229 5.71777 14.1229C6.13185 14.1231 6.46777 14.4588 6.46777 14.8729V16.8407H8.4375C8.85171 16.8407 9.1875 17.1765 9.1875 17.5907C9.18735 18.0048 8.85162 18.3407 8.4375 18.3407H6.46777V20.3104C6.46777 20.7245 6.13185 21.0602 5.71777 21.0604C5.30356 21.0604 4.96777 20.7246 4.96777 20.3104Z" fill="#253035"/>
</svg>
