<svg width="24" height="24" viewBox="0 0 24 24" fill="none" xmlns="http://www.w3.org/2000/svg">
<path d="M13.9105 11.8751C13.9107 10.0643 15.3785 8.59509 17.1908 8.59486H20.9984C21.4126 8.59486 21.7484 8.93065 21.7484 9.34486C21.7484 9.75908 21.4126 10.0949 20.9984 10.0949H17.1908C16.2073 10.0951 15.4107 10.8923 15.4105 11.8751C15.4105 12.8592 16.2073 13.6571 17.1908 13.6574H20.9984C21.4126 13.6574 21.7484 13.9931 21.7484 14.4074C21.7483 14.8215 21.4125 15.1574 20.9984 15.1574H17.1908C15.3782 15.1571 13.9105 13.6869 13.9105 11.8751Z" fill="#253035"/>
<path d="M16.9947 11.0691C17.4089 11.0691 17.7447 11.4049 17.7447 11.8191C17.7447 12.2333 17.4089 12.5691 16.9947 12.5691H16.9918C16.5776 12.5691 16.2418 12.2333 16.2418 11.8191C16.2418 11.4049 16.5776 11.0691 16.9918 11.0691H16.9947Z" fill="#253035"/>
<path d="M20.25 15.375V8.625C20.2498 6.31321 18.3762 4.43964 16.0644 4.43945H7.93553C5.62375 4.43964 3.75018 6.31321 3.74999 8.625V11.6133C3.74999 12.0275 3.4142 12.3633 2.99999 12.3633C2.58577 12.3633 2.24999 12.0275 2.24999 11.6133V8.625C2.25018 5.48478 4.79532 2.93964 7.93553 2.93945H16.0644C19.2047 2.93964 21.7498 5.48479 21.75 8.625V15.375C21.7499 18.5152 19.2048 21.0604 16.0644 21.0605H12.6387C12.2244 21.0605 11.8887 20.7248 11.8887 20.3105C11.8888 19.8965 12.2245 19.5605 12.6387 19.5605H16.0644C18.3763 19.5604 20.2499 17.6868 20.25 15.375Z" fill="#253035"/>
<path d="M7.13573 15.1123C7.42856 14.8195 7.90337 14.8196 8.19628 15.1123C8.48917 15.4052 8.48917 15.88 8.19628 16.1729L4.81053 19.5576L6.75487 19.5537C7.16899 19.5529 7.50582 19.8877 7.50682 20.3018C7.50768 20.716 7.17201 21.0529 6.7578 21.0537L3.00194 21.0615C2.84014 21.0619 2.68524 21.0071 2.55663 20.9121C2.53775 20.8982 2.51974 20.8831 2.50194 20.8672C2.4918 20.8581 2.4794 20.8515 2.46971 20.8418C2.46088 20.833 2.45461 20.8217 2.44628 20.8125C2.42827 20.7928 2.41198 20.7721 2.39647 20.751C2.33171 20.6621 2.28555 20.5619 2.26463 20.4541C2.25488 20.4045 2.24963 20.3541 2.24999 20.3037L2.2578 16.5528C2.25887 16.1387 2.59567 15.8039 3.00975 15.8047C3.42377 15.8058 3.75866 16.1426 3.7578 16.5567L3.75292 18.4942L7.13573 15.1123Z" fill="#253035"/>
</svg>
