<svg width="24" height="24" viewBox="0 0 24 24" fill="none" xmlns="http://www.w3.org/2000/svg">
<path fill-rule="evenodd" clip-rule="evenodd" d="M18.4105 11.8C18.4105 12.214 18.0745 12.55 17.6605 12.55C17.2465 12.55 16.9105 12.214 16.9105 11.8C16.9105 11.386 17.2465 11.05 17.6605 11.05C18.0745 11.05 18.4105 11.386 18.4105 11.8ZM15.7075 11.86C15.7075 12.859 16.5215 13.672 17.5205 13.672H21.9805C22.0225 13.144 22.0505 12.595 22.0505 12C22.0505 11.298 22.0155 10.655 21.9565 10.046H17.5205C16.5215 10.046 15.7075 10.86 15.7075 11.86Z" fill="#253035"/>
<path fill-rule="evenodd" clip-rule="evenodd" d="M11.9017 8.64094H7.84171C7.42771 8.64094 7.09171 8.30494 7.09171 7.89094C7.09171 7.47694 7.42771 7.14094 7.84171 7.14094H11.9017C12.3157 7.14094 12.6517 7.47694 12.6517 7.89094C12.6517 8.30494 12.3157 8.64094 11.9017 8.64094ZM17.5207 15.1719C15.6937 15.1719 14.2077 13.6859 14.2077 11.8599C14.2077 10.0329 15.6937 8.54594 17.5207 8.54594H21.7307C20.8527 4.49194 18.0597 2.96094 12.2507 2.96094C5.01471 2.96094 2.44971 5.32694 2.44971 11.9999C2.44971 18.6739 5.01471 21.0389 12.2507 21.0389C18.1927 21.0389 20.9807 19.4389 21.7887 15.1719H17.5207Z" fill="#253035"/>
</svg>
