<svg width="24" height="24" viewBox="0 0 24 24" fill="none" xmlns="http://www.w3.org/2000/svg">
<path d="M14.3439 11.8837C14.3441 10.1666 15.7365 8.77549 17.4523 8.77527H20.9992C21.4134 8.77527 21.7492 9.11105 21.7492 9.52527C21.7492 9.93948 21.4134 10.2753 20.9992 10.2753H17.4523C16.5645 10.2755 15.8441 10.9955 15.8439 11.8837C15.8439 12.7709 16.5642 13.4918 17.4523 13.4921H20.9992C21.4134 13.4921 21.7492 13.8279 21.7492 14.2421C21.749 14.6562 21.4133 14.9921 20.9992 14.9921H17.4523C15.7366 14.9918 14.3439 13.6001 14.3439 11.8837Z" fill="#A2B5BE"/>
<path d="M3.98341 19.6355V15.8455L3.52052 16.2927C3.22235 16.5801 2.74745 16.5713 2.45997 16.2732C2.17255 15.975 2.18138 15.5002 2.4795 15.2127L4.2129 13.5408L4.32911 13.449C4.61572 13.2651 4.99969 13.2958 5.25392 13.5408L6.98732 15.2127C7.28535 15.5003 7.29343 15.9751 7.00587 16.2732C6.7183 16.5713 6.24341 16.5802 5.94532 16.2927L5.48341 15.8465V19.6355C5.48315 20.0495 5.14746 20.3855 4.73341 20.3855C4.31944 20.3854 3.98367 20.0494 3.98341 19.6355Z" fill="#A2B5BE"/>
<path d="M17.2852 11.0787C17.6993 11.0788 18.0352 11.4146 18.0352 11.8287C18.0352 12.2428 17.6993 12.5786 17.2852 12.5787H17.2823C16.8681 12.5787 16.5323 12.2429 16.5323 11.8287C16.5323 11.4145 16.8681 11.0787 17.2823 11.0787H17.2852Z" fill="#253035"/>
<path d="M20.25 15.1445V8.85645C20.25 6.73143 18.5264 5.00781 16.4014 5.00781H8.8291C6.70409 5.00781 4.98047 6.73144 4.98047 8.85645V9.8877C4.98031 10.3018 4.64458 10.6377 4.23047 10.6377C3.81636 10.6377 3.48063 10.3018 3.48047 9.8877V8.85645C3.48047 5.90301 5.87566 3.50781 8.8291 3.50781H16.4014C19.3549 3.50781 21.75 5.90302 21.75 8.85645V15.1445C21.75 18.0979 19.3549 20.4932 16.4014 20.4932H14.0859C13.6718 20.4932 13.3361 20.1573 13.3359 19.7432C13.3359 19.329 13.6717 18.9932 14.0859 18.9932H16.4014C18.5264 18.9932 20.25 17.2695 20.25 15.1445Z" fill="#253035"/>
<path d="M8.6123 14.0808C8.6123 13.6667 8.94828 13.331 9.3623 13.3308C9.77652 13.3308 10.1123 13.6666 10.1123 14.0808V17.8728L10.5762 17.4255C10.8743 17.138 11.3491 17.1469 11.6367 17.4451C11.9242 17.7432 11.9162 18.218 11.6182 18.5056L9.88476 20.1775C9.76548 20.2925 9.61685 20.3561 9.46387 20.3767C9.44515 20.3792 9.42635 20.3814 9.40723 20.3826C9.37912 20.3842 9.35135 20.3841 9.32324 20.3826C9.30081 20.3814 9.2787 20.3798 9.25683 20.3767C9.14664 20.3608 9.04003 20.3216 8.94433 20.2566C8.93817 20.2524 8.93279 20.2472 8.92676 20.2429C8.89851 20.2225 8.86956 20.2023 8.84375 20.1775L7.11035 18.5056C6.81232 18.2181 6.8035 17.7432 7.09082 17.4451C7.37833 17.147 7.85324 17.1381 8.15137 17.4255L8.6123 17.8699V14.0808Z" fill="#253035"/>
</svg>
