<svg width="24" height="24" viewBox="0 0 24 24" fill="none" xmlns="http://www.w3.org/2000/svg">
<path fill-rule="evenodd" clip-rule="evenodd" d="M17.28 12.4385C16.87 12.4385 16.53 12.1085 16.53 11.6885C16.53 11.2785 16.87 10.9385 17.28 10.9385C17.69 10.9385 18.03 11.2785 18.03 11.6885C18.03 12.1085 17.7 12.4385 17.28 12.4385ZM17.19 9.9585C16.21 9.9585 15.41 10.7585 15.41 11.7485C15.41 12.7285 16.21 13.5285 17.19 13.5285H21.2C21.3657 13.5285 21.5 13.3942 21.5 13.2285V10.2585C21.5 10.0928 21.3657 9.9585 21.2 9.9585H17.19Z" fill="#253035"/>
<path fill-rule="evenodd" clip-rule="evenodd" d="M13.91 11.7486C13.91 9.93859 15.38 8.45859 17.19 8.45859H21.188C21.3545 8.45859 21.4899 8.3228 21.4797 8.15665C21.3041 5.31683 18.9387 3.05859 16.06 3.05859H7.93C4.93 3.05859 2.5 5.49859 2.5 8.49859V13.6417C2.5 13.8495 2.70748 13.995 2.91246 13.961C3.04051 13.9397 3.17302 13.9286 3.31 13.9286C3.86501 13.9286 4.50727 14.1296 4.94491 14.5157C5.08182 14.6365 5.2955 14.6531 5.42459 14.524L6.2 13.7486C7.17 12.7786 8.76 12.7786 9.73 13.7486C10.71 14.7286 10.71 16.3086 9.73 17.2886L8.93799 18.0806C8.81482 18.2038 8.82364 18.4047 8.93891 18.5353C9.32252 18.9699 9.55156 19.5443 9.56 20.1686C9.56 20.2199 9.55837 20.2705 9.55535 20.3202C9.54395 20.5077 9.68364 20.6786 9.87148 20.6786H16.06C19.0826 20.6786 21.346 18.2352 21.4925 15.3286C21.5008 15.1631 21.3657 15.0286 21.2 15.0286H17.19C15.38 15.0286 13.91 13.5586 13.91 11.7486Z" fill="#253035"/>
<path fill-rule="evenodd" clip-rule="evenodd" d="M8.49629 14.9888C8.20329 14.6958 7.72829 14.6958 7.43529 14.9888L4.05329 18.3728L4.05829 16.4298C4.05929 16.0148 3.72429 15.6788 3.30929 15.6778C2.89529 15.6778 2.55929 16.0128 2.55829 16.4258L2.55029 20.1868C2.55029 20.2838 2.56929 20.3818 2.60629 20.4728C2.64329 20.5648 2.69829 20.6488 2.76929 20.7188C2.84029 20.7898 2.92429 20.8448 3.01529 20.8818C3.10629 20.9198 3.20329 20.9388 3.30029 20.9388H3.30229L7.05929 20.9278C7.47329 20.9268 7.80829 20.5908 7.80729 20.1758C7.80629 19.7618 7.47029 19.4278 7.05729 19.4278H7.05529L5.11529 19.4338L8.49629 16.0498C8.78929 15.7568 8.78929 15.2818 8.49629 14.9888Z" fill="#253035"/>
</svg>
