<svg width="24" height="24" viewBox="0 0 24 24" fill="none" xmlns="http://www.w3.org/2000/svg">
<path d="M2.25 11.9999C2.25012 6.02901 7.68815 1.26695 13.8535 2.42375C17.735 3.15216 20.8478 6.26602 21.5762 10.1464C22.733 16.3118 17.9709 21.7498 12 21.7499C10.4726 21.7499 8.94839 21.3812 7.6123 20.706C7.53147 20.6655 7.47088 20.6639 7.4248 20.6747L7.42383 20.6757C7.02187 20.7703 6.49518 20.8984 5.9502 21.0331L4.36523 21.4286C3.28267 21.7012 2.29191 20.7358 2.54395 19.6445L3.26172 16.4882V16.4872C3.27274 16.437 3.26809 16.3761 3.2373 16.3105V16.3095C2.62686 15.0022 2.25 13.5427 2.25 11.9999ZM3.75 11.9999C3.75 13.2959 4.06613 14.5393 4.5957 15.6738L4.65137 15.8056C4.76898 16.1173 4.8015 16.4631 4.72656 16.8066L4.72754 16.8075C4.57125 17.5236 4.24267 18.9477 4.00684 19.9706C4.48064 19.8515 5.0437 19.7121 5.58984 19.5771L7.08008 19.2148C7.51014 19.1133 7.93003 19.1872 8.28613 19.3661L8.28809 19.3671C9.41525 19.9369 10.7082 20.2499 12 20.2499C17.0523 20.2498 21.0813 15.6447 20.1016 10.4228C19.4872 7.15044 16.8503 4.51275 13.5771 3.89836C8.35523 2.91858 3.75012 6.94754 3.75 11.9999Z" fill="#A2B5BE"/>
<path d="M8.19923 7.80163C9.08609 6.9163 10.5614 7.0418 11.2803 8.07311L11.7412 8.73131L11.7422 8.73327C12.242 9.44736 12.2244 10.3973 11.7178 11.0887C12.0894 11.5982 12.4265 11.9535 12.8906 12.287C13.5831 11.7684 14.5437 11.7499 15.2627 12.2548H15.2617L15.9199 12.7128L15.9219 12.7147C16.9511 13.4332 17.0806 14.9073 16.1924 15.7948L16.0645 15.9237L16.0635 15.9256C15.1126 16.8719 13.8972 16.9539 12.7607 16.5809C11.6553 16.2181 10.5501 15.4133 9.58302 14.4462C8.61594 13.479 7.80421 12.367 7.43262 11.2557C7.05188 10.1168 7.11763 8.8879 8.06934 7.93151L8.19923 7.80163ZM10.0498 8.93151C9.86748 8.66964 9.48861 8.63374 9.2588 8.86315L9.13184 8.98913C8.69713 9.426 8.59529 10.0019 8.85548 10.7801C9.12489 11.5857 9.76332 12.5044 10.6445 13.3856C11.5259 14.267 12.4344 14.8945 13.2285 15.1551C13.9917 15.4056 14.5625 15.3023 15.0049 14.8622L15.1328 14.7342C15.3597 14.5075 15.3272 14.1309 15.0654 13.9462L14.4024 13.4833L14.4004 13.4823C14.1907 13.3351 13.9088 13.3616 13.7354 13.534L13.7344 13.535L13.499 13.7684C13.2563 14.0093 12.8808 14.0555 12.5869 13.8807C11.4479 13.2023 10.8589 12.5275 10.1357 11.4413C9.93836 11.1448 9.9767 10.7498 10.2275 10.4969L10.4609 10.2616C10.6338 10.0867 10.6602 9.80322 10.5137 9.59362C10.3495 9.36012 10.1964 9.14031 10.0508 8.93151H10.0498Z" fill="#253035"/>
</svg>
