<svg width="24" height="24" viewBox="0 0 24 24" fill="none" xmlns="http://www.w3.org/2000/svg">
<path d="M2.25 11.9999C2.25012 6.02901 7.68815 1.26695 13.8535 2.42375C17.735 3.15216 20.8478 6.26602 21.5762 10.1464C22.733 16.3118 17.9709 21.7498 12 21.7499C10.4726 21.7499 8.94839 21.3812 7.6123 20.706C7.53147 20.6655 7.47088 20.6639 7.4248 20.6747L7.42383 20.6757C7.02187 20.7703 6.49518 20.8984 5.9502 21.0331L4.36523 21.4286C3.28267 21.7012 2.29191 20.7358 2.54395 19.6445L3.26172 16.4882C3.27274 16.438 3.26809 16.3761 3.2373 16.3105C2.62686 15.0032 2.25 13.5427 2.25 11.9999ZM3.75 11.9999C3.75 13.2959 4.06613 14.5393 4.5957 15.6738L4.65137 15.8056C4.76898 16.1173 4.8015 16.4631 4.72656 16.8066L4.72754 16.8075C4.57125 17.5236 4.24267 18.9477 4.00684 19.9706C4.48064 19.8515 5.0437 19.7121 5.58984 19.5771L7.08008 19.2148C7.51014 19.1133 7.93003 19.1872 8.28613 19.3661L8.28809 19.3671C9.41525 19.9369 10.7082 20.2499 12 20.2499C17.0523 20.2498 21.0813 15.6447 20.1016 10.4228C19.4872 7.15044 16.8503 4.51275 13.5771 3.89836C8.35523 2.91858 3.75012 6.94754 3.75 11.9999Z" fill="#253035"/>
<path d="M8.19922 7.80168C9.08608 6.91636 10.5614 7.04186 11.2803 8.07317L11.7412 8.73137L11.7422 8.73332C12.242 9.44742 12.2244 10.3974 11.7178 11.0888C12.0894 11.5983 12.4265 11.9535 12.8906 12.287C13.5831 11.7684 14.5437 11.7499 15.2627 12.2548L15.9199 12.7128L15.9219 12.7148C16.9511 13.4333 17.0806 14.9073 16.1924 15.7948L16.0645 15.9238L16.0635 15.9257C15.1125 16.8719 13.8972 16.9539 12.7607 16.581C11.6553 16.2182 10.5501 15.4134 9.58301 14.4462C8.61593 13.4791 7.8042 12.3671 7.43262 11.2558C7.05187 10.1169 7.11762 8.88795 8.06934 7.93156L8.19922 7.80168ZM10.0498 8.93156C9.86747 8.66969 9.4886 8.63379 9.25879 8.8632L9.13184 8.98918C8.69712 9.42605 8.59529 10.0019 8.85547 10.7802C9.12488 11.5858 9.76331 12.5045 10.6445 13.3857C11.5259 14.2671 12.4344 14.8946 13.2285 15.1552C13.9917 15.4057 14.5625 15.3024 15.0049 14.8622L15.1328 14.7343C15.3596 14.5075 15.3272 14.1309 15.0654 13.9462L14.4023 13.4833L14.4004 13.4823C14.1907 13.3351 13.9087 13.3617 13.7354 13.5341L13.7344 13.5351L13.499 13.7685C13.2563 14.0094 12.8808 14.0556 12.5869 13.8808C11.4479 13.2024 10.8589 12.5276 10.1357 11.4413C9.93835 11.1448 9.9767 10.7499 10.2275 10.497L10.4609 10.2616C10.6338 10.0868 10.6601 9.80328 10.5137 9.59367C10.3495 9.36017 10.1954 9.14036 10.0498 8.93156Z" fill="#253035"/>
</svg>
