<svg width="24" height="24" viewBox="0 0 24 24" fill="none" xmlns="http://www.w3.org/2000/svg">
<path fill-rule="evenodd" clip-rule="evenodd" d="M9.74021 4.86273C9.74021 4.01373 10.3282 3.32373 11.0502 3.32373H13.4502C14.1722 3.32373 14.7602 4.01373 14.7602 4.86273V4.88673C13.9942 4.80973 13.1602 4.77173 12.2502 4.77173C11.3392 4.77173 10.5052 4.80973 9.74021 4.88673V4.86273ZM2.75621 10.7817C5.36521 12.3897 8.74521 13.2767 12.2702 13.2797C15.7882 13.2767 19.1592 12.3927 21.7662 10.7917C21.2382 7.52873 19.5732 5.79273 16.2602 5.11773V4.86273C16.2602 3.18673 14.9992 1.82373 13.4502 1.82373H11.0502C9.50121 1.82373 8.24021 3.18673 8.24021 4.86273V5.11773C4.93221 5.79173 3.26821 7.52273 2.73621 10.7737C2.74321 10.7777 2.75021 10.7777 2.75621 10.7817Z" fill="#253035"/>
<path fill-rule="evenodd" clip-rule="evenodd" d="M13 14.8176V16.9806C13 17.3946 12.664 17.7306 12.25 17.7306C11.836 17.7306 11.5 17.3946 11.5 16.9806V14.8166C8.23904 14.7076 5.12104 13.8936 2.56404 12.4846C2.54904 12.8036 2.54004 13.1316 2.54004 13.4736C2.54004 19.8996 5.08104 22.1766 12.25 22.1766C19.419 22.1766 21.96 19.8996 21.96 13.4736C21.96 13.1396 21.952 12.8186 21.938 12.5076C19.377 13.9086 16.259 14.7146 13 14.8176Z" fill="#253035"/>
</svg>
