<svg width="24" height="24" viewBox="0 0 24 24" fill="none" xmlns="http://www.w3.org/2000/svg">
<path d="M11.4612 16.5167V13.8888C11.4612 13.4746 11.797 13.1388 12.2112 13.1388C12.6254 13.1388 12.9612 13.4746 12.9612 13.8888V16.5167C12.9612 16.9309 12.6254 17.2667 12.2112 17.2667C11.797 17.2667 11.4612 16.9309 11.4612 16.5167Z" fill="#A2B5BE"/>
<path d="M20.8999 10.8703C21.2354 10.6275 21.7039 10.7028 21.9468 11.0382C22.1895 11.3736 22.115 11.8422 21.7798 12.0851L21.7505 12.1066C21.7354 12.1175 21.7194 12.1271 21.7036 12.1369C19.1509 13.7094 15.814 14.6418 12.2065 14.6418C8.59867 14.6418 5.27074 13.7093 2.71924 12.1369C2.7068 12.1292 2.6941 12.1218 2.68213 12.1134L2.65283 12.092C2.31356 11.8545 2.2309 11.3873 2.46826 11.048C2.70575 10.7087 3.17289 10.6261 3.51221 10.8634L3.51807 10.8683C5.80718 12.2754 8.85251 13.1418 12.2065 13.1418C15.5558 13.1418 18.6053 12.2773 20.894 10.8742L20.8999 10.8703Z" fill="#A2B5BE"/>
<path d="M14.7241 5.36914V4.73926C14.7241 3.81329 14.0641 3.2002 13.4136 3.2002H11.0083C10.358 3.20045 9.69873 3.81347 9.69873 4.73926V5.36914C9.69873 5.78335 9.36294 6.11914 8.94873 6.11914C8.53452 6.11914 8.19873 5.78335 8.19873 5.36914V4.73926C8.19873 3.13737 9.38503 1.70043 11.0083 1.7002H13.4136C15.0371 1.7002 16.2241 3.13723 16.2241 4.73926V5.36914C16.2241 5.78321 15.8881 6.11891 15.4741 6.11914C15.0599 6.11914 14.7241 5.78335 14.7241 5.36914Z" fill="#A2B5BE"/>
<path d="M20.6721 13.3511C20.6721 10.3341 20.1003 8.56396 18.9084 7.50244C17.6902 6.41755 15.6376 5.89795 12.2112 5.89795C8.7851 5.89795 6.73229 6.4174 5.51392 7.50244C4.32194 8.56399 3.75024 10.3342 3.75024 13.3511C3.75026 16.3679 4.32195 18.1382 5.51392 19.1997C6.7323 20.2847 8.7852 20.8042 12.2112 20.8042C15.6375 20.8042 17.6902 20.2845 18.9084 19.1997C20.1003 18.1382 20.6721 16.368 20.6721 13.3511ZM22.1721 13.3511C22.1721 16.486 21.5929 18.8179 19.9065 20.3198C18.2465 21.7982 15.6935 22.3042 12.2112 22.3042C8.72959 22.3042 6.17697 21.798 4.51685 20.3198C2.83036 18.8179 2.25026 16.4861 2.25024 13.3511C2.25024 10.216 2.83034 7.88428 4.51685 6.38232C6.17697 4.90404 8.7295 4.39795 12.2112 4.39795C15.6935 4.39795 18.2465 4.90384 19.9065 6.38232C21.5929 7.8843 22.1721 10.2161 22.1721 13.3511Z" fill="#253035"/>
</svg>
