<svg width="24" height="24" viewBox="0 0 24 24" fill="none" xmlns="http://www.w3.org/2000/svg">
<path d="M11.4612 16.5166V13.8887C11.4612 13.4745 11.797 13.1387 12.2112 13.1387C12.6254 13.1387 12.9612 13.4745 12.9612 13.8887V16.5166C12.9612 16.9308 12.6254 17.2666 12.2112 17.2666C11.797 17.2666 11.4612 16.9308 11.4612 16.5166Z" fill="#253035"/>
<path d="M20.8999 10.8702C21.2354 10.6274 21.7039 10.7027 21.9468 11.0381C22.1895 11.3735 22.115 11.842 21.7798 12.085L21.7505 12.1065C21.7354 12.1174 21.7195 12.127 21.7036 12.1368C19.1509 13.7093 15.8141 14.6416 12.2065 14.6416C8.59867 14.6416 5.27074 13.7092 2.71924 12.1368C2.70681 12.1291 2.6941 12.1217 2.68213 12.1133L2.65284 12.0918C2.31356 11.8543 2.2309 11.3872 2.46827 11.0479C2.70576 10.7086 3.17289 10.626 3.51221 10.8633L3.51807 10.8682C5.80718 12.2753 8.85251 13.1416 12.2065 13.1416C15.5558 13.1416 18.6053 12.2772 20.894 10.8741L20.8999 10.8702Z" fill="#253035"/>
<path d="M20.6721 13.3507C20.6721 10.3337 20.1003 8.5636 18.9084 7.50208C17.6902 6.41719 15.6376 5.89758 12.2112 5.89758C8.7851 5.89759 6.73229 6.41703 5.51392 7.50208C4.32194 8.56363 3.75024 10.3338 3.75024 13.3507C3.75026 16.3675 4.32195 18.1378 5.51392 19.1993C6.7323 20.2843 8.7852 20.8038 12.2112 20.8038C15.6375 20.8038 17.6902 20.2842 18.9084 19.1993C20.1003 18.1378 20.6721 16.3676 20.6721 13.3507ZM22.1721 13.3507C22.1721 16.4857 21.5929 18.8175 19.9065 20.3195C18.2465 21.7979 15.6935 22.3038 12.2112 22.3038C8.72959 22.3038 6.17697 21.7977 4.51685 20.3195C2.83036 18.8175 2.25026 16.4857 2.25024 13.3507C2.25024 10.2156 2.83034 7.88391 4.51685 6.38196C6.17697 4.90368 8.7295 4.39759 12.2112 4.39759C15.6935 4.39759 18.2465 4.90348 19.9065 6.38196C21.5929 7.88394 22.1721 10.2157 22.1721 13.3507Z" fill="#253035"/>
<path d="M14.7241 5.36914V4.73926C14.7241 3.81329 14.0641 3.2002 13.4136 3.2002H11.0083C10.358 3.20045 9.69873 3.81347 9.69873 4.73926V5.36914C9.69873 5.78335 9.36295 6.11914 8.94873 6.11914C8.53452 6.11914 8.19873 5.78335 8.19873 5.36914V4.73926C8.19873 3.13737 9.38503 1.70043 11.0083 1.7002H13.4136C15.0371 1.7002 16.2241 3.13723 16.2241 4.73926V5.36914C16.2241 5.78321 15.8881 6.11891 15.4741 6.11914C15.0599 6.11914 14.7241 5.78335 14.7241 5.36914Z" fill="#253035"/>
</svg>
