<svg width="24" height="24" viewBox="0 0 24 24" fill="none" xmlns="http://www.w3.org/2000/svg">
<path d="M16.2168 2.25C17.876 2.25 19.2787 2.84078 20.2627 3.89746C21.2411 4.94822 21.75 6.39888 21.75 8.02637V15.9736C21.75 17.6011 21.2413 19.0518 20.2627 20.1025C19.2785 21.1593 17.8755 21.75 16.2158 21.75H7.78223C6.12288 21.75 4.72013 21.1594 3.73633 20.1025C2.75818 19.0517 2.25001 17.601 2.25 15.9736V8.02637C2.25 6.39807 2.76123 4.9478 3.74023 3.89746C4.72472 2.84126 6.12676 2.25 7.78223 2.25H16.2168ZM16.7188 6.4375C16.4079 6.16382 15.9339 6.19402 15.6602 6.50488L12.875 9.66797L11.1201 7.08008L11.0176 6.94727C10.7615 6.65525 10.3901 6.48438 9.99609 6.48438H7.71777C6.92082 6.48438 6.44819 7.37558 6.89551 8.03516L10.1211 12.791L6.85547 16.5029C6.58177 16.8138 6.61197 17.2878 6.92285 17.5615C7.23369 17.8349 7.70682 17.8048 7.98047 17.4941L10.9912 14.0732L12.9355 16.9404C13.1883 17.3129 13.6093 17.5361 14.0596 17.5361H16.3379C17.1344 17.5361 17.6078 16.6452 17.1602 15.9854L13.7441 10.9492L16.7861 7.49512C17.0594 7.1843 17.0293 6.71114 16.7188 6.4375ZM9.9209 7.98438L15.3828 16.0361H14.1348L8.67285 7.98438H9.9209Z" fill="#253035"/>
</svg>
