<svg width="24" height="24" viewBox="0 0 24 24" fill="none" xmlns="http://www.w3.org/2000/svg">
<path d="M20.25 8.02637C20.25 6.70868 19.8412 5.64605 19.165 4.91992C18.4945 4.19983 17.5056 3.75 16.2168 3.75H7.78223C6.49854 3.75 5.50964 4.19942 4.83789 4.91992C4.16068 5.64646 3.75 6.70951 3.75 8.02637V15.9736C3.75001 17.2914 4.15907 18.354 4.83496 19.0801C5.50521 19.8 6.49356 20.25 7.78223 20.25H16.2158C17.5052 20.25 18.4944 19.8002 19.165 19.0801C19.8412 18.354 20.25 17.2913 20.25 15.9736V8.02637ZM21.75 15.9736C21.75 17.6011 21.2413 19.0518 20.2627 20.1025C19.2785 21.1593 17.8755 21.75 16.2158 21.75H7.78223C6.12288 21.75 4.72013 21.1594 3.73633 20.1025C2.75818 19.0517 2.25001 17.601 2.25 15.9736V8.02637C2.25 6.39807 2.76123 4.9478 3.74023 3.89746C4.72472 2.84126 6.12676 2.25 7.78223 2.25H16.2168C17.876 2.25 19.2787 2.84078 20.2627 3.89746C21.2411 4.94822 21.75 6.39888 21.75 8.02637V15.9736Z" fill="#253035"/>
<path d="M15.6602 6.50488C15.9339 6.19398 16.4079 6.1638 16.7188 6.4375C17.0293 6.71115 17.0595 7.1843 16.7861 7.49512L13.7441 10.9492L17.1602 15.9854C17.6078 16.6452 17.1344 17.5361 16.3379 17.5361H14.0596C13.6093 17.5361 13.1883 17.3129 12.9355 16.9404L10.9912 14.0732L7.98047 17.4941C7.70682 17.8048 7.23369 17.8349 6.92285 17.5615C6.61195 17.2878 6.58177 16.8138 6.85547 16.5029L10.1211 12.791L6.89551 8.03516C6.44816 7.37558 6.92081 6.48438 7.71777 6.48438H9.9961C10.3901 6.48438 10.7615 6.65524 11.0176 6.94727L11.1201 7.08008L12.875 9.66797L15.6602 6.50488ZM14.1348 16.0361H15.3828L9.9209 7.98438H8.67285L14.1348 16.0361Z" fill="#253035"/>
</svg>
