<svg width="24" height="24" viewBox="0 0 24 24" fill="none" xmlns="http://www.w3.org/2000/svg">
<path d="M20.25 8.02637C20.25 6.70868 19.8412 5.64605 19.165 4.91992C18.4945 4.19983 17.5056 3.75 16.2168 3.75H7.78223C6.49854 3.75 5.50964 4.19942 4.83789 4.91992C4.16068 5.64646 3.75 6.70951 3.75 8.02637V15.9736C3.75001 17.2914 4.15907 18.354 4.83496 19.0801C5.50521 19.8 6.49356 20.25 7.78223 20.25H16.2158C17.5052 20.25 18.4944 19.8002 19.165 19.0801C19.8412 18.354 20.25 17.2913 20.25 15.9736V8.02637ZM21.75 15.9736C21.75 17.6011 21.2413 19.0518 20.2627 20.1025C19.2785 21.1593 17.8755 21.75 16.2158 21.75H7.78223C6.12288 21.75 4.72013 21.1594 3.73633 20.1025C2.75818 19.0517 2.25001 17.601 2.25 15.9736V8.02637C2.25 6.39807 2.76123 4.9478 3.74023 3.89746C4.72472 2.84126 6.12676 2.25 7.78223 2.25H16.2168C17.876 2.25 19.2787 2.84078 20.2627 3.89746C21.2411 4.94822 21.75 6.39888 21.75 8.02637V15.9736Z" fill="#A2B5BE"/>
<path d="M15.6601 6.50493C15.9338 6.19403 16.4078 6.16385 16.7187 6.43755C17.0293 6.71119 17.0595 7.18434 16.7861 7.49517L13.7441 10.9493L17.1601 15.9854C17.6078 16.6453 17.1344 17.5362 16.3379 17.5362H14.0596C13.6093 17.5362 13.1883 17.313 12.9355 16.9405L10.9912 14.0733L7.98046 17.4942C7.7068 17.8048 7.23368 17.835 6.92284 17.5616C6.61194 17.2879 6.58175 16.8139 6.85546 16.503L10.1211 12.7911L6.89549 8.0352C6.44814 7.37563 6.92079 6.48442 7.71776 6.48442H9.99608C10.3901 6.48442 10.7615 6.65528 11.0176 6.94731L11.1201 7.08013L12.875 9.66802L15.6601 6.50493ZM14.1348 16.0362H15.3828L9.92089 7.98442H8.67284L14.1348 16.0362Z" fill="#253035"/>
</svg>
