<svg width="24" height="24" viewBox="0 0 24 24" fill="none" xmlns="http://www.w3.org/2000/svg">
<path d="M19.3827 14.6758C19.6514 14.7391 19.8179 15.0077 19.7548 15.2764L19.747 15.3096L18.997 18.7695C18.6514 20.3624 17.2429 21.4999 15.6122 21.5H9.39543C7.7648 21.4999 6.35628 20.3624 6.01066 18.7695L5.25871 15.3008C5.20038 15.031 5.37175 14.7655 5.64152 14.707C5.91112 14.6488 6.17658 14.8194 6.23527 15.0889L6.9882 18.5576C7.23412 19.691 8.23576 20.4999 9.39543 20.5H15.6122C16.7719 20.4999 17.7735 19.691 18.0195 18.5576L18.7724 15.0889L18.7743 15.0801L18.7821 15.0478C18.8455 14.7792 19.114 14.6126 19.3827 14.6758Z" fill="#A2B5BE"/>
<path d="M19.9033 12.9023C19.9033 11.58 18.8431 10.5205 17.5215 10.5205C17.4089 10.5394 17.2922 10.5212 17.1914 10.4639C17.0644 10.3915 16.9758 10.2666 16.9482 10.123C16.6912 8.78551 15.8324 7.67266 14.6641 7.07519C14.3012 7.80597 13.5505 8.30939 12.6797 8.30957C11.8064 8.30957 11.0526 7.80461 10.6904 7.07129C9.51605 7.67884 8.65107 8.80576 8.4082 10.1504C8.35926 10.4202 8.10234 10.6001 7.83203 10.5537C7.70818 10.5324 7.59756 10.5205 7.48535 10.5205C6.16205 10.5205 5.0957 11.5818 5.0957 12.9023C5.09572 13.6333 5.42584 14.2842 5.93848 14.7109L6.04395 14.793L6.05273 14.8008C6.44588 15.1055 6.94269 15.2832 7.48535 15.2832C8.21181 15.2832 8.86102 14.9448 9.2959 14.4209L9.36621 14.3506C9.54421 14.2067 9.80384 14.2006 9.99023 14.3477C10.734 14.9349 11.6599 15.2831 12.6768 15.2832C13.6041 15.2832 14.4664 14.9872 15.1748 14.4951L15.2529 14.4502C15.4422 14.364 15.6702 14.4037 15.8193 14.5576C16.2521 15.0041 16.8532 15.2832 17.5215 15.2832C18.0724 15.2832 18.5617 15.1056 18.9541 14.8008L18.96 14.7959C19.5335 14.3658 19.9033 13.6751 19.9033 12.9023ZM17.5322 10.5176C17.5363 10.517 17.5416 10.5175 17.5469 10.5166C17.5602 10.5142 17.5818 10.5086 17.6084 10.499C17.5835 10.508 17.5578 10.5127 17.5322 10.5176ZM12.6699 4.87305C12.0006 4.87804 11.46 5.42256 11.46 6.0918C11.46 6.16481 11.4672 6.2362 11.4795 6.30566C11.4808 6.31314 11.4814 6.32065 11.4824 6.32812C11.5926 6.88785 12.087 7.30957 12.6797 7.30957C13.3521 7.30932 13.8972 6.76471 13.8975 6.0918C13.8975 5.43154 13.3715 4.8934 12.7158 4.87402C12.7006 4.87384 12.6853 4.87464 12.6699 4.87305ZM20.9033 12.9023C20.9033 13.9966 20.3802 14.9764 19.5664 15.5898C18.9995 16.0301 18.2957 16.2832 17.5215 16.2832C16.7173 16.2832 15.9835 15.9983 15.4072 15.5322C14.6098 16.0037 13.6754 16.2832 12.6768 16.2832C11.5881 16.2831 10.5829 15.957 9.73926 15.3984C9.14758 15.94 8.36014 16.2832 7.48535 16.2832C6.72418 16.2832 6.01594 16.0331 5.44922 15.5967V15.5977C4.63033 14.9927 4.09572 14.0097 4.0957 12.9023C4.0957 11.0258 5.61349 9.52055 7.48535 9.52051C7.49943 9.52051 7.51346 9.52223 7.52734 9.52246C7.94694 7.98107 9.03839 6.72411 10.4609 6.07226C10.4701 4.98146 11.2666 4.07992 12.3105 3.90527C12.4041 3.58134 12.5438 3.31102 12.6719 3.10937C12.7619 2.96772 12.8485 2.85564 12.9141 2.77734C12.947 2.73806 12.9753 2.70698 12.9961 2.68457C13.0065 2.67336 13.0158 2.66408 13.0225 2.65722C13.0255 2.65414 13.0281 2.65158 13.0303 2.64941C13.0314 2.64825 13.0323 2.64639 13.0332 2.64551L13.0352 2.64453V2.64355H13.0361C13.2329 2.45005 13.5495 2.45269 13.7432 2.64941C13.936 2.84559 13.9341 3.16068 13.7393 3.35449L13.7285 3.36523C13.7184 3.37606 13.7017 3.39481 13.6807 3.41992C13.6385 3.47029 13.5792 3.54695 13.5166 3.64551C13.4569 3.73951 13.3973 3.85081 13.3457 3.97461C14.2408 4.2563 14.8903 5.09069 14.8965 6.07715C16.3282 6.72671 17.4136 7.9891 17.835 9.53515C19.5607 9.69219 20.9033 11.1333 20.9033 12.9023Z" fill="#253035"/>
</svg>
