<svg width="24" height="24" viewBox="0 0 24 24" fill="none" xmlns="http://www.w3.org/2000/svg">
<path fill-rule="evenodd" clip-rule="evenodd" d="M12 3.25C15.4962 3.25 17.9864 3.82633 19.5801 5.41992C21.1737 7.01354 21.75 9.50384 21.75 13C21.75 16.4962 21.1737 18.9864 19.5801 20.5801C17.9864 22.1737 15.4962 22.75 12 22.75C8.50377 22.75 6.01357 22.1737 4.41992 20.5801C2.82633 18.9864 2.25 16.4962 2.25 13C2.25001 9.50384 2.8263 7.01354 4.41992 5.41992C6.01357 3.82633 8.50381 3.25 12 3.25ZM9.95312 10.2393C9.75786 10.0443 9.44127 10.0441 9.24609 10.2393C9.05092 10.4344 9.0511 10.751 9.24609 10.9463L11.29 12.9902L9.24805 15.0332C9.05314 15.2284 9.05314 15.545 9.24805 15.7402C9.44322 15.9354 9.7598 15.9352 9.95508 15.7402L11.9971 13.6973L14.0459 15.7461C14.2412 15.9413 14.5577 15.9413 14.7529 15.7461C14.9481 15.5508 14.9482 15.2343 14.7529 15.0391L12.7041 12.9902L14.7471 10.9482C14.9423 10.753 14.9423 10.4365 14.7471 10.2412C14.5518 10.0462 14.2352 10.0461 14.04 10.2412L11.9971 12.2832L9.95312 10.2393Z" fill="#253035"/>
</svg>
