<svg width="24" height="24" viewBox="0 0 24 24" fill="none" xmlns="http://www.w3.org/2000/svg">
<path d="M20.75 13.0001C20.75 9.55937 20.1702 7.42418 18.873 6.12708C17.5759 4.82997 15.4408 4.25012 12 4.25012C8.55923 4.25012 6.42406 4.82997 5.12695 6.12708C3.82985 7.42418 3.25 9.55937 3.25 13.0001C3.25 16.4409 3.82985 18.5761 5.12695 19.8732C6.42406 21.1703 8.55924 21.7501 12 21.7501C15.4408 21.7501 17.5759 21.1703 18.873 19.8732C20.1702 18.5761 20.75 16.4409 20.75 13.0001ZM21.75 13.0001C21.75 16.4963 21.1737 18.9866 19.5801 20.5802C17.9864 22.1738 15.4962 22.7501 12 22.7501C8.50377 22.7501 6.01357 22.1738 4.41992 20.5802C2.82628 18.9866 2.25 16.4963 2.25 13.0001C2.25 9.5039 2.82628 7.01368 4.41992 5.42004C6.01357 3.8264 8.50377 3.25012 12 3.25012C15.4962 3.25012 17.9864 3.8264 19.5801 5.42004C21.1737 7.01368 21.75 9.5039 21.75 13.0001Z" fill="#A2B5BE"/>
<path d="M9.2463 10.2396C9.44156 10.0443 9.75807 10.0443 9.95333 10.2396L11.9973 12.2835L14.0402 10.2415C14.2355 10.0463 14.552 10.0463 14.7473 10.2415C14.9425 10.4368 14.9425 10.7533 14.7473 10.9485L12.7043 12.9905L14.7531 15.0394C14.9484 15.2346 14.9484 15.5511 14.7531 15.7464C14.5579 15.9416 14.2414 15.9416 14.0461 15.7464L11.9973 13.6976L9.95528 15.7405C9.76 15.9356 9.44343 15.9357 9.24825 15.7405C9.05307 15.5453 9.05323 15.2288 9.24825 15.0335L11.2902 12.9905L9.2463 10.9466C9.05104 10.7513 9.05104 10.4348 9.2463 10.2396Z" fill="#253035"/>
</svg>
