<svg width="24" height="24" viewBox="0 0 24 24" fill="none" xmlns="http://www.w3.org/2000/svg">
<path d="M6.28033 5.46967C5.98744 5.17678 5.51256 5.17678 5.21967 5.46967C4.92678 5.76256 4.92678 6.23744 5.21967 6.53033L10.6893 12L5.21967 17.4697C4.92678 17.7626 4.92678 18.2374 5.21967 18.5303C5.51256 18.8232 5.98744 18.8232 6.28033 18.5303L11.75 13.0607L17.2197 18.5303C17.5126 18.8232 17.9874 18.8232 18.2803 18.5303C18.5732 18.2374 18.5732 17.7626 18.2803 17.4697L12.8107 12L18.2803 6.53033C18.5732 6.23744 18.5732 5.76256 18.2803 5.46967C17.9874 5.17678 17.5126 5.17678 17.2197 5.46967L11.75 10.9393L6.28033 5.46967Z" fill="#253035"/>
</svg>
