<svg width="24" height="24" viewBox="0 0 24 24" fill="none" xmlns="http://www.w3.org/2000/svg">
<path d="M10.967 2.50586C12.4662 2.50694 13.756 3.05194 14.8117 4.10547C16.8571 6.14697 18.901 8.19085 20.9416 10.2363C22.2973 11.5946 22.361 13.6759 21.091 15.0889L20.9641 15.2236C19.2281 16.9761 17.4839 18.7203 15.7326 20.4561C14.3211 21.8551 12.1475 21.8331 10.7443 20.4336C9.71251 19.4047 8.68067 18.3751 7.6496 17.3447L4.56073 14.249C3.74168 13.425 3.23104 12.4299 3.07538 11.2783L3.04902 11.0459C2.9624 10.1112 3.01199 6.7074 3.01386 5.96485C3.01757 4.31065 4.25884 2.83735 5.88495 2.55664V2.55567C5.96118 2.54235 6.08271 2.53637 6.19257 2.53223C6.31866 2.52748 6.48185 2.52369 6.67011 2.52051C7.0472 2.51414 7.53591 2.51001 8.05683 2.50782C9.09917 2.50343 10.2784 2.50538 10.967 2.50586ZM8.06073 3.5127C7.54097 3.51488 7.05731 3.51912 6.68671 3.52539C6.50129 3.52853 6.34652 3.53177 6.23066 3.53614C6.1068 3.5408 6.05899 3.54609 6.0578 3.5459H6.05683C4.9131 3.74277 4.02116 4.79933 4.01874 5.96778C4.01671 6.77224 3.96829 10.0817 4.04902 10.9531C4.14196 11.9616 4.5576 12.8207 5.27362 13.541C7.32757 15.6067 9.39057 17.6637 11.4543 19.7217C12.4719 20.7367 14.0116 20.7461 15.0246 19.7422C16.7739 18.0084 18.5166 16.2667 20.2502 14.5166L20.4269 14.3203C21.2501 13.3119 21.1812 11.8994 20.2297 10.9463C18.1897 8.9014 16.1467 6.8584 14.1017 4.81739C13.2312 3.94855 12.1958 3.51171 10.967 3.51074C10.2769 3.51026 9.10011 3.50833 8.06073 3.5127Z" fill="#A2B5BE"/>
<path d="M11.8965 15.1631V8.625C11.8965 8.34754 12.121 8.12217 12.3985 8.12207C12.676 8.12207 12.9014 8.34748 12.9014 8.625V15.1631C12.9014 15.4406 12.676 15.666 12.3985 15.666C12.121 15.6659 11.8965 15.4405 11.8965 15.1631ZM9.21486 11.165C9.61434 11.165 9.94315 11.4873 9.94338 11.8926C9.94338 12.2941 9.61736 12.6201 9.21584 12.6201C8.81566 12.6199 8.49116 12.2963 8.48928 11.8965C8.48632 11.4914 8.81449 11.1652 9.21486 11.165ZM14.8506 11.8965C14.8477 11.4914 15.1768 11.1652 15.5772 11.165C15.9766 11.165 16.3055 11.4873 16.3057 11.8926C16.3057 12.2941 15.9797 12.6201 15.5781 12.6201C15.178 12.6199 14.8525 12.2963 14.8506 11.8965Z" fill="#253035"/>
</svg>
