<svg width="24" height="24" viewBox="0 0 24 24" fill="none" xmlns="http://www.w3.org/2000/svg">
<path fill-rule="evenodd" clip-rule="evenodd" d="M10.9669 3.00894C12.331 3.00992 13.4939 3.49984 14.4571 4.46109C16.5023 6.50236 18.5457 8.54577 20.586 10.591C21.7933 11.8003 21.81 13.657 20.6075 14.8703C18.8727 16.6216 17.1283 18.364 15.378 20.0988C14.1658 21.3001 12.3101 21.2845 11.0997 20.0773C9.03605 18.0194 6.972 15.9613 4.9171 13.8947C4.12232 13.095 3.65303 12.1287 3.54893 10.9992C3.46533 10.0958 3.51376 6.74124 3.51573 5.96695C3.51865 4.55522 4.58633 3.28936 5.97178 3.05094C6.25587 3.00132 9.5881 3.00797 10.9669 3.00894ZM12.3985 8.12222C12.1212 8.1224 11.8966 8.34774 11.8966 8.62515V15.1632C11.8967 15.4406 12.1212 15.666 12.3985 15.6662C12.676 15.6662 12.9014 15.4407 12.9015 15.1632V8.62515C12.9015 8.34763 12.6761 8.12222 12.3985 8.12222ZM9.21495 11.1652C8.81464 11.1655 8.4864 11.4916 8.48936 11.8966C8.49132 12.2963 8.81586 12.62 9.21592 12.6203C9.6174 12.6203 9.94338 12.2942 9.94346 11.8927C9.94324 11.4875 9.61442 11.1652 9.21495 11.1652ZM15.5773 11.1652C15.1769 11.1655 14.8477 11.4916 14.8507 11.8966C14.8526 12.2963 15.1782 12.62 15.5782 12.6203C15.9797 12.6203 16.3057 12.2942 16.3058 11.8927C16.3055 11.4875 15.9767 11.1652 15.5773 11.1652Z" fill="#253035"/>
</svg>
