<svg width="24" height="24" viewBox="0 0 24 24" fill="none" xmlns="http://www.w3.org/2000/svg">
<path fill-rule="evenodd" clip-rule="evenodd" d="M7.66298 3.01099H5.13498C3.68298 3.01099 2.50098 4.19299 2.50098 5.64499V8.17299C2.50098 9.62599 3.68298 10.807 5.13498 10.807H7.66298C9.11498 10.807 10.297 9.62599 10.297 8.17299V5.64499C10.297 4.19299 9.11498 3.01099 7.66298 3.01099Z" fill="#253035"/>
<path fill-rule="evenodd" clip-rule="evenodd" d="M15.2147 10.5594C15.7127 11.0574 16.3737 11.3314 17.0777 11.3314C17.7817 11.3314 18.4437 11.0574 18.9417 10.5594L20.7287 8.77143C21.7547 7.74543 21.7557 6.07443 20.7287 5.04643L18.9417 3.25943C17.9447 2.26443 16.2097 2.26443 15.2147 3.25943L13.4277 5.04643C12.4017 6.07443 12.4017 7.74543 13.4287 8.77143L15.2147 10.5594Z" fill="#253035"/>
<path fill-rule="evenodd" clip-rule="evenodd" d="M18.3427 13.6909H15.8147C14.3627 13.6909 13.1807 14.8729 13.1807 16.3249V18.8529C13.1807 20.3059 14.3627 21.4869 15.8147 21.4869H18.3427C19.7957 21.4869 20.9767 20.3059 20.9767 18.8529V16.3249C20.9767 14.8729 19.7957 13.6909 18.3427 13.6909Z" fill="#253035"/>
<path fill-rule="evenodd" clip-rule="evenodd" d="M7.66298 13.6909H5.13498C3.68298 13.6909 2.50098 14.8729 2.50098 16.3249V18.8529C2.50098 20.3059 3.68298 21.4869 5.13498 21.4869H7.66298C9.11498 21.4869 10.297 20.3059 10.297 18.8529V16.3249C10.297 14.8729 9.11498 13.6909 7.66298 13.6909Z" fill="#253035"/>
</svg>
