<svg width="24" height="24" viewBox="0 0 24 24" fill="none" xmlns="http://www.w3.org/2000/svg">
<path d="M20.4756 16.3369C20.4754 15.4345 19.7441 14.7031 18.8418 14.7031H16.3135C15.4112 14.7032 14.6798 15.4345 14.6797 16.3369V18.8652C14.6797 19.7677 15.4111 20.4989 16.3135 20.499H18.8418C19.7442 20.499 20.4756 19.7678 20.4756 18.8652V16.3369ZM9.7959 5.65723C9.79576 4.75481 9.06456 4.02344 8.16211 4.02344H5.63379C4.73145 4.02358 4.00014 4.7549 4 5.65723V8.18555C4 9.08801 4.73138 9.81919 5.63379 9.81934H8.16211C9.06463 9.81934 9.7959 9.0881 9.7959 8.18555V5.65723ZM21.4756 18.8652C21.4756 20.3201 20.2966 21.499 18.8418 21.499H16.3135C14.8588 21.4989 13.6797 20.32 13.6797 18.8652V16.3369C13.6798 14.8823 14.8589 13.7032 16.3135 13.7031H18.8418C20.2965 13.7031 21.4754 14.8822 21.4756 16.3369V18.8652ZM10.7959 8.18555C10.7959 9.64035 9.61695 10.8193 8.16211 10.8193H5.63379C4.17908 10.8192 3 9.64027 3 8.18555V5.65723C3.00014 4.20261 4.17917 3.02358 5.63379 3.02344H8.16211C9.61686 3.02344 10.7958 4.20254 10.7959 5.65723V8.18555Z" fill="#A2B5BE"/>
<path d="M9.7959 16.3369C9.79574 15.4345 9.06453 14.7031 8.16211 14.7031H5.63379C4.73148 14.7033 4.00015 15.4346 4 16.3369V18.8652C4 19.7677 4.73138 20.4989 5.63379 20.499H8.16211C9.06463 20.499 9.7959 19.7678 9.7959 18.8652V16.3369ZM15.7148 3.27148C16.7432 2.24305 18.4113 2.24357 19.4404 3.27148L21.2275 5.05859H21.2285C22.2564 6.08771 22.256 7.75578 21.2275 8.78418L19.4404 10.5713C18.4757 11.536 16.9495 11.5972 15.915 10.7529L15.7148 10.5713L13.9277 8.78418C12.8994 7.7558 12.899 6.08771 13.9268 5.05859H13.9277L15.7148 3.27148ZM18.7334 3.97851C18.0945 3.34048 17.0594 3.34091 16.4219 3.97851L14.6348 5.76562C13.9967 6.40454 13.9971 7.4395 14.6348 8.07714L16.4219 9.86425V9.86523C17.0594 10.5036 18.0945 10.5031 18.7334 9.86425L20.5205 8.07714C21.1184 7.47931 21.1564 6.53214 20.6328 5.88964L20.5205 5.76562L18.7334 3.97851ZM10.7959 18.8652C10.7959 20.3201 9.61695 21.499 8.16211 21.499H5.63379C4.17907 21.4989 3 20.32 3 18.8652V16.3369C3.00015 14.8823 4.17917 13.7033 5.63379 13.7031H8.16211C9.61686 13.7031 10.7957 14.8822 10.7959 16.3369V18.8652Z" fill="#253035"/>
</svg>
