<svg width="24" height="24" viewBox="0 0 24 24" fill="none" xmlns="http://www.w3.org/2000/svg">
<path d="M16.71 18.0995C16.8403 17.8563 17.1433 17.7652 17.3867 17.8954C17.6301 18.0257 17.722 18.3287 17.5918 18.5722C16.7184 20.2047 15.7991 20.9829 14.7197 21.3027C14.1988 21.457 13.6683 21.4959 13.1416 21.4999C12.8782 21.5019 12.6085 21.4952 12.3389 21.4882C12.0666 21.4812 11.793 21.4736 11.5098 21.4736C11.2336 21.4736 11.0098 21.2497 11.0098 20.9736C11.0098 20.6974 11.2336 20.4736 11.5098 20.4736C11.808 20.4736 12.0947 20.4813 12.3643 20.4882C12.6364 20.4952 12.8906 20.5018 13.1348 20.4999C13.6232 20.4962 14.0455 20.4592 14.4355 20.3437C15.1785 20.1235 15.9167 19.5823 16.71 18.0995Z" fill="#A2B5BE"/>
<path d="M18.8514 10.3525C18.8513 6.56851 15.7838 3.5 11.9988 3.5C8.21404 3.50004 5.1464 6.56854 5.14631 10.3525V11.3516C6.1645 11.0193 7.29466 11.6287 7.55451 12.7129L8.46174 16.5078C8.74804 17.7016 7.82734 18.8875 6.57307 18.834H6.57209C6.36873 18.8251 6.16009 18.7998 5.94904 18.7578V18.7588C4.51047 18.4758 3.3175 17.3584 2.95197 15.9355C2.5503 14.3752 3.10147 12.9024 4.14631 11.9756V10.3525C4.1464 6.01634 7.66166 2.50004 11.9988 2.5C16.3362 2.5 19.8513 6.01631 19.8514 10.3525V11.9746C20.897 12.9013 21.4486 14.3746 21.0467 15.9355C20.6812 17.3584 19.4883 18.4758 18.0496 18.7588L18.0487 18.7578C17.8379 18.7997 17.6296 18.8251 17.4266 18.834H17.4256C16.1714 18.8874 15.2507 17.7015 15.5369 16.5078L16.4442 12.7129C16.7039 11.6291 17.8334 11.0201 18.8514 11.3516V10.3525ZM6.58186 12.9453C6.44274 12.3658 5.78712 12.0856 5.28596 12.376C4.2066 13.001 3.56062 14.2916 3.91975 15.6865H3.92072C4.18956 16.733 5.07854 17.5681 6.1424 17.7773H6.14338C6.30346 17.8092 6.46188 17.8282 6.61604 17.835C7.17893 17.8588 7.62785 17.316 7.49006 16.7412H7.48908L6.58186 12.9453ZM18.7127 12.376C18.2115 12.0858 17.5559 12.3659 17.4168 12.9453L16.5096 16.7412C16.3717 17.316 16.8198 17.8577 17.3826 17.834C17.5367 17.8273 17.6953 17.8092 17.8553 17.7773H17.8572C18.921 17.568 19.8101 16.7329 20.0789 15.6865C20.4157 14.3787 19.869 13.1628 18.91 12.501L18.7127 12.376Z" fill="#253035"/>
</svg>
