<svg width="24" height="24" viewBox="0 0 24 24" fill="none" xmlns="http://www.w3.org/2000/svg">
<path d="M15.144 15.6354C15.42 15.6357 15.644 15.8594 15.644 16.1354C15.644 16.4114 15.42 16.6352 15.144 16.6354H9.32861C9.05247 16.6354 8.82861 16.4115 8.82861 16.1354C8.82861 15.8593 9.05247 15.6354 9.32861 15.6354H15.144Z" fill="#A2B5BE"/>
<path d="M21.3218 13.7129C21.3218 10.8784 21.1588 9.70365 20.6685 8.84766C20.4237 8.42032 20.0816 8.04781 19.5708 7.57617C19.3152 7.34018 19.0265 7.08686 18.6909 6.79102C18.3619 6.50097 17.9931 6.17328 17.5825 5.79297C16.8201 5.17831 15.9292 4.36546 14.9487 3.67285C13.9592 2.9738 13.0108 2.5 12.2075 2.5C11.4057 2.50014 10.4701 2.97479 9.49365 3.6748C8.52107 4.3721 7.65207 5.17816 6.88916 5.79297C6.47883 6.17305 6.11067 6.5011 5.78174 6.79102C5.44611 7.08684 5.1575 7.34019 4.90186 7.57617C4.39099 8.04774 4.04911 8.4204 3.8042 8.84766C3.31366 9.70363 3.14991 10.8785 3.1499 13.7129C3.1499 15.774 3.27278 17.276 3.55908 18.3779C3.84202 19.4667 4.27461 20.127 4.87451 20.5576C5.49039 20.9997 6.34611 21.2467 7.57178 21.373C8.79663 21.4993 10.3197 21.5 12.2358 21.5C14.152 21.5 15.6751 21.4993 16.8999 21.373C18.1256 21.2467 18.9813 20.9997 19.5972 20.5576C20.1971 20.127 20.6297 19.4668 20.9126 18.3779C21.1989 17.276 21.3218 15.7741 21.3218 13.7129ZM22.3218 13.7129C22.3218 15.7951 22.1997 17.4011 21.8804 18.6299C21.5576 19.8717 21.0233 20.7649 20.1802 21.3701C19.353 21.9638 18.2891 22.2355 17.0024 22.3682C15.7149 22.5009 14.133 22.5 12.2358 22.5C10.3386 22.5 8.75674 22.5009 7.46924 22.3682C6.18256 22.2355 5.11874 21.9639 4.2915 21.3701C3.44835 20.7649 2.91403 19.8717 2.59131 18.6299C2.27199 17.4011 2.1499 15.7951 2.1499 13.7129C2.14991 10.9165 2.29335 9.47208 2.93604 8.35059C3.25774 7.78922 3.68947 7.33345 4.22314 6.84082C4.48957 6.59489 4.79047 6.33199 5.12061 6.04102C5.45285 5.74818 5.82062 5.4217 6.229 5.04297L6.25537 5.02051C6.93669 4.47206 7.91411 3.57679 8.91064 2.8623C9.90613 2.14859 11.0666 1.50014 12.2075 1.5C13.3462 1.5 14.5177 2.14425 15.5259 2.85645C16.5395 3.57256 17.5226 4.46103 18.2173 5.02051C18.2262 5.02771 18.2352 5.03517 18.2437 5.04297C18.652 5.42171 19.0198 5.74817 19.3521 6.04102C19.6822 6.33201 19.9831 6.59487 20.2495 6.84082C20.783 7.33338 21.2141 7.78934 21.5356 8.35059C22.1781 9.47207 22.3218 10.9165 22.3218 13.7129Z" fill="#253035"/>
</svg>
