<svg width="24" height="24" viewBox="0 0 24 24" fill="none" xmlns="http://www.w3.org/2000/svg">
<path fill-rule="evenodd" clip-rule="evenodd" d="M4.89179 12.5901C4.80646 12.5901 4.72183 12.5863 4.63776 12.5795C4.45416 12.5648 4.28979 12.7035 4.28979 12.8877V17.8521C4.29379 18.6891 4.62279 19.4731 5.21779 20.0601C5.80479 20.6411 6.58179 20.9601 7.40279 20.9601H8.48679C8.65248 20.9601 8.78679 20.8258 8.78679 20.6601V17.6701C8.78679 15.8941 10.2278 14.4501 11.9998 14.4501C13.7708 14.4501 15.2128 15.8941 15.2128 17.6701V20.6601C15.2128 20.8258 15.3471 20.9601 15.5128 20.9601H16.5688C17.3678 20.9661 18.1888 20.6451 18.7818 20.0591C19.3758 19.4721 19.7058 18.6881 19.7098 17.8501V12.8877C19.7098 12.7035 19.5454 12.5647 19.3618 12.5795C19.2776 12.5862 19.1929 12.5901 19.1078 12.5901H4.89179Z" fill="#253035"/>
<path fill-rule="evenodd" clip-rule="evenodd" d="M11.9999 15.9502C11.0559 15.9502 10.2869 16.7212 10.2869 17.6702V20.6602C10.2869 20.8259 10.4212 20.9602 10.5869 20.9602H13.4129C13.5786 20.9602 13.7129 20.8259 13.7129 20.6602V17.6702C13.7129 16.7212 12.9439 15.9502 11.9999 15.9502Z" fill="#253035"/>
<path fill-rule="evenodd" clip-rule="evenodd" d="M6.84592 11.0749C6.99445 11.0736 7.11918 10.9638 7.13984 10.8167L8.09988 3.98236C8.12524 3.80185 7.98508 3.64062 7.8028 3.64062H5.78589C4.78389 3.64062 3.90689 4.25463 3.54589 5.21763L2.65789 7.80464C2.37489 8.55763 2.47889 9.40064 2.93589 10.0606C3.38989 10.7156 4.10289 11.0906 4.89189 11.0906C5.06014 11.0906 6.29921 11.0798 6.84592 11.0749Z" fill="#253035"/>
<path fill-rule="evenodd" clip-rule="evenodd" d="M15.0385 11.0906C15.2208 11.0906 15.361 10.9294 15.336 10.7488C15.0206 8.46502 14.7529 6.16569 14.382 3.89139C14.3583 3.74665 14.2331 3.64062 14.0865 3.64062H9.91958C9.76994 3.64062 9.64353 3.7484 9.62281 3.8966C9.48289 4.8974 8.96567 8.59634 8.66334 10.7505C8.63801 10.9311 8.7784 11.0906 8.96068 11.0906H15.0385Z" fill="#253035"/>
<path fill-rule="evenodd" clip-rule="evenodd" d="M21.3466 7.81763L20.4486 5.20563C20.1006 4.26963 19.2026 3.64062 18.2136 3.64062H16.1967C16.0144 3.64062 15.8742 3.80184 15.8992 3.98241C16.2146 6.26623 16.4823 8.56561 16.8532 10.8399C16.8768 10.9846 17.0021 11.0906 17.1487 11.0906H19.1076C19.8966 11.0906 20.6096 10.7146 21.0626 10.0606C21.5196 9.40064 21.6246 8.55762 21.3466 7.81763Z" fill="#253035"/>
</svg>
