<svg width="24" height="24" viewBox="0 0 24 24" fill="none" xmlns="http://www.w3.org/2000/svg">
<path d="M13.9639 20.1592V16.6777C13.9636 15.5942 13.0841 14.7159 12 14.7158C10.9161 14.7158 10.0374 15.5939 10.0371 16.6777V20.1592C10.0371 20.4353 9.81328 20.6592 9.53714 20.6592C9.26105 20.6591 9.03714 20.4353 9.03714 20.1592V16.6777C9.03739 15.0416 10.3638 13.7158 12 13.7158C13.6359 13.7159 14.9636 15.0414 14.9639 16.6777V20.1592C14.9639 20.4352 14.7398 20.6589 14.4639 20.6592C14.1878 20.6592 13.9639 20.4353 13.9639 20.1592ZM9.50979 3.3457C9.78305 3.3842 9.97382 3.63686 9.93558 3.91015L9.02933 10.3652C8.99084 10.6385 8.73818 10.8293 8.46487 10.791C8.19141 10.7526 8.00071 10.499 8.03909 10.2256L8.94534 3.77148C8.98372 3.49802 9.23633 3.30732 9.50979 3.3457ZM14.5869 3.3457C14.8603 3.30748 15.113 3.49811 15.1514 3.77148L16.0567 10.2256C16.095 10.4989 15.9051 10.7525 15.6319 10.791C15.3585 10.8294 15.1049 10.6386 15.0664 10.3652L14.1612 3.91015C14.1229 3.63674 14.3135 3.38407 14.5869 3.3457Z" fill="#A2B5BE"/>
<path d="M18.2138 3.33981C19.1488 3.33981 19.9859 3.89118 20.3759 4.73239L20.4481 4.90427L20.453 4.91696L21.3427 7.50583L21.3925 7.65427C21.7996 8.99006 21.0033 10.382 19.7099 10.7177V17.5547C19.7004 19.2788 18.2956 20.6672 16.5722 20.6591L7.42568 20.6601V20.6591C5.70203 20.666 4.29804 19.276 4.28994 17.5517V10.7177C2.95288 10.3705 2.14674 8.89473 2.6542 7.51852H2.65322L3.54677 4.91696L3.55166 4.90329C3.90346 3.96691 4.78878 3.33988 5.78603 3.33981H18.2138ZM5.28994 17.5468L5.30166 17.7646C5.41558 18.8345 6.32435 19.6653 7.42373 19.6601H16.5751C17.747 19.6664 18.702 18.7227 18.7099 17.5517V10.7949H5.28994V17.5468ZM5.78603 4.33981C5.21749 4.33988 4.69953 4.69608 4.48916 5.24802L3.59853 7.84372L3.53994 8.03415C3.32647 8.92412 3.99088 9.79489 4.89248 9.79489H19.1083C20.0692 9.79476 20.7605 8.80481 20.4061 7.85641L20.4013 7.84372L19.5067 5.24216H19.5058C19.2949 4.69417 18.7804 4.33981 18.2138 4.33981H5.78603Z" fill="#253035"/>
</svg>
