<svg width="24" height="24" viewBox="0 0 24 24" fill="none" xmlns="http://www.w3.org/2000/svg">
<path d="M3.9668 17.5977C3.96693 16.5553 4.76012 15.7249 5.80664 15.1377C6.04729 15.0027 6.35203 15.0887 6.4873 15.3291C6.62242 15.5699 6.53673 15.8756 6.2959 16.0107C5.34863 16.5423 4.96693 17.1109 4.9668 17.5977C4.9668 18.0234 5.25883 18.5118 5.9668 18.9834L6.2959 19.1846L6.29883 19.1865C6.54033 19.324 6.8066 19.4552 7.09766 19.5752L7.39648 19.6914L7.40137 19.6924C8.74334 20.1903 10.5289 20.5009 12.5039 20.501C14.48 20.501 16.2664 20.1904 17.6084 19.6924L17.6123 19.6914C18.0253 19.5418 18.3783 19.3771 18.6924 19.1904L18.7031 19.1846C19.6512 18.6527 20.0332 18.0843 20.0332 17.5977C20.0331 17.1109 19.6507 16.5424 18.7031 16.0107C18.4623 15.8756 18.3766 15.5699 18.5117 15.3291C18.6469 15.0886 18.9517 15.0029 19.1924 15.1377C20.2389 15.7249 21.0331 16.5552 21.0332 17.5977C21.0332 18.637 20.2434 19.4632 19.2021 20.0498L19.2031 20.0508C18.8273 20.2741 18.4162 20.4626 17.9551 20.6299L17.9561 20.6309C16.4825 21.1776 14.5749 21.501 12.5039 21.501C10.4337 21.5009 8.52626 21.1776 7.05273 20.6309C6.58838 20.4627 6.17378 20.2645 5.80664 20.0557C4.76039 19.4687 3.9668 18.6403 3.9668 17.5977Z" fill="#A2B5BE"/>
<path d="M17.6738 8.67676C17.6737 5.81734 15.3546 3.5 12.4961 3.5C9.63761 3.50016 7.31949 5.81744 7.31934 8.67676C7.31934 10.5133 8.4151 12.3717 9.69141 13.8086C10.3221 14.5187 10.9776 15.1042 11.5234 15.5078C11.7967 15.7099 12.0349 15.861 12.2227 15.959C12.4346 16.0696 12.5141 16.0762 12.4961 16.0762C12.4793 16.0761 12.5589 16.0689 12.7695 15.959C12.9573 15.861 13.1962 15.71 13.4697 15.5078C14.0155 15.1042 14.6711 14.5186 15.3018 13.8086C16.578 12.3717 17.6738 10.5132 17.6738 8.67676ZM18.6738 8.67676C18.6738 10.8789 17.3848 12.9706 16.0498 14.4736C15.3751 15.2333 14.6681 15.8651 14.0645 16.3115C13.7631 16.5343 13.4793 16.7168 13.2324 16.8457C13.0097 16.9619 12.7412 17.0762 12.4961 17.0762C12.251 17.0761 11.9824 16.9619 11.7598 16.8457C11.5129 16.7168 11.2299 16.5342 10.9287 16.3115C10.3251 15.8652 9.61815 15.2333 8.94336 14.4736C7.60832 12.9706 6.31934 10.8789 6.31934 8.67676C6.31949 5.26504 9.08544 2.50016 12.4961 2.5C15.9068 2.5 18.6737 5.26494 18.6738 8.67676Z" fill="#253035"/>
<path d="M13.8907 8.63086C13.8907 7.86219 13.2667 7.23843 12.4981 7.23828C11.7293 7.23828 11.1055 7.86206 11.1055 8.63086C11.1056 9.39955 11.7294 10.0234 12.4981 10.0234C13.2666 10.0233 13.8905 9.39942 13.8907 8.63086ZM14.8907 8.63086C14.8905 9.95174 13.8189 11.0233 12.4981 11.0234C11.1771 11.0234 10.1056 9.95179 10.1055 8.63086C10.1055 7.3098 11.177 6.23828 12.4981 6.23828C13.819 6.23843 14.8907 7.30986 14.8907 8.63086Z" fill="#253035"/>
</svg>
