<svg width="24" height="24" viewBox="0 0 24 24" fill="none" xmlns="http://www.w3.org/2000/svg">
<path d="M16.5071 17.2305C16.7021 17.0354 17.0187 17.0356 17.2141 17.2305L20.6389 20.6465C20.8341 20.8415 20.8347 21.1581 20.6399 21.3535C20.445 21.5489 20.1284 21.5491 19.9328 21.3545L16.5071 17.9375C16.312 17.7425 16.3122 17.4258 16.5071 17.2305Z" fill="#A2B5BE"/>
<path fill-rule="evenodd" clip-rule="evenodd" d="M11.1328 3C15.7816 3.00022 19.5498 6.76907 19.5498 11.418C19.5496 16.0667 15.7815 19.8357 11.1328 19.8359C6.48388 19.8359 2.7151 16.0669 2.71484 11.418C2.71484 6.76894 6.48372 3 11.1328 3ZM12.9775 6.26172C12.7135 6.18153 12.434 6.33086 12.3535 6.59473C12.2732 6.85887 12.4224 7.13834 12.6865 7.21875C13.928 7.59629 14.9103 8.56324 15.3086 9.79395C15.3937 10.0565 15.6758 10.2002 15.9385 10.1152C16.2007 10.03 16.3445 9.74876 16.2598 9.48633C15.7608 7.94438 14.5322 6.73451 12.9775 6.26172Z" fill="#253035"/>
</svg>
