<svg width="24" height="24" viewBox="0 0 24 24" fill="none" xmlns="http://www.w3.org/2000/svg">
<path d="M16.5066 17.231C16.7016 17.0357 17.0182 17.035 17.2136 17.23L20.6384 20.646C20.8338 20.8409 20.8341 21.1575 20.6394 21.353C20.4445 21.5485 20.1279 21.5489 19.9324 21.354L16.5066 17.938C16.3113 17.743 16.3117 17.4264 16.5066 17.231ZM12.9773 6.26221C14.5321 6.73505 15.7607 7.94466 16.2595 9.48682C16.3442 9.74929 16.2006 10.0306 15.9383 10.1157C15.6756 10.2007 15.3935 10.057 15.3084 9.79444C14.9102 8.56352 13.9279 7.59682 12.6863 7.21924C12.4221 7.1389 12.273 6.85941 12.3533 6.59522C12.4336 6.33103 12.7131 6.18187 12.9773 6.26221Z" fill="#A2B5BE"/>
<path d="M19.0498 11.418C19.0498 7.04522 15.5055 3.50022 11.1328 3.5C6.75986 3.5 3.21484 7.04508 3.21484 11.418C3.2151 15.7908 6.76009 19.3359 11.1328 19.3359C15.5053 19.3357 19.0496 15.7906 19.0498 11.418ZM20.0498 11.418C20.0496 16.3428 16.0577 20.3357 11.1328 20.3359C6.20766 20.3359 2.2151 16.3429 2.21484 11.418C2.21484 6.49279 6.20758 2.5 11.1328 2.5C16.0578 2.50022 20.0498 6.49293 20.0498 11.418Z" fill="#253035"/>
</svg>
