<svg width="24" height="24" viewBox="0 0 24 24" fill="none" xmlns="http://www.w3.org/2000/svg">
<path d="M18.989 17.6611C18.989 15.7243 17.0513 14 14.4519 14H9.54762C6.94828 14 5.01051 15.7243 5.01051 17.6611C5.0105 18.3284 4.96129 18.8614 5.07399 19.3975C5.13062 19.6675 4.95819 19.9323 4.68825 19.9893C4.41801 20.0461 4.15229 19.8728 4.09548 19.6025C3.95446 18.9314 4.0105 18.2131 4.01051 17.6611C4.01051 15.0018 6.58328 13 9.54762 13H14.4519C17.4163 13 19.989 15.0018 19.989 17.6611C19.989 18.2132 20.045 18.9314 19.9041 19.6025C19.8473 19.8728 19.5815 20.046 19.3113 19.9893C19.0414 19.9323 18.8689 19.6675 18.9256 19.3975C19.0382 18.8614 18.989 18.3284 18.989 17.6611Z" fill="#A2B5BE"/>
<path d="M16 7.5C16 5.29086 14.2091 3.5 12 3.5C9.79086 3.5 8 5.29086 8 7.5C8 9.70914 9.79086 11.5 12 11.5C14.2091 11.5 16 9.70914 16 7.5ZM17 7.5C17 10.2614 14.7614 12.5 12 12.5C9.23858 12.5 7 10.2614 7 7.5C7 4.73858 9.23858 2.5 12 2.5C14.7614 2.5 17 4.73858 17 7.5Z" fill="#253035"/>
</svg>
