<svg width="24" height="24" viewBox="0 0 24 24" fill="none" xmlns="http://www.w3.org/2000/svg">
<path d="M17.7227 11.5529C17.9985 11.553 18.2225 11.777 18.2227 12.0529C18.2227 12.3289 17.9987 12.5527 17.7227 12.5529H17.4248C17.1488 12.5527 16.9248 12.3289 16.9248 12.0529C16.925 11.777 17.1489 11.553 17.4248 11.5529H17.7227ZM11.666 7.64368C11.9422 7.64368 12.166 7.86753 12.166 8.14368C12.166 8.41982 11.9422 8.64368 11.666 8.64368H7.60645C7.3303 8.64368 7.10645 8.41982 7.10645 8.14368C7.10645 7.86753 7.3303 7.64368 7.60645 7.64368H11.666Z" fill="#A2B5BE"/>
<path d="M14.2217 12.1116C14.2218 10.4202 15.5929 9.04911 17.2842 9.04907H20.5352C20.2457 7.66885 19.7255 6.66949 18.9424 5.95044C17.637 4.75194 15.4815 4.21411 12.0146 4.21411C8.54737 4.21413 6.39137 4.75195 5.08594 5.95044C3.79362 7.13718 3.21387 9.08712 3.21387 12.2532C3.21387 15.419 3.79429 17.3691 5.08691 18.5559C6.39238 19.7543 8.54768 20.2922 12.0146 20.2922C15.4815 20.2922 17.637 19.7545 18.9424 18.5559C19.7779 17.7887 20.314 16.7023 20.5898 15.175H17.2842C15.5927 15.175 14.2217 13.8038 14.2217 12.1116ZM21.8145 12.2532C21.8145 15.4909 21.2326 17.8105 19.6191 19.2922C18.0183 20.7622 15.523 21.2922 12.0146 21.2922C8.50589 21.2922 6.0111 20.7621 4.41016 19.2922C2.7964 17.8105 2.21387 15.4911 2.21387 12.2532C2.21387 9.01478 2.79632 6.69476 4.41016 5.21313C6.01112 3.74348 8.50609 3.21413 12.0146 3.21411C15.523 3.21411 18.0183 3.74329 19.6191 5.21313C20.7131 6.21754 21.3313 7.6077 21.6172 9.40747C21.6305 9.45254 21.6406 9.49968 21.6406 9.54907C21.6406 9.55038 21.6397 9.55168 21.6396 9.55298C21.7599 10.3697 21.8145 11.2689 21.8145 12.2532ZM15.2217 12.1116C15.2217 13.2517 16.1453 14.175 17.2842 14.175H20.7266C20.7844 13.5903 20.8145 12.9514 20.8145 12.2532C20.8145 11.4409 20.7758 10.7089 20.6973 10.0491H17.2842C16.1452 10.0491 15.2218 10.9725 15.2217 12.1116Z" fill="#253035"/>
</svg>
